<svg viewBox="0 0 638.1 246.36" xmlns="http://www.w3.org/2000/svg"><path d="m72 32.93c5.09 0 7.97.19 11.52.58v-11.52c-3.07.38-6.43.58-11.62.58h-24.38c.1-3.26.19-5.38.19-9.31.1-6.34.19-7.58.67-10.85h-12.19c.48 2.69.67 5.47.67 10.08 0 3.65-.1 5.86-.29 10.08h-22.65c-5.38 0-8.74-.19-11.62-.58v11.52c3.07-.48 5.76-.58 11.62-.58h21.7c-1.63 11.04-4.7 18.43-10.46 25.44-5.96 7.2-13.93 12.67-25.16 17.18 2.98 3.26 4.9 6.14 6.43 9.7 9.12-4.03 15.74-8.35 21.98-14.59 7.39-7.2 12.29-15.26 15.07-24.67 6.91 17.57 18.43 29.86 36.67 39.17 2.3-4.9 3.55-6.91 6.72-10.56-10.94-4.51-18.62-9.7-25.44-17.57-6.14-6.91-11.04-15.84-13.25-24.1h23.81zm68.54-30.82c.38 2.5.48 4.22.48 7.78 0 22.08-4.99 37.15-16.9 50.78-5.76 6.72-10.66 10.37-20.16 15.46 3.26 2.88 5.09 5.18 7.2 9.5 6.43-3.94 9.41-6.24 14.3-10.66 6.43-5.95 10.46-10.94 14.11-17.66 3.84-7.01 5.47-11.23 7.3-18.62 3.07 10.56 6.53 17.76 12.19 25.25 6.53 8.54 12.29 13.92 23.42 21.7 2.11-4.42 3.65-6.62 7.1-10.27-5.95-3.17-8.74-5.18-14.21-9.89-6.53-5.76-10.66-10.66-14.5-17.47-6.62-11.81-9.02-21.41-9.02-36.38 0-3.46.29-7.97.58-9.5h-11.9zm116.74 19.1c5.28.86 7.97 1.82 11.33 4.13 5.95 4.22 9.31 10.94 9.31 18.91 0 15.55-8.93 24.86-28.7 29.95 2.59 1.73 4.42 3.55 6.05 6.05 1.25 1.82 1.73 2.21 2.88 2.21 1.25 0 3.74-.77 6.91-2.11 15.94-6.82 24.19-18.91 24.19-35.71 0-19.01-14.88-33.22-34.94-33.22-9.12 0-16.03 1.54-22.46 4.99-13.15 6.91-20.83 19.97-20.83 35.14 0 13.63 7.1 23.42 17.09 23.42 6.53 0 12.86-4.42 17.47-12.38 5.86-10.08 9.02-21.12 11.71-41.38zm-10.94.48c-1.44 10.66-2.59 16.13-4.9 23.33-3.65 11.42-8.54 18.05-13.34 18.05-4.03 0-6.43-4.32-6.43-11.71 0-9.02 3.65-17.09 10.08-22.75 4.42-3.84 7.78-5.47 14.59-6.91zm104.35 24.67 6.72-3.84c-3.07-4.42-5.09-7.01-7.78-9.89h1.73c3.55 0 5.57.1 7.49.29v-7.1c-2.11.29-3.55.38-7.49.38h-21.89v-2.21h18.62c2.88 0 4.42.1 6.14.29v-5.86c-1.92.29-2.88.29-6.14.29h-18.62v-2.4h18.62c3.07 0 4.61.1 6.14.29v-5.95c-1.63.19-2.88.29-6.14.29h-18.62v-2.21h18.05c4.32 0 6.62.1 8.74.38v-7.38c-2.78.29-5.57.48-9.7.48h-17.57c-4.22 0-6.72-.1-9.12-.38.29 2.59.38 4.42.38 8.16v16.22c-4.32 0-5.66-.1-7.87-.38v7.2c2.3-.29 3.94-.38 8.16-.38h3.94c-.86 1.92-1.73 3.46-3.07 5.66-1.34.1-3.84.1-4.03.1-1.15 0-2.3-.1-3.26-.19l.77 7.87c.86-.19 2.69-.38 4.32-.48 10.27-.67 23.9-1.92 28.9-2.69.86 1.44 1.06 1.82 1.92 3.46l-9.79-.77c-.38 1.63-.58 2.11-.96 3.55h-16.8c-4.03 0-7.3-.19-9.89-.48v8.74c3.46-.38 5.86-.48 9.89-.48h13.63c-5.18 9.41-11.9 15.26-24.86 21.79 3.46 3.07 4.61 4.42 6.62 7.49 3.84-2.11 5.18-2.98 9.31-6.05 1.54 2.3 2.5 4.03 3.65 6.24 11.14-1.54 18.24-3.26 25.82-6.05 4.61 1.82 8.26 2.78 14.3 3.74 5.95.96 6.43 1.06 21.7 2.3 1.15-3.07 2.59-6.24 4.42-9.7-16.03-.1-22.27-.48-29.28-1.63 3.65-2.11 11.81-7.97 14.88-10.66l-4.7-4.8c-1.92.29-4.22.38-7.87.38h-25.25c.77-1.34.96-1.82 1.54-3.07h39.74c4.13 0 6.72.1 9.89.48v-8.74c-2.59.29-5.47.48-9.89.48h-36.48c.58-1.44.96-2.3 1.25-2.78h-.19zm-11.71 22.46c2.98 2.88 4.8 4.42 7.68 6.34-5.28 1.34-11.14 2.4-16.8 2.98 3.74-3.07 6.14-5.57 9.12-9.31zm7.49-36.19-4.8 2.11c.86.96 1.15 1.25 1.92 2.11-3.94.58-7.49.86-12.29 1.06 1.25-2.02 1.54-2.59 2.88-5.28zm20.16 34.18c-3.46 2.21-5.76 3.36-9.98 5.09-3.55-1.54-5.86-2.88-8.74-5.09zm18.52-66.81c-5.38 3.74-15.65 7.1-28.03 9.22 2.02 3.07 2.3 3.74 3.74 7.68 10.46-2.21 14.3-3.46 24.48-7.68q3.94-1.73 6.05-2.4l-6.24-6.82zm5.66 27.36c-6.24 4.7-16.51 8.06-32.64 10.75 1.63 2.78 3.17 5.95 3.94 8.45 13.44-2.4 20.45-4.8 34.37-11.42l-5.66-7.78zm-2.59-13.92c-1.15.86-2.02 1.34-3.65 2.21-6.91 3.36-13.73 5.28-25.92 7.49 1.82 2.78 2.5 4.03 3.84 7.58 11.04-2.3 18.24-4.51 24.38-7.39 4.61-2.21 5.47-2.59 7.1-3.17l-5.76-6.72zm46.27-5.28c-.29 2.69-.48 6.34-.48 8.54 0 3.36.29 3.65 5.76 4.7 7.97 1.54 15.07 2.21 23.62 2.21 6.43 0 14.78-.58 15.55-1.06.58-.38.77-1.15.77-3.36 0-3.46-.19-6.34-.38-7.49-.19-.58-.48-.86-1.25-.86h-.67c-6.53.96-9.79 1.15-15.36 1.15-10.08 0-19.2-1.25-27.55-3.84zm-.48 45.5c-7.87 4.51-8.74 5.09-8.74 6.53 0 2.11 3.17 7.3 6.34 10.27 6.62 6.24 14.88 8.64 29.38 8.64 11.14 0 24.1-1.44 26.98-2.98.86-.38 1.06-.96 1.06-2.88 0-3.17-.19-6.24-.48-8.35-.19-.86-.48-1.25-1.06-1.25-.29 0-.58 0-1.06.19-8.64 2.21-17.38 3.36-25.25 3.36-15.74 0-23.71-4.03-27.17-13.54zm157.65-12.29c1.06 0 1.44-.58 1.44-1.92 0-1.73-1.25-6.43-2.3-8.64-.48-.86-.86-1.25-1.63-1.25-.29 0-.67.1-1.15.29-3.65 1.15-6.82 2.02-10.08 2.69-14.69 3.26-21.79 5.18-35.33 9.22 8.83-7.01 16.7-13.73 23.33-19.87q8.06-7.49 9.79-8.54c1.25-.86 1.63-1.34 1.63-2.4s-.58-2.11-2.5-4.32c-2.69-3.26-4.22-4.51-5.38-4.51-.67 0-.86.1-2.02.67-1.73.86-4.22 1.44-8.54 1.92-11.52 1.44-20.83 2.21-25.15 2.21-.86 0-1.54 0-2.88-.1.48 4.03 1.15 7.58 1.92 9.7.38.96.77 1.34 1.63 1.34.29 0 .38 0 1.73-.38 2.21-.58 17.28-3.17 22.85-3.84-5.76 6.72-8.54 9.6-13.44 14.3-5.95 5.66-12.86 11.62-17.28 14.88-3.65 2.59-5.18 3.55-7.39 4.22-2.3.67-2.69.96-2.69 1.82 0 1.44.96 4.13 2.3 6.34 1.34 2.4 2.21 3.26 3.26 3.26.48 0 .96-.19 1.73-.67 5.86-3.84 14.59-7.2 32.06-12.48-3.46 2.4-4.9 3.74-6.72 5.95-3.26 4.13-4.99 8.74-4.99 13.25 0 7.1 4.03 12.77 11.42 16.03 4.99 2.3 12.38 3.84 18.24 3.84.96 0 1.44-.29 1.82-1.06.48-1.25 1.06-5.66 1.06-8.83 0-1.25-.58-1.82-2.21-1.82h-.96c-3.17.1-7.68-.38-10.27-1.06-5.76-1.44-8.64-4.42-8.64-8.83 0-7.01 6.72-14.21 16.9-18.14 4.8-1.82 11.81-3.26 16.22-3.26h2.21zm17.73 24.96c0 .58.38.96 1.15 1.54 6.82 4.42 14.5 12.29 17.86 18.24.48.96 1.06 1.34 1.63 1.34.67 0 1.44-.58 5.09-3.94 2.78-2.5 2.98-2.69 2.98-3.55 0-1.34-5.38-7.78-10.18-12.19-4.22-4.03-9.98-8.26-11.23-8.26-.67 0-1.15.38-2.88 1.92-4.22 3.94-4.42 4.22-4.42 4.9zm-584.72 135.77c0 3.07.58 3.94 3.26 4.61-6.53 7.39-12.1 10.75-26.5 16.13 2.59 2.3 4.22 4.42 5.76 7.58 7.49-3.07 10.94-4.9 16.32-8.35 4.03 3.94 5.47 5.18 9.5 8.06-10.08 3.36-17.18 4.61-32.35 5.57 2.11 2.69 3.46 5.38 4.51 9.02 17.28-1.82 25.82-3.84 37.63-9.02 12 5.28 22.66 7.68 39.36 8.83.96-4.03 1.92-6.53 3.94-9.89-13.82 0-23.42-1.25-33.31-4.32 5.66-3.84 8.45-6.14 14.59-12.29.86-.86 1.34-1.25 1.92-1.73l-6.14-5.57c-1.73.29-3.55.38-7.2.38h-20.26c.96-1.06 1.06-1.15 3.17-3.74h4.51c11.42 0 14.69-.38 16.9-2.11 1.54-1.15 2.5-3.07 3.17-6.91 3.65 3.94 7.3 8.26 11.62 14.11l7.1-6.53c-2.88-3.65-3.26-4.13-7.3-8.35h8.64c-.38-2.59-.48-4.51-.48-6.82v-5.86c0-3.36.1-5.38.29-7.68-2.4.29-4.7.38-9.89.38h-5.76c.67-.96.96-1.44 1.63-2.4q1.63-2.59 2.69-4.22l-6.24-1.63c2.69-.29 7.58-1.06 14.69-2.21l-6.62-8.64c-4.61 1.34-7.87 2.02-14.59 2.88-11.14 1.44-31.58 2.59-45.31 2.59-2.11 0-5.38 0-9.5-.1 2.02 3.46 2.78 5.28 3.55 8.54l7.49-.1c.96 1.63 1.73 3.36 2.5 5.28h-5.09c-5.18 0-7.01-.1-10.18-.38.29 2.4.38 4.99.38 7.78v5.57c0 2.21-.1 4.32-.48 7.1h9.79c-2.21 2.88-3.74 4.42-8.06 7.87l6.53 6.53c7.01-6.24 10.08-10.27 13.82-18.05v8.06zm-7.97-12.29c-1.63 3.84-2.4 5.18-4.32 7.87v-11.62h28.13l-4.32 2.98c3.94 2.88 5.66 4.61 9.6 9.02l6.72-5.38c-3.26-3.17-4.32-4.03-7.87-6.62h29.09v10.37c-4.03-4.13-4.51-4.61-7.68-7.39l-5.76 4.51c-1.44-.48-2.21-.86-4.61-2.02-.58 5.47-.96 6.72-2.59 7.2-1.06.38-4.13.58-8.35.58-10.75 0-11.04 0-11.04-1.63v-4.13c0-1.82.1-3.36.29-4.99h-9.7c.29 1.73.29 2.4.29 4.61l-7.87-3.36zm37.44 28.51c-3.94 3.65-6.72 5.57-11.33 7.87-5.28-2.69-7.68-4.32-11.42-7.87zm-26.69-40.7c-1.25-2.69-1.82-3.94-2.78-5.57q1.73 0 11.9-.38c1.06 1.92 1.73 3.26 2.69 5.95zm21.41 0c-.77-2.11-1.54-3.65-2.98-6.43 6.91-.48 10.56-.77 15.94-1.34-.96 2.5-2.3 5.18-3.94 7.78h-9.02zm127.78-2.21c0-1.54-8.45-10.08-9.98-10.08-.67 0-1.15.29-2.78 1.44-1.63 1.25-2.3 1.92-2.3 2.3 0 .19.1.38.29.58 2.78 2.4 6.14 6.14 8.16 9.41.29.48.58.67.86.67.48 0 1.54-.48 3.07-1.63 1.92-1.44 2.69-2.11 2.69-2.69zm-12.29 14.02c4.61 4.99 4.8 5.18 7.39 9.31s4.22 7.3 6.05 11.9c.67 1.63.96 1.92 1.63 1.92.77 0 2.98-1.25 4.9-2.78 3.07-2.5 3.36-2.78 3.36-3.74 0-1.63-3.65-8.45-7.01-13.25-4.03-5.66-8.35-10.27-9.6-10.27-.77 0-1.73.58-3.65 2.02-2.78 2.21-3.65 3.07-3.65 3.74 0 .38.19.67.58 1.15zm7.01-26.98c0 .29.19.48.48.77 1.73 1.44 4.8 4.7 6.43 6.91q1.92 2.69 2.4 2.69c.38 0 1.25-.48 2.98-1.82 1.92-1.34 2.5-1.92 2.5-2.4 0-1.63-8.16-9.79-9.79-9.79-1.06 0-4.99 2.88-4.99 3.65zm-45.79 32.54c-2.4 9.5-9.31 25.44-14.59 33.6q-3.94 6.24-3.94 6.72c0 .77.58 1.34 2.78 2.69 2.78 1.82 5.38 3.17 6.14 3.17 1.25 0 2.5-2.11 7.58-12.58 4.9-10.37 9.79-23.23 12.48-33.12.38-1.25.48-1.34.77-2.5 2.21-.29 4.99-.58 6.72-.58 5.09 0 6.91 2.69 6.91 10.18s-.77 13.63-2.21 18.72c-2.11 7.78-4.03 9.98-8.64 9.98-3.07 0-4.32-.29-9.31-2.02 1.15 2.69 1.73 4.99 2.02 7.58q.29 3.55 1.06 4.03c.96.58 4.22 1.06 7.68 1.06 5.66 0 9.7-2.02 12.77-6.24 4.42-6.05 7.01-18.34 7.01-32.64 0-8.74-1.92-14.4-5.76-17.18-2.21-1.54-5.28-2.3-9.22-2.3-1.63 0-4.22.19-6.53.48q2.98-10.56 4.42-13.06c.48-.77.58-1.15.58-1.63 0-.96-.77-1.73-2.3-2.3-2.69-1.15-6.62-2.02-10.75-2.4.1.67.1 1.25.1 1.63 0 4.51-1.06 10.94-3.07 19.3-6.14 1.25-16.42 2.5-20.45 2.5h-1.82c1.15 7.1 2.69 10.75 4.8 10.75.38 0 .67-.1 1.15-.38.58-.29.96-.48 1.73-.67.86-.29 4.8-1.15 11.9-2.78zm105.02 38.59c0 7.97 3.74 9.79 20.54 9.79 21.6 0 23.04-1.54 24.96-25.63-3.65-.86-5.76-1.63-9.7-3.55-.19 9.31-.96 15.07-2.3 17.38-1.06 1.92-4.22 2.59-12.38 2.59-8.74 0-11.14-.67-11.14-2.88v-6.43c5.95-4.9 9.7-8.45 13.92-13.34 9.22-10.56 16.61-21.7 23.14-34.94q2.5-5.18 3.55-7.2l-10.56-4.22c-1.25 5.66-5.47 14.69-10.37 22.46-5.47 8.74-12.86 17.76-19.68 24.1v-22.75c0-3.36.19-6.34.58-9.12h-11.14c.48 3.94.58 5.76.58 9.41v30.91c-7.97 5.95-14.69 9.79-23.62 13.82 3.17 2.88 4.7 4.9 7.01 8.74 7.01-3.74 10.08-5.57 16.61-10.18v1.06zm-.86-66.53c12.19 4.8 19.97 8.93 26.98 14.11l6.14-8.83c-9.79-5.95-14.69-8.35-26.88-13.15zm-14.02 21.12c-2.02 13.82-3.84 20.54-8.83 31.87l9.6 4.9c4.99-12.96 6.72-19.49 9.02-34.94l-9.79-1.82zm55.1 5.38c6.53 12.48 9.12 19.2 13.44 35.42l9.79-5.18c-4.7-14.69-8.26-23.14-14.3-34.66zm53.18 14.11c-5.18 0-8.06-.1-10.66-.48v9.6c2.98-.29 6.24-.48 10.66-.48h9.79c-3.07 3.65-4.8 5.38-9.02 9.12 10.37 2.4 11.62 2.69 21.41 5.38-8.35 3.07-18.14 4.51-30.91 4.51h-2.02c2.4 4.03 3.07 5.66 4.22 9.41 18.14-.86 30.82-3.94 41.47-10.08q14.21 5.09 21.98 8.64c1.15.58 3.07 1.44 5.38 2.4l6.43-8.45c-10.18-4.13-13.82-5.47-25.25-9.02 3.55-3.55 5.95-7.01 8.35-11.9h8.26c4.42 0 7.68.19 10.66.48v-9.6c-2.59.38-5.18.48-10.66.48h-32.54c1.34-2.21 1.44-2.3 3.36-5.86h23.33c5.18 0 8.35.1 10.46.38-.29-2.3-.29-4.42-.29-9.02v-6.34c0-4.42.1-6.82.38-9.22-2.88.29-5.57.38-10.37.38h-10.66v-5.86h16.42c4.32 0 7.68.19 10.66.48v-9.79c-2.5.38-6.05.58-11.42.58h-58.46c-5.18 0-8.74-.19-11.42-.58v9.79c2.88-.29 6.34-.48 10.66-.48h15.17v5.86h-9.89c-4.51 0-7.1-.1-10.27-.38.29 2.69.38 5.18.38 9.31v6.34c0 4.03-.1 6.24-.38 8.93 2.59-.29 5.95-.38 10.66-.38h13.92c-1.34 2.69-1.82 3.46-3.36 5.86h-16.42zm40.9 8.64c-2.11 3.65-4.61 6.34-8.06 8.83-3.17-.86-4.42-1.25-5.47-1.54q-7.3-1.63-10.56-2.5c2.4-2.4 3.17-3.26 4.51-4.8h19.58zm-16.42-44.16h10.18v5.86h-10.18zm-9.12 13.25v8.83h-9.98v-8.83zm9.12 0h10.18v8.83h-10.18zm19.3 0h10.75v8.83h-10.75zm62.11 28.42c-8.93 0-16.22 7.3-16.22 16.22s7.3 16.32 16.22 16.32 16.22-7.3 16.22-16.32-7.2-16.22-16.22-16.22zm0 7.49c4.8 0 8.74 3.94 8.74 8.74s-3.94 8.83-8.74 8.83-8.74-3.94-8.74-8.83 3.94-8.74 8.74-8.74z"/></svg>