<svg viewBox="0 0 124 718" xmlns="http://www.w3.org/2000/svg"><path d="m86.57 27.12c.16 0 .55-.23.96-.55.31-.23.39-.36.39-.49s-.23-.52-.6-.99c-.88-1.14-1.56-1.79-1.85-1.82-.18 0-.34.05-.68.31-.44.31-.57.44-.57.57 0 .05.03.1.13.21.7.68 1.3 1.43 1.92 2.5.1.21.18.26.29.26zm-1.14.57c0-.18-.49-.88-1.2-1.69-.78-.88-1.09-1.14-1.3-1.14-.29 0-1.27.73-1.27.94 0 .08.03.13.13.23.6.6 1.22 1.4 1.64 2.11q.47.78.62.78c.16 0 .49-.23 1.07-.73.23-.21.31-.31.31-.49zm-6.58 3.09c-.6 2.91-1.72 5.36-3.51 7.62-2 2.55-4.08 4.13-7.9 6.06.7.36 1.25.78 1.95 1.48.6.6.65.62.94.62.39 0 1.87-.91 3.43-2.11 3.9-3.02 6.79-7.12 8.24-11.7.57-1.82.6-1.9.86-2.21.18-.23.26-.39.26-.57 0-.29-.1-.44-.6-1.07-.83-.99-1.38-1.4-1.82-1.4-.1 0-.16 0-.29.05-.47.18-.62.21-1.09.26-.65.08-4.73.16-8.22.16-3.85 0-5.51-.08-6.79-.26.08 2.68.23 3.54.73 3.54.03 0 .05 0 .08-.03.83-.23 4.11-.39 8.76-.42q2.94 0 4.97-.03zm1.35 33.08c-.75 2.26-1.85 4.08-3.3 5.49-1.92 1.85-4.63 3.33-7.59 4.21.73.36 1.04.65 1.72 1.46.44.52.65.68 1.01.68.52 0 2.78-1.04 4.19-1.95 3.07-1.95 5.02-4.29 6.76-8.11.49-1.12.62-1.35.83-1.53.31-.34.44-.55.44-.83 0-.31-.47-1.04-1.17-1.85-.42-.44-.73-.62-1.12-.62-.16 0-.31.03-.49.1-.52.16-.6.18-.99.21-.49.05-1.9.05-7.1.05-4.84 0-6.63-.08-7.9-.29.18 2.68.42 3.56.99 3.56.03 0 .16-.03.21-.03 1.85-.34 3.67-.42 13.52-.55zm-12.09-8.94c.16 2.91.26 3.3.94 3.3h.21c1.53-.13 4.32-.18 8.22-.18.81 0 2.76.05 3.25.1.23 0 .44.03.55.03.34 0 .44-.26.44-1.2v-.1c-.03-.26-.03-.55-.03-.86-.03-.78-.16-1.04-.49-1.04h-.31q-2.99.21-5.69.21c-3.74 0-5.38-.05-7.07-.26zm15.63 32.74c-1.95 3.41-4.47 5.9-8.48 8.42-3.04 1.92-6.19 3.33-8.81 3.93.29.91.78 1.98 1.3 2.76.39.57.6.78.83.78.16 0 .26-.05.47-.26.31-.29.42-.34 2.42-1.27 3.12-1.48 5.33-2.83 7.93-4.86 2.31-1.79 3.85-3.3 5.28-5.17.34-.47.44-.65.44-.91 0-.16-.05-.34-.18-.6-.68-1.33-.91-1.85-1.2-2.81zm-17.26.16c0 .08.05.16.16.23q.18.1 1.09.7c.68.42 2.03 1.51 2.7 2.16q1.07 1.01 1.25 1.01c.21 0 .49-.23 1.07-.88.62-.7 1.09-1.4 1.09-1.59 0-.26-.31-.6-1.3-1.4-1.61-1.3-3.56-2.55-4.06-2.57-.23 0-.42.13-.86.62-.65.75-1.14 1.48-1.14 1.72zm7.15 35.16c2.65.75 5.33 2.03 7.88 3.72.18.13.31.18.42.18.16 0 .29-.13.49-.57.42-.78.88-2.03.88-2.29 0-.18-.1-.31-.31-.44-2.31-1.25-3.8-1.9-6.4-2.81q-1.07-.39-2.91-.91c.08-3.07.13-4.63.13-4.68.03-.44.08-.78.18-1.09q.1-.44.1-.6c0-.21-.13-.34-.39-.39-.75-.16-1.59-.26-3.46-.36.23 1.48.29 3.2.29 9.18 0 3.07-.08 10.58-.13 11.26v.1c0 .52.16.6.99.6.96 0 2-.13 2.18-.29.13-.08.18-.26.18-.49v-.13c-.05-1.22-.13-5.46-.13-7.07v-2.91zm6.73-4.97c.36 0 1.53-.94 1.53-1.22 0-.23-.6-1.04-1.46-1.98-.65-.7-.88-.91-1.12-.91-.13 0-.34.1-.7.39-.49.34-.62.49-.62.65 0 .08.03.08.16.23.78.81 1.43 1.69 1.95 2.63.08.16.16.21.26.21zm4.16-2.91c0-.31-1.12-1.74-1.92-2.5-.26-.23-.42-.31-.55-.31-.31 0-1.35.73-1.35.94 0 .05.05.13.13.21.73.73 1.33 1.51 1.95 2.55.13.18.18.23.26.23.13 0 .36-.13.7-.36.6-.42.78-.6.78-.75zm-4.26 41.32q-3.8.03-6.55.03c-4.11 0-5.82-.05-7.57-.21.08 1.38.16 2.34.26 2.83.08.55.18.65.47.65.08 0 .16 0 .23-.03.49-.08.86-.1 1.48-.16 1.01-.05 6.21-.16 9.07-.16h2.57q-.03 1.04-.03 1.14 0 .62 1.04.62c.68 0 1.85-.1 2-.16.18-.08.26-.29.26-.62 0-.13 0-.16-.03-.55-.05-.91-.13-5.49-.13-6.99 0-4.29 0-5.75.08-8.27-2.57.13-3.12.13-9.93.13-3.56 0-5.43-.08-6.97-.26.1 1.9.16 2.6.29 3.22.05.21.05.23.34.31l.1-.03.13.03s.1-.03.23-.05c.65-.16 5.49-.31 10.24-.31h2.39v8.81zm3.48 18.24c-1.95 3.41-4.47 5.9-8.48 8.42-3.04 1.92-6.19 3.33-8.81 3.93.29.91.78 1.98 1.3 2.76.39.57.6.78.83.78.16 0 .26-.05.47-.26.31-.29.42-.34 2.42-1.27 3.12-1.48 5.33-2.83 7.93-4.86 2.31-1.79 3.85-3.3 5.28-5.17.34-.47.44-.65.44-.91 0-.16-.05-.34-.18-.6-.68-1.33-.91-1.85-1.2-2.81zm-17.26.16c0 .08.05.16.16.23q.18.1 1.09.7c.68.42 2.03 1.51 2.7 2.16q1.07 1.01 1.25 1.01c.21 0 .49-.23 1.07-.88.62-.7 1.09-1.4 1.09-1.59 0-.26-.31-.6-1.3-1.4-1.61-1.3-3.56-2.55-4.06-2.57-.23 0-.42.13-.86.62-.65.75-1.14 1.48-1.14 1.72zm1.64 30.33c-2.16 0-2.91-.03-4.24-.18.05 1.3.18 2.55.31 2.99.05.23.18.34.39.34.05 0 .1 0 .16-.03.62-.1 3.02-.26 4.37-.29-.03 1.51-.05 1.92-.16 4.29v.39c0 .47.13.55 1.04.55.62 0 1.43-.08 1.74-.16.29-.1.36-.23.36-.6v-.34q-.05-2.34-.05-4.19c.94-.03 1.64-.03 2.11-.05 1.07-.03 1.79-.03 2.03-.03h1.69c-.1 2.6-.42 4.13-1.14 5.69-1.2 2.52-3.15 4.06-6.89 5.41.81.49 1.17.75 1.74 1.38.55.57.57.6.81.6.26 0 1.2-.36 1.9-.75 2-1.12 3.46-2.44 4.58-4.24 1.3-2.08 1.82-4.16 1.98-8.06 2.96 0 3.17 0 4.06.08q.57.05.62.05c.39 0 .44-.13.44-1.35 0-.83-.05-1.46-.13-1.61-.05-.08-.16-.13-.29-.13-.08 0-.16 0-.26.03-.78.08-1.77.1-4.39.16v-2.16c.03-.83.1-1.64.18-1.82.16-.42.18-.49.18-.68 0-.23-.16-.34-.7-.42-.75-.13-1.53-.21-2.94-.29.21 1.25.29 2.42.29 5.38-3.22.03-5.15.03-5.8.03.05-2.94.08-3.48.21-3.85q.16-.55.16-.68c0-.16-.08-.26-.26-.34-.18-.05-1.59-.29-1.9-.29q-1.01-.05-1.48-.08c.21.83.31 2.34.31 5.23h-1.01zm.18 25.23c.21 1.3.26 2.08.26 3.8 0 3.72-.44 6.19-1.53 8.63-.78 1.77-1.48 2.73-3.28 4.55 1.17.26 1.82.49 2.52.94.21.1.34.16.44.16.26 0 .49-.23 1.09-.96 2.73-3.46 3.87-7.51 3.93-13.86 0-1.04.03-1.46.18-2.03.05-.21.05-.26.05-.36 0-.21-.1-.36-.31-.44-.7-.23-1.9-.39-3.35-.42zm6.14 12.69c0 1.43-.05 1.9-.23 2.39-.08.23-.1.31-.1.44 0 .34.23.73.75 1.25.68.65 1.61 1.27 1.92 1.27.18 0 .42-.1.6-.26.31-.29.65-.52 1.22-.81 2.42-1.27 3.72-2.18 5.64-3.95 1.2-1.12 1.46-1.46 1.46-1.87 0-.13 0-.21-.08-.44-.23-.78-.34-1.77-.39-3.12-2.18 2.76-4.34 4.55-7.64 6.42q.05-11.44.13-12.14c.03-.39.1-.81.18-.96.1-.29.13-.36.13-.52 0-.52-1.01-.73-3.82-.83.16 1.09.23 2.11.23 3.38zm-.78 20.11q3.8-.03 6.76-.08c-.62 1.66-1.74 3.59-3.3 5.62-1.56-1.59-3.09-2.83-3.51-2.83-.16 0-.26.08-.7.52-.91.94-1.25 1.33-1.25 1.46 0 .1.05.18.21.31 1.33.99 1.92 1.48 2.47 2.05q.57.6.75.78c-2.47 2.47-5.25 4.42-8.84 6.16.75.31 1.4.78 2.18 1.53.21.21.42.31.65.31.81 0 4.47-2.47 6.79-4.58 2.94-2.65 4.76-5.1 7.2-9.54.39-.75.7-1.25.91-1.46.29-.29.36-.42.36-.65 0-.29-.18-.6-.83-1.33-.81-.96-1.17-1.25-1.53-1.25-.16 0-.23.03-.44.1-.81.31-1.46.36-3.98.36-.16 0-.81 0-1.72-.03h-.47c.7-1.07 1.04-1.53 1.3-1.72.26-.18.34-.29.34-.42 0-.36-.65-.7-3.41-1.72-.42 1.43-1.22 2.94-2.31 4.47-1.61 2.26-3.28 3.77-6.06 5.46.73.39 1.38.86 1.85 1.33.49.52.52.52.73.52s.62-.26 1.4-.88c1.74-1.43 3.25-2.96 4.45-4.52zm10.09 27.49c-1.95 3.41-4.47 5.9-8.48 8.42-3.04 1.92-6.19 3.33-8.81 3.93.29.91.78 1.98 1.3 2.76.39.57.6.78.83.78.16 0 .26-.05.47-.26.31-.29.42-.34 2.42-1.27 3.12-1.48 5.33-2.83 7.93-4.86 2.31-1.79 3.85-3.3 5.28-5.17.34-.47.44-.65.44-.91 0-.16-.05-.34-.18-.6-.68-1.33-.91-1.85-1.2-2.81zm-17.26.16c0 .08.05.16.16.23q.18.1 1.09.7c.68.42 2.03 1.51 2.7 2.16q1.07 1.01 1.25 1.01c.21 0 .49-.23 1.07-.88.62-.7 1.09-1.4 1.09-1.59 0-.26-.31-.6-1.3-1.4-1.61-1.3-3.56-2.55-4.06-2.57-.23 0-.42.13-.86.62-.65.75-1.14 1.48-1.14 1.72zm7.62 35.01c2.65.78 5.33 2.03 7.88 3.72.18.13.31.18.42.18.16 0 .29-.13.49-.57.42-.78.88-2.03.88-2.29 0-.16-.1-.29-.31-.44-2.31-1.22-3.8-1.9-6.4-2.81q-1.07-.39-2.91-.91c.08-3.07.13-4.63.13-4.68.03-.42.08-.78.18-1.09q.1-.44.1-.57c0-.21-.13-.34-.39-.42-.75-.16-1.59-.23-3.46-.36.23 1.51.29 3.2.29 9.18 0 3.09-.08 10.58-.13 11.26v.1c0 .52.16.6.99.6.96 0 2-.13 2.18-.29.13-.08.18-.26.18-.49v-.13c-.05-1.22-.13-5.46-.13-7.05v-2.94zm-4.24 31.76c-.6 1.27-.86 1.77-1.59 3.41-.08-1.3-.1-2.11-.1-2.7 0-3.72.96-9.23 1.82-10.61.29-.42.31-.49.31-.68 0-.26-.13-.39-.57-.57-.78-.36-1.72-.62-2.81-.83-.1.86-.23 1.64-.49 3.04-.73 3.9-.91 5.67-.91 8.53 0 2.63.39 6.11.88 7.8.1.31.18.39.52.39.21 0 .39.03.52.03h.1c.29 0 1.17-.13 1.3-.18.1-.05.18-.21.26-.49.31-1.4.94-3.28 1.46-4.47.23-.57.26-.6.26-.78 0-.13-.03-.23-.1-.36-.47-.7-.62-.96-.86-1.51zm4.55-9.93c-.16 0-.23.05-.26.16-.05.21-.13 1.25-.13 1.95 0 .47.05.65.18.73.26.16 2.26.29 4.5.29 1.87 0 3.64-.13 4.71-.34.29-.05.36-.18.36-.57 0-.7-.08-1.85-.13-2.11-.05-.21-.13-.29-.31-.29q-.1 0-.23.03c-1.61.29-3.33.42-5.04.42-1.27 0-2.94-.1-3.51-.23-.05-.03-.1-.03-.13-.03zm.21 11.44c-1.4.86-1.95 1.35-1.95 1.72 0 .7 1.2 2.13 2.34 2.83 1.22.73 2.7 1.01 5.1 1.01 1.74 0 3.17-.18 4.58-.55.36-.1.44-.18.44-.44 0-.52-.1-1.56-.23-2.44-.03-.26-.16-.36-.34-.36-.08 0-.21.03-.36.08-1.61.47-2.6.6-4.26.6s-2.73-.16-3.56-.6-1.27-.91-1.74-1.85zm-8.27 33.26c0 1.2-.05 2.13-.16 3.04h2.99v-1.51h11.6v1.51h2.99c-.1-.94-.13-1.77-.13-3.04v-16.09c0-.88.03-1.64.13-2.57-.73.1-1.48.13-2.68.13h-12.09c-1.2 0-2.03-.03-2.78-.13.08.83.13 1.72.13 2.68v15.99zm2.83-15.89h11.6v5.8h-11.6zm0 8.42h11.6v6.37h-11.6zm-.13 26.84h3.46c1.17 0 1.77.03 2.39.13v-2.91c-.68.1-1.2.13-2.39.13h-3.46v-4.16c0-1.33.03-1.98.16-2.81h-3.15c.13.86.16 1.51.16 2.81v16.04c-1.17.29-1.87.42-2.73.47l.6 3.09c.31-.13.7-.26 1.35-.47.16-.03.31-.08.55-.13q1.82-.49 2.63-.75c3.07-.96 4.34-1.4 6.27-2.16v-2.65c-2.21.78-3.61 1.25-5.82 1.87v-8.5zm9.52 1.59c2.89-1.56 4.97-2.89 6.92-4.5q.49-.39.91-.7l-1.95-2.29c-1.04 1.4-2.96 2.89-5.88 4.58v-5.46c0-1.38.03-1.92.16-2.81h-3.07c.13.75.16 1.4.16 2.81v16.72c0 1.12.26 1.72.91 2.08.65.34 1.51.44 3.8.44 2.99 0 4.08-.23 4.76-.99.73-.81 1.01-2.24 1.2-5.95-1.07-.31-1.66-.57-2.68-1.12 0 3.15-.16 4.55-.49 5.04-.23.34-.88.44-2.52.44-1.87 0-2.21-.1-2.21-.65v-7.64zm-9.91 29.16v2.03h-2.21c-.96 0-1.59-.03-2.31-.13v2.63c.73-.1 1.43-.13 2.31-.13h2.21v2.52c-2.76.31-3.51.36-5.02.36l.52 2.89c.75-.16.96-.18 2.65-.44 3.33-.49 5.2-.86 8.81-1.66l-.03-2.31c-1.98.42-2.68.57-4.55.86v-2.21h2.21c1.07 0 1.59.03 2.29.1v-2.6c-.68.1-1.27.13-2.29.13h-2.21v-2.03h2.21c.86 0 1.51.03 2 .08-.05-.57-.05-.94-.05-2.24v-6.42c0-1.07.03-1.72.08-2.31-.65.08-1.25.1-2.29.1h-6.16c-.96 0-1.64-.03-2.42-.1.08.62.1 1.33.1 2.31v6.16c0 .86-.03 1.69-.1 2.5.6-.05 1.3-.08 2.13-.08h2.11zm0-8.42v1.92h-1.92v-1.92zm2.39 0h1.98v1.92h-1.98zm-2.39 4.13v2.03h-1.92v-2.03zm2.39 0h1.98v2.03h-1.98zm11.39-.78c1.07-.99 1.51-1.46 2.73-3.02.44-.52.62-.73.99-1.2l-1.43-1.64c-.44.08-1.01.1-2.05.1h-4.06c-1.04 0-1.77-.03-2.42-.13v2.78c.68-.08 1.38-.13 2.24-.13h3.95c-.49.62-1.01 1.14-1.92 1.9-.78-.47-1.17-.7-2.42-1.38l-1.43 1.77c2 1.14 3.41 2.08 4.47 2.96h-3.15c-1.09 0-1.56-.03-2.24-.1v2.81c.68-.08 1.22-.1 2.24-.1h1.17v8.32c0 .44-.18.6-.78.6-.55 0-1.51-.1-2.55-.26.42 1.2.49 1.56.6 2.65.83.05 1.46.08 1.87.08 2.68 0 3.46-.55 3.46-2.44v-8.94h2.24c-.6 1.2-1.14 2.03-2.05 3.09.78.42.88.49 2.03 1.35 1.04-1.43 1.69-2.57 2.47-4.29.31-.7.36-.81.57-1.22l-1.35-1.64c-.47.08-.99.1-2.03.1h-1.33l1.22-1.27zm-6.81 33.34c.65-1.38 1.09-2.55 1.61-4.16h6.03c1.35 0 2.26.05 3.07.13v-2.86c-.88.1-1.77.16-3.09.16h-5.25c.21-.78.42-1.69.6-2.63.05-.34.18-.83.36-1.53l-3.02-.34c0 1.12-.21 2.21-.78 4.5h-1.92c-1.43 0-2.21-.03-3.04-.16v2.86c.75-.1 1.46-.13 3.04-.13h1.2c-.75 2.13-1.9 4.63-2.91 6.27-.83 1.35-1.59 2.34-2.63 3.38v-10.63c.68-1.43 1.09-2.44 1.66-4.03.29-.88.36-1.07.57-1.51l-2.81-.81c-.23 1.3-.65 2.63-1.3 4.11-1.04 2.42-2.29 4.32-4.08 6.27.57.75 1.01 1.64 1.38 2.83.73-.83.96-1.2 2-2.83-.05.91-.08 1.59-.08 2.78v7.2c0 1.3-.03 2.11-.16 3.02h2.94c-.1-.91-.13-1.66-.13-2.89v-3.12c.75.62 1.3 1.22 1.77 1.98 1.74-2.03 2.68-3.41 3.72-5.38h3.48v5.98h-3.15c-1.07 0-2.31-.05-3.25-.13v2.81c.96-.1 1.9-.16 3.35-.16h8.5c1.59 0 2.34.03 3.17.16v-2.81c-1.07.08-2.05.13-3.07.13h-2.96v-5.98h1.85c1.48 0 2.18.03 2.96.13v-2.73c-.83.1-1.69.13-2.96.13h-6.68zm-7.62 24.58h-1.92c-1.01 0-1.64-.03-2.34-.13v2.73c.68-.08 1.35-.13 2.31-.13h1.51q-.65 1.69-1.33 2.94c-.96 1.77-1.95 3.09-3.12 4.13.75.88 1.12 1.4 1.56 2.39.91-1.12 1.27-1.59 1.69-2.31.96-1.61 1.3-2.29 1.74-3.64-.1 1.72-.13 2.29-.13 2.96v4.13c0 1.53-.03 2.29-.16 3.17h2.96c-.13-.83-.16-1.66-.16-3.17v-4.37c0-1.43-.03-2.29-.13-3.2.78 1.59 1.53 2.65 2.76 3.95.7-1.25.86-1.48 1.59-2.16-1.33-1.04-2.08-1.79-3.02-3.09-.55-.73-.7-.99-1.04-1.74h1.27c.91 0 1.53.03 2.13.1v-2.7c-.55.1-1.12.13-2.11.13h-1.46v-3.07c.68-.18 2.13-.68 2.99-.99.16-.05.26-.08.29-.1q.34-.1.65-.21l-1.61-2.39c-1.51 1.01-5.38 2.03-9.15 2.39.49.91.68 1.43.88 2.5 1.77-.29 2.37-.39 3.33-.57v2.44zm9.67 13.99h5.04v1.66h2.86c-.1-.81-.16-1.9-.16-3.2v-14.64c0-1.17.03-1.95.13-2.68-.75.1-1.43.13-2.47.13h-5.72c-1.09 0-1.69-.03-2.44-.13.08.73.1 1.56.1 2.68v14.9c0 1.12-.05 2.16-.13 2.94h2.78v-1.66zm.03-16.12h5.02v13.49h-5.02zm-3.85 34.28h-6.63c-1.64 0-2.57-.05-3.48-.16v3.04c1.04-.13 1.9-.16 3.41-.16h6.71v6.6c0 .52-.18.62-1.17.62-1.22 0-2.13-.08-3.64-.29.44 1.09.55 1.53.75 2.99 1.9.08 2.26.1 2.78.1 3.35 0 4.19-.55 4.19-2.76v-7.28h6.11c1.56 0 2.44.03 3.41.16v-3.04c-.83.1-1.77.16-3.41.16h-6.11v-1.07c2.13-1.3 4.11-2.73 5.3-3.87q1.69-1.61 2.37-2.24l-1.61-1.79c-.52.08-.91.1-2.18.1h-11.31c-1.3 0-2.11-.05-2.99-.16v2.96c.88-.1 1.69-.16 3.02-.16h9.96c-1.82 1.64-2.55 2.18-4.24 3.2h-1.3c.05.57.08 1.14.08 1.9v1.12zm1.43 27c-.05 1.01-.1 1.85-.18 2.5h-4.03c-1.43 0-1.98-.03-2.73-.13v2.63c.73-.1 1.35-.13 2.68-.13h3.48c-.57 1.07-1.46 1.9-2.86 2.7-1.04.6-1.87.91-3.74 1.38.62.65 1.12 1.46 1.53 2.42 3.64-1.14 5.88-2.73 7.2-5.12 1.64 2.55 3.85 3.95 7.9 5.1.47-1.3.7-1.79 1.27-2.63-3.9-.73-6.01-1.85-7.28-3.85h4.65c1.14 0 1.82.03 2.5.13v-2.63c-.7.1-1.3.13-2.39.13h-5.49c.08-.78.13-1.27.16-1.92v-.57h3.82c.96 0 1.64.03 2.44.1v-2.57c-.65.1-1.27.13-2.44.13h-8.22q.44-.78.6-1.12c.1-.23.13-.26.21-.44l-2.18-.65h11c1.25 0 1.92.03 2.73.13v-2.73c-.86.1-1.56.16-2.81.16h-15.99c-1.27 0-1.87-.03-2.7-.1.08.7.1 1.59.1 2.63v16.8c0 1.2-.05 1.98-.16 2.86h2.91v-.99h16.28c1.27 0 2 .05 2.76.16v-2.76c-.73.1-1.46.13-2.78.13h-16.25v-16.28h4.55c-.16.44-.26.68-.39.96-.68 1.4-1.72 2.63-3.43 4.06.99.57 1.53.99 2.11 1.64.96-.94 1.33-1.35 1.92-2.11h3.25zm-9.33 24.37c-.7 0-1.25-.03-1.77-.08.05.36.1 1.4.1 2.03v15.03c0 .96-.05 1.74-.16 2.6h2.73v-1.74h3.41v1.12h2.63c-.08-.52-.1-1.09-.1-2.03v-5.38c0-.81.03-1.27.08-1.87-.52.05-.88.08-1.74.08h-4.26v-2.13h4.24c.83 0 .94 0 1.59.05-.05-.55-.05-.83-.05-1.79v-4.42c0-.52.03-.96.05-1.53-.55.05-.99.08-1.66.08h-1.56c.49-.96.88-1.95 1.25-3.04l-2.76-.34c-.26 1.35-.49 2-1.12 3.38h-.88zm.91 2.37h3.28v2.86h-3.28zm0 9.78h3.41v3.3h-3.41zm11.67-11.91v2.6h-2.42c-1.04 0-1.48-.03-2.08-.08.05.57.08 1.04.08 2.05v9.83c0 1.56-.03 1.98-.1 2.7h2.7c-.08-.52-.1-1.12-.1-2.39v-9.8h1.92v12.14c0 .96-.05 1.72-.16 2.52h2.86c-.1-.78-.16-1.51-.16-2.52v-12.14h2.26v9.05c0 .34-.1.44-.42.44-.26 0-.47-.03-1.33-.18.36.83.49 1.33.55 2.55.52.03.83.05 1.2.05.99 0 1.46-.1 1.82-.39.44-.36.68-.99.68-1.82v-10.17c0-.99.03-1.43.08-1.95-.49.08-1.09.1-1.98.1h-2.86v-2.6h2.96c1.04 0 1.69.03 2.47.13v-2.76c-.78.13-1.43.16-2.55.16h-8.16c-1.14 0-1.87-.05-2.63-.16v2.76c.81-.1 1.46-.13 2.5-.13h2.86zm-3.8 40.65c0 .62-.03 1.61-.08 2.37v.1c0 .42.16.49 1.04.49.78 0 1.48-.08 1.61-.21.13-.08.18-.23.18-.55v-1.25c0-.83-.05-2.03-.08-2.5 3.95-1.92 6.32-2.94 7.59-3.28.34-.08.44-.18.44-.34 0-.44-1.14-2.08-2.21-3.17-.57.65-1.07 1.04-2.26 1.74-.16.1-1.53.86-4.11 2.26-.52-1.46-1.3-2.13-2.47-2.13-1.04 0-1.92.21-3.09.75.81-.88 1.35-1.72 2.13-3.15 2.39-.23 5.25-.68 6.08-.91.34-.08.44-.21.44-.49 0-.36-.16-1.56-.26-2.03-.05-.16-.16-.23-.36-.23-.13 0-.26.03-.83.18-.91.21-2.21.47-3.69.68q.03-.08.08-.18c.34-.81.55-1.22.73-1.56.08-.16.1-.21.1-.31 0-.44-1.07-.83-3.38-1.22-.03 1.22-.21 2.16-.75 3.64-1.17.05-2.29.08-3.3.08-1.25 0-1.77-.03-2.65-.16.03.7.16 2.08.23 2.42.13.44.21.52.6.52 1.01 0 1.98-.03 3.82-.16-1.07 1.87-2.83 3.69-4.97 5.12-.62.39-.68.44-.68.68 0 .18.16.52.42.96.55.91 1.09 1.51 1.35 1.51.21 0 .29-.05 1.07-.86.55-.55 1.43-1.27 2.18-1.79 1.22-.81 2.34-1.22 3.41-1.22.81 0 1.2.36 1.4 1.22-2.39 1.35-2.65 1.53-3.77 2.42-1.4 1.12-2.11 2.44-2.11 3.95 0 1.64.75 2.81 2.26 3.43 1.25.52 2.94.73 6.11.73 1.9 0 4.78-.16 5.41-.29.34-.08.47-.23.47-.62 0-.94-.1-1.72-.26-2.26-.08-.18-.21-.31-.39-.31h-.13c-1.04.26-1.35.34-1.9.42-1.33.18-3.28.31-4.68.31-1.64 0-2.91-.18-3.48-.52-.39-.23-.57-.55-.57-1.01 0-1.14.73-1.9 3.3-3.41v.13zm-.94 17.92c1.48-.42 2.37-.7 3.61-1.25.03.65.03.68.03 1.01v12.66c0 1.25-.05 2.03-.13 2.68h2.91c-.1-.65-.13-1.4-.13-2.68v-12.43h2.96v9.52c0 .55-.13.68-.73.68s-1.2-.05-1.74-.16c.31.86.42 1.43.55 2.55h.57c3.12 0 3.95-.52 3.95-2.44v-10.4c0-1.04.03-1.64.1-2.21-.36.05-1.01.08-2.24.08h-5.1l-1.38-1.72c-1.17.91-3.9 1.79-5.95 1.98.08.65.1 1.14.1 2.42v10.22q-.6.16-1.2.26l-.26.05.83 2.76c.34-.16.52-.23 1.35-.52 2.57-.96 2.86-1.07 4.78-1.9l-.05-2.57c-1.25.55-1.72.73-2.86 1.14v-9.72zm-10.01-1.87c1.82 1.61 2.68 2.55 4.16 4.55l2.13-2.05c-1.4-1.72-2.44-2.78-4.29-4.37zm-.26 9.96c.6-.1.99-.13 1.69-.13h1.35v5.38c-1.22 1.09-2.65 2.08-3.54 2.44l1.22 2.83q.18-.13.47-.34c.23-.18.55-.44.94-.73.49-.36 1.53-1.25 2.24-1.92 1.17 1.4 1.92 1.92 3.35 2.34 1.2.34 3.48.52 6.5.52 2.6 0 6.29-.08 8.42-.16.16-1.17.18-1.3.75-3.02-2.26.29-6.14.47-9.91.47-2.91 0-4.39-.13-5.36-.44-1.27-.42-1.87-.91-2.47-2v-5.23c0-1.56 0-2 .1-2.73-.65.08-1.01.1-1.92.1h-1.85c-.99 0-1.38-.03-2-.13v2.73zm6.73 19.41c0 .18.08.26.31.36 1.46.52 3.09.91 4.97 1.2.42.05 3.22.36 3.35.36s.23-.08.31-.23c.13-.21.23-1.17.23-1.95 0-.62-.03-.7-.34-.73-2.78-.13-3.02-.16-4.63-.47-1.12-.21-2.11-.44-3.17-.81-.05-.03-.13-.03-.26-.05-.13-.03-.21.1-.31.42-.29.88-.47 1.66-.47 1.9zm6.63 8.16c.36-.34 1.14-1.07 1.4-1.27.47-.39 1.01-.75 1.4-.91.34-.18.44-.31.44-.62 0-.75-1.48-2.44-2.13-2.44-.1 0-.26.05-.42.13-.57.29-.91.36-3.09.65-2.89.42-6.08.73-7.23.73-.18 0-.36 0-.91-.03.1 1.04.23 1.72.49 2.57.16.52.21.6.44.6.13 0 .23-.03.52-.13.62-.23 3.28-.78 7.46-1.53q-9.67 10.3-10.3 10.82c-.47.42-.52.47-.52.65 0 .16.29.49 1.07 1.35.81.86.99 1.01 1.17 1.01.16 0 .34-.16.49-.42.86-1.35 2.13-2.91 3.61-4.39 1.53-1.53 2.26-2 3.2-2 1.04 0 1.35.49 1.53 2.5.16 1.61.36 2.39.81 3.09.7 1.07 1.9 1.48 4.16 1.48 1.51 0 3.98-.21 4.68-.39.23-.05.29-.16.29-.39 0-.75-.21-2.13-.39-2.55-.1-.18-.18-.23-.34-.23-.05 0-.1 0-.18.03-2.13.57-2.73.68-3.95.68-.91 0-1.4-.1-1.72-.42-.36-.31-.44-.6-.62-2.13-.34-2.68-1.17-3.74-2.96-3.74-.44 0-.88.08-1.48.26l3.07-2.94zm2.29 19.69c0 .13.1.26.31.39 1.79 1.14 3.95 3.38 4.84 4.97.13.26.26.36.44.36s.42-.18 1.38-1.07c.75-.68.81-.73.81-.96 0-.36-1.46-2.13-2.76-3.33-1.14-1.09-2.73-2.24-3.04-2.24-.18 0-.34.1-.78.52-1.12 1.07-1.2 1.14-1.2 1.35zm-47.7-664.31v1.14h-5.12c-1.17 0-1.69-.03-2.37-.08.08.78.1 1.17.1 2v4.86c0 .83-.03 1.22-.1 2 .75-.05 1.22-.08 2.37-.08h10.58v1.17h-12.32c-1.27 0-1.95-.03-2.68-.16v2.55c.81-.08 1.72-.13 2.63-.13h12.38v2.55c0 .49-.16.57-1.04.57s-1.72-.05-2.86-.21c.39.78.55 1.35.75 2.55.86.03 1.4.05 1.74.05 3.17 0 4.03-.47 4.03-2.24v-3.28h1.98c.91 0 1.77.05 2.6.13v-2.55c-.75.13-1.38.16-2.68.16h-1.9v-1.17c1.3 0 1.69.03 2.5.08-.08-.7-.1-1.12-.1-2v-4.86c0-.88.03-1.3.1-2-.68.05-1.2.08-2.39.08h-5.56v-1.14h7.41c1.07 0 1.85.05 2.6.13v-2.55c-.73.13-1.43.16-2.68.16h-7.33c0-.75.05-1.3.16-1.9h-2.94c.1.6.16 1.12.16 1.9h-6.86c-1.25 0-1.95-.05-2.68-.16v2.55c.75-.08 1.53-.13 2.63-.13h6.92zm0 3.22v1.3h-4.78v-1.3zm2.63 0h5.23v1.3h-5.23zm-2.63 3.2v1.35h-4.78v-1.35zm2.63 0h5.23v1.35h-5.23zm-2.13 10.11c-1.04-1.25-1.98-2.05-3.59-3.12l-2 1.61c1.48 1.07 2.08 1.61 3.51 3.3zm-6.66 18.39h4.45c.86 0 1.77.03 2.29.05-.05-.62-.05-1.01-.05-2.24v-4.84c0-1.04.03-1.66.08-2.34-.68.08-1.25.1-2.55.1h-4.42c-1.25 0-1.82-.03-2.55-.1.08.78.1 1.51.1 2.81v16.35c0 1.43-.05 2.31-.16 3.09h2.96c-.13-.7-.16-1.61-.16-3.07v-9.83zm0-7.07h4.24v1.56h-4.24zm0 3.48h4.24v1.59h-4.24zm18.07-2.99c0-1.22.03-1.92.1-2.78-.73.08-1.3.1-2.57.1h-4.68c-1.3 0-1.82-.03-2.55-.1.05.7.08 1.51.08 2.34v4.84c0 1.04-.03 1.74-.08 2.26.52-.03 1.38-.05 2.31-.05h4.73v9.44c0 .52-.18.62-.96.62-1.17 0-2.16-.08-3.41-.23.34.83.52 1.53.68 2.73 1.04.03 1.64.05 2.11.05 3.54 0 4.24-.47 4.24-2.83v-16.38zm-7.12-.49h4.47v1.56h-4.47zm0 3.48h4.47v1.59h-4.47zm-2.29 30.66c.83 3.9 2.34 7.25 4.42 9.8 1.09 1.33 2.05 2.18 4.32 3.85.78-1.09 1.33-1.79 1.98-2.39-2.63-1.51-4.47-3.15-5.85-5.23 1.09-.75 1.72-1.25 3.02-2.39.65-.55.83-.7 1.4-1.17l-2.34-1.82c-1.04 1.3-1.98 2.21-3.28 3.17-.62-1.43-.96-2.5-1.22-3.82h1.74c.91 0 1.69.03 2.47.13v-2.5c-.62.08-1.01.1-2.47.1h-10.24c-1.27 0-1.79-.03-2.44-.13v2.52c.75-.08 1.53-.13 2.44-.13h1.74c-.91.62-1.82 1.07-3.17 1.56-1.3.47-1.9.62-4.11 1.09.68.91.91 1.27 1.33 2.11 2.52-.75 4.26-1.46 5.9-2.39.42.49.65.78 1.01 1.33-2.47 1.51-5.38 2.68-8.76 3.48.6.73.96 1.27 1.4 2.11 3.09-1.01 6.19-2.47 8.35-3.9.26.57.39.86.6 1.43-2.55 2.03-6.6 3.98-10.5 5.02.62.73 1.01 1.27 1.56 2.29 4.13-1.56 6.84-2.96 9.52-4.97.05.47.1.94.1 1.43 0 1.35-.42 1.82-1.61 1.82-.86 0-1.92-.13-3.2-.36.44.99.6 1.48.75 2.68 1.04.08 2.05.13 2.76.13 1.46 0 2.29-.18 2.83-.6.75-.6 1.14-1.69 1.14-3.33 0-2.21-.57-4.37-1.72-6.63-.7-1.35-1.22-2.11-2.21-3.2.62-.44.88-.68 1.35-1.09zm-2.55-6.16h-6.47c-1.22 0-1.95-.03-2.76-.1.05.49.1 1.01.1 1.74v1.95c0 .75-.05 1.25-.13 1.79h2.73v-2.99h16.3v2.99h2.7c-.08-.57-.1-1.01-.1-1.77v-1.98c0-.81 0-1.22.08-1.74-.81.08-1.56.1-2.76.1h-6.92v-.55c0-.6.03-1.01.13-1.48h-3.07c.1.49.16.94.16 1.51v.52zm3.43 32.59c1.43.23 2.16.49 3.07 1.12 1.61 1.14 2.52 2.96 2.52 5.12 0 4.21-2.42 6.73-7.77 8.11.7.47 1.2.96 1.64 1.64.34.49.47.6.78.6.34 0 1.01-.21 1.87-.57 4.32-1.85 6.55-5.12 6.55-9.67 0-5.15-4.03-9-9.46-9-2.47 0-4.34.42-6.08 1.35-3.56 1.87-5.64 5.41-5.64 9.52 0 3.69 1.92 6.34 4.63 6.34 1.77 0 3.48-1.2 4.73-3.35 1.59-2.73 2.44-5.72 3.17-11.21zm-2.96.13c-.39 2.89-.7 4.37-1.33 6.32-.99 3.09-2.31 4.89-3.61 4.89-1.09 0-1.74-1.17-1.74-3.17 0-2.44.99-4.63 2.73-6.16 1.2-1.04 2.11-1.48 3.95-1.87zm1.79 37.94c-.08 1.01-.44 2.16-.91 2.94-.78 1.33-2.42 2.55-4.39 3.22.88.94 1.17 1.38 1.69 2.31 2.42-1.04 3.98-2.34 4.99-4.19.73-1.3 1.04-2.42 1.2-4.29h1.27v6.45c0 1.38.55 1.66 3.22 1.66 1.92 0 2.78-.21 3.2-.73.47-.6.73-1.79.83-4.21-.96-.29-1.53-.55-2.29-1.01 0 1.33-.08 2.47-.16 2.89-.1.52-.26.6-1.17.6-.86 0-1.04-.08-1.04-.39v-5.25h.73c.62 0 1.74.05 2.37.08-.08-.99-.08-1.35-.08-2.52v-8.89c0-1.2.03-1.87.08-2.5-.62.05-1.07.08-2.39.08h-7.25c-1.4 0-1.79-.03-2.42-.08.05.75.08 1.2.08 2.5v8.89c0 .91-.03 1.82-.08 2.52.94-.05 1.48-.08 2.37-.08h.16zm.13-11.52h6.71v1.66h-6.71zm0 3.77h6.71v1.64h-6.71zm0 3.77h6.71v1.77h-6.71zm-6.5 2.6c.81.94 1.38 1.48 2.55 2.47.26-1.01.57-1.79 1.09-2.65-1.2-.7-2.11-1.46-3.09-2.57.88-1.3 1.74-2.78 2.29-4.06.31-.7.36-.81.57-1.14l-1.14-1.38c-.23.05-.62.08-1.27.08h-.96v-2.11c0-.7.03-1.4.13-1.95h-2.91c.08.65.13 1.3.13 1.92v2.13h-1.07c-.78 0-1.3-.03-1.9-.1v2.73c.78-.08 1.27-.1 2.03-.1h3.64c-.86 1.74-1.66 2.91-2.78 4.16-1.2 1.33-2.31 2.29-3.74 3.2.49.81.91 1.77 1.17 2.76 1.27-.99 1.74-1.4 2.68-2.34v6.08c0 1.12-.05 1.82-.16 2.7h2.89c-.1-.7-.13-1.43-.13-2.7v-7.12zm6.66 20.84h6.68c1.01 0 1.85.05 2.68.16v-2.76c-.73.1-1.53.16-2.68.16h-6.68v-.39c0-.96.05-1.61.16-2.21h-3.15c.1.7.16 1.46.16 2.44v5.04h-3.85c-1.22 0-2.13-.03-2.83-.1.08.68.1 1.2.1 2.05v4.71c0 .75-.03 1.25-.08 1.87.65-.05 1.4-.08 2.37-.08h12.25c.99 0 1.69.03 2.39.08-.05-.57-.08-1.07-.08-1.92v-4.65c0-.86.03-1.46.1-2.05-.7.08-1.4.1-2.83.1h-4.71v-2.44zm4.73 4.89v3.54h-11.41v-3.54zm-14.79 13.1c1.38-1.82 2.11-3.28 2.91-5.75l-2.44-.88c-.39 1.3-.62 1.85-1.2 2.83-.55.99-.91 1.48-1.77 2.42zm7.83-.44c-.08-1.92-.23-3.28-.65-5.59l-2.39.34c.26 1.69.39 3.25.39 4.65 0 .23 0 .57-.03 1.04zm6.03-.44c-.57-2.03-1.04-3.35-1.95-5.43l-2.31.65c.73 1.87 1.3 3.87 1.66 5.69zm6.37-.49c-1.64-3.07-1.87-3.48-3.12-5.33l-2.34.94c1.27 2 1.85 3.17 2.86 5.72zm-11.41 22.45c0 .62-.03 1.61-.08 2.37v.1c0 .42.16.49 1.04.49.78 0 1.48-.08 1.61-.21.13-.08.18-.23.18-.55v-1.25c0-.83-.05-2.03-.08-2.5 3.95-1.92 6.32-2.94 7.59-3.28.34-.08.44-.18.44-.34 0-.44-1.14-2.08-2.21-3.17-.57.65-1.07 1.04-2.26 1.74-.16.1-1.53.86-4.11 2.26-.52-1.46-1.3-2.13-2.47-2.13-1.04 0-1.92.21-3.09.75.81-.88 1.35-1.72 2.13-3.15 2.39-.23 5.25-.68 6.08-.91.34-.08.44-.21.44-.49 0-.36-.16-1.56-.26-2.03-.05-.16-.16-.23-.36-.23-.13 0-.26.03-.83.18-.91.21-2.21.47-3.69.68q.03-.08.08-.18c.34-.81.55-1.22.73-1.56.08-.16.1-.21.1-.31 0-.44-1.07-.83-3.38-1.22-.03 1.22-.21 2.16-.75 3.64-1.17.05-2.29.08-3.3.08-1.25 0-1.77-.03-2.65-.16.03.7.16 2.08.23 2.42.13.44.21.52.6.52 1.01 0 1.98-.03 3.82-.16-1.07 1.87-2.83 3.69-4.97 5.12-.62.39-.68.44-.68.68 0 .18.16.52.42.96.55.91 1.09 1.51 1.35 1.51.21 0 .29-.05 1.07-.86.55-.55 1.43-1.27 2.18-1.79 1.22-.81 2.34-1.22 3.41-1.22.81 0 1.2.36 1.4 1.22-2.39 1.35-2.65 1.53-3.77 2.42-1.4 1.12-2.11 2.44-2.11 3.95 0 1.64.75 2.81 2.26 3.43 1.25.52 2.94.73 6.11.73 1.9 0 4.78-.16 5.41-.29.34-.08.47-.23.47-.62 0-.94-.1-1.72-.26-2.26-.08-.18-.21-.31-.39-.31h-.13c-1.04.26-1.35.34-1.9.42-1.33.18-3.28.31-4.68.31-1.64 0-2.91-.18-3.48-.52-.39-.23-.57-.55-.57-1.01 0-1.14.73-1.9 3.3-3.41v.13zm-4.99 29.08c-.83 1.17-1.77 1.9-2.39 1.9-.49 0-1.12-.7-1.53-1.69q-.23-.57-.44-.57c-.23 0-1.04.55-1.53 1.04-.31.29-.42.47-.42.68 0 .26.26.91.6 1.48.88 1.53 1.92 2.29 3.12 2.29.86 0 1.72-.36 2.55-1.12.6-.49.96-1.01.96-1.3 0-.16-.05-.34-.23-.62-.34-.57-.57-1.33-.68-2.08zm1.33 2.86c.42.83.65 1.72.75 2.6.03.42.1.6.34.68.34.16 1.3.26 2.37.26 1.43 0 2.55-.21 3.22-.62 1.04-.6 1.64-1.72 1.64-3.02 0-.65-.13-1.33-.36-1.85-.44-.99-.83-1.46-2.7-3.25-.99-.94-1.38-1.56-1.38-2.26 0-.55.23-1.07.68-1.53.21-.23.26-.31.26-.49s-.08-.29-.44-.55c-.6-.39-1.35-.75-1.61-.78-.23 0-.42.13-.81.57-.73.94-1.07 1.77-1.07 2.73 0 1.66.68 2.86 2.73 4.89 1.12 1.07 1.46 1.59 1.46 2.21 0 .73-.62 1.09-1.85 1.09-1.07 0-1.85-.16-3.22-.68zm8.53-13.81c0-.29-.31-.52-1.46-1.07-1.9-.88-4.47-1.66-5.56-1.66-.26 0-.44.18-.81.83-.42.75-.68 1.38-.68 1.64 0 .18.13.26.57.31 1.98.31 4.47 1.3 6.19 2.47.16.1.26.16.36.16.18 0 .34-.16.6-.6.42-.68.78-1.69.78-2.08zm4.6 14.82c.29 0 .94-.36 1.61-.88.49-.42.68-.62.68-.88 0-1.2-3.38-5.23-4.42-5.23-.44 0-1.92 1.3-1.92 1.66 0 .1.08.21.23.36.83.68 1.38 1.27 2.03 2.13.6.83.73 1.07 1.33 2.39.16.34.26.44.47.44zm-10.76 19.67h-.52c-1.92 0-3.98-.23-5.59-.62-.23 1.07-.39 1.9-.39 2.29 0 .21.1.34.36.42 1.22.36 3.41.65 5.2.65.31 0 .65 0 1.25-.03.03.55.08 1.14.21 2.83-.65-.08-1.2-.13-1.82-.13-1.95 0-3.48.49-4.5 1.43-.7.65-1.12 1.61-1.12 2.6 0 2.26 1.98 3.67 5.17 3.67 1.85 0 3.33-.47 4.21-1.33.7-.65.99-1.35 1.09-2.6 1.74.86 2.76 1.59 4.32 3.07.08.08.16.1.23.1.18 0 .47-.34 1.04-1.2.49-.78.73-1.22.73-1.4 0-.21-.08-.34-.29-.49-1.12-.88-1.79-1.33-3.04-1.95-1.12-.6-1.72-.83-3.17-1.27-.16-2.03-.21-2.57-.26-3.56 1.64-.18 4.24-.81 5.67-1.33.18-.08.29-.18.29-.31 0-.26-.23-.99-.49-1.64-.26-.62-.31-.7-.47-.7-.08 0-.13.03-.26.08-2.05.75-3.04 1.01-4.86 1.25-.03-.91-.03-.99-.03-2.83 1.64-.18 3.87-.57 4.73-.86.26-.08.34-.18.34-.36 0-.21-.18-.88-.36-1.43-.29-.83-.29-.86-.47-.86-.03 0-.05 0-.13.03-1.22.36-2.47.62-4.03.81.1-1.79.13-1.9.31-2.34.18-.42.21-.47.21-.6 0-.29-.16-.42-.68-.52-.62-.16-1.51-.23-2.81-.31.05.91.08 1.33.08 2.24v1.72c-.29.03-.52.03-.65.03-1.56 0-3.35-.18-4.81-.47-.18 1.01-.26 1.72-.26 2.29 0 .26.05.31.31.39.91.23 3.12.42 4.84.42.1 0 .34 0 .57-.03q.03 1.61.08 2.89h-.23zm.55 8.16v.44c0 1.3-.78 1.9-2.47 1.9-1.46 0-2.21-.42-2.21-1.2 0-.88.91-1.38 2.57-1.38.91 0 1.43.05 2.11.23zm-3.72 13.63c0 .18.08.26.31.36 1.46.52 3.09.91 4.97 1.2.42.05 3.22.36 3.35.36s.23-.08.31-.23c.13-.21.23-1.17.23-1.95 0-.62-.03-.7-.34-.73-2.78-.13-3.02-.16-4.63-.47-1.12-.21-2.11-.44-3.17-.81-.05-.03-.13-.03-.26-.05-.13-.03-.21.1-.31.42-.29.88-.47 1.66-.47 1.9zm6.63 8.16c.36-.34 1.14-1.07 1.4-1.27.47-.39 1.01-.75 1.4-.91.34-.18.44-.31.44-.62 0-.75-1.48-2.44-2.13-2.44-.1 0-.26.05-.42.13-.57.29-.91.36-3.09.65-2.89.42-6.08.73-7.23.73-.18 0-.36 0-.91-.03.1 1.04.23 1.72.49 2.57.16.52.21.6.44.6.13 0 .23-.03.52-.13.62-.23 3.28-.78 7.46-1.53q-9.67 10.3-10.3 10.82c-.47.42-.52.47-.52.65 0 .16.29.49 1.07 1.35.81.86.99 1.01 1.17 1.01.16 0 .34-.16.49-.42.86-1.35 2.13-2.91 3.61-4.39 1.53-1.53 2.26-2 3.2-2 1.04 0 1.35.49 1.53 2.5.16 1.61.36 2.39.81 3.09.7 1.07 1.9 1.48 4.16 1.48 1.51 0 3.98-.21 4.68-.39.23-.05.29-.16.29-.39 0-.75-.21-2.13-.39-2.55-.1-.18-.18-.23-.34-.23-.05 0-.1 0-.18.03-2.13.57-2.73.68-3.95.68-.91 0-1.4-.1-1.72-.42-.36-.31-.44-.6-.62-2.13-.34-2.68-1.17-3.74-2.96-3.74-.44 0-.88.08-1.48.26l3.07-2.94zm-7.83 26.35c-.99 4.29-2.42 8.27-4.39 12.01-.13.26-.21.44-.21.55 0 .13.13.26.57.49.88.49 1.79.86 2.13.86.16 0 .29-.13.42-.47 2-4.68 3.25-8.58 4.45-13.86q3.56-.62 4.03-.78c.23-.05.31-.16.31-.34 0-.21-.1-.94-.21-1.46-.21-.91-.26-1.01-.49-1.01-.08 0-.1 0-.21.05-.52.18-1.82.52-2.83.7.42-2.05.44-2.13.75-2.73.1-.23.16-.31.16-.44.03-.47-.55-.65-3.56-1.04v.6c0 1.07-.13 2.39-.39 4.11-1.38.18-3.02.29-4.42.29-.18 0-.47 0-.83-.03.05.99.16 1.79.31 2.44.08.34.21.44.44.44.05 0 .16 0 .29-.03h.16c1.59-.13 2.39-.21 3.54-.36zm6.32 8.24c-1.35.44-2.13.91-2.13 1.35 0 .16.1.6.26.96.21.65.57 1.25 1.01 1.72 1.2 1.25 3.02 1.77 6.27 1.77 1.53 0 2.99-.1 3.85-.29.34-.08.44-.21.44-.55 0-.81-.13-1.87-.31-2.42-.08-.23-.18-.31-.42-.31-.1 0-.16.03-.36.08-.83.26-2.29.42-3.98.42-1.53 0-2.63-.23-3.38-.73-.65-.44-.96-.91-1.25-2zm8.76-5.54c.13 0 .23-.05.26-.13.05-.16.1-.83.1-1.59 0-.86-.03-1.07-.16-1.17-.18-.13-.96-.18-2.47-.18-1.82 0-3.3.13-5.07.44-.55.1-.7.13-.81.18-.21.08-.26.23-.26.57 0 .55.1 1.82.18 2 .05.16.13.21.29.21.05 0 .13 0 .18-.03 2.29-.39 3.09-.47 5.02-.47.91 0 2 .05 2.52.13.08.03.16.03.21.03zm-13.1 32.67c-1.27 0-1.9-.03-2.57-.1v2.26c.65-.08 1.3-.1 2.65-.1-.34 2.03-1.01 3.15-2.7 4.45.88.6 1.35 1.01 2 1.72 1.95-1.87 2.78-3.54 3.04-6.16h2.81v3.69c0 1.09-.03 1.51-.13 2.13h2.6c-.08-.49-.1-.99-.1-2.13v-3.69h.36c1.25 0 1.79.03 2.57.1v-2.26c-.7.08-1.33.1-2.57.1h-.36v-2.31c1.27 0 1.9.03 2.6.1v-2.24c-.7.08-1.38.1-2.6.1h-7.25c-1.17 0-1.85-.03-2.52-.1v2.24c.68-.08 1.33-.1 2.5-.1 0 1.12 0 1.43-.05 2.31h-.26zm5.23-2.31v2.31h-2.65q.08-1.25.08-2.31zm-9.13-3.2h4.63c.94 0 1.48.03 2.29.05-.05-.68-.05-1.09-.05-2.24v-3.82c0-.88.03-1.56.08-2.31-.68.08-1.25.1-2.57.1h-4.52c-1.22 0-1.87-.03-2.55-.1.08.81.1 1.48.1 2.81v16.46c0 1.56-.05 2.37-.16 3.09h2.89c-.1-.73-.13-1.56-.13-3.04v-11zm0-6.34h4.42v1.3h-4.42zm0 3.07h4.42v1.35h-4.42zm18.38-2.26c0-1.25.03-1.87.1-2.78-.7.08-1.33.1-2.57.1h-4.78c-1.27 0-1.87-.03-2.55-.1.05.68.08 1.33.08 2.31v3.82c0 1.2 0 1.38-.08 2.24.57-.03 1.46-.05 2.29-.05h4.91v10.61c0 .55-.16.65-.96.65-.6 0-1.35-.05-2.31-.18.42.99.55 1.51.68 2.63.88.05 1.22.05 1.64.05 2.81 0 3.56-.57 3.56-2.78v-16.51zm-7.25-.81h4.65v1.3h-4.65zm0 3.07h4.65v1.35h-4.65zm-7.57 35.94c0 .26-.03.42-.03.75h-3.56c-1.22 0-1.87-.03-2.63-.16v2.65c.81-.1 1.48-.13 2.63-.13h3.17c-.39 1.2-.88 2-1.77 2.78-1.09.99-2.29 1.56-4.6 2.21.78.81 1.3 1.51 1.77 2.44 3.07-1.22 4.58-2.18 5.8-3.85.75-.99 1.22-2.08 1.56-3.59h3.22v4.86c0 1.72.81 2.13 4.19 2.13 4.78 0 5.25-.36 5.77-4.55-.96-.18-1.74-.42-2.68-.91-.1 1.59-.26 2.34-.55 2.6-.29.29-.94.39-2.26.39-.68 0-1.17-.05-1.48-.13-.36-.08-.39-.16-.39-.65v-3.74h3.95c1.12 0 1.87.05 2.63.13v-2.65c-.75.13-1.38.16-2.63.16h-3.95v-2.68c1.2 0 1.66.03 2.39.1v-1.09c1.3.88 2.11 1.33 4.11 2.26.68-1.48.83-1.77 1.4-2.5-1.85-.7-2.6-1.07-3.98-1.9.78-.7 1.61-1.56 2.24-2.29.44-.52.55-.65.68-.78l-2.29-1.3c-.6.99-1.51 2.05-2.57 3.02-.6-.44-.86-.65-1.48-1.2.6-.55 1.4-1.35 1.85-1.87q.83-1.01.96-1.14l-2.29-1.27q-.08.13-.21.34c-.1.18-.16.26-.52.73-.49.62-.65.81-1.46 1.59-.96-1.14-1.3-1.74-1.56-2.73-.57.08-.96.1-2.13.1h-4.65c-.86 0-1.56-.05-2.03-.13v2.6q-.39-.34-.81-.65l-2.05 1.51c1.27.88 2.05 1.61 3.51 3.28-1.72 1.14-2.83 1.72-4.78 2.44.68.81 1.04 1.38 1.48 2.29 1.98-.88 2.89-1.38 4.37-2.39v1.09c.62-.05.81-.08 1.66-.1v1.92zm2.65-1.92h2.91v2.68h-2.94c0-.26.03-.36.03-.55zm-.88-7.57c-.75 1.01-1.38 1.69-2.44 2.68-.81-.91-1.38-1.43-2.7-2.57.47-.05 1.04-.1 1.48-.1h3.67zm-.96 5.2h-.68c1.79-1.46 2.83-2.57 4.24-4.52 1.38 1.92 2.39 2.99 4.24 4.52zm3.22 35.84c0 .62-.03 1.61-.08 2.37v.1c0 .42.16.49 1.04.49.78 0 1.48-.08 1.61-.21.13-.08.18-.23.18-.55v-1.25c0-.83-.05-2.03-.08-2.5 3.95-1.92 6.32-2.94 7.59-3.28.34-.08.44-.18.44-.34 0-.44-1.14-2.08-2.21-3.17-.57.65-1.07 1.04-2.26 1.74-.16.1-1.53.86-4.11 2.26-.52-1.46-1.3-2.13-2.47-2.13-1.04 0-1.92.21-3.09.75.81-.88 1.35-1.72 2.13-3.15 2.39-.23 5.25-.68 6.08-.91.34-.08.44-.21.44-.49 0-.36-.16-1.56-.26-2.03-.05-.16-.16-.23-.36-.23-.13 0-.26.03-.83.18-.91.21-2.21.47-3.69.68q.03-.08.08-.18c.34-.81.55-1.22.73-1.56.08-.16.1-.21.1-.31 0-.44-1.07-.83-3.38-1.22-.03 1.22-.21 2.16-.75 3.64-1.17.05-2.29.08-3.3.08-1.25 0-1.77-.03-2.65-.16.03.7.16 2.08.23 2.42.13.44.21.52.6.52 1.01 0 1.98-.03 3.82-.16-1.07 1.87-2.83 3.69-4.97 5.12-.62.39-.68.44-.68.68 0 .18.16.52.42.96.55.91 1.09 1.51 1.35 1.51.21 0 .29-.05 1.07-.86.55-.55 1.43-1.27 2.18-1.79 1.22-.81 2.34-1.22 3.41-1.22.81 0 1.2.36 1.4 1.22-2.39 1.35-2.65 1.53-3.77 2.42-1.4 1.12-2.11 2.44-2.11 3.95 0 1.64.75 2.81 2.26 3.43 1.25.52 2.94.73 6.11.73 1.9 0 4.78-.16 5.41-.29.34-.08.47-.23.47-.62 0-.94-.1-1.72-.26-2.26-.08-.18-.21-.31-.39-.31h-.13c-1.04.26-1.35.34-1.9.42-1.33.18-3.28.31-4.68.31-1.64 0-2.91-.18-3.48-.52-.39-.23-.57-.55-.57-1.01 0-1.14.73-1.9 3.3-3.41v.13zm-5.17 26.82c-3.28 1.69-4.78 3.22-4.78 4.91 0 .7.21 1.3.62 1.87 1.04 1.35 2.76 2.24 4.39 2.24s2.52-1.01 2.52-3.12c0-.23 0-.7-.03-1.17q0-.36-.03-2.08-.03-1.01-.03-1.12c2.24-.96 4.32-1.48 5.95-1.48 1.74 0 2.83 1.12 2.83 2.89s-1.14 2.89-3.17 2.89c-1.01 0-1.9-.16-2.96-.55.31.75.47 1.38.52 2.11.05.62.08.7.36.86.29.18 1.35.29 2.65.29s2.39-.29 3.2-.75c1.53-.91 2.39-2.63 2.39-4.76 0-3.3-2.16-5.43-5.49-5.43-1.72 0-3.72.42-6.29 1.27v-3.35c1.66-.29 3.56-.68 3.87-.81.21-.08.34-.26.34-.47 0-.39-.16-1.43-.29-1.95-.05-.18-.18-.29-.39-.29-.05 0-.1 0-.18.03-1.04.31-2.42.65-3.28.81.03-1.77.16-2.7.39-3.2.13-.26.16-.36.16-.52 0-.26-.1-.39-.36-.47-.55-.16-1.33-.26-3.3-.36.26 1.4.36 2.73.36 4.42v.55c-1.43.16-2.57.23-3.85.23h-1.01c.18 2.31.31 2.65 1.12 2.65 1.17 0 1.69-.03 3.74-.23v4.11zm0 5.33c0 .6-.13.83-.49.83-.78 0-1.64-.65-1.64-1.25 0-.55.62-1.14 2.13-2.05zm14.9-8.14c.39 0 1.69-1.64 1.69-2.11 0-.49-2.13-2.11-3.77-2.86-.68-.31-1.66-.65-1.92-.68-.26 0-.29.03-.57.42-.73.99-.99 1.4-.99 1.56 0 .13.1.23.31.31 1.72.55 3.54 1.72 4.86 3.12.16.18.26.23.39.23zm-15.76 20.86c-.08.73-.13 1.72-.13 2.31 0 .91.08.99 1.56 1.27 2.16.42 4.08.6 6.4.6 1.74 0 4-.16 4.21-.29.16-.1.21-.31.21-.91 0-.94-.05-1.72-.1-2.03-.05-.16-.13-.23-.34-.23h-.18c-1.77.26-2.65.31-4.16.31-2.73 0-5.2-.34-7.46-1.04zm-.13 12.32c-2.13 1.22-2.37 1.38-2.37 1.77 0 .57.86 1.98 1.72 2.78 1.79 1.69 4.03 2.34 7.96 2.34 3.02 0 6.53-.39 7.31-.81.23-.1.29-.26.29-.78 0-.86-.05-1.69-.13-2.26-.05-.23-.13-.34-.29-.34-.08 0-.16 0-.29.05-2.34.6-4.71.91-6.84.91-4.26 0-6.42-1.09-7.36-3.67zm.36 22.27c-.75 2.05-1.01 2.65-1.74 4.08-.86 1.72-1.85 3.33-2.6 4.26-.34.47-.44.62-.44.81s.1.31.52.6c.91.68 1.64 1.07 1.9 1.07.18 0 .31-.1.52-.42.7-1.09 1.22-2.05 2.13-3.87 1.2-2.44 1.85-4 2.81-6.92 1.61-.21 3.12-.47 4-.68.68-.16.75-.21.75-.52 0-.29-.08-.83-.21-1.48-.16-.75-.21-.88-.39-.88-.13 0-.21.03-.39.08-.96.31-1.69.49-2.91.7.44-1.61.52-1.9.73-2.21.39-.6.42-.65.42-.83 0-.49-.96-.81-3.64-1.17 0 1.4-.16 2.5-.6 4.6-.91.08-2.96.21-3.25.21-.94 0-1.69-.03-1.98-.05.03.78.21 2.16.34 2.57.08.26.18.34.39.34.03 0 .05 0 .29-.03.31-.03.6-.05 1.07-.08 1.2-.08 1.27-.1 2.29-.18zm16.87.47c0-.29-.34-.6-1.46-1.35-1.38-.94-3.3-1.92-3.8-1.92-.23 0-.39.16-1.01 1.07-.39.6-.52.83-.52 1.01 0 .21.13.31.49.47q1.14.52 1.77.91c.96.6 1.87 1.27 2.52 1.9.18.18.29.23.42.23.18 0 .34-.13.65-.57.52-.75.94-1.53.94-1.74zm-5.85 10.82c.91.55 1.56.99 2.13 1.56q.73.68.88.68c.18 0 .42-.23.73-.75.73-1.17.86-1.4.86-1.66 0-.21-.21-.44-.78-.88-1.3-1.01-2.05-1.43-3.9-2.26-.08-1.27-.16-2.91-.16-3.87 0-.7.03-1.09.16-1.64.03-.18.05-.29.05-.42 0-.21-.1-.34-.31-.42-.49-.21-1.51-.36-2.83-.49.05.83.1 1.51.1 2 .1 2.42.1 2.91.21 4.16-1.07-.16-1.35-.18-1.98-.18-2.68 0-4.68 1.79-4.68 4.19s1.92 3.87 4.76 3.87c2.99 0 4.76-1.46 4.76-3.87zm-2.89-1.27s.03.21.03.42c0 1.38-.73 2.08-2.11 2.08-1.17 0-1.95-.55-1.95-1.4 0-.91.86-1.51 2.11-1.51.7 0 1.4.16 1.92.42zm-11.78 19.69c0 3.64.29 6.27.88 8.35.94 3.2 2.44 4.81 4.45 4.81 1.38 0 2.68-.81 3.69-2.29.52-.75.91-1.64.91-2.05 0-.18-.08-.36-.21-.55-.73-.94-.91-1.33-1.4-2.65-.96 2.89-1.85 4.13-2.91 4.13-.7 0-1.3-.7-1.69-1.92-.52-1.59-.73-3.67-.73-6.99 0-2.37.1-3.35.44-4.24q.1-.26.1-.42c0-.29-.21-.44-.83-.68-.7-.26-1.59-.44-2.78-.57.05.57.08 1.59.08 2.34zm13.21-1.04c1.77 2.18 1.82 2.26 2.55 3.77.81 1.69 1.27 3.15 1.61 5.15.08.47.18.6.42.6.31 0 1.53-.42 2.13-.73.55-.29.68-.42.68-.68 0-.55-.55-2.39-1.12-3.77-.86-2.03-2.21-4.11-3.51-5.36-.21-.18-.34-.26-.49-.26-.31 0-1.17.47-2.26 1.27zm-5.07 31.5h-.52c-1.92 0-3.98-.23-5.59-.62-.23 1.07-.39 1.9-.39 2.29 0 .21.1.34.36.42 1.22.36 3.41.65 5.2.65.31 0 .65 0 1.25-.03.03.55.08 1.14.21 2.83-.65-.08-1.2-.13-1.82-.13-1.95 0-3.48.49-4.5 1.43-.7.65-1.12 1.61-1.12 2.6 0 2.26 1.98 3.67 5.17 3.67 1.85 0 3.33-.47 4.21-1.33.7-.65.99-1.35 1.09-2.6 1.74.86 2.76 1.59 4.32 3.07.08.08.16.1.23.1.18 0 .47-.34 1.04-1.2.49-.78.73-1.22.73-1.4 0-.21-.08-.34-.29-.49-1.12-.88-1.79-1.33-3.04-1.95-1.12-.6-1.72-.83-3.17-1.27-.16-2.03-.21-2.57-.26-3.56 1.64-.18 4.24-.81 5.67-1.33.18-.08.29-.18.29-.31 0-.26-.23-.99-.49-1.64-.26-.62-.31-.7-.47-.7-.08 0-.13.03-.26.08-2.05.75-3.04 1.01-4.86 1.25-.03-.91-.03-.99-.03-2.83 1.64-.18 3.87-.57 4.73-.86.26-.08.34-.18.34-.36 0-.21-.18-.88-.36-1.43-.29-.83-.29-.86-.47-.86-.03 0-.05 0-.13.03-1.22.36-2.47.62-4.03.81.1-1.79.13-1.9.31-2.34.18-.42.21-.47.21-.6 0-.29-.16-.42-.68-.52-.62-.16-1.51-.23-2.81-.31.05.91.08 1.33.08 2.24v1.72c-.29.03-.52.03-.65.03-1.56 0-3.35-.18-4.81-.47-.18 1.01-.26 1.72-.26 2.29 0 .26.05.31.31.39.91.23 3.12.42 4.84.42.1 0 .34 0 .57-.03q.03 1.61.08 2.89h-.23zm.55 8.16v.44c0 1.3-.78 1.9-2.47 1.9-1.46 0-2.21-.42-2.21-1.2 0-.88.91-1.38 2.57-1.38.91 0 1.43.05 2.11.23zm-4.94 11.94c.16 1.12.18 1.77.18 3.98 0 .23-.03.78-.05 1.69-.21 6.06-.23 7.62-.23 9.65 0 2.57.39 3.93 1.38 4.97.94.94 2.39 1.43 4.37 1.43 2.99 0 5.85-1.2 8.42-3.51 1.3-1.17 1.79-1.79 1.79-2.26 0-.23-.05-.39-.13-.6-.57-1.17-.78-1.72-.94-2.55-.96 1.43-1.53 2.13-2.47 3.02-2.03 1.9-4.24 2.86-6.58 2.86-1.46 0-2.37-.44-2.65-1.3-.13-.42-.21-1.04-.21-1.87 0-2.57.1-5.82.31-10.01.1-1.82.31-3.15.6-3.9.13-.36.16-.44.16-.62 0-.29-.18-.42-.83-.6-.78-.21-1.79-.31-3.12-.36zm.03 36.2c-.99 4.29-2.42 8.27-4.39 12.01-.13.26-.21.44-.21.55 0 .13.13.26.57.49.88.49 1.79.86 2.13.86.16 0 .29-.13.42-.47 2-4.68 3.25-8.58 4.45-13.86q3.56-.62 4.03-.78c.23-.05.31-.16.31-.34 0-.21-.1-.94-.21-1.46-.21-.91-.26-1.01-.49-1.01-.08 0-.1 0-.21.05-.52.18-1.82.52-2.83.7.42-2.05.44-2.13.75-2.73.1-.23.16-.31.16-.44.03-.47-.55-.65-3.56-1.04v.6c0 1.07-.13 2.39-.39 4.11-1.38.18-3.02.29-4.42.29-.18 0-.47 0-.83-.03.05.99.16 1.79.31 2.44.08.34.21.44.44.44.05 0 .16 0 .29-.03h.16c1.59-.13 2.39-.21 3.54-.36zm6.32 8.24c-1.35.44-2.13.91-2.13 1.35 0 .16.1.6.26.96.21.65.57 1.25 1.01 1.72 1.2 1.25 3.02 1.77 6.27 1.77 1.53 0 2.99-.1 3.85-.29.34-.08.44-.21.44-.55 0-.81-.13-1.87-.31-2.42-.08-.23-.18-.31-.42-.31-.1 0-.16.03-.36.08-.83.26-2.29.42-3.98.42-1.53 0-2.63-.23-3.38-.73-.65-.44-.96-.91-1.25-2zm8.76-5.54c.13 0 .23-.05.26-.13.05-.16.1-.83.1-1.59 0-.86-.03-1.07-.16-1.17-.18-.13-.96-.18-2.47-.18-1.82 0-3.3.13-5.07.44-.55.1-.7.13-.81.18-.21.08-.26.23-.26.57 0 .55.1 1.82.18 2 .05.16.13.21.29.21.05 0 .13 0 .18-.03 2.29-.39 3.09-.47 5.02-.47.91 0 2 .05 2.52.13.08.03.16.03.21.03zm-1.59 17.79c-2.42 0-4.39 1.98-4.39 4.39s1.98 4.42 4.39 4.42 4.39-1.98 4.39-4.42-1.95-4.39-4.39-4.39zm0 2.03c1.3 0 2.37 1.07 2.37 2.37s-1.07 2.39-2.37 2.39-2.37-1.07-2.37-2.39 1.07-2.37 2.37-2.37z"/><path d="m11.3 716.16 7.49-14.16 2.14.95-5.47 15.05zm-11.3 0 7.55-14.16 2.08.95-5.47 15.05-4.16-1.84zm112.7-714.32-7.49 14.16-2.14-.95 5.47-15.05zm11.3 0-7.55 14.16-2.08-.95 5.47-15.05z" fill="#f5dcbe"/></svg>