<svg viewBox="0 0 178 298.75" xmlns="http://www.w3.org/2000/svg"><path d="m11.3 296.91 7.49-14.1 2.14.95-5.47 14.99zm-11.3 0 7.55-14.1 2.08.95-5.47 14.99-4.16-1.84zm166.7-295.07-7.5 14.1-2.14-.95 5.47-14.99 4.16 1.84zm11.3 0-7.55 14.1-2.08-.95 5.47-14.99z" fill="#f5dcbe"/><path d="m139.9 21.92c.12 0 .42-.18.74-.42.24-.18.3-.28.3-.38s-.18-.4-.46-.76c-.68-.88-1.2-1.38-1.42-1.4-.14 0-.26.04-.52.24-.34.24-.44.34-.44.44 0 .04.02.08.1.16.54.52 1 1.1 1.48 1.92.08.16.14.2.22.2zm-.88.44c0-.14-.38-.68-.92-1.3-.6-.68-.84-.88-1-.88-.22 0-.98.56-.98.72 0 .06.02.1.1.18.46.46.94 1.08 1.26 1.62q.36.6.48.6c.12 0 .38-.18.82-.56.18-.16.24-.24.24-.38zm-5.06 2.38c-.46 2.24-1.32 4.12-2.7 5.86-1.54 1.96-3.14 3.18-6.08 4.66.54.28.96.6 1.5 1.14.46.46.5.48.72.48.3 0 1.44-.7 2.64-1.62 3-2.32 5.22-5.48 6.34-9 .44-1.4.46-1.46.66-1.7.14-.18.2-.3.2-.44 0-.22-.08-.34-.46-.82-.64-.76-1.06-1.08-1.4-1.08-.08 0-.12 0-.22.04-.36.14-.48.16-.84.2-.5.06-3.64.12-6.32.12-2.96 0-4.24-.06-5.22-.2.06 2.06.18 2.72.56 2.72.02 0 .04 0 .06-.02.64-.18 3.16-.3 6.74-.32q2.26 0 3.82-.02zm1.04 25.14c-.58 1.74-1.42 3.14-2.54 4.22-1.48 1.42-3.56 2.56-5.84 3.24.56.28.8.5 1.32 1.12.34.4.5.52.78.52.4 0 2.14-.8 3.22-1.5 2.36-1.5 3.86-3.3 5.2-6.24.38-.86.48-1.04.64-1.18.24-.26.34-.42.34-.64 0-.24-.36-.8-.9-1.42-.32-.34-.56-.48-.86-.48-.12 0-.24.02-.38.08-.4.12-.46.14-.76.16-.38.04-1.46.04-5.46.04-3.72 0-5.1-.06-6.08-.22.14 2.06.32 2.74.76 2.74.02 0 .12-.02.16-.02 1.42-.26 2.82-.32 10.4-.42zm-9.3-6.88c.12 2.24.2 2.54.72 2.54h.16c1.18-.1 3.32-.14 6.32-.14.62 0 2.12.04 2.5.08.18 0 .34.02.42.02.26 0 .34-.2.34-.92v-.08c-.02-.2-.02-.42-.02-.66-.02-.6-.12-.8-.38-.8h-.24q-2.3.16-4.38.16c-2.88 0-4.14-.04-5.44-.2zm12.02 24.88c-1.5 2.62-3.44 4.54-6.52 6.48-2.34 1.48-4.76 2.56-6.78 3.02.22.7.6 1.52 1 2.12.3.44.46.6.64.6.12 0 .2-.04.36-.2.24-.22.32-.26 1.86-.98 2.4-1.14 4.1-2.18 6.1-3.74 1.78-1.38 2.96-2.54 4.06-3.98.26-.36.34-.5.34-.7 0-.12-.04-.26-.14-.46-.52-1.02-.7-1.42-.92-2.16zm-13.28.12c0 .06.04.12.12.18q.14.08.84.54c.52.32 1.56 1.16 2.08 1.66q.82.78.96.78c.16 0 .38-.18.82-.68.48-.54.84-1.08.84-1.22 0-.2-.24-.46-1-1.08-1.24-1-2.74-1.96-3.12-1.98-.18 0-.32.1-.66.48-.5.58-.88 1.14-.88 1.32zm5.5 26.74c2.04.58 4.1 1.56 6.06 2.86.14.1.24.14.32.14.12 0 .22-.1.38-.44.32-.6.68-1.56.68-1.76 0-.14-.08-.24-.24-.34-1.78-.96-2.92-1.46-4.92-2.16q-.82-.3-2.24-.7c.06-2.36.1-3.56.1-3.6.02-.34.06-.6.14-.84q.08-.34.08-.46c0-.16-.1-.26-.3-.3-.58-.12-1.22-.2-2.66-.28.18 1.14.22 2.46.22 7.06 0 2.36-.06 8.14-.1 8.66v.08c0 .4.12.46.76.46.74 0 1.54-.1 1.68-.22.1-.06.14-.2.14-.38v-.1c-.04-.94-.1-4.2-.1-5.44zm5.18-3.82c.28 0 1.18-.72 1.18-.94 0-.18-.46-.8-1.12-1.52-.5-.54-.68-.7-.86-.7-.1 0-.26.08-.54.3-.38.26-.48.38-.48.5 0 .06.02.06.12.18.6.62 1.1 1.3 1.5 2.02.06.12.12.16.2.16zm3.2-2.24c0-.24-.86-1.34-1.48-1.92-.2-.18-.32-.24-.42-.24-.24 0-1.04.56-1.04.72 0 .04.04.1.1.16.56.56 1.02 1.16 1.5 1.96.1.14.14.18.2.18.1 0 .28-.1.54-.28.46-.32.6-.46.6-.58zm-3.28 31.48q-2.92.02-5.04.02c-3.16 0-4.48-.04-5.82-.16.06 1.06.12 1.8.2 2.18.06.42.14.5.36.5.06 0 .12 0 .18-.02.38-.06.66-.08 1.14-.12.78-.04 4.78-.12 6.98-.12h1.98q-.02.8-.02.88 0 .48.8.48c.52 0 1.42-.08 1.54-.12.14-.06.2-.22.2-.48 0-.1 0-.12-.02-.42-.04-.7-.1-4.22-.1-5.38 0-3.3 0-4.42.06-6.36-1.98.1-2.4.1-7.64.1-2.74 0-4.18-.06-5.36-.2.08 1.46.12 2 .22 2.48.04.16.04.18.26.24l.08-.02.1.02s.08-.02.18-.04c.5-.12 4.22-.24 7.88-.24h1.84zm2.68 13.72c-1.5 2.62-3.44 4.54-6.52 6.48-2.34 1.48-4.76 2.56-6.78 3.02.22.7.6 1.52 1 2.12.3.44.46.6.64.6.12 0 .2-.04.36-.2.24-.22.32-.26 1.86-.98 2.4-1.14 4.1-2.18 6.1-3.74 1.78-1.38 2.96-2.54 4.06-3.98.26-.36.34-.5.34-.7 0-.12-.04-.26-.14-.46-.52-1.02-.7-1.42-.92-2.16zm-13.28.12c0 .06.04.12.12.18q.14.08.84.54c.52.32 1.56 1.16 2.08 1.66q.82.78.96.78c.16 0 .38-.18.82-.68.48-.54.84-1.08.84-1.22 0-.2-.24-.46-1-1.08-1.24-1-2.74-1.96-3.12-1.98-.18 0-.32.1-.66.48-.5.58-.88 1.14-.88 1.32zm1.26 23.02c-1.66 0-2.24-.02-3.26-.14.04 1 .14 1.96.24 2.3.04.18.14.26.3.26.04 0 .08 0 .12-.02.48-.08 2.32-.2 3.36-.22-.02 1.16-.04 1.48-.12 3.3v.3c0 .36.1.42.8.42.48 0 1.1-.06 1.34-.12.22-.08.28-.18.28-.46v-.26q-.04-1.8-.04-3.22c.72-.02 1.26-.02 1.62-.04.82-.02 1.38-.02 1.56-.02h1.3c-.08 2-.32 3.18-.88 4.38-.92 1.94-2.42 3.12-5.3 4.16.62.38.9.58 1.34 1.06.42.44.44.46.62.46.2 0 .92-.28 1.46-.58 1.54-.86 2.66-1.88 3.52-3.26 1-1.6 1.4-3.2 1.52-6.2 2.28 0 2.44 0 3.12.06q.44.04.48.04c.3 0 .34-.1.34-1.04 0-.64-.04-1.12-.1-1.24-.04-.06-.12-.1-.22-.1-.06 0-.12 0-.2.02-.6.06-1.36.08-3.38.12v-1.66c.02-.64.08-1.26.14-1.4.12-.32.14-.38.14-.52 0-.18-.12-.26-.54-.32-.58-.1-1.18-.16-2.26-.22.16.96.22 1.86.22 4.14-2.48.02-3.96.02-4.46.02.04-2.26.06-2.68.16-2.96q.12-.42.12-.52c0-.12-.06-.2-.2-.26-.14-.04-1.22-.22-1.46-.22q-.78-.04-1.14-.06c.16.64.24 1.8.24 4.02zm.14 19.1c.16 1 .2 1.6.2 2.92 0 2.86-.34 4.76-1.18 6.64-.6 1.36-1.14 2.1-2.52 3.5.9.2 1.4.38 1.94.72.16.08.26.12.34.12.2 0 .38-.18.84-.74 2.1-2.66 2.98-5.78 3.02-10.66 0-.8.02-1.12.14-1.56.04-.16.04-.2.04-.28 0-.16-.08-.28-.24-.34-.54-.18-1.46-.3-2.58-.32zm4.72 9.76c0 1.1-.04 1.46-.18 1.84-.06.18-.08.24-.08.34 0 .26.18.56.58.96.52.5 1.24.98 1.48.98.14 0 .32-.08.46-.2.24-.22.5-.4.94-.62 1.86-.98 2.86-1.68 4.34-3.04.92-.86 1.12-1.12 1.12-1.44 0-.1 0-.16-.06-.34-.18-.6-.26-1.36-.3-2.4-1.68 2.12-3.34 3.5-5.88 4.94q.04-8.8.1-9.34c.02-.3.08-.62.14-.74.08-.22.1-.28.1-.4 0-.4-.78-.56-2.94-.64.12.84.18 1.62.18 2.6zm-.6 15.16q2.92-.02 5.2-.06c-.48 1.28-1.34 2.76-2.54 4.32-1.2-1.22-2.38-2.18-2.7-2.18-.12 0-.2.06-.54.4-.7.72-.96 1.02-.96 1.12 0 .08.04.14.16.24 1.02.76 1.48 1.14 1.9 1.58q.44.46.58.6c-1.9 1.9-4.04 3.4-6.8 4.74.58.24 1.08.6 1.68 1.18.16.16.32.24.5.24.62 0 3.44-1.9 5.22-3.52 2.26-2.04 3.66-3.92 5.54-7.34.3-.58.54-.96.7-1.12.22-.22.28-.32.28-.5 0-.22-.14-.46-.64-1.02-.62-.74-.9-.96-1.18-.96-.12 0-.18.02-.34.08-.62.24-1.12.28-3.06.28-.12 0-.62 0-1.32-.02h-.36c.54-.82.8-1.18 1-1.32s.26-.22.26-.32c0-.28-.5-.54-2.62-1.32-.32 1.1-.94 2.26-1.78 3.44-1.24 1.74-2.52 2.9-4.66 4.2.56.3 1.06.66 1.42 1.02.38.4.4.4.56.4s.48-.2 1.08-.68c1.34-1.1 2.5-2.28 3.42-3.48zm7.76 20.84c-1.5 2.62-3.44 4.54-6.52 6.48-2.34 1.48-4.76 2.56-6.78 3.02.22.7.6 1.52 1 2.12.3.44.46.6.64.6.12 0 .2-.04.36-.2.24-.22.32-.26 1.86-.98 2.4-1.14 4.1-2.18 6.1-3.74 1.78-1.38 2.96-2.54 4.06-3.98.26-.36.34-.5.34-.7 0-.12-.04-.26-.14-.46-.52-1.02-.7-1.42-.92-2.16zm-13.28.12c0 .06.04.12.12.18q.14.08.84.54c.52.32 1.56 1.16 2.08 1.66q.82.78.96.78c.16 0 .38-.18.82-.68.48-.54.84-1.08.84-1.22 0-.2-.24-.46-1-1.08-1.24-1-2.74-1.96-3.12-1.98-.18 0-.32.1-.66.48-.5.58-.88 1.14-.88 1.32zm5.86 26.62c2.04.6 4.1 1.56 6.06 2.86.14.1.24.14.32.14.12 0 .22-.1.38-.44.32-.6.68-1.56.68-1.76 0-.12-.08-.22-.24-.34-1.78-.94-2.92-1.46-4.92-2.16q-.82-.3-2.24-.7c.06-2.36.1-3.56.1-3.6.02-.32.06-.6.14-.84q.08-.34.08-.44c0-.16-.1-.26-.3-.32-.58-.12-1.22-.18-2.66-.28.18 1.16.22 2.46.22 7.06 0 2.38-.06 8.14-.1 8.66v.08c0 .4.12.46.76.46.74 0 1.54-.1 1.68-.22.1-.06.14-.2.14-.38v-.1c-.04-.94-.1-4.2-.1-5.42zm-3.26 24.12c-.46.98-.66 1.36-1.22 2.62-.06-1-.08-1.62-.08-2.08 0-2.86.74-7.1 1.4-8.16.22-.32.24-.38.24-.52 0-.2-.1-.3-.44-.44-.6-.28-1.32-.48-2.16-.64-.08.66-.18 1.26-.38 2.34-.56 3-.7 4.36-.7 6.56 0 2.02.3 4.7.68 6 .08.24.14.3.4.3.16 0 .3.02.4.02h.08c.22 0 .9-.1 1-.14.08-.04.14-.16.2-.38.24-1.08.72-2.52 1.12-3.44.18-.44.2-.46.2-.6 0-.1-.02-.18-.08-.28-.36-.54-.48-.74-.66-1.16zm3.5-7.64c-.12 0-.18.04-.2.12-.04.16-.1.96-.1 1.5 0 .36.04.5.14.56.2.12 1.74.22 3.46.22 1.44 0 2.8-.1 3.62-.26.22-.04.28-.14.28-.44 0-.54-.06-1.42-.1-1.62-.04-.16-.1-.22-.24-.22q-.08 0-.18.02c-1.24.22-2.56.32-3.88.32-.98 0-2.26-.08-2.7-.18-.04-.02-.08-.02-.1-.02zm.16 8.8c-1.08.66-1.5 1.04-1.5 1.32 0 .54.92 1.64 1.8 2.18.94.56 2.08.78 3.92.78 1.34 0 2.44-.14 3.52-.42.28-.08.34-.14.34-.34 0-.4-.08-1.2-.18-1.88-.02-.2-.12-.28-.26-.28-.06 0-.16.02-.28.06-1.24.36-2 .46-3.28.46s-2.1-.12-2.74-.46-.98-.7-1.34-1.42zm-38.36-238.23c0 .92-.04 1.64-.12 2.34h2.3v-1.16h8.92v1.16h2.3c-.08-.72-.1-1.36-.1-2.34v-12.38c0-.68.02-1.26.1-1.98-.56.08-1.14.1-2.06.1h-9.3c-.92 0-1.56-.02-2.14-.1.06.64.1 1.32.1 2.06zm2.18-12.22h8.92v4.46h-8.92zm0 6.48h8.92v4.9h-8.92zm-.1 20.34h2.66c.9 0 1.36.02 1.84.1v-2.24c-.52.08-.92.1-1.84.1h-2.66v-3.2c0-1.02.02-1.52.12-2.16h-2.42c.1.66.12 1.16.12 2.16v12.34c-.9.22-1.44.32-2.1.36l.46 2.38c.24-.1.54-.2 1.04-.36.12-.02.24-.06.42-.1q1.4-.38 2.02-.58c2.36-.74 3.34-1.08 4.82-1.66v-2.04c-1.7.6-2.78.96-4.48 1.44zm7.32 1.22c2.22-1.2 3.82-2.22 5.32-3.46q.38-.3.7-.54l-1.5-1.76c-.8 1.08-2.28 2.22-4.52 3.52v-4.2c0-1.06.02-1.48.12-2.16h-2.36c.1.58.12 1.08.12 2.16v12.86c0 .86.2 1.32.7 1.6.5.26 1.16.34 2.92.34 2.3 0 3.14-.18 3.66-.76.56-.62.78-1.72.92-4.58-.82-.24-1.28-.44-2.06-.86 0 2.42-.12 3.5-.38 3.88-.18.26-.68.34-1.94.34-1.44 0-1.7-.08-1.7-.5zm-7.62 22.12v1.56h-1.7c-.74 0-1.22-.02-1.78-.1v2.02c.56-.08 1.1-.1 1.78-.1h1.7v1.94c-2.12.24-2.7.28-3.86.28l.4 2.22c.58-.12.74-.14 2.04-.34 2.56-.38 4-.66 6.78-1.28l-.02-1.78c-1.52.32-2.06.44-3.5.66v-1.7h1.7c.82 0 1.22.02 1.76.08v-2c-.52.08-.98.1-1.76.1h-1.7v-1.56h1.7c.66 0 1.16.02 1.54.06-.04-.44-.04-.72-.04-1.72v-4.94c0-.82.02-1.32.06-1.78-.5.06-.96.08-1.76.08h-4.74c-.74 0-1.26-.02-1.86-.08.06.48.08 1.02.08 1.78v4.74c0 .66-.02 1.3-.08 1.92.46-.04 1-.06 1.64-.06zm0-6.48v1.48h-1.48v-1.48zm1.84 0h1.52v1.48h-1.52zm-1.84 3.18v1.56h-1.48v-1.56zm1.84 0h1.52v1.56h-1.52zm8.76-.6c.82-.76 1.16-1.12 2.1-2.32.34-.4.48-.56.76-.92l-1.1-1.26c-.34.06-.78.08-1.58.08h-3.12c-.8 0-1.36-.02-1.86-.1v2.14c.52-.06 1.06-.1 1.72-.1h3.04c-.38.48-.78.88-1.48 1.46-.6-.36-.9-.54-1.86-1.06l-1.1 1.36c1.54.88 2.62 1.6 3.44 2.28h-2.42c-.84 0-1.2-.02-1.72-.08v2.16c.52-.06.94-.08 1.72-.08h.9v6.4c0 .34-.14.46-.6.46-.42 0-1.16-.08-1.96-.2.32.92.38 1.2.46 2.04.64.04 1.12.06 1.44.06 2.06 0 2.66-.42 2.66-1.88v-6.88h1.72c-.46.92-.88 1.56-1.58 2.38.6.32.68.38 1.56 1.04.8-1.1 1.3-1.98 1.9-3.3.24-.54.28-.62.44-.94l-1.04-1.26c-.36.06-.76.08-1.56.08h-1.02l.94-.98zm-5.24 25.34c.5-1.06.84-1.96 1.24-3.2h4.64c1.04 0 1.74.04 2.36.1v-2.2c-.68.08-1.36.12-2.38.12h-4.04c.16-.6.32-1.3.46-2.02.04-.26.14-.64.28-1.18l-2.32-.26c0 .86-.16 1.7-.6 3.46h-1.48c-1.1 0-1.7-.02-2.34-.12v2.2c.58-.08 1.12-.1 2.34-.1h.92c-.58 1.64-1.46 3.56-2.24 4.82-.64 1.04-1.22 1.8-2.02 2.6v-8.18c.52-1.1.84-1.88 1.28-3.1.22-.68.28-.82.44-1.16l-2.16-.62c-.18 1-.5 2.02-1 3.16-.8 1.86-1.76 3.32-3.14 4.82.44.58.78 1.26 1.06 2.18.56-.64.74-.92 1.54-2.18-.04.7-.06 1.22-.06 2.14v5.54c0 1-.02 1.62-.12 2.32h2.26c-.08-.7-.1-1.28-.1-2.22v-2.4c.58.48 1 .94 1.36 1.52 1.34-1.56 2.06-2.62 2.86-4.14h2.68v4.6h-2.42c-.82 0-1.78-.04-2.5-.1v2.16c.74-.08 1.46-.12 2.58-.12h6.54c1.22 0 1.8.02 2.44.12v-2.16c-.82.06-1.58.1-2.36.1h-2.28v-4.6h1.42c1.14 0 1.68.02 2.28.1v-2.1c-.64.08-1.3.1-2.28.1zm-5.86 18.6h-1.48c-.78 0-1.26-.02-1.8-.1v2.1c.52-.06 1.04-.1 1.78-.1h1.16q-.5 1.3-1.02 2.26c-.74 1.36-1.5 2.38-2.4 3.18.58.68.86 1.08 1.2 1.84.7-.86.98-1.22 1.3-1.78.74-1.24 1-1.76 1.34-2.8-.08 1.32-.1 1.76-.1 2.28v3.18c0 1.18-.02 1.76-.12 2.44h2.28c-.1-.64-.12-1.28-.12-2.44v-3.36c0-1.1-.02-1.76-.1-2.46.6 1.22 1.18 2.04 2.12 3.04.54-.96.66-1.14 1.22-1.66-1.02-.8-1.6-1.38-2.32-2.38-.42-.56-.54-.76-.8-1.34h.98c.7 0 1.18.02 1.64.08v-2.08c-.42.08-.86.1-1.62.1h-1.12v-2.36c.52-.14 1.64-.52 2.3-.76.12-.04.2-.06.22-.08q.26-.08.5-.16l-1.24-1.84c-1.16.78-4.14 1.56-7.04 1.84.38.7.52 1.1.68 1.92 1.36-.22 1.82-.3 2.56-.44zm7.44 10.76h3.88v1.28h2.2c-.08-.62-.12-1.46-.12-2.46v-11.26c0-.9.02-1.5.1-2.06-.58.08-1.1.1-1.9.1h-4.4c-.84 0-1.3-.02-1.88-.1.06.56.08 1.2.08 2.06v11.46c0 .86-.04 1.66-.1 2.26h2.14zm.02-12.4h3.86v10.38h-3.86zm-2.96 26.06h-5.1c-1.26 0-1.98-.04-2.68-.12v2.34c.8-.1 1.46-.12 2.62-.12h5.16v5.08c0 .4-.14.48-.9.48-.94 0-1.64-.06-2.8-.22.34.84.42 1.18.58 2.3 1.46.06 1.74.08 2.14.08 2.58 0 3.22-.42 3.22-2.12v-5.6h4.7c1.2 0 1.88.02 2.62.12v-2.34c-.64.08-1.36.12-2.62.12h-4.7v-.82c1.64-1 3.16-2.1 4.08-2.98q1.3-1.24 1.82-1.72l-1.24-1.38c-.4.06-.7.08-1.68.08h-8.7c-1 0-1.62-.04-2.3-.12v2.28c.68-.08 1.3-.12 2.32-.12h7.66c-1.4 1.26-1.96 1.68-3.26 2.46h-1c.04.44.06.88.06 1.46zm1.1 20.46c-.04.78-.08 1.42-.14 1.92h-3.1c-1.1 0-1.52-.02-2.1-.1v2.02c.56-.08 1.04-.1 2.06-.1h2.68c-.44.82-1.12 1.46-2.2 2.08-.8.46-1.44.7-2.88 1.06.48.5.86 1.12 1.18 1.86 2.8-.88 4.52-2.1 5.54-3.94 1.26 1.96 2.96 3.04 6.08 3.92.36-1 .54-1.38.98-2.02-3-.56-4.62-1.42-5.6-2.96h3.58c.88 0 1.4.02 1.92.1v-2.02c-.54.08-1 .1-1.84.1h-4.22c.06-.6.1-.98.12-1.48v-.44h2.94c.74 0 1.26.02 1.88.08v-1.98c-.5.08-.98.1-1.88.1h-6.32q.34-.6.46-.86c.08-.18.1-.2.16-.34l-1.68-.5h8.46c.96 0 1.48.02 2.1.1v-2.1c-.66.08-1.2.12-2.16.12h-12.3c-.98 0-1.44-.02-2.08-.08.06.54.08 1.22.08 2.02v12.92c0 .92-.04 1.52-.12 2.2h2.24v-.76h12.52c.98 0 1.54.04 2.12.12v-2.12c-.56.08-1.12.1-2.14.1h-12.5v-12.52h3.5c-.12.34-.2.52-.3.74-.52 1.08-1.32 2.02-2.64 3.12.76.44 1.18.76 1.62 1.26.74-.72 1.02-1.04 1.48-1.62zm-7.18 18.44c-.54 0-.96-.02-1.36-.06.04.28.08 1.08.08 1.56v11.56c0 .74-.04 1.34-.12 2h2.1v-1.34h2.62v.86h2.02c-.06-.4-.08-.84-.08-1.56v-4.14c0-.62.02-.98.06-1.44-.4.04-.68.06-1.34.06h-3.28v-1.64h3.26c.64 0 .72 0 1.22.04-.04-.42-.04-.64-.04-1.38v-3.4c0-.4.02-.74.04-1.18-.42.04-.76.06-1.28.06h-1.2c.38-.74.68-1.5.96-2.34l-2.12-.26c-.2 1.04-.38 1.54-.86 2.6zm.7 1.82h2.52v2.2h-2.52zm0 7.52h2.62v2.54h-2.62zm8.98-9.16v2h-1.86c-.8 0-1.14-.02-1.6-.06.04.44.06.8.06 1.58v7.56c0 1.2-.02 1.52-.08 2.08h2.08c-.06-.4-.08-.86-.08-1.84v-7.54h1.48v9.34c0 .74-.04 1.32-.12 1.94h2.2c-.08-.6-.12-1.16-.12-1.94v-9.34h1.74v6.96c0 .26-.08.34-.32.34-.2 0-.36-.02-1.02-.14.28.64.38 1.02.42 1.96.4.02.64.04.92.04.76 0 1.12-.08 1.4-.3.34-.28.52-.76.52-1.4v-7.82c0-.76.02-1.1.06-1.5-.38.06-.84.08-1.52.08h-2.2v-2h2.28c.8 0 1.3.02 1.9.1v-2.12c-.6.1-1.1.12-1.96.12h-6.28c-.88 0-1.44-.04-2.02-.12v2.12c.62-.08 1.12-.1 1.92-.1zm-2.92 30.96c0 .48-.02 1.24-.06 1.82v.08c0 .32.12.38.8.38.6 0 1.14-.06 1.24-.16.1-.06.14-.18.14-.42v-.96c0-.64-.04-1.56-.06-1.92 3.04-1.48 4.86-2.26 5.84-2.52.26-.06.34-.14.34-.26 0-.34-.88-1.6-1.7-2.44-.44.5-.82.8-1.74 1.34-.12.08-1.18.66-3.16 1.74-.4-1.12-1-1.64-1.9-1.64-.8 0-1.48.16-2.38.58.62-.68 1.04-1.32 1.64-2.42 1.84-.18 4.04-.52 4.68-.7.26-.06.34-.16.34-.38 0-.28-.12-1.2-.2-1.56-.04-.12-.12-.18-.28-.18-.1 0-.2.02-.64.14-.7.16-1.7.36-2.84.52q.02-.06.06-.14c.26-.62.42-.94.56-1.2.06-.12.08-.16.08-.24 0-.34-.82-.64-2.6-.94-.02.94-.16 1.66-.58 2.8-.9.04-1.76.06-2.54.06-.96 0-1.36-.02-2.04-.12.02.54.12 1.6.18 1.86.1.34.16.4.46.4.78 0 1.52-.02 2.94-.12-.82 1.44-2.18 2.84-3.82 3.94-.48.3-.52.34-.52.52 0 .14.12.4.32.74.42.7.84 1.16 1.04 1.16.16 0 .22-.04.82-.66.42-.42 1.1-.98 1.68-1.38.94-.62 1.8-.94 2.62-.94.62 0 .92.28 1.08.94-1.84 1.04-2.04 1.18-2.9 1.86-1.08.86-1.62 1.88-1.62 3.04 0 1.26.58 2.16 1.74 2.64.96.4 2.26.56 4.7.56 1.46 0 3.68-.12 4.16-.22.26-.06.36-.18.36-.48 0-.72-.08-1.32-.2-1.74-.06-.14-.16-.24-.3-.24h-.1c-.8.2-1.04.26-1.46.32-1.02.14-2.52.24-3.6.24-1.26 0-2.24-.14-2.68-.4-.3-.18-.44-.42-.44-.78 0-.88.56-1.46 2.54-2.62zm-.72 13.48c1.14-.32 1.82-.54 2.78-.96.02.5.02.52.02.78v9.74c0 .96-.04 1.56-.1 2.06h2.24c-.08-.5-.1-1.08-.1-2.06v-9.56h2.28v7.32c0 .42-.1.52-.56.52s-.92-.04-1.34-.12c.24.66.32 1.1.42 1.96h.44c2.4 0 3.04-.4 3.04-1.88v-8c0-.8.02-1.26.08-1.7-.28.04-.78.06-1.72.06h-3.92l-1.06-1.32c-.9.7-3 1.38-4.58 1.52.06.5.08.88.08 1.86v7.86q-.46.12-.92.2l-.2.04.64 2.12c.26-.12.4-.18 1.04-.4 1.98-.74 2.2-.82 3.68-1.46l-.04-1.98c-.96.42-1.32.56-2.2.88zm-7.7-1.44c1.4 1.24 2.06 1.96 3.2 3.5l1.64-1.58c-1.08-1.32-1.88-2.14-3.3-3.36zm-.2 7.66c.46-.08.76-.1 1.3-.1h1.04v4.14c-.94.84-2.04 1.6-2.72 1.88l.94 2.18q.14-.1.36-.26c.18-.14.42-.34.72-.56.38-.28 1.18-.96 1.72-1.48.9 1.08 1.48 1.48 2.58 1.8.92.26 2.68.4 5 .4 2 0 4.84-.06 6.48-.12.12-.9.14-1 .58-2.32-1.74.22-4.72.36-7.62.36-2.24 0-3.38-.1-4.12-.34-.98-.32-1.44-.7-1.9-1.54v-4.02c0-1.2 0-1.54.08-2.1-.5.06-.78.08-1.48.08h-1.42c-.76 0-1.06-.02-1.54-.1zm5.18 14.62c0 .14.06.2.24.28 1.12.4 2.38.7 3.82.92.32.04 2.48.28 2.58.28s.18-.06.24-.18c.1-.16.18-.9.18-1.5 0-.48-.02-.54-.26-.56-2.14-.1-2.32-.12-3.56-.36-.86-.16-1.62-.34-2.44-.62-.04-.02-.1-.02-.2-.04s-.16.08-.24.32c-.22.68-.36 1.28-.36 1.46zm5.1 6.28c.28-.26.88-.82 1.08-.98.36-.3.78-.58 1.08-.7.26-.14.34-.24.34-.48 0-.58-1.14-1.88-1.64-1.88-.08 0-.2.04-.32.1-.44.22-.7.28-2.38.5-2.22.32-4.68.56-5.56.56-.14 0-.28 0-.7-.02.08.8.18 1.32.38 1.98.12.4.16.46.34.46.1 0 .18-.02.4-.1.48-.18 2.52-.6 5.74-1.18q-7.44 7.92-7.92 8.32c-.36.32-.4.36-.4.5 0 .12.22.38.82 1.04.62.66.76.78.9.78.12 0 .26-.12.38-.32.66-1.04 1.64-2.24 2.78-3.38 1.18-1.18 1.74-1.54 2.46-1.54.8 0 1.04.38 1.18 1.92.12 1.24.28 1.84.62 2.38.54.82 1.46 1.14 3.2 1.14 1.16 0 3.06-.16 3.6-.3.18-.04.22-.12.22-.3 0-.58-.16-1.64-.3-1.96-.08-.14-.14-.18-.26-.18-.04 0-.08 0-.14.02-1.64.44-2.1.52-3.04.52-.7 0-1.08-.08-1.32-.32-.28-.24-.34-.46-.48-1.64-.26-2.06-.9-2.88-2.28-2.88-.34 0-.68.06-1.14.2zm1.76 14.84c0 .1.08.2.24.3 1.38.88 3.04 2.6 3.72 3.82.1.2.2.28.34.28s.32-.14 1.06-.82c.58-.52.62-.56.62-.74 0-.28-1.12-1.64-2.12-2.56-.88-.84-2.1-1.72-2.34-1.72-.14 0-.26.08-.6.4-.86.82-.92.88-.92 1.04zm-36.38-239.92v.88h-3.94c-.9 0-1.3-.02-1.82-.06.06.6.08.9.08 1.54v3.74c0 .64-.02.94-.08 1.54.58-.04.94-.06 1.82-.06h8.14v.9h-9.48c-.98 0-1.5-.02-2.06-.12v1.96c.62-.06 1.32-.1 2.02-.1h9.52v1.96c0 .38-.12.44-.8.44s-1.32-.04-2.2-.16c.3.6.42 1.04.58 1.96.66.02 1.08.04 1.34.04 2.44 0 3.1-.36 3.1-1.72v-2.52h1.52c.7 0 1.36.04 2 .1v-1.96c-.58.1-1.06.12-2.06.12h-1.46v-.9c1 0 1.3.02 1.92.06-.06-.54-.08-.86-.08-1.54v-3.74c0-.68.02-1 .08-1.54-.52.04-.92.06-1.84.06h-4.28v-.88h5.7c.82 0 1.42.04 2 .1v-1.96c-.56.1-1.1.12-2.06.12h-5.64c0-.58.04-1 .12-1.46h-2.26c.08.46.12.86.12 1.46h-5.28c-.96 0-1.5-.04-2.06-.12v1.96c.58-.06 1.18-.1 2.02-.1zm0 2.48v1h-3.68v-1zm2.02 0h4.02v1h-4.02zm-2.02 2.46v1.04h-3.68v-1.04zm2.02 0h4.02v1.04h-4.02zm-1.64 7.78c-.8-.96-1.52-1.58-2.76-2.4l-1.54 1.24c1.14.82 1.6 1.24 2.7 2.54zm-5.12 13.84h3.42c.66 0 1.36.02 1.76.04-.04-.48-.04-.78-.04-1.72v-3.72c0-.8.02-1.28.06-1.8-.52.06-.96.08-1.96.08h-3.4c-.96 0-1.4-.02-1.96-.08.06.6.08 1.16.08 2.16v12.58c0 1.1-.04 1.78-.12 2.38h2.28c-.1-.54-.12-1.24-.12-2.36zm0-5.44h3.26v1.2h-3.26zm0 2.68h3.26v1.22h-3.26zm13.9-2.3c0-.94.02-1.48.08-2.14-.56.06-1 .08-1.98.08h-3.6c-1 0-1.4-.02-1.96-.08.04.54.06 1.16.06 1.8v3.72c0 .8-.02 1.34-.06 1.74.4-.02 1.06-.04 1.78-.04h3.64v7.26c0 .4-.14.48-.74.48-.9 0-1.66-.06-2.62-.18.26.64.4 1.18.52 2.1.8.02 1.26.04 1.62.04 2.72 0 3.26-.36 3.26-2.18zm-5.48-.38h3.44v1.2h-3.44zm0 2.68h3.44v1.22h-3.44zm-1.76 23.28c.64 3 1.8 5.58 3.4 7.54.84 1.02 1.58 1.68 3.32 2.96.6-.84 1.02-1.38 1.52-1.84-2.02-1.16-3.44-2.42-4.5-4.02.84-.58 1.32-.96 2.32-1.84.5-.42.64-.54 1.08-.9l-1.8-1.4c-.8 1-1.52 1.7-2.52 2.44-.48-1.1-.74-1.92-.94-2.94h1.34c.7 0 1.3.02 1.9.1v-1.92c-.48.06-.78.08-1.9.08h-7.88c-.98 0-1.38-.02-1.88-.1v1.94c.58-.06 1.18-.1 1.88-.1h1.34c-.7.48-1.4.82-2.44 1.2-1 .36-1.46.48-3.16.84.52.7.7.98 1.02 1.62 1.94-.58 3.28-1.12 4.54-1.84.32.38.5.6.78 1.02-1.9 1.16-4.14 2.06-6.74 2.68.46.56.74.98 1.08 1.62 2.38-.78 4.76-1.9 6.42-3 .2.44.3.66.46 1.1-1.96 1.56-5.08 3.06-8.08 3.86.48.56.78.98 1.2 1.76 3.18-1.2 5.26-2.28 7.32-3.82.04.36.08.72.08 1.1 0 1.04-.32 1.4-1.24 1.4-.66 0-1.48-.1-2.46-.28.34.76.46 1.14.58 2.06.8.06 1.58.1 2.12.1 1.12 0 1.76-.14 2.18-.46.58-.46.88-1.3.88-2.56 0-1.7-.44-3.36-1.32-5.1-.54-1.04-.94-1.62-1.7-2.46.48-.34.68-.52 1.04-.84zm-1.96-4.74h-4.98c-.94 0-1.5-.02-2.12-.08.04.38.08.78.08 1.34v1.5c0 .58-.04.96-.1 1.38h2.1v-2.3h12.54v2.3h2.08c-.06-.44-.08-.78-.08-1.36v-1.52c0-.62 0-.94.06-1.34-.62.06-1.2.08-2.12.08h-5.32v-.42c0-.46.02-.78.1-1.14h-2.36c.08.38.12.72.12 1.16zm2.64 24.76c1.1.18 1.66.38 2.36.86 1.24.88 1.94 2.28 1.94 3.94 0 3.24-1.86 5.18-5.98 6.24.54.36.92.74 1.26 1.26.26.38.36.46.6.46.26 0 .78-.16 1.44-.44 3.32-1.42 5.04-3.94 5.04-7.44 0-3.96-3.1-6.92-7.28-6.92-1.9 0-3.34.32-4.68 1.04-2.74 1.44-4.34 4.16-4.34 7.32 0 2.84 1.48 4.88 3.56 4.88 1.36 0 2.68-.92 3.64-2.58 1.22-2.1 1.88-4.4 2.44-8.62zm-2.28.1c-.3 2.22-.54 3.36-1.02 4.86-.76 2.38-1.78 3.76-2.78 3.76-.84 0-1.34-.9-1.34-2.44 0-1.88.76-3.56 2.1-4.74.92-.8 1.62-1.14 3.04-1.44zm1.38 28.88c-.06.78-.34 1.66-.7 2.26-.6 1.02-1.86 1.96-3.38 2.48.68.72.9 1.06 1.3 1.78 1.86-.8 3.06-1.8 3.84-3.22.56-1 .8-1.86.92-3.3h.98v4.96c0 1.06.42 1.28 2.48 1.28 1.48 0 2.14-.16 2.46-.56.36-.46.56-1.38.64-3.24-.74-.22-1.18-.42-1.76-.78 0 1.02-.06 1.9-.12 2.22-.08.4-.2.46-.9.46-.66 0-.8-.06-.8-.3v-4.04h.56c.48 0 1.34.04 1.82.06-.06-.76-.06-1.04-.06-1.94v-6.84c0-.92.02-1.44.06-1.92-.48.04-.82.06-1.84.06h-5.58c-1.08 0-1.38-.02-1.86-.06.04.58.06.92.06 1.92v6.84c0 .7-.02 1.4-.06 1.94.72-.04 1.14-.06 1.82-.06zm.1-8.86h5.16v1.28h-5.16zm0 2.9h5.16v1.26h-5.16zm0 2.9h5.16v1.36h-5.16zm-5 2c.62.72 1.06 1.14 1.96 1.9.2-.78.44-1.38.84-2.04-.92-.54-1.62-1.12-2.38-1.98.68-1 1.34-2.14 1.76-3.12.24-.54.28-.62.44-.88l-.88-1.06c-.18.04-.48.06-.98.06h-.74v-1.62c0-.54.02-1.08.1-1.5h-2.24c.06.5.1 1 .1 1.48v1.64h-.82c-.6 0-1-.02-1.46-.08v2.1c.6-.06.98-.08 1.56-.08h2.8c-.66 1.34-1.28 2.24-2.14 3.2-.92 1.02-1.78 1.76-2.88 2.46.38.62.7 1.36.9 2.12.98-.76 1.34-1.08 2.06-1.8v4.68c0 .86-.04 1.4-.12 2.08h2.22c-.08-.54-.1-1.1-.1-2.08zm5.12 15.72h5.14c.78 0 1.42.04 2.06.12v-2.12c-.56.08-1.18.12-2.06.12h-5.14v-.3c0-.74.04-1.24.12-1.7h-2.42c.08.54.12 1.12.12 1.88v3.88h-2.96c-.94 0-1.64-.02-2.18-.08.06.52.08.92.08 1.58v3.62c0 .58-.02.96-.06 1.44.5-.04 1.08-.06 1.82-.06h9.42c.76 0 1.3.02 1.84.06-.04-.44-.06-.82-.06-1.48v-3.58c0-.66.02-1.12.08-1.58-.54.06-1.08.08-2.18.08h-3.62zm3.64 3.76v2.72h-8.78v-2.72zm-11.38 10.08c1.06-1.4 1.62-2.52 2.24-4.42l-1.88-.68c-.3 1-.48 1.42-.92 2.18-.42.76-.7 1.14-1.36 1.86zm6.02-.34c-.06-1.48-.18-2.52-.5-4.3l-1.84.26c.2 1.3.3 2.5.3 3.58 0 .18 0 .44-.02.8zm4.64-.34c-.44-1.56-.8-2.58-1.5-4.18l-1.78.5c.56 1.44 1 2.98 1.28 4.38zm4.9-.38c-1.26-2.36-1.44-2.68-2.4-4.1l-1.8.72c.98 1.54 1.42 2.44 2.2 4.4zm-8.78 16.96c0 .48-.02 1.24-.06 1.82v.08c0 .32.12.38.8.38.6 0 1.14-.06 1.24-.16.1-.06.14-.18.14-.42v-.96c0-.64-.04-1.56-.06-1.92 3.04-1.48 4.86-2.26 5.84-2.52.26-.06.34-.14.34-.26 0-.34-.88-1.6-1.7-2.44-.44.5-.82.8-1.74 1.34-.12.08-1.18.66-3.16 1.74-.4-1.12-1-1.64-1.9-1.64-.8 0-1.48.16-2.38.58.62-.68 1.04-1.32 1.64-2.42 1.84-.18 4.04-.52 4.68-.7.26-.06.34-.16.34-.38 0-.28-.12-1.2-.2-1.56-.04-.12-.12-.18-.28-.18-.1 0-.2.02-.64.14-.7.16-1.7.36-2.84.52q.02-.06.06-.14c.26-.62.42-.94.56-1.2.06-.12.08-.16.08-.24 0-.34-.82-.64-2.6-.94-.02.94-.16 1.66-.58 2.8-.9.04-1.76.06-2.54.06-.96 0-1.36-.02-2.04-.12.02.54.12 1.6.18 1.86.1.34.16.4.46.4.78 0 1.52-.02 2.94-.12-.82 1.44-2.18 2.84-3.82 3.94-.48.3-.52.34-.52.52 0 .14.12.4.32.74.42.7.84 1.16 1.04 1.16.16 0 .22-.04.82-.66.42-.42 1.1-.98 1.68-1.38.94-.62 1.8-.94 2.62-.94.62 0 .92.28 1.08.94-1.84 1.04-2.04 1.18-2.9 1.86-1.08.86-1.62 1.88-1.62 3.04 0 1.26.58 2.16 1.74 2.64.96.4 2.26.56 4.7.56 1.46 0 3.68-.12 4.16-.22.26-.06.36-.18.36-.48 0-.72-.08-1.32-.2-1.74-.06-.14-.16-.24-.3-.24h-.1c-.8.2-1.04.26-1.46.32-1.02.14-2.52.24-3.6.24-1.26 0-2.24-.14-2.68-.4-.3-.18-.44-.42-.44-.78 0-.88.56-1.46 2.54-2.62zm-3.84 22.06c-.64.9-1.36 1.46-1.84 1.46-.38 0-.86-.54-1.18-1.3q-.18-.44-.34-.44c-.18 0-.8.42-1.18.8-.24.22-.32.36-.32.52 0 .2.2.7.46 1.14.68 1.18 1.48 1.76 2.4 1.76.66 0 1.32-.28 1.96-.86.46-.38.74-.78.74-1 0-.12-.04-.26-.18-.48-.26-.44-.44-1.02-.52-1.6zm1.02 2.2c.32.64.5 1.32.58 2 .02.32.08.46.26.52.26.12 1 .2 1.82.2 1.1 0 1.96-.16 2.48-.48.8-.46 1.26-1.32 1.26-2.32 0-.5-.1-1.02-.28-1.42-.34-.76-.64-1.12-2.08-2.5-.76-.72-1.06-1.2-1.06-1.74 0-.42.18-.82.52-1.18.16-.18.2-.24.2-.38s-.06-.22-.34-.42c-.46-.3-1.04-.58-1.24-.6-.18 0-.32.1-.62.44-.56.72-.82 1.36-.82 2.1 0 1.28.52 2.2 2.1 3.76.86.82 1.12 1.22 1.12 1.7 0 .56-.48.84-1.42.84-.82 0-1.42-.12-2.48-.52zm6.56-10.62c0-.22-.24-.4-1.12-.82-1.46-.68-3.44-1.28-4.28-1.28-.2 0-.34.14-.62.64-.32.58-.52 1.06-.52 1.26 0 .14.1.2.44.24 1.52.24 3.44 1 4.76 1.9.12.08.2.12.28.12.14 0 .26-.12.46-.46.32-.52.6-1.3.6-1.6zm3.54 11.4c.22 0 .72-.28 1.24-.68.38-.32.52-.48.52-.68 0-.92-2.6-4.02-3.4-4.02-.34 0-1.48 1-1.48 1.28 0 .08.06.16.18.28.64.52 1.06.98 1.56 1.64.46.64.56.82 1.02 1.84.12.26.2.34.36.34zm-8.28 14.82h-.4c-1.48 0-3.06-.18-4.3-.48-.18.82-.3 1.46-.3 1.76 0 .16.08.26.28.32.94.28 2.62.5 4 .5.24 0 .5 0 .96-.02.02.42.06.88.16 2.18-.5-.06-.92-.1-1.4-.1-1.5 0-2.68.38-3.46 1.1-.54.5-.86 1.24-.86 2 0 1.74 1.52 2.82 3.98 2.82 1.42 0 2.56-.36 3.24-1.02.54-.5.76-1.04.84-2 1.34.66 2.12 1.22 3.32 2.36.06.06.12.08.18.08.14 0 .36-.26.8-.92.38-.6.56-.94.56-1.08 0-.16-.06-.26-.22-.38-.86-.68-1.38-1.02-2.34-1.5-.86-.46-1.32-.64-2.44-.98-.12-1.56-.16-1.98-.2-2.74 1.26-.14 3.26-.62 4.36-1.02.14-.06.22-.14.22-.24 0-.2-.18-.76-.38-1.26-.2-.48-.24-.54-.36-.54-.06 0-.1.02-.2.06-1.58.58-2.34.78-3.74.96-.02-.7-.02-.76-.02-2.18 1.26-.14 2.98-.44 3.64-.66.2-.06.26-.14.26-.28 0-.16-.14-.68-.28-1.1-.22-.64-.22-.66-.36-.66-.02 0-.04 0-.1.02-.94.28-1.9.48-3.1.62.08-1.38.1-1.46.24-1.8.14-.32.16-.36.16-.46 0-.22-.12-.32-.52-.4-.48-.12-1.16-.18-2.16-.24.04.7.06 1.02.06 1.72v1.32c-.22.02-.4.02-.5.02-1.2 0-2.58-.14-3.7-.36-.14.78-.2 1.32-.2 1.76 0 .2.04.24.24.3.7.18 2.4.32 3.72.32.08 0 .26 0 .44-.02q.02 1.24.06 2.22zm.42 6.28v.34c0 1-.6 1.46-1.9 1.46-1.12 0-1.7-.32-1.7-.92 0-.68.7-1.06 1.98-1.06.7 0 1.1.04 1.62.18zm-2.86 10.18c0 .14.06.2.24.28 1.12.4 2.38.7 3.82.92.32.04 2.48.28 2.58.28s.18-.06.24-.18c.1-.16.18-.9.18-1.5 0-.48-.02-.54-.26-.56-2.14-.1-2.32-.12-3.56-.36-.86-.16-1.62-.34-2.44-.62-.04-.02-.1-.02-.2-.04s-.16.08-.24.32c-.22.68-.36 1.28-.36 1.46zm5.1 6.28c.28-.26.88-.82 1.08-.98.36-.3.78-.58 1.08-.7.26-.14.34-.24.34-.48 0-.58-1.14-1.88-1.64-1.88-.08 0-.2.04-.32.1-.44.22-.7.28-2.38.5-2.22.32-4.68.56-5.56.56-.14 0-.28 0-.7-.02.08.8.18 1.32.38 1.98.12.4.16.46.34.46.1 0 .18-.02.4-.1.48-.18 2.52-.6 5.74-1.18q-7.44 7.92-7.92 8.32c-.36.32-.4.36-.4.5 0 .12.22.38.82 1.04.62.66.76.78.9.78.12 0 .26-.12.38-.32.66-1.04 1.64-2.24 2.78-3.38 1.18-1.18 1.74-1.54 2.46-1.54.8 0 1.04.38 1.18 1.92.12 1.24.28 1.84.62 2.38.54.82 1.46 1.14 3.2 1.14 1.16 0 3.06-.16 3.6-.3.18-.04.22-.12.22-.3 0-.58-.16-1.64-.3-1.96-.08-.14-.14-.18-.26-.18-.04 0-.08 0-.14.02-1.64.44-2.1.52-3.04.52-.7 0-1.08-.08-1.32-.32-.28-.24-.34-.46-.48-1.64-.26-2.06-.9-2.88-2.28-2.88-.34 0-.68.06-1.14.2zm-6.02 19.96c-.76 3.3-1.86 6.36-3.38 9.24-.1.2-.16.34-.16.42 0 .1.1.2.44.38.68.38 1.38.66 1.64.66.12 0 .22-.1.32-.36 1.54-3.6 2.5-6.6 3.42-10.66q2.74-.48 3.1-.6c.18-.04.24-.12.24-.26 0-.16-.08-.72-.16-1.12-.16-.7-.2-.78-.38-.78-.06 0-.08 0-.16.04-.4.14-1.4.4-2.18.54.32-1.58.34-1.64.58-2.1.08-.18.12-.24.12-.34.02-.36-.42-.5-2.74-.8v.46c0 .82-.1 1.84-.3 3.16-1.06.14-2.32.22-3.4.22-.14 0-.36 0-.64-.02.04.76.12 1.38.24 1.88.06.26.16.34.34.34.04 0 .12 0 .22-.02h.12c1.22-.1 1.84-.16 2.72-.28zm4.86 6.34c-1.04.34-1.64.7-1.64 1.04 0 .12.08.46.2.74.16.5.44.96.78 1.32.92.96 2.32 1.36 4.82 1.36 1.18 0 2.3-.08 2.96-.22.26-.06.34-.16.34-.42 0-.62-.1-1.44-.24-1.86-.06-.18-.14-.24-.32-.24-.08 0-.12.02-.28.06-.64.2-1.76.32-3.06.32-1.18 0-2.02-.18-2.6-.56-.5-.34-.74-.7-.96-1.54zm6.74-4.26c.1 0 .18-.04.2-.1.04-.12.08-.64.08-1.22 0-.66-.02-.82-.12-.9-.14-.1-.74-.14-1.9-.14-1.4 0-2.54.1-3.9.34-.42.08-.54.1-.62.14-.16.06-.2.18-.2.44 0 .42.08 1.4.14 1.54.04.12.1.16.22.16.04 0 .1 0 .14-.02 1.76-.3 2.38-.36 3.86-.36.7 0 1.54.04 1.94.1.06.02.12.02.16.02zm-42.08-217.18c-.98 0-1.46-.02-1.98-.08v1.74c.5-.06 1-.08 2.04-.08-.26 1.56-.78 2.42-2.08 3.42.68.46 1.04.78 1.54 1.32 1.5-1.44 2.14-2.72 2.34-4.74h2.16v2.84c0 .84-.02 1.16-.1 1.64h2c-.06-.38-.08-.76-.08-1.64v-2.84h.28c.96 0 1.38.02 1.98.08v-1.74c-.54.06-1.02.08-1.98.08h-.28v-1.78c.98 0 1.46.02 2 .08v-1.72c-.54.06-1.06.08-2 .08h-5.58c-.9 0-1.42-.02-1.94-.08v1.72c.52-.06 1.02-.08 1.92-.08 0 .86 0 1.1-.04 1.78zm4.02-1.78v1.78h-2.04q.06-.96.06-1.78zm-7.02-2.46h3.56c.72 0 1.14.02 1.76.04-.04-.52-.04-.84-.04-1.72v-2.94c0-.68.02-1.2.06-1.78-.52.06-.96.08-1.98.08h-3.48c-.94 0-1.44-.02-1.96-.08.06.62.08 1.14.08 2.16v12.66c0 1.2-.04 1.82-.12 2.38h2.22c-.08-.56-.1-1.2-.1-2.34zm0-4.88h3.4v1h-3.4zm0 2.36h3.4v1.04h-3.4zm14.14-1.74c0-.96.02-1.44.08-2.14-.54.06-1.02.08-1.98.08h-3.68c-.98 0-1.44-.02-1.96-.08.04.52.06 1.02.06 1.78v2.94c0 .92 0 1.06-.06 1.72.44-.02 1.12-.04 1.76-.04h3.78v8.16c0 .42-.12.5-.74.5-.46 0-1.04-.04-1.78-.14.32.76.42 1.16.52 2.02.68.04.94.04 1.26.04 2.16 0 2.74-.44 2.74-2.14zm-5.58-.62h3.58v1h-3.58zm0 2.36h3.58v1.04h-3.58zm-5.82 27.34c0 .2-.02.32-.02.58h-2.74c-.94 0-1.44-.02-2.02-.12v2.04c.62-.08 1.14-.1 2.02-.1h2.44c-.3.92-.68 1.54-1.36 2.14-.84.76-1.76 1.2-3.54 1.7.6.62 1 1.16 1.36 1.88 2.36-.94 3.52-1.68 4.46-2.96.58-.76.94-1.6 1.2-2.76h2.48v3.74c0 1.32.62 1.64 3.22 1.64 3.68 0 4.04-.28 4.44-3.5-.74-.14-1.34-.32-2.06-.7-.08 1.22-.2 1.8-.42 2-.22.22-.72.3-1.74.3-.52 0-.9-.04-1.14-.1-.28-.06-.3-.12-.3-.5v-2.88h3.04c.86 0 1.44.04 2.02.1v-2.04c-.58.1-1.06.12-2.02.12h-3.04v-2.06c.92 0 1.28.02 1.84.08v-.84c1 .68 1.62 1.02 3.16 1.74.52-1.14.64-1.36 1.08-1.92-1.42-.54-2-.82-3.06-1.46.6-.54 1.24-1.2 1.72-1.76.34-.4.42-.5.52-.6l-1.76-1c-.46.76-1.16 1.58-1.98 2.32-.46-.34-.66-.5-1.14-.92.46-.42 1.08-1.04 1.42-1.44q.64-.78.74-.88l-1.76-.98q-.06.1-.16.26c-.08.14-.12.2-.4.56-.38.48-.5.62-1.12 1.22-.74-.88-1-1.34-1.2-2.1-.44.06-.74.08-1.64.08h-3.58c-.66 0-1.2-.04-1.56-.1v2q-.3-.26-.62-.5l-1.58 1.16c.98.68 1.58 1.24 2.7 2.52-1.32.88-2.18 1.32-3.68 1.88.52.62.8 1.06 1.14 1.76 1.52-.68 2.22-1.06 3.36-1.84v.84c.48-.04.62-.06 1.28-.08zm2.04-1.48h2.24v2.06h-2.26c0-.2.02-.28.02-.42zm-.68-5.82c-.58.78-1.06 1.3-1.88 2.06-.62-.7-1.06-1.1-2.08-1.98.36-.04.8-.08 1.14-.08zm-.74 4h-.52c1.38-1.12 2.18-1.98 3.26-3.48 1.06 1.48 1.84 2.3 3.26 3.48zm2.48 27.26c0 .48-.02 1.24-.06 1.82v.08c0 .32.12.38.8.38.6 0 1.14-.06 1.24-.16.1-.06.14-.18.14-.42v-.96c0-.64-.04-1.56-.06-1.92 3.04-1.48 4.86-2.26 5.84-2.52.26-.06.34-.14.34-.26 0-.34-.88-1.6-1.7-2.44-.44.5-.82.8-1.74 1.34-.12.08-1.18.66-3.16 1.74-.4-1.12-1-1.64-1.9-1.64-.8 0-1.48.16-2.38.58.62-.68 1.04-1.32 1.64-2.42 1.84-.18 4.04-.52 4.68-.7.26-.06.34-.16.34-.38 0-.28-.12-1.2-.2-1.56-.04-.12-.12-.18-.28-.18-.1 0-.2.02-.64.14-.7.16-1.7.36-2.84.52q.02-.06.06-.14c.26-.62.42-.94.56-1.2.06-.12.08-.16.08-.24 0-.34-.82-.64-2.6-.94-.02.94-.16 1.66-.58 2.8-.9.04-1.76.06-2.54.06-.96 0-1.36-.02-2.04-.12.02.54.12 1.6.18 1.86.1.34.16.4.46.4.78 0 1.52-.02 2.94-.12-.82 1.44-2.18 2.84-3.82 3.94-.48.3-.52.34-.52.52 0 .14.12.4.32.74.42.7.84 1.16 1.04 1.16.16 0 .22-.04.82-.66.42-.42 1.1-.98 1.68-1.38.94-.62 1.8-.94 2.62-.94.62 0 .92.28 1.08.94-1.84 1.04-2.04 1.18-2.9 1.86-1.08.86-1.62 1.88-1.62 3.04 0 1.26.58 2.16 1.74 2.64.96.4 2.26.56 4.7.56 1.46 0 3.68-.12 4.16-.22.26-.06.36-.18.36-.48 0-.72-.08-1.32-.2-1.74-.06-.14-.16-.24-.3-.24h-.1c-.8.2-1.04.26-1.46.32-1.02.14-2.52.24-3.6.24-1.26 0-2.24-.14-2.68-.4-.3-.18-.44-.42-.44-.78 0-.88.56-1.46 2.54-2.62zm-3.98 20.32c-2.52 1.3-3.68 2.48-3.68 3.78 0 .54.16 1 .48 1.44.8 1.04 2.12 1.72 3.38 1.72s1.94-.78 1.94-2.4c0-.18 0-.54-.02-.9q0-.28-.02-1.6-.02-.78-.02-.86c1.72-.74 3.32-1.14 4.58-1.14 1.34 0 2.18.86 2.18 2.22s-.88 2.22-2.44 2.22c-.78 0-1.46-.12-2.28-.42.24.58.36 1.06.4 1.62.04.48.06.54.28.66.22.14 1.04.22 2.04.22s1.84-.22 2.46-.58c1.18-.7 1.84-2.02 1.84-3.66 0-2.54-1.66-4.18-4.22-4.18-1.32 0-2.86.32-4.84.98v-2.58c1.28-.22 2.74-.52 2.98-.62.16-.06.26-.2.26-.36 0-.3-.12-1.1-.22-1.5-.04-.14-.14-.22-.3-.22-.04 0-.08 0-.14.02-.8.24-1.86.5-2.52.62.02-1.36.12-2.08.3-2.46.1-.2.12-.28.12-.4 0-.2-.08-.3-.28-.36-.42-.12-1.02-.2-2.54-.28.2 1.08.28 2.1.28 3.4v.42c-1.1.12-1.98.18-2.96.18h-.78c.14 1.78.24 2.04.86 2.04.9 0 1.3-.02 2.88-.18v3.16zm0 4.1c0 .46-.1.64-.38.64-.6 0-1.26-.5-1.26-.96 0-.42.48-.88 1.64-1.58zm11.46-6.26c.3 0 1.3-1.26 1.3-1.62 0-.38-1.64-1.62-2.9-2.2-.52-.24-1.28-.5-1.48-.52-.2 0-.22.02-.44.32-.56.76-.76 1.08-.76 1.2 0 .1.08.18.24.24 1.32.42 2.72 1.32 3.74 2.4.12.14.2.18.3.18zm-12.12 15.74c-.06.56-.1 1.32-.1 1.78 0 .7.06.76 1.2.98 1.66.32 3.14.46 4.92.46 1.34 0 3.08-.12 3.24-.22.12-.08.16-.24.16-.7 0-.72-.04-1.32-.08-1.56-.04-.12-.1-.18-.26-.18h-.14c-1.36.2-2.04.24-3.2.24-2.1 0-4-.26-5.74-.8zm-.1 9.48c-1.64.94-1.82 1.06-1.82 1.36 0 .44.66 1.52 1.32 2.14 1.38 1.3 3.1 1.8 6.12 1.8 2.32 0 5.02-.3 5.62-.62.18-.08.22-.2.22-.6 0-.66-.04-1.3-.1-1.74-.04-.18-.1-.26-.22-.26-.06 0-.12 0-.22.04-1.8.46-3.62.7-5.26.7-3.28 0-4.94-.84-5.66-2.82zm.28 16.82c-.58 1.58-.78 2.04-1.34 3.14-.66 1.32-1.42 2.56-2 3.28-.26.36-.34.48-.34.62s.08.24.4.46c.7.52 1.26.82 1.46.82.14 0 .24-.08.4-.32.54-.84.94-1.58 1.64-2.98.92-1.88 1.42-3.08 2.16-5.32 1.24-.16 2.4-.36 3.08-.52.52-.12.58-.16.58-.4 0-.22-.06-.64-.16-1.14-.12-.58-.16-.68-.3-.68-.1 0-.16.02-.3.06-.74.24-1.3.38-2.24.54.34-1.24.4-1.46.56-1.7.3-.46.32-.5.32-.64 0-.38-.74-.62-2.8-.9 0 1.08-.12 1.92-.46 3.54-.7.06-2.28.16-2.5.16-.72 0-1.3-.02-1.52-.04.02.6.16 1.66.26 1.98.06.2.14.26.3.26.02 0 .04 0 .22-.02.24-.02.46-.04.82-.06.92-.06.98-.08 1.76-.14zm12.98.36c0-.22-.26-.46-1.12-1.04-1.06-.72-2.54-1.48-2.92-1.48-.18 0-.3.12-.78.82-.3.46-.4.64-.4.78 0 .16.1.24.38.36q.88.4 1.36.7c.74.46 1.44.98 1.94 1.46.14.14.22.18.32.18.14 0 .26-.1.5-.44.4-.58.72-1.18.72-1.34zm-4.5 8.32c.7.42 1.2.76 1.64 1.2q.56.52.68.52c.14 0 .32-.18.56-.58.56-.9.66-1.08.66-1.28 0-.16-.16-.34-.6-.68-1-.78-1.58-1.1-3-1.74-.06-.98-.12-2.24-.12-2.98 0-.54.02-.84.12-1.26.02-.14.04-.22.04-.32 0-.16-.08-.26-.24-.32-.38-.16-1.16-.28-2.18-.38.04.64.08 1.16.08 1.54.08 1.86.08 2.24.16 3.2-.82-.12-1.04-.14-1.52-.14-2.06 0-3.6 1.38-3.6 3.22s1.48 2.98 3.66 2.98c2.3 0 3.66-1.12 3.66-2.98zm-2.22-.98s.02.16.02.32c0 1.06-.56 1.6-1.62 1.6-.9 0-1.5-.42-1.5-1.08 0-.7.66-1.16 1.62-1.16.54 0 1.08.12 1.48.32zm-9.06 14.84c0 2.8.22 4.82.68 6.42.72 2.46 1.88 3.7 3.42 3.7 1.06 0 2.06-.62 2.84-1.76.4-.58.7-1.26.7-1.58 0-.14-.06-.28-.16-.42-.56-.72-.7-1.02-1.08-2.04-.74 2.22-1.42 3.18-2.24 3.18-.54 0-1-.54-1.3-1.48-.4-1.22-.56-2.82-.56-5.38 0-1.82.08-2.58.34-3.26q.08-.2.08-.32c0-.22-.16-.34-.64-.52-.54-.2-1.22-.34-2.14-.44.04.44.06 1.22.06 1.8zm10.16-.8c1.36 1.68 1.4 1.74 1.96 2.9.62 1.3.98 2.42 1.24 3.96.06.36.14.46.32.46.24 0 1.18-.32 1.64-.56.42-.22.52-.32.52-.52 0-.42-.42-1.84-.86-2.9-.66-1.56-1.7-3.16-2.7-4.12-.16-.14-.26-.2-.38-.2-.24 0-.9.36-1.74.98zm-3.9 23.92h-.4c-1.48 0-3.06-.18-4.3-.48-.18.82-.3 1.46-.3 1.76 0 .16.08.26.28.32.94.28 2.62.5 4 .5.24 0 .5 0 .96-.02.02.42.06.88.16 2.18-.5-.06-.92-.1-1.4-.1-1.5 0-2.68.38-3.46 1.1-.54.5-.86 1.24-.86 2 0 1.74 1.52 2.82 3.98 2.82 1.42 0 2.56-.36 3.24-1.02.54-.5.76-1.04.84-2 1.34.66 2.12 1.22 3.32 2.36.06.06.12.08.18.08.14 0 .36-.26.8-.92.38-.6.56-.94.56-1.08 0-.16-.06-.26-.22-.38-.86-.68-1.38-1.02-2.34-1.5-.86-.46-1.32-.64-2.44-.98-.12-1.56-.16-1.98-.2-2.74 1.26-.14 3.26-.62 4.36-1.02.14-.06.22-.14.22-.24 0-.2-.18-.76-.38-1.26-.2-.48-.24-.54-.36-.54-.06 0-.1.02-.2.06-1.58.58-2.34.78-3.74.96-.02-.7-.02-.76-.02-2.18 1.26-.14 2.98-.44 3.64-.66.2-.06.26-.14.26-.28 0-.16-.14-.68-.28-1.1-.22-.64-.22-.66-.36-.66-.02 0-.04 0-.1.02-.94.28-1.9.48-3.1.62.08-1.38.1-1.46.24-1.8.14-.32.16-.36.16-.46 0-.22-.12-.32-.52-.4-.48-.12-1.16-.18-2.16-.24.04.7.06 1.02.06 1.72v1.32c-.22.02-.4.02-.5.02-1.2 0-2.58-.14-3.7-.36-.14.78-.2 1.32-.2 1.76 0 .2.04.24.24.3.7.18 2.4.32 3.72.32.08 0 .26 0 .44-.02q.02 1.24.06 2.22zm.42 6.28v.34c0 1-.6 1.46-1.9 1.46-1.12 0-1.7-.32-1.7-.92 0-.68.7-1.06 1.98-1.06.7 0 1.1.04 1.62.18zm-3.8 8.88c.12.86.14 1.36.14 3.06 0 .18-.02.6-.04 1.3-.16 4.66-.18 5.86-.18 7.42 0 1.98.3 3.02 1.06 3.82.72.72 1.84 1.1 3.36 1.1 2.3 0 4.5-.92 6.48-2.7 1-.9 1.38-1.38 1.38-1.74 0-.18-.04-.3-.1-.46-.44-.9-.6-1.32-.72-1.96-.74 1.1-1.18 1.64-1.9 2.32-1.56 1.46-3.26 2.2-5.06 2.2-1.12 0-1.82-.34-2.04-1-.1-.32-.16-.8-.16-1.44 0-1.98.08-4.48.24-7.7.08-1.4.24-2.42.46-3 .1-.28.12-.34.12-.48 0-.22-.14-.32-.64-.46-.6-.16-1.38-.24-2.4-.28zm.02 27.54c-.76 3.3-1.86 6.36-3.38 9.24-.1.2-.16.34-.16.42 0 .1.1.2.44.38.68.38 1.38.66 1.64.66.12 0 .22-.1.32-.36 1.54-3.6 2.5-6.6 3.42-10.66q2.74-.48 3.1-.6c.18-.04.24-.12.24-.26 0-.16-.08-.72-.16-1.12-.16-.7-.2-.78-.38-.78-.06 0-.08 0-.16.04-.4.14-1.4.4-2.18.54.32-1.58.34-1.64.58-2.1.08-.18.12-.24.12-.34.02-.36-.42-.5-2.74-.8v.46c0 .82-.1 1.84-.3 3.16-1.06.14-2.32.22-3.4.22-.14 0-.36 0-.64-.02.04.76.12 1.38.24 1.88.06.26.16.34.34.34.04 0 .12 0 .22-.02h.12c1.22-.1 1.84-.16 2.72-.28zm4.86 6.34c-1.04.34-1.64.7-1.64 1.04 0 .12.08.46.2.74.16.5.44.96.78 1.32.92.96 2.32 1.36 4.82 1.36 1.18 0 2.3-.08 2.96-.22.26-.06.34-.16.34-.42 0-.62-.1-1.44-.24-1.86-.06-.18-.14-.24-.32-.24-.08 0-.12.02-.28.06-.64.2-1.76.32-3.06.32-1.18 0-2.02-.18-2.6-.56-.5-.34-.74-.7-.96-1.54zm6.74-4.26c.1 0 .18-.04.2-.1.04-.12.08-.64.08-1.22 0-.66-.02-.82-.12-.9-.14-.1-.74-.14-1.9-.14-1.4 0-2.54.1-3.9.34-.42.08-.54.1-.62.14-.16.06-.2.18-.2.44 0 .42.08 1.4.14 1.54.04.12.1.16.22.16.04 0 .1 0 .14-.02 1.76-.3 2.38-.36 3.86-.36.7 0 1.54.04 1.94.1.06.02.12.02.16.02zm-1.22 13.38c-1.86 0-3.38 1.52-3.38 3.38s1.52 3.4 3.38 3.4 3.38-1.52 3.38-3.4-1.5-3.38-3.38-3.38zm0 1.56c1 0 1.82.82 1.82 1.82s-.82 1.84-1.82 1.84-1.82-.82-1.82-1.84.82-1.82 1.82-1.82z"/></svg>