<svg viewBox="0 0 141.35 18.82" xmlns="http://www.w3.org/2000/svg"><path d="m8.57 18.82v-1.68h-8.57v1.68zm9.14-18.48-5.88 16.51v.29h2.28l1.7-4.78h7.85l1.7 4.78h2.26v-.29l-5.86-16.51h-4.06zm1.56 2.26h.94l2.71 7.63h-6.36zm20.61 14.54c3.24 0 4.82-2.02 4.82-4.49v-.1c0-1.73-.82-3.19-2.52-3.89v-.19c1.51-.67 2.28-2.04 2.28-3.58v-.1c0-2.35-1.56-4.46-4.82-4.46h-8.66v16.8h8.9zm-6.65-14.62h6.17c1.73 0 2.88.98 2.88 2.57v.07c0 1.46-1.1 2.42-2.81 2.42h-6.24zm0 7.13h6.41c1.75 0 2.88.98 2.88 2.64v.07c0 1.63-1.13 2.59-2.88 2.59h-6.41zm22.32 7.82c4.49 0 7.85-3.58 7.87-8.71v-.05c0-5.14-3.38-8.71-7.87-8.71s-7.87 3.58-7.87 8.71v.05c0 5.14 3.41 8.71 7.87 8.71zm0-2.26c-3.22 0-5.57-2.66-5.57-6.46v-.07c0-3.79 2.35-6.43 5.57-6.43s5.54 2.64 5.54 6.43v.07c0 3.82-2.35 6.46-5.54 6.46zm18.5 2.26c3.96 0 7.03-2.5 7.03-6.53v-10.6h-2.26v10.61c0 2.57-1.94 4.3-4.78 4.3s-4.8-1.73-4.8-4.3v-10.61h-2.26v10.61c0 4.03 3.07 6.53 7.06 6.53zm18.7-.34v-14.59h5.95v-2.2h-14.16v2.21h5.93v14.59h2.28z"/></svg>