<svg viewBox="0 0 60 472.86" xmlns="http://www.w3.org/2000/svg"><path d="m9.81 121.86c-1.01.17-2.28.26-3.14.26-1.61 0-1.78-.05-1.78-.62v-3.1h4.1c.98 0 1.58.02 2.18.1v-2.4c-.65.1-1.13.12-2.18.12h-1.51v-.43c0-.7.02-1.1.12-1.63h-2.66c.07.48.12 1.03.12 1.66v.41h-1.87c-1.06 0-1.56-.02-2.21-.12v2.4c.41-.05.89-.1 1.54-.1v4.1c0 1.46.84 1.9 3.74 1.9.91 0 2.11-.07 3.43-.19-.17.17-.26.26-.53.48.74.41 1.3.84 1.78 1.34h-6.36c-1.2 0-1.9-.05-2.59-.14v2.28c.55-.1 1.08-.12 2.59-.12h5.26v1.15h-4.13c-1.22 0-1.68-.02-2.35-.12v2.28c.72-.07 1.3-.1 2.35-.1h4.13v1.42h-6.31c-1.2 0-1.9-.02-2.59-.12v2.35c.91-.1 1.85-.14 2.83-.14h14.98c.96 0 2.09.05 2.88.14v-2.35c-.65.07-1.46.12-2.64.12h-6.62v-1.42h4.54c1.03 0 1.61.02 2.3.1v-2.28c-.86.12-.91.12-2.3.12h-4.54v-1.15h5.62c1.22 0 1.9.02 2.59.12v-2.28c-.7.12-1.34.14-2.59.14h-6.6c1.1-1.1 1.68-2.02 2.28-3.6h4.87c-.14.84-.34 1.01-1.25 1.01-.53 0-1.03-.05-1.92-.19.31.82.43 1.37.43 2.14 1.1.07 1.27.07 1.68.07 1.44 0 2.16-.17 2.62-.65.46-.46.77-1.3.91-2.54.12-1.08.31-4.08.36-5.81.02-1.01.02-1.13.1-1.7-.67.07-1.32.1-2.57.1h-4.13c-1.08 0-2.02-.05-2.54-.1.05.36.1.96.1 1.3 0 3.43-.91 6.41-2.5 8.04v-2.23zm8.95-2.18q-.02.62-.07 1.1h-4.54c.12-.46.14-.65.24-1.1zm.1-1.68h-4.27c.02-.36.02-.53.05-1.01h4.27zm-12.72 27.14c-.84.05-1.82.07-2.64.07-.86 0-1.22-.02-1.97-.1v.62c0 .67.1 1.39.22 1.66.14.24.36.31 1.1.31 1.03 0 2.5-.05 3.24-.12 0 .55 0 1.15-.02 1.82-.24-.1-.46-.12-.86-.12-1.92 0-3.29 1.68-3.29 4.08 0 2.26 1.18 3.82 2.86 3.86-.12.46-.17.91-.17 1.44 0 .98.34 1.63 1.13 2.21.86.62 2.74.96 5.21.96 1.22 0 2.95-.12 3.91-.29 1.2-.19 2.18-.62 2.83-1.22.77-.77 1.15-1.9 1.15-3.55 0-.67-.1-1.51-.19-1.68-.05-.12-.17-.17-.46-.22-1.08-.17-1.2-.19-2.47-.77.19.98.26 1.46.26 2.16 0 1.08-.26 1.8-.84 2.18-.74.48-2.38.77-4.46.77-1.87 0-2.95-.22-3.31-.62-.17-.17-.24-.46-.24-.84 0-.22.05-.38.19-.67 1.22-1.18 1.58-2.06 1.58-3.86 0-.65-.07-1.06-.34-1.99.05-1.85.07-2.54.12-3.86 1.51-.14 3.31-.46 3.77-.65.19-.07.26-.24.26-.6 0-.46-.1-1.42-.19-1.66-.05-.17-.12-.22-.29-.22-.07 0-.12 0-.26.05-1.18.26-2.06.43-3.19.6.07-1.27.12-1.49.31-1.94.1-.26.12-.34.12-.46 0-.26-.12-.36-.58-.46-.65-.14-1.56-.24-2.71-.29.14.84.22 1.78.22 2.74v.65zm-.67 6.46c.77 0 1.1.48 1.1 1.54s-.48 1.82-1.22 1.82c-.67 0-1.13-.65-1.13-1.66s.48-1.7 1.25-1.7zm9.72-4.15c0 .12.07.22.24.29 1.82.86 3.12 1.87 4.39 3.46.19.22.29.29.43.29.17 0 .5-.29.98-.84.5-.6.65-.86.65-1.08 0-.1-.05-.22-.19-.38-.84-1.03-2.3-2.23-3.5-2.88-.62-.31-1.44-.62-1.68-.62-.17 0-.22.05-.55.48-.38.5-.77 1.15-.77 1.3zm-7.03 24.89c-.02 1.49-.19 2.3-.62 3.19-.48 1.08-1.18 1.66-2.98 2.59.98.55 1.54.96 2.06 1.54 1.51-.91 2.4-1.78 3.02-2.93.6-1.15.86-2.3.94-4.39h2.11v3.84c0 .36-.1.43-.53.43-.55 0-1.01-.05-1.75-.17.46.74.65 1.37.72 2.26.55.05.79.05 1.73.05 1.73 0 2.23-.41 2.23-1.73v-4.68h3.62c1.1 0 1.97.05 2.71.12v-2.47c-.72.1-1.56.14-2.76.14h-6.12v-.48c0-.6.05-1.01.12-1.46h-2.86c.07.46.1.89.1 1.49v.46h-6.06c-1.3 0-2.09-.05-2.74-.14v2.47c.79-.1 1.37-.12 2.54-.12h4.51zm8.59 7.75c-.36.1-.98.14-2.02.14h-4.37l.24-.29c.14-.17.24-.31.26-.34q.29-.29.43-.48l-2.3-.94c-.53.89-1.22 1.63-2.4 2.54-1.44 1.1-3.05 1.92-4.87 2.47.67.77.98 1.22 1.39 2.04 1.46-.55 2.35-.98 3.53-1.73.82.82 1.3 1.22 2.4 1.99-2.88 1.06-4.94 1.39-8.62 1.44.58.77.91 1.39 1.25 2.42 4.51-.48 6.84-1.06 9.82-2.42 1.37.65 2.09.91 3.58 1.37 1.92.55 3.05.79 5.74 1.15.26-.94.65-1.7 1.25-2.59-3.72-.14-5.66-.48-8.16-1.37 1.03-.74 1.92-1.49 2.93-2.5q1.06-1.01 1.39-1.32l-1.46-1.61zm-2.42 2.14c-1.06.96-1.7 1.46-2.9 2.18-1.25-.7-2.23-1.42-3-2.18zm-9.67-9.48c-.53 1.25-.96 1.92-1.8 2.86-.6.67-1.03 1.06-2.02 1.8.07.05.17.12.26.17l.38.26q.31.24.89.74c.12.1.29.22.48.41 1.03-.91 1.46-1.34 2.18-2.26.82-1.03 1.2-1.66 1.85-2.95l-2.23-1.03zm10.82 1.49c1.87 1.85 2.59 2.76 3.89 4.78l2.16-1.63c-1.44-1.75-2.57-2.95-4.15-4.42zm-2.26 31.92c3.05-1.61 5.28-3.14 7.8-5.38.22-.22.29-.29.48-.41l-1.99-2.04c-1.27 1.68-3.7 3.58-6.29 4.97v-5.16c0-1.15.05-2.09.14-2.76h-2.88c.1.67.14 1.61.14 2.76v15.19c0 2.11.67 2.5 4.44 2.5s4.97-.24 5.66-1.13c.58-.7.89-2.21 1.08-5.09-.82-.17-1.58-.46-2.5-.89-.12 2.81-.26 3.7-.65 4.22-.29.38-1.08.5-3.17.5-1.9 0-2.28-.12-2.28-.77v-6.53zm-9.12 7.27c0 1.08-.05 2.02-.14 2.98h2.83c-.1-.98-.14-1.99-.14-2.95v-12.36c1.03-2.35 1.15-2.62 1.66-4.01.22-.6.31-.84.5-1.3l-2.71-.77c-.22 1.56-1.1 3.7-2.33 5.71-.98 1.63-1.73 2.59-3.22 4.1.7 1.25.74 1.37 1.22 2.71.91-.98 1.85-2.14 2.38-3-.05 1.15-.05 1.85-.05 2.59v6.29zm6.94 22.68c0 .58-.02 1.49-.07 2.18v.1c0 .38.14.46.96.46.72 0 1.37-.07 1.49-.19.12-.07.17-.22.17-.5v-1.15c0-.77-.05-1.87-.07-2.3 3.65-1.78 5.83-2.71 7.01-3.02.31-.07.41-.17.41-.31 0-.41-1.06-1.92-2.04-2.93-.53.6-.98.96-2.09 1.61-.14.1-1.42.79-3.79 2.09-.48-1.34-1.2-1.97-2.28-1.97-.96 0-1.78.19-2.86.7.74-.82 1.25-1.58 1.97-2.9 2.21-.22 4.85-.62 5.62-.84.31-.07.41-.19.41-.46 0-.34-.14-1.44-.24-1.87-.05-.14-.14-.22-.34-.22-.12 0-.24.02-.77.17-.84.19-2.04.43-3.41.62q.02-.07.07-.17c.31-.74.5-1.13.67-1.44.07-.14.1-.19.1-.29 0-.41-.98-.77-3.12-1.13-.02 1.13-.19 1.99-.7 3.36-1.08.05-2.11.07-3.05.07-1.15 0-1.63-.02-2.45-.14.02.65.14 1.92.22 2.23.12.41.19.48.55.48.94 0 1.82-.02 3.53-.14-.98 1.73-2.62 3.41-4.58 4.73-.58.36-.62.41-.62.62 0 .17.14.48.38.89.5.84 1.01 1.39 1.25 1.39.19 0 .26-.05.98-.79.5-.5 1.32-1.18 2.02-1.66 1.13-.74 2.16-1.13 3.14-1.13.74 0 1.1.34 1.3 1.13-2.21 1.25-2.45 1.42-3.48 2.23-1.3 1.03-1.94 2.26-1.94 3.65 0 1.51.7 2.59 2.09 3.17 1.15.48 2.71.67 5.64.67 1.75 0 4.42-.14 4.99-.26.31-.07.43-.22.43-.58 0-.86-.1-1.58-.24-2.09-.07-.17-.19-.29-.36-.29h-.12c-.96.24-1.25.31-1.75.38-1.22.17-3.02.29-4.32.29-1.51 0-2.69-.17-3.22-.48-.36-.22-.53-.5-.53-.94 0-1.06.67-1.75 3.05-3.14v.12zm2.45 24.58c.91-1.1 2.02-2.62 2.74-3.82.74-1.22.91-1.42 1.3-1.8.62-.58.7-.67.7-.96 0-.26-.26-.77-.72-1.42-.58-.77-1.01-1.1-1.42-1.1-.14 0-.19 0-.29.05-.5.17-.55.19-.86.22-.79.1-2.28.14-3.7.14-3.48 0-6.02-.1-7.66-.31 0 1.27.05 1.99.17 2.76.05.26.19.38.46.38.05 0 .1 0 .38-.02q1.32-.14 9.43-.19c-1.92 3.31-3.55 5.4-6.02 7.66-2.28 2.09-4.32 3.46-7.08 4.73.6.43 1.15.91 1.49 1.3.58.65.6.67.84.67.29 0 1.58-.72 2.95-1.66 1.73-1.18 3.86-2.98 5.45-4.63 2.09 1.49 3.89 3.07 5.21 4.56q1.1 1.25 1.37 1.56c.14.12.26.17.36.17.17 0 .41-.17.96-.7.74-.72 1.06-1.1 1.06-1.32 0-.26-.94-1.27-2.47-2.66-1.49-1.39-2.76-2.35-4.63-3.6zm-2.38 28.03c-1.39-1.3-2.74-2.38-3.74-2.95-.14-.1-.24-.12-.34-.12-.14 0-.34.14-.72.46-.65.62-1.06 1.1-1.06 1.3 0 .12.05.24.17.31 2.69 2.11 2.76 2.16 4.3 3.72 1.27 1.27 1.75 1.85 3.24 3.84.17.22.29.29.43.29.17 0 .58-.24 1.1-.67.74-.6 1.06-.96 1.06-1.22 0-.29-1.06-1.58-2.5-3.02 2.76-2.23 4.1-3.6 6.26-6.26.79-.96.98-1.18 1.34-1.42.41-.29.46-.34.46-.6s-.22-.7-.67-1.34c-.82-1.15-1.3-1.56-1.78-1.56-.17 0-.29.02-.5.1-.41.14-.65.19-1.25.24-1.34.07-4.46.12-7.87.12-3.05 0-5.57-.1-7.22-.29.05 1.2.19 2.09.43 2.76.12.31.29.46.58.46.05 0 .17-.02.29-.02q.74-.14 2.74-.22 2.78-.12 11.14-.24c-1.68 2.38-3.41 4.27-5.88 6.36zm-1.56 15.24c.24 1.46.29 2.9.29 8.42 0 2.88-.1 9.29-.14 10.44v.12c0 .43.14.53.91.53.86 0 1.9-.12 2.04-.26.12-.07.17-.24.17-.46v-.12c-.05-.79-.12-5.74-.12-8.21 0-5.47.1-8.38.34-9.22.07-.24.12-.46.12-.55 0-.19-.12-.31-.36-.36-.7-.14-1.46-.24-3.24-.34zm.89 36.55c2.45.72 4.92 1.87 7.27 3.43.17.12.29.17.38.17.14 0 .26-.12.46-.53.38-.72.82-1.87.82-2.11 0-.14-.1-.26-.29-.41-2.14-1.13-3.5-1.75-5.9-2.59q-.98-.36-2.69-.84c.07-2.83.12-4.27.12-4.32.02-.38.07-.72.17-1.01q.1-.41.1-.53c0-.19-.12-.31-.36-.38-.7-.14-1.46-.22-3.19-.34.22 1.39.26 2.95.26 8.47 0 2.86-.07 9.77-.12 10.39v.1c0 .48.14.55.91.55.89 0 1.85-.12 2.02-.26.12-.07.17-.24.17-.46v-.12c-.05-1.13-.12-5.04-.12-6.5v-2.71zm-3.91 29.54c-.55 1.18-.79 1.63-1.46 3.14-.07-1.2-.1-1.94-.1-2.5 0-3.43.89-8.52 1.68-9.79.26-.38.29-.46.29-.62 0-.24-.12-.36-.53-.53-.72-.34-1.58-.58-2.59-.77-.1.79-.22 1.51-.46 2.81-.67 3.6-.84 5.23-.84 7.87 0 2.42.36 5.64.82 7.2.1.29.17.36.48.36.19 0 .36.02.48.02h.1c.26 0 1.08-.12 1.2-.17.1-.05.17-.19.24-.46.29-1.3.86-3.02 1.34-4.13.22-.53.24-.55.24-.72 0-.12-.02-.22-.1-.34-.43-.65-.58-.89-.79-1.39zm4.2-9.17c-.14 0-.22.05-.24.14-.05.19-.12 1.15-.12 1.8 0 .43.05.6.17.67.24.14 2.09.26 4.15.26 1.73 0 3.36-.12 4.34-.31.26-.05.34-.17.34-.53 0-.65-.07-1.7-.12-1.94-.05-.19-.12-.26-.29-.26q-.1 0-.22.02c-1.49.26-3.07.38-4.66.38-1.18 0-2.71-.1-3.24-.22-.05-.02-.1-.02-.12-.02zm.19 10.56c-1.3.79-1.8 1.25-1.8 1.58 0 .65 1.1 1.97 2.16 2.62 1.13.67 2.5.94 4.7.94 1.61 0 2.93-.17 4.22-.5.34-.1.41-.17.41-.41 0-.48-.1-1.44-.22-2.26-.02-.24-.14-.34-.31-.34-.07 0-.19.02-.34.07-1.49.43-2.4.55-3.94.55s-2.52-.14-3.29-.55-1.18-.84-1.61-1.7zm3.1 20.21h-2.09c-.82 0-1.87-.05-2.5-.12v2.69c1.01-.1 1.37-.12 2.52-.12h2.06v8.28c0 1.49-.05 2.23-.14 3.05h2.93c-.1-.84-.14-1.61-.14-3.07v-8.26h2.74c1.15 0 1.9.05 2.69.14v-2.74c-.72.1-1.49.14-2.69.14h-2.74v-4.75c0-1.25.02-1.82.14-2.66h-2.93c.12.82.14 1.39.14 2.66v4.75zm-10.03 11.38v-2.38h2.59v1.32h2.47c-.05-.48-.07-1.39-.07-2.4v-11.3c0-1.25.02-1.73.07-2.38-.62.07-1.06.1-1.99.1h-3.62c-.91 0-1.37-.02-1.99-.1.05.72.07 1.42.07 2.38v11.98c0 1.06-.05 1.97-.12 2.78zm0-14.78h2.59v10.18h-2.59zm2.93 25.25c0 .17.07.24.29.34 1.34.48 2.86.84 4.58 1.1.38.05 2.98.34 3.1.34s.22-.07.29-.22c.12-.19.22-1.08.22-1.8 0-.58-.02-.65-.31-.67-2.57-.12-2.78-.14-4.27-.43-1.03-.19-1.94-.41-2.93-.74-.05-.02-.12-.02-.24-.05-.12-.02-.19.1-.29.38-.26.82-.43 1.54-.43 1.75zm6.12 7.54c.34-.31 1.06-.98 1.3-1.18.43-.36.94-.7 1.3-.84.31-.17.41-.29.41-.58 0-.7-1.37-2.26-1.97-2.26-.1 0-.24.05-.38.12-.53.26-.84.34-2.86.6-2.66.38-5.62.67-6.67.67-.17 0-.34 0-.84-.02.1.96.22 1.58.46 2.38.14.48.19.55.41.55.12 0 .22-.02.48-.12.58-.22 3.02-.72 6.89-1.42q-8.93 9.5-9.5 9.98c-.43.38-.48.43-.48.6 0 .14.26.46.98 1.25.74.79.91.94 1.08.94.14 0 .31-.14.46-.38.79-1.25 1.97-2.69 3.34-4.06 1.42-1.42 2.09-1.85 2.95-1.85.96 0 1.25.46 1.42 2.3.14 1.49.34 2.21.74 2.86.65.98 1.75 1.37 3.84 1.37 1.39 0 3.67-.19 4.32-.36.22-.05.26-.14.26-.36 0-.7-.19-1.97-.36-2.35-.1-.17-.17-.22-.31-.22-.05 0-.1 0-.17.02-1.97.53-2.52.62-3.65.62-.84 0-1.3-.1-1.58-.38-.34-.29-.41-.55-.58-1.97-.31-2.47-1.08-3.46-2.74-3.46-.41 0-.82.07-1.37.24l2.83-2.71zm-3.48 26.83c.96-.96 1.08-1.08 2.14-2.16 1.49-1.51 1.51-1.51 2.71-2.66.55-.53.82-.74 1.25-1.01.53-.34.6-.43.6-.74 0-.19-.14-.5-.6-1.13-.62-.96-.96-1.25-1.3-1.25-.14 0-.26.02-.48.12-.67.26-.96.34-1.85.43-2.52.29-4.46.46-5.62.46-.53 0-.98-.02-1.63-.12.07 1.06.22 1.85.5 2.57.14.36.26.48.46.48.07 0 .14-.02.26-.05.74-.26 2.76-.6 5.76-.98-2.52 3.07-4.22 4.92-6.55 7.13-1.01.96-1.8 1.66-2.35 2.09-.53.38-.62.5-.62.72 0 .43 1.7 2.11 2.14 2.11.14 0 .26-.1.43-.34.43-.55.79-.96 1.18-1.34 2.09-2.09 4.61-3.26 6.96-3.26s3.77 1.34 3.77 3.41c0 1.3-.5 2.23-1.73 3.12-.98-2.11-2.45-3.14-4.49-3.14-2.26 0-3.84 1.34-3.84 3.24 0 2.09 1.78 3.31 4.82 3.31 1.9 0 3.58-.41 4.94-1.22 1.97-1.18 3.14-3.19 3.14-5.42 0-3.26-2.4-5.57-5.78-5.57-1.44 0-2.66.36-4.22 1.22zm2.95 8.57c-.6.17-1.06.22-1.58.22-1.15 0-1.9-.43-1.9-1.13 0-.58.48-.94 1.22-.94.46 0 .86.12 1.22.36.5.34.74.7 1.03 1.49zm5.76 8.3c-2.23 0-4.06 1.82-4.06 4.06s1.82 4.08 4.06 4.08 4.06-1.82 4.06-4.08-1.8-4.06-4.06-4.06zm0 1.87c1.2 0 2.18.98 2.18 2.18s-.98 2.21-2.18 2.21-2.18-.98-2.18-2.21.98-2.18 2.18-2.18zm33.82-415.13h-8.59c.91-1.46 2.33-3 4.03-4.27 2.16-1.63 2.35-1.8 3.05-2.52 1.13-1.18 1.63-2.45 1.63-4.08 0-3.22-2.3-5.35-5.76-5.35-1.94 0-3.55.72-4.61 2.09-.77.96-1.15 1.97-1.46 3.79l2.69.65c.24-1.46.38-1.99.67-2.52.6-1.06 1.51-1.61 2.69-1.61 1.66 0 2.81 1.15 2.81 2.86 0 1.3-.58 2.3-2.02 3.53-2.62 2.23-3.07 2.66-4.06 3.72-.98 1.13-1.68 2.09-2.74 3.86v2.33h11.66v-2.47zm-16.37 16.1c.55 1.85 1.37 3.31 1.82 3.31.14 0 .26-.05.7-.29.24-.14.58-.31 1.22-.6 3.65-1.68 6.82-2.5 9.67-2.5 2.35 0 3.89 1.46 3.89 3.72 0 2.02-1.13 3.67-3.17 4.68-1.87.94-3.82 1.42-7.39 1.85.72.74.94 1.08 1.49 2.18.14.26.29.36.58.36.36 0 .84-.07 1.78-.26 2.14-.41 3.7-.94 5.23-1.7 2.88-1.49 4.54-4.08 4.54-7.15 0-1.75-.58-3.24-1.63-4.32-1.27-1.25-3.17-1.9-5.59-1.9-2.26 0-4.32.36-8.3 1.49-2.62.72-3.72.98-4.82 1.13zm12.29 25.66c1.32.22 1.99.46 2.83 1.03 1.49 1.06 2.33 2.74 2.33 4.73 0 3.89-2.23 6.22-7.18 7.49.65.43 1.1.89 1.51 1.51.31.46.43.55.72.55.31 0 .94-.19 1.73-.53 3.98-1.7 6.05-4.73 6.05-8.93 0-4.75-3.72-8.3-8.74-8.3-2.28 0-4.01.38-5.62 1.25-3.29 1.73-5.21 4.99-5.21 8.78 0 3.41 1.78 5.86 4.27 5.86 1.63 0 3.22-1.1 4.37-3.1 1.46-2.52 2.26-5.28 2.93-10.34zm-2.74.12c-.36 2.66-.65 4.03-1.22 5.83-.91 2.86-2.14 4.51-3.34 4.51-1.01 0-1.61-1.08-1.61-2.93 0-2.26.91-4.27 2.52-5.69 1.1-.96 1.94-1.37 3.65-1.73zm-8.16 23.9c.05 1.03.14 1.8.31 2.45.12.48.34.7.7.7.05 0 .12 0 .31-.05q1.42-.24 13.78-.34c-1.46 2.09-2.71 3.29-4.56 4.42.86.46 1.39.86 1.97 1.54.12.14.24.19.41.19.24 0 .46-.14 1.08-.72 1.54-1.42 2.59-2.54 3.46-3.74.48-.65.55-.72.94-.96.26-.17.38-.34.38-.6 0-.36-.24-.84-.84-1.63-.7-.94-1.13-1.3-1.58-1.3-.1 0-.17 0-.41.07-.34.1-.7.12-1.75.17-2.95.07-4.46.1-6.46.1-4.49 0-6.53-.07-7.73-.29zm6.91 4.46c.05.43.05.77.05 1.32 0 3.86-1.15 6.79-3.46 8.78-.84.72-1.61 1.2-2.98 1.85.82.48 1.39.91 1.87 1.49.17.22.31.29.53.29.1 0 .29-.05.46-.14 1.39-.67 2.98-2.04 3.98-3.43 1.25-1.75 1.99-3.91 2.47-7.18.12-.82.24-1.34.36-1.66q.14-.31.14-.41c0-.24-.19-.38-.67-.5-.79-.22-1.61-.34-2.76-.41zm11.57 19.2c-1.44 0-2.57 1.13-2.57 2.57s1.13 2.57 2.57 2.57 2.57-1.13 2.57-2.57-1.13-2.57-2.57-2.57zm0 1.3c.7 0 1.27.58 1.27 1.27s-.6 1.27-1.27 1.27-1.27-.58-1.27-1.27.58-1.27 1.27-1.27zm-5.76 5.62c-.55 2.69-1.58 4.94-3.24 7.03-1.85 2.35-3.77 3.82-7.3 5.59.65.34 1.15.72 1.8 1.37.55.55.6.58.86.58.36 0 1.73-.84 3.17-1.94 3.6-2.78 6.26-6.58 7.61-10.8.53-1.68.55-1.75.79-2.04.17-.22.24-.36.24-.53 0-.26-.1-.41-.55-.98-.77-.91-1.27-1.3-1.68-1.3-.1 0-.14 0-.26.05-.43.17-.58.19-1.01.24-.6.07-4.37.14-7.58.14-3.55 0-5.09-.07-6.26-.24.07 2.47.22 3.26.67 3.26.02 0 .05 0 .07-.02.77-.22 3.79-.36 8.09-.38q2.71 0 4.58-.02zm-8.47 38.47h9.79v1.22c0 .5.05.53.96.53.79 0 1.75-.07 1.9-.17.14-.05.19-.19.19-.48v-.34c-.1-2.93-.14-5.16-.14-6.98 0-3.12.02-6.89.07-7.87-1.46.07-3.77.1-6.7.1-3.58 0-6.86-.07-8.95-.19.02.7.02 1.85.02 2.47 0 3.05-.12 10.78-.19 12.05-.02.38-.02.65-.02.77 0 .58.07.62.89.62.91 0 1.78-.07 1.97-.14.14-.07.22-.24.22-.5v-1.08zm9.79-2.74h-9.79v-8.54h9.79zm-6.6 13.37c.24 1.46.29 2.9.29 8.42 0 2.88-.1 9.29-.14 10.44v.12c0 .43.14.53.91.53.86 0 1.9-.12 2.04-.26.12-.07.17-.24.17-.46v-.12c-.05-.79-.12-5.74-.12-8.21 0-5.47.1-8.38.34-9.22.07-.24.12-.46.12-.55 0-.19-.12-.31-.36-.36-.7-.14-1.46-.24-3.24-.34zm-1.54 35.14h-.67c-3.1 0-4.63-.05-5.66-.17.05 1.15.17 2.21.34 2.76.05.17.14.24.36.24.07 0 .17-.02.43-.05 1.13-.19 2.95-.26 7.42-.31-.19 1.44-.74 3-1.44 4.2-.94 1.58-2.09 2.69-3.84 3.72.89.31 1.49.55 1.97.86q.79.48 1.01.48c.12 0 .22-.05.36-.14.91-.72 2.09-2.02 2.78-3.07 1.1-1.68 1.8-3.7 2.09-6.1 3.89 0 5.3.02 6.31.1.26.02 1.03.07 1.08.07.36 0 .38-.05.38-1.58 0-1.03-.07-1.27-.38-1.27-.07 0-.14 0-.24.02-.77.07-3.41.14-6.98.19v-2.02c0-1.27 0-1.42-.02-2.35 1.22-.31 1.44-.38 2.69-.79.6-.19.89-.26 1.34-.31.31-.05.46-.14.46-.36 0-.41-.86-1.51-1.92-2.45-1.13.67-1.94 1.06-3.31 1.49-3 .94-6.1 1.42-9.29 1.44.38.46.58.67.58.7.24.36.6.98.74 1.34.12.29.29.41.53.41.58 0 3.58-.46 5.3-.82.02 1.1.02 1.75.02 1.97 0 .89 0 1.22-.02 1.78l-2.4.02zm9.1 25.32s-.05 0-.07.05c-.02.02-.17.12-.41.24-.1.07-.5.41-.58.5-.02 0-.05.07-.1.19 0 .02.07.14.12.19.77.79 1.18 1.32 1.56 1.92.43.67.46.7.55.7t.17-.05c.19-.07.22-.07.67-.46.43-.38.58-.53.58-.65 0-.36-2.04-2.64-2.38-2.64h-.12zm4.85 1.01c0-.22-.65-1.1-1.34-1.82-.5-.5-.79-.72-.96-.72-.12 0-.41.14-.74.38-.34.24-.48.38-.48.5 0 .05.05.12.1.19.77.74 1.13 1.2 1.85 2.28.12.19.17.24.26.24.12 0 .34-.14.7-.41.46-.34.62-.5.62-.65zm-8.74-3.24c-1.37.94-1.94 1.42-2.62 2.28-1.25 1.58-1.9 3.43-1.9 5.42 0 3.67 2.14 6.26 6.22 7.46.74.22 1.46.36 1.78.36s.5-.12.62-.38c.22-.53.46-1.68.46-2.28 0-.29-.12-.41-.46-.43-3.74-.34-5.95-2.18-5.95-4.99 0-3.74 3.24-7.3 7.3-7.97.46-.07.91-.12 1.42-.12.34 0 .43-.1.43-.38 0-.34-.14-1.06-.34-1.56-.22-.6-.34-.74-.65-.74-.12 0-.19 0-.36.05-.91.19-2.64.48-4.8.77-1.92.24-5.57.79-8.45 1.22-2.66.41-3.22.48-4.75.55.43 2.06.91 3.05 1.44 3.05.14 0 .31-.05.62-.17.86-.31 1.08-.38 1.7-.53 1.82-.46 5.14-1.08 8.28-1.61zm-10.47-244.85v-.96h-.01c-1.13 0-1.99-1.38-1.99-4.2s.86-4.2 1.99-4.2h.01v-.96h-.01c-1.75 0-3.04 1.61-3.04 5.16s1.28 5.16 3.04 5.16zm5.33-1.27c2.09 0 3.4-1.45 3.4-4v-.74c0-2.54-1.31-4-3.4-4s-3.4 1.45-3.4 4v.74c0 2.54 1.32 4 3.4 4zm0-1.07c-1.42 0-2.28-1.04-2.28-2.93v-.76c0-1.88.86-2.93 2.28-2.93s2.27 1.04 2.27 2.93v.76c0 1.88-.84 2.93-2.27 2.93zm6.19-.13c.05-.66.86-1.14 1.93-1.6l.79-.34c1.54-.65 2.51-1.36 2.51-2.78 0-1.55-1.08-2.82-3.13-2.82-1.87 0-3.34 1.16-3.35 3.08l1.12.04c.01-1.25.88-2.06 2.22-2.06s2.02.71 2.02 1.84c0 .97-.62 1.31-1.75 1.8l-1.02.44c-1.58.67-2.47 1.46-2.47 2.86v.58h6.41v-1.03h-5.27zm7.27 2.47c1.75 0 3.04-1.61 3.04-5.16s-1.28-5.16-3.04-5.16h-.01v.96h.01c1.13 0 1.98 1.37 1.98 4.2s-.85 4.2-1.98 4.2h-.01v.96z"/></svg>