<svg viewBox="0 0 259.09 17.47" xmlns="http://www.w3.org/2000/svg"><path d="m8.9 17.14c3.24 0 4.82-2.02 4.82-4.49v-.1c0-1.73-.82-3.19-2.52-3.89v-.19c1.51-.67 2.28-2.04 2.28-3.58v-.1c0-2.35-1.56-4.46-4.82-4.46h-8.66v16.8h8.9zm-6.64-14.62h6.17c1.73 0 2.88.98 2.88 2.57v.07c0 1.46-1.1 2.42-2.81 2.42h-6.24zm0 7.13h6.41c1.75 0 2.88.98 2.88 2.64v.07c0 1.63-1.13 2.59-2.88 2.59h-6.41zm17.16 7.49v-7.03h5.83c1.3 0 2.35.48 2.59 2.45l.19 1.66c.17 1.46.36 2.11.7 2.93h2.33v-.29c-.31-.7-.58-1.25-.72-2.64l-.22-2.04c-.14-1.39-.79-2.21-1.8-2.69v-.22c1.8-.77 2.57-2.33 2.57-4.1v-.1c0-2.64-1.58-4.73-4.82-4.73h-8.9v16.8h2.26zm0-14.62h6.41c1.75 0 2.88 1.01 2.88 2.78v.05c0 1.68-1.15 2.66-2.88 2.66h-6.41zm19.61-2.18-5.88 16.51v.29h2.28l1.7-4.78h7.85l1.7 4.78h2.26v-.29l-5.85-16.51zm1.56 2.26h.94l2.71 7.63h-6.36zm13.43 14.54v-13.52h.67l8.26 13.51h3.46v-16.79h-2.21v13.49h-.7l-8.23-13.49h-3.46v16.8zm23.67 0c4.49 0 7.63-3.36 7.63-8.38v-.05c0-5.04-3.14-8.38-7.63-8.38h-6.98v16.8h6.98zm-4.73-14.54h4.49c3.29 0 5.57 2.42 5.57 6.1v.07c0 3.7-2.3 6.12-5.57 6.12h-4.49v-12.3zm29.78 14.88c3.89 0 7.01-2.54 7.66-6.6l-2.35-.07c-.58 2.76-2.69 4.42-5.33 4.42-3.19 0-5.54-2.66-5.54-6.46v-.07c0-3.79 2.35-6.43 5.54-6.43 2.64 0 4.75 1.63 5.33 4.39l2.35-.07c-.65-4.07-3.77-6.59-7.66-6.59-4.46 0-7.87 3.58-7.87 8.71v.05c0 5.14 3.41 8.71 7.87 8.71zm18.14 0c4.49 0 7.85-3.58 7.87-8.71v-.05c.01-5.14-3.38-8.72-7.87-8.72s-7.87 3.58-7.87 8.71v.05c0 5.14 3.41 8.71 7.87 8.71zm0-2.26c-3.22 0-5.57-2.66-5.57-6.46v-.07c0-3.79 2.35-6.43 5.57-6.43s5.54 2.64 5.54 6.43v.07c0 3.82-2.35 6.46-5.54 6.46zm13.43 1.92v-13.52h.67l8.26 13.51h3.46v-16.79h-2.21v13.49h-.7l-8.22-13.49h-3.46v16.8h2.21zm22.42.34c4.08 0 6.43-2.16 6.43-5.16 0-2.5-1.8-3.86-5.16-4.44l-1.99-.36c-2.5-.46-3.46-.94-3.46-2.35 0-1.7 1.68-3 3.91-3 2.5 0 4.44 1.75 4.44 4.22l2.23-.07c.01-4.18-3.49-6.32-6.66-6.32-3.86 0-6.17 2.54-6.17 5.16s1.73 3.84 5.21 4.44l1.99.36c2.42.43 3.43.98 3.43 2.33 0 1.87-1.73 3.02-4.2 3.02-2.64 0-4.61-1.75-4.61-4.34l-2.23.07c0 4.15 3.29 6.43 6.84 6.43zm16.62 0c3.96 0 7.03-2.5 7.03-6.53v-10.61h-2.26v10.61c0 2.57-1.94 4.3-4.78 4.3s-4.8-1.73-4.8-4.3v-10.61h-2.26v10.61c0 4.03 3.07 6.53 7.06 6.53zm22.85-.34v-2.23h-9.5v-14.57h-2.26v16.8zm6.99 0v-14.6h5.95v-2.2h-14.16v2.21h5.93v14.59zm11.31-16.8-5.88 16.51v.29h2.28l1.7-4.78h7.85l1.7 4.78h2.26v-.29l-5.85-16.51zm1.56 2.26h.94l2.71 7.63h-6.36zm13.43 14.54v-13.52h.67l8.26 13.51h3.46v-16.79h-2.21v13.49h-.7l-8.23-13.49h-3.46v16.8zm23.65 0v-14.6h5.95v-2.2h-14.16v2.21h5.93v14.59z"/></svg>