<svg viewBox="0 0 59.04 581.86" xmlns="http://www.w3.org/2000/svg"><path d="m5.62 92.3v.41c0 1.08-.17 2.28-.46 3.55-.89 3.7-2.57 6.77-4.78 8.69.94.22 1.61.5 2.4.94.17.1.26.14.36.14.29 0 .79-.5 1.49-1.46 1.63-2.23 2.88-5.16 3.65-8.54.31-1.37.41-1.73.67-2.16.12-.22.17-.34.17-.43 0-.46-1.42-.91-3.5-1.13zm12.91 13.51c.22 0 1.18-.34 1.75-.62.6-.29.72-.38.72-.67 0-.43-.5-1.99-1.34-4.06-1.25-3.1-2.3-5.23-3.38-6.91-.91-1.42-.98-1.51-1.25-1.51-.22 0-.6.17-1.32.62-.7.41-.91.58-.91.77 0 .12.02.19.31.6 1.97 2.93 3.77 7.01 5.02 11.4.07.24.22.38.41.38zm-5.38 16.73c.94-.7 1.97-1.54 3.02-2.47 1.13-.98 1.3-1.1 1.73-1.3.29-.12.38-.24.38-.38 0-.46-1.08-1.46-2.59-2.47-.31.53-.46.74-.79 1.13-1.56 1.85-4.32 4.15-6.96 5.81-2.14 1.34-3.89 2.18-6.96 3.31.94.65 1.32.96 2.02 1.75.17.19.31.26.5.26.31 0 1.15-.36 2.88-1.27 1.39-.72 2.18-1.2 3.82-2.26v3.17c0 3.02-.05 5.76-.14 6.98v.12c0 .41.07.46.82.46.79 0 1.8-.05 2.11-.12.24-.02.31-.12.31-.38v-.17c-.1-1.63-.14-3.86-.14-6.89v-5.28zm8.54 21.91c.14 0 .5-.22.89-.5.29-.22.36-.34.36-.46s-.22-.48-.55-.91c-.82-1.06-1.44-1.66-1.7-1.68-.17 0-.31.05-.62.29-.41.29-.53.41-.53.53 0 .05.02.1.12.19.65.62 1.2 1.32 1.78 2.3.1.19.17.24.26.24zm-1.06.53c0-.17-.46-.82-1.1-1.56-.72-.82-1.01-1.06-1.2-1.06-.26 0-1.18.67-1.18.86 0 .07.02.12.12.22.55.55 1.13 1.3 1.51 1.94q.43.72.58.72c.14 0 .46-.22.98-.67.22-.19.29-.29.29-.46zm-6.07 2.86c-.55 2.69-1.58 4.94-3.24 7.03-1.85 2.35-3.77 3.82-7.3 5.59.65.34 1.15.72 1.8 1.37.55.55.6.58.86.58.36 0 1.73-.84 3.17-1.94 3.6-2.78 6.26-6.58 7.61-10.8.53-1.68.55-1.75.79-2.04.17-.22.24-.36.24-.53 0-.26-.1-.41-.55-.98-.77-.91-1.27-1.3-1.68-1.3-.1 0-.14 0-.26.05-.43.17-.58.19-1.01.24-.6.07-4.37.14-7.58.14-3.55 0-5.09-.07-6.26-.24.07 2.47.22 3.26.67 3.26.02 0 .05 0 .07-.02.77-.22 3.79-.36 8.09-.38q2.71 0 4.58-.02zm2.54 25.73c0-1.13.05-1.61.24-2.14.07-.22.1-.31.1-.43 0-.24-.14-.36-.46-.43-.74-.14-1.61-.24-3.05-.26.17.89.24 1.85.24 3.79 0 2.76-.22 5.35-.53 6.72-.43 1.73-1.22 3.17-2.45 4.37-1.06 1.03-2.35 1.85-3.89 2.42.84.55 1.27.94 1.82 1.63.17.19.29.26.46.26s.62-.19 1.22-.53c2.83-1.56 4.75-4.01 5.62-7.06.46-1.68.67-3.91.67-7.34v-1.01zm-9.34.07c0-1.15.05-1.61.24-2.09.05-.14.07-.22.07-.34 0-.29-.19-.46-.53-.53-.55-.12-1.68-.19-2.9-.22.19 1.25.26 2.33.26 5.11 0 1.7-.05 2.74-.14 4.61v.48c0 .41.14.5.86.5 1.87 0 2.21-.1 2.21-.58 0-.1-.02-.34-.02-.58-.02-.67-.05-1.78-.05-2.33v-4.06zm.46 32.98c.14 0 .91-.36 1.46-.7.48-.29.65-.46.65-.62 0-.29-.72-1.66-1.51-2.86-.58-.91-.89-1.27-1.1-1.3-.14-.02-.29.05-.98.46-.65.38-.91.6-.91.79 0 .14.07.26.55.96.31.46 1.1 1.97 1.49 2.86.12.31.22.41.36.41zm6.5-2.45.02-.14s-.02-.07-.1-.14c-.07-.12-.17-.38-.31-.79-.19-.53-1.22-2.35-1.56-2.81-.17-.17-.22-.22-.34-.22-.14 0-.19.02-1.08.5-.72.38-.91.53-.91.67q.02.19.07.26c.74 1.2 1.42 2.62 1.75 3.62.07.24.19.36.31.36.02 0 .07-.02.14-.05 0-.02.1-.05.24-.1.67-.26 1.78-.94 1.78-1.1l-.02-.07zm3.12-3.48c-.1 1.42-.72 3.26-1.66 5.06-1.68 3.1-3.72 5.06-7.32 6.96.77.46 1.44.96 1.87 1.39.14.14.26.19.41.19.5 0 2.74-1.66 4.15-3.07 1.92-1.92 3.05-3.72 4.78-7.54.31-.67.46-.91.7-1.22.1-.12.14-.22.14-.31 0-.36-1.08-.89-3.07-1.46zm-8.11 32.95c2.45.7 4.92 1.87 7.27 3.43.17.12.29.17.38.17.14 0 .26-.12.46-.53.38-.72.82-1.87.82-2.11 0-.17-.1-.29-.29-.41-2.14-1.15-3.5-1.75-5.9-2.59q-.98-.36-2.69-.84c.07-2.83.12-4.27.12-4.32.02-.41.07-.72.17-1.01q.1-.41.1-.55c0-.19-.12-.31-.36-.36-.7-.14-1.46-.24-3.19-.34.22 1.37.26 2.95.26 8.47 0 2.83-.07 9.77-.12 10.39v.1c0 .48.14.55.91.55.89 0 1.85-.12 2.02-.26.12-.07.17-.24.17-.46v-.12c-.05-1.13-.12-5.04-.12-6.53v-2.69zm6.22-4.58c.34 0 1.42-.86 1.42-1.13 0-.22-.55-.96-1.34-1.82-.6-.65-.82-.84-1.03-.84-.12 0-.31.1-.65.36-.46.31-.58.46-.58.6 0 .07.02.07.14.22.72.74 1.32 1.56 1.8 2.42.07.14.14.19.24.19zm3.84-2.69c0-.29-1.03-1.61-1.78-2.3-.24-.22-.38-.29-.5-.29-.29 0-1.25.67-1.25.86 0 .05.05.12.12.19.67.67 1.22 1.39 1.8 2.35.12.17.17.22.24.22.12 0 .34-.12.65-.34.55-.38.72-.55.72-.7zm-2.06 30.86c-.26 1.61-1.03 3.48-2.21 5.38-.53-1.73-.84-3.74-1.06-6.86h4.15c1.18 0 2.04.05 2.81.12v-2.52c-.6.1-1.2.12-2.45.12h-.7l1.22-.84c-.89-1.1-1.27-1.49-2.33-2.4l-1.8 1.13c.94.79 1.39 1.25 2.04 2.11h-3.05v-1.06c0-.77.05-1.7.14-2.18h-2.76c.07.46.1.67.12 1.22l.05 2.02h-6.67c-1.2 0-2.14-.05-2.95-.12.1.91.12 1.54.12 3.26 0 4.1-.24 7.13-.7 9.1-.31 1.32-.77 2.38-1.58 3.65.84.6 1.27 1.01 1.99 1.94 1.03-1.58 1.49-2.66 1.9-4.49.36-1.56.58-3.34.72-5.78h3.36c-.05 1.87-.17 3.38-.34 4.2-.12.55-.34.7-1.03.7-.65 0-.98-.02-2.23-.19.34.86.48 1.44.58 2.42.77.07 1.18.1 1.78.1 1.75 0 2.59-.36 2.95-1.27.38-.96.55-2.28.77-6.34.05-.94.07-1.46.12-1.94-.48.05-.79.07-1.63.07h-4.22q0-.74.02-3.02h7.15c.24 4.01.77 6.77 1.73 9.17-1.78 1.9-3.77 3.26-6.19 4.25.79.65 1.06.96 1.75 2.02 2.06-1.03 3.86-2.35 5.57-4.06 1.32 2.16 3.17 3.72 4.34 3.72 1.27 0 2.06-1.34 2.59-4.46-.98-.55-1.3-.79-2.06-1.56q-.26 2.18-.46 2.71c-.1.29-.19.43-.29.43-.14 0-.65-.41-1.03-.84-.48-.5-.96-1.18-1.39-1.97 1.18-1.58 2.11-3.29 3.12-5.76q.34-.84.5-1.22l-2.47-.94zm-9.89 30.17c-.05.7-.1.94-.17 1.34-.38 2.06-1.42 3.86-3.02 5.26-1.18 1.01-2.14 1.58-3.55 2.11.89.91 1.25 1.42 1.68 2.26 2.71-1.37 4.58-2.95 5.86-5.09 1.1-1.8 1.61-3.43 1.8-5.88h4.42v1.32c0 2.4-.36 5.47-.72 6.14-.19.34-.46.43-1.32.43-.65 0-1.7-.12-2.76-.29.41 1.1.55 1.68.67 2.69 1.51.07 1.97.1 2.45.1 1.97 0 2.81-.34 3.31-1.34.6-1.2.96-4.85.96-9.62 0-.41 0-.48.02-.79.96.96 1.56 1.46 2.83 2.42.62-1.1.82-1.39 1.75-2.5-2.88-1.82-4.82-3.89-6.36-6.67-.5-.89-.72-1.39-.91-2.02l-2.54 1.01c.17.31.38.72.48.96 1.01 2.16 2.18 3.98 3.79 5.78-.55.02-.86.02-1.44.02h-8.45c-.48 0-.6 0-1.2-.05 1.49-1.7 2.86-3.79 3.7-5.59.26-.6.38-.82.62-1.18l-2.76-1.01c-.12.7-.36 1.32-.91 2.33-1.46 2.74-3.22 4.63-6.07 6.62.82.77 1.39 1.49 1.78 2.26 1.2-.91 1.8-1.44 2.88-2.57v1.66c.6-.1 1.18-.12 1.94-.12h1.25zm-1.58 29.64c-.55 1.18-.79 1.63-1.46 3.14-.07-1.2-.1-1.94-.1-2.5 0-3.43.89-8.52 1.68-9.79.26-.38.29-.46.29-.62 0-.24-.12-.36-.53-.53-.72-.34-1.58-.58-2.59-.77-.1.79-.22 1.51-.46 2.81-.67 3.6-.84 5.23-.84 7.87 0 2.42.36 5.64.82 7.2.1.29.17.36.48.36.19 0 .36.02.48.02h.1c.26 0 1.08-.12 1.2-.17.1-.05.17-.19.24-.46.29-1.3.86-3.02 1.34-4.13.22-.53.24-.55.24-.72 0-.12-.02-.22-.1-.34-.43-.65-.58-.89-.79-1.39zm4.2-9.17c-.14 0-.22.05-.24.14-.05.19-.12 1.15-.12 1.8 0 .43.05.6.17.67.24.14 2.09.26 4.15.26 1.73 0 3.36-.12 4.34-.31.26-.05.34-.17.34-.53 0-.65-.07-1.7-.12-1.94-.05-.19-.12-.26-.29-.26q-.1 0-.22.02c-1.49.26-3.07.38-4.66.38-1.18 0-2.71-.1-3.24-.22-.05-.02-.1-.02-.12-.02zm.19 10.56c-1.3.79-1.8 1.25-1.8 1.58 0 .65 1.1 1.97 2.16 2.62 1.13.67 2.5.94 4.7.94 1.61 0 2.93-.17 4.22-.5.34-.1.41-.17.41-.41 0-.48-.1-1.44-.22-2.26-.02-.24-.14-.34-.31-.34-.07 0-.19.02-.34.07-1.49.43-2.4.55-3.94.55s-2.52-.14-3.29-.55-1.18-.84-1.61-1.7zm1.54 21.22c1.42 0 4.01-.36 5.86-.79.22-.07.31-.14.31-.34 0-.41-.26-1.58-.5-2.16-.1-.24-.14-.29-.29-.29-.07 0-.12 0-.19.02-1.82.5-3.46.79-4.61.86q-.74.05-.94.05c.05-2.66.14-3.58.41-4.2.07-.19.1-.26.1-.38 0-.26-.14-.38-.53-.5-.65-.17-1.75-.29-2.86-.31.14 1.13.19 1.97.22 3.36.02 3.53.1 5.42.34 9.36-.6-.07-1.3-.12-2.09-.12-3.29 0-5.4 1.54-5.4 3.96 0 2.28 1.92 3.67 5.06 3.67 1.9 0 3.36-.46 4.2-1.3.7-.72.96-1.49 1.01-2.95 2.02.82 3.38 1.7 5.09 3.34.17.17.26.22.38.22.19 0 .46-.24.82-.77.55-.79.86-1.34.86-1.63 0-.34-.96-1.06-2.86-2.14-1.42-.77-2.38-1.18-4.39-1.82-.24-2.4-.29-3.34-.34-5.14zm-2.66 7.3v.19c0 1.51-.82 2.16-2.66 2.16-1.51 0-2.33-.43-2.33-1.27 0-.91.98-1.46 2.62-1.46.91 0 1.58.1 2.38.38zm-.24 20.9c.96-.96 1.08-1.08 2.14-2.16 1.49-1.51 1.51-1.51 2.71-2.66.55-.53.82-.74 1.25-1.01.53-.34.6-.43.6-.74 0-.19-.14-.5-.6-1.13-.62-.96-.96-1.25-1.3-1.25-.14 0-.26.02-.48.12-.67.26-.96.34-1.85.43-2.52.29-4.46.46-5.62.46-.53 0-.98-.02-1.63-.12.07 1.06.22 1.85.5 2.57.14.36.26.48.46.48.07 0 .14-.02.26-.05.74-.26 2.76-.6 5.76-.98-2.52 3.07-4.22 4.92-6.55 7.13-1.01.96-1.8 1.66-2.35 2.09-.53.38-.62.5-.62.72 0 .43 1.7 2.11 2.14 2.11.14 0 .26-.1.43-.34.43-.55.79-.96 1.18-1.34 2.09-2.09 4.61-3.26 6.96-3.26s3.77 1.34 3.77 3.41c0 1.3-.5 2.23-1.73 3.12-.98-2.11-2.45-3.14-4.49-3.14-2.26 0-3.84 1.34-3.84 3.24 0 2.09 1.78 3.31 4.82 3.31 1.9 0 3.58-.41 4.94-1.22 1.97-1.18 3.14-3.19 3.14-5.42 0-3.26-2.4-5.57-5.78-5.57-1.44 0-2.66.36-4.22 1.22zm2.95 8.57c-.6.17-1.06.22-1.58.22-1.15 0-1.9-.43-1.9-1.13 0-.58.48-.94 1.22-.94.46 0 .86.12 1.22.36.5.34.74.7 1.03 1.49zm-11.11 10.34c.29.29.5.53.62.67.5.62.94 1.3 1.32 2.06-.96.74-1.75 1.22-2.98 1.82.5.72.79 1.32 1.1 2.28 1.06-.6 1.73-1.03 2.76-1.82.24.89.38 1.51.5 2.35-1.13 1.73-2.76 3.38-4.3 4.3.43.58.82 1.3 1.13 2.26 1.61-1.27 2.45-2.11 3.46-3.46.05.72.05 1.18.05 1.61 0 3.98-.31 5.14-1.37 5.14-.53 0-1.27-.14-2.21-.43.26.96.36 1.54.36 2.54.91.17 1.46.22 2.11.22 1.08 0 1.82-.24 2.3-.74.79-.84 1.15-2.71 1.15-6.1 0-2.66-.17-4.78-.5-6.43-.26-1.22-.5-2.18-.74-2.88.94-.89 1.61-1.61 2.28-2.45q.5-.62.82-.96l-2.02-1.54c-.26.67-1.1 1.75-2.14 2.78-.29-.5-.6-.96-.89-1.39q-.58-.79-.82-1.13l-2.02 1.3zm12.02 2.52h-2.62c-.98 0-1.61-.02-2.35-.1.07.74.1 1.37.1 2.5v4.61c0 1.13-.02 1.73-.07 2.47.65-.07 1.27-.1 2.33-.1h2.62v4.39c-2.4.26-3.86.36-4.97.36-.19 0-.41-.02-.65-.05l.5 2.71c.48-.1.86-.17 1.37-.22 3.98-.46 7.73-1.03 9.65-1.46.24.77.34 1.08.53 2.09l2.38-.96c-.98-3.05-1.46-4.22-2.5-6.17l-2.14.67c.5 1.06.65 1.34 1.03 2.35-1.1.19-1.54.26-2.26.34q-.36.05-.58.07v-4.13h2.93c1.08 0 1.66.02 2.33.1-.07-.77-.1-1.27-.1-2.5v-4.66c0-1.18.02-1.66.1-2.42-.79.07-1.3.1-2.3.1h-2.95v-1.61c0-1.18.02-1.68.14-2.26h-2.66c.1.72.14 1.32.14 2.26v1.61zm0 2.28v4.75h-2.54v-4.75zm2.38 4.75v-4.75h2.76v4.75zm-9.98 18.67c-1.32 0-2.04-.02-2.81-.1.1.77.12 1.46.12 2.81v12.89c0 1.1-.05 2.09-.14 2.66h2.62v-1.15h11.35v1.15h2.66c-.12-.72-.14-1.3-.14-2.64v-12.91c0-1.44.02-2.04.12-2.81-.79.07-1.51.1-2.86.1h-5.33c.43-.91.77-1.68 1.18-2.76l-2.9-.29c-.22 1.08-.55 2.04-1.06 3.05zm-.19 2.35h11.35v2.59h-11.36v-2.59zm0 4.8h11.35v2.62h-11.36v-2.62zm0 4.85h11.35v2.78h-11.36v-2.78zm.36 15c.1-.65.14-.89.22-1.37.07-.58.14-.94.24-1.3l-2.54-.22c.02.17.02.19.02.36 0 1.08-.38 3.22-.86 4.9-.65 2.28-1.46 3.96-2.69 5.5.74.79 1.01 1.25 1.49 2.38.84-1.18 1.27-1.92 1.82-3.05.53 1.78.77 2.4 1.58 3.98-1.27 1.9-2.59 3.26-4.85 4.97.65.62 1.03 1.3 1.44 2.33 2.06-1.68 3.24-2.9 4.75-5.02 1.61 2.16 3.46 3.38 5.76 3.84 1.7.34 4.18.55 6.24.55.77 0 2.3-.05 3.02-.1.14-1.1.29-1.66.72-2.66-2.26.14-3.24.19-4.34.19-3.31 0-5.59-.34-7.08-1.03-1.22-.58-2.02-1.32-3.07-2.9 1.49-2.95 2.06-5.5 2.35-10.1q.05-.82.12-1.34c-.58.07-.98.1-1.87.1h-2.47zm1.82 2.18c-.24 3.1-.55 4.73-1.32 6.65-.65-1.49-.89-2.16-1.58-4.7.26-.79.36-1.1.6-1.94h2.3zm8.33-1.49v10.75c0 1.34.53 1.68 2.64 1.68 1.49 0 2.16-.26 2.5-.96.36-.74.53-2.23.62-5.09-.72-.12-1.25-.31-1.99-.7-.05 2.02-.1 2.9-.19 3.58-.12.72-.22.82-.74.82-.48 0-.55-.05-.55-.38v-9.98c0-.98.02-1.63.1-2.09-.46.05-1.08.07-2.06.07h-3.02c-.86 0-1.3-.02-1.73-.07.07.5.1.96.1 1.8 0 7.46-.41 9.62-2.28 11.9.96.6 1.39.94 2.04 1.7 1.15-1.68 1.66-3 2.04-5.18.36-2.02.48-4.03.5-7.85h2.04zm-6.36 26.86h-5.93c-1.2 0-2.04-.05-2.88-.17v2.81c.79-.1 1.75-.14 2.9-.14h3.77c-.12 4.7-.89 7.34-2.88 9.74-1.13 1.34-2.09 2.14-4.13 3.38.86.7 1.27 1.2 1.85 2.21 4.39-2.88 6.43-5.78 7.42-10.44h6.36c-.1 3.02-.22 4.39-.5 5.78-.31 1.58-.53 1.85-1.54 1.85s-2.16-.1-3.46-.31c.36.84.55 1.61.65 2.69 1.78.12 2.3.14 3.12.14 2.3 0 3.07-.58 3.6-2.76.41-1.7.67-4.46.79-8.09.05-1.08.05-1.25.1-1.61 0-.05 0-.12.02-.22-.58.07-1.18.1-2.4.1h-6.38c.07-.72.12-1.18.17-2.02q0-.26.02-.46h8.42c1.37 0 2.14.05 2.83.14v-2.81c-.77.12-1.61.17-2.9.17h-6.36v-1.42c0-.82.05-1.44.14-1.9h-2.95c.1.55.14 1.15.14 1.9v1.42zm3.24 28.7c1.32.22 1.99.46 2.83 1.03 1.49 1.06 2.33 2.74 2.33 4.73 0 3.89-2.23 6.22-7.18 7.49.65.43 1.1.89 1.51 1.51.31.46.43.55.72.55.31 0 .94-.19 1.73-.53 3.98-1.7 6.05-4.73 6.05-8.93 0-4.75-3.72-8.3-8.74-8.3-2.28 0-4.01.38-5.62 1.25-3.29 1.73-5.21 4.99-5.21 8.78 0 3.41 1.78 5.86 4.27 5.86 1.63 0 3.22-1.1 4.37-3.1 1.46-2.52 2.26-5.28 2.93-10.34zm-2.74.12c-.36 2.66-.65 4.03-1.22 5.83-.91 2.86-2.14 4.51-3.34 4.51-1.01 0-1.61-1.08-1.61-2.93 0-2.26.91-4.27 2.52-5.69 1.1-.96 1.94-1.37 3.65-1.73zm-2.64 35.09c-1.18 0-1.75-.02-2.38-.1v2.09c.6-.07 1.2-.1 2.45-.1-.31 1.87-.94 2.9-2.5 4.1.82.55 1.25.94 1.85 1.58 1.8-1.73 2.57-3.26 2.81-5.69h2.59v3.41c0 1.01-.02 1.39-.12 1.97h2.4c-.07-.46-.1-.91-.1-1.97v-3.41h.34c1.15 0 1.66.02 2.38.1v-2.09c-.65.07-1.22.1-2.38.1h-.34v-2.14c1.18 0 1.75.02 2.4.1v-2.06c-.65.07-1.27.1-2.4.1h-6.7c-1.08 0-1.7-.02-2.33-.1v2.06c.62-.07 1.22-.1 2.3-.1 0 1.03 0 1.32-.05 2.14h-.24zm4.82-2.14v2.14h-2.45q.07-1.15.07-2.14zm-8.42-2.95h4.27c.86 0 1.37.02 2.11.05-.05-.62-.05-1.01-.05-2.06v-3.53c0-.82.02-1.44.07-2.14-.62.07-1.15.1-2.38.1h-4.17c-1.13 0-1.73-.02-2.35-.1.07.74.1 1.37.1 2.59v15.19c0 1.44-.05 2.18-.14 2.86h2.66c-.1-.67-.12-1.44-.12-2.81zm0-5.86h4.08v1.2h-4.08zm0 2.83h4.08v1.25h-4.08zm16.97-2.09c0-1.15.02-1.73.1-2.57-.65.07-1.22.1-2.38.1h-4.42c-1.18 0-1.73-.02-2.35-.1.05.62.07 1.22.07 2.14v3.53c0 1.1 0 1.27-.07 2.06.53-.02 1.34-.05 2.11-.05h4.54v9.79c0 .5-.14.6-.89.6-.55 0-1.25-.05-2.14-.17.38.91.5 1.39.62 2.42.82.05 1.13.05 1.51.05 2.59 0 3.29-.53 3.29-2.57v-15.24zm-6.7-.74h4.3v1.2h-4.3zm0 2.83h4.3v1.25h-4.3zm-6.98 33.41c0 .24-.02.38-.02.7h-3.29c-1.13 0-1.73-.02-2.42-.14v2.45c.74-.1 1.37-.12 2.42-.12h2.93c-.36 1.1-.82 1.85-1.63 2.57-1.01.91-2.11 1.44-4.25 2.04.72.74 1.2 1.39 1.63 2.26 2.83-1.13 4.22-2.02 5.35-3.55.7-.91 1.13-1.92 1.44-3.31h2.98v4.49c0 1.58.74 1.97 3.86 1.97 4.42 0 4.85-.34 5.33-4.2-.89-.17-1.61-.38-2.47-.84-.1 1.46-.24 2.16-.5 2.4-.26.26-.86.36-2.09.36-.62 0-1.08-.05-1.37-.12-.34-.07-.36-.14-.36-.6v-3.46h3.65c1.03 0 1.73.05 2.42.12v-2.45c-.7.12-1.27.14-2.42.14h-3.65v-2.47c1.1 0 1.54.02 2.21.1v-1.01c1.2.82 1.94 1.22 3.79 2.09.62-1.37.77-1.63 1.3-2.3-1.7-.65-2.4-.98-3.67-1.75.72-.65 1.49-1.44 2.06-2.11.41-.48.5-.6.62-.72l-2.11-1.2c-.55.91-1.39 1.9-2.38 2.78-.55-.41-.79-.6-1.37-1.1.55-.5 1.3-1.25 1.7-1.73q.77-.94.89-1.06l-2.11-1.18q-.07.12-.19.31c-.1.17-.14.24-.48.67-.46.58-.6.74-1.34 1.46-.89-1.06-1.2-1.61-1.44-2.52-.53.07-.89.1-1.97.1h-4.3c-.79 0-1.44-.05-1.87-.12v2.4q-.36-.31-.74-.6l-1.9 1.39c1.18.82 1.9 1.49 3.24 3.02-1.58 1.06-2.62 1.58-4.42 2.26.62.74.96 1.27 1.37 2.11 1.82-.82 2.66-1.27 4.03-2.21v1.01c.58-.05.74-.07 1.54-.1v1.78zm2.45-1.78h2.69v2.47h-2.71c0-.24.02-.34.02-.5zm-.82-6.98c-.7.94-1.27 1.56-2.26 2.47-.74-.84-1.27-1.32-2.5-2.38.43-.05.96-.1 1.37-.1h3.38zm-.89 4.8h-.62c1.66-1.34 2.62-2.38 3.91-4.18 1.27 1.78 2.21 2.76 3.91 4.18zm10.2 18.94c-2.23 0-4.06 1.82-4.06 4.06s1.82 4.08 4.06 4.08 4.06-1.82 4.06-4.08-1.8-4.06-4.06-4.06zm0 1.87c1.2 0 2.18.98 2.18 2.18s-.98 2.21-2.18 2.21-2.18-.98-2.18-2.21.98-2.18 2.18-2.18zm28.23-531.83 2.23-.72v4.87c0 1.08-.02 1.61-.12 2.38h2.64c-.07-.72-.12-1.37-.12-2.3v-5.71l2.64-.84c-.05 2.16-.14 3.65-.26 4.42-.07.48-.22.58-.82.58-.34 0-.77-.05-1.27-.17.31.7.5 1.39.6 2.35.6.05.82.05 1.08.05 1.7 0 2.33-.41 2.62-1.7.22-.98.41-3.14.53-6.34.02-1.25.05-1.39.1-2.4-.58.26-1.01.43-1.9.7l-3.31 1.03v-3.22c0-.89.05-1.63.14-2.38h-2.66c.1.74.12 1.27.12 2.33v4.01l-2.23.7v-2.5c0-.96.05-1.63.12-2.35h-2.69c.1.74.12 1.34.12 2.45v3.14l-.22.07c-.79.24-1.58.41-2.21.48l.55 2.54c.46-.22.72-.31 1.42-.55.07-.02.29-.07.46-.14v7.92c0 2.02 1.03 2.47 5.66 2.47 6.55 0 7.03-.34 7.3-4.92-.77-.14-1.75-.46-2.5-.77 0 1.56-.12 2.35-.41 2.74-.34.48-1.13.6-3.82.6-1.58 0-2.54-.05-3.12-.14-.5-.1-.67-.29-.67-.74v-7.92zm-8.28-3.77h-.55c-.86 0-1.27-.02-1.78-.12v2.47c.55-.1.91-.12 1.8-.12h.53v7.22c-1.37.53-1.99.74-2.74.84l.48 2.64c.36-.17.6-.26 1.2-.5 2.26-.84 3.6-1.44 5.71-2.54l-.07-2.45c-1.03.5-1.25.62-2.21 1.06v-6.26h.43c.72 0 1.18.02 1.63.07v-2.4c-.38.07-.7.1-1.54.1h-.53v-2.95c0-1.3.02-1.94.14-2.66h-2.66c.1.7.14 1.46.14 2.66v2.95zm3.96 35.06v4.25c0 .5-.12.58-.79.58-.34 0-.94-.07-1.66-.17.38.91.5 1.44.58 2.42.7.02 1.08.02 1.68.02 1.46 0 2.04-.29 2.35-1.18.6.38 1.18.86 1.85 1.54 1.08-1.7 1.54-2.9 1.99-5.14.43-2.14.7-5.76.7-9.79v-2.98h2.64v15.5c0 .82.29 1.39.82 1.66.43.19.89.26 1.8.26 1.8 0 2.42-.24 2.81-1.13.26-.55.38-1.97.5-5.3-.74-.26-1.39-.55-2.16-.98v.58c0 1.1-.12 3.38-.17 3.84-.1.53-.24.72-.6.72-.41 0-.55-.1-.55-.38v-14.45c0-1.15 0-1.56.1-2.9-.74.07-1.03.1-2.18.1h-3.36c-1.06 0-1.49-.02-2.18-.1.07.55.1 1.32.1 3.02v2.81c0 6.53-.58 10.06-1.97 12.34l.02-.41v-14.83c0-1.37.02-2.57.1-3.02-.62.07-.98.1-1.99.1h-2.86c-1.06 0-1.51-.02-2.33-.12.1 1.03.12 1.68.12 4.1 0 6.24-.1 8.71-.41 10.46-.31 1.85-.58 2.62-1.37 4.01.86.67 1.32 1.15 1.97 2.06 1.2-2.14 1.73-4.15 1.94-7.49h2.52zm0-7.66h-2.28v-3.05h2.28zm0 2.21v3.24h-2.4c.07-1.2.1-2.04.1-2.47v-.77zm-.84 26.81c-.6 2.35-2.33 6.36-3.65 8.4q-.98 1.56-.98 1.68c0 .19.14.34.7.67.7.46 1.34.79 1.54.79.31 0 .62-.53 1.9-3.14 1.22-2.59 2.45-5.83 3.12-8.28.1-.34.12-.36.19-.62.55-.1 1.25-.14 1.68-.14 1.27 0 1.73.67 1.73 2.54 0 1.75-.19 3.41-.55 4.68-.53 1.92-1.01 2.47-2.16 2.47-.77 0-1.08-.07-2.33-.48.29.67.43 1.22.5 1.87q.07.89.26 1.01c.24.14 1.06.26 1.92.26 1.42 0 2.42-.5 3.19-1.56 1.1-1.51 1.75-4.56 1.75-8.14 0-2.18-.48-3.6-1.44-4.3-.55-.38-1.32-.58-2.3-.58-.41 0-1.06.05-1.63.12q.74-2.64 1.1-3.29c.12-.19.14-.26.14-.38 0-.24-.19-.46-.58-.6-.67-.26-1.66-.48-2.69-.6.02.19.02.31.02.41 0 1.15-.26 2.74-.77 4.85-1.54.31-4.1.62-5.11.62-.1 0-.26 0-.46-.02.29 1.78.67 2.71 1.18 2.71.12 0 .19-.02.31-.1.14-.07.24-.12.43-.17.22-.07 1.2-.31 2.98-.7zm9.38-1.7c1.42 1.51 1.54 1.66 2.16 2.62.58.89 1.03 1.8 1.51 2.98.17.41.24.48.41.48.19 0 .74-.31 1.22-.7.77-.62.84-.7.84-.94 0-.14-.14-.48-.38-1.01-.77-1.58-2.09-3.41-3.5-4.78-.31-.31-.43-.38-.58-.38-.17 0-.41.14-.89.5-.7.55-.91.77-.91.94 0 .07.02.14.12.29zm-6.34 20.71c-.26 0-.43.14-.82.72-.43.62-.62 1.03-.62 1.27 0 .19.07.24.43.38 1.8.62 3.07 1.32 4.68 2.54.29.22.36.26.48.26.19 0 .34-.12.72-.67.41-.6.79-1.32.79-1.54 0-.26-.29-.53-1.22-1.08-1.51-.89-3.86-1.9-4.44-1.9zm-2.66 11.88c.05-.79.38-2.9.6-3.82.22-.91.29-1.13.55-1.54.07-.14.12-.22.12-.31.02-.14-.07-.26-.26-.36-.46-.26-1.54-.53-2.69-.7 0 .38-.02.58-.05.79-.12.89-.17 1.34-.19 1.42q-.17 1.13-.22 1.39c-.29 2.16-.36 2.81-.48 4.34-.02.26-.02.43-.02.5q-.07.58-.07.77c0 .38.1.55.38.77.58.43 1.42.79 1.78.79.22 0 .36-.12.58-.48s.53-.77.86-1.1c1.85-1.99 4.1-3.12 6.29-3.12 1.73 0 2.76.86 2.76 2.33 0 2.62-2.98 4.15-9 4.63.72.5 1.01.84 1.27 1.39.34.7.46.82.96.82.96 0 3.1-.38 4.39-.79 3.6-1.15 5.4-3.14 5.4-5.98s-2.14-4.9-5.42-4.9c-2.95 0-5.09.89-7.54 3.14zm3.05 26.33c0 .46-.07 1.06-.19 1.58h-5.74c-1.03 0-1.7-.02-2.47-.12v2.4c.79-.1 1.61-.14 2.64-.14h4.61c-1.68 2.11-4.13 3.24-7.87 3.62.67 1.08.86 1.54 1.13 2.5 3.22-.65 4.8-1.22 6.36-2.33 1.2-.84 2.14-1.85 2.81-3 1.01 1.46 2.21 2.54 3.82 3.46 1.63.94 3.26 1.46 5.9 1.92.24-1.08.43-1.56 1.06-2.64-2.09-.14-3.34-.38-4.8-.96-1.49-.6-2.71-1.46-3.67-2.57h5.18c1.03 0 1.87.05 2.64.14v-2.4c-.77.1-1.32.12-2.45.12h-6.58c.1-.6.14-1.06.19-1.37v-.22h6.67c1.1 0 1.78.02 2.45.12v-2.35c-.67.1-1.37.14-2.45.14h-6.62v-1.46h5.21c.91 0 1.39.02 2.06.1v-2.21c-.65.07-1.1.1-2.06.1h-5.21v-1.39h5.81c1.01 0 1.78.05 2.45.12v-2.33c-.67.1-1.39.14-2.45.14h-2.86c.5-.65.96-1.27 1.34-1.9l-2.52-.65c-.43.98-.89 1.78-1.49 2.54h-2.93c-.46-.84-.98-1.66-1.73-2.66l-2.3.84c.48.5.82.96 1.34 1.82h-2.69c-1.01 0-1.75-.05-2.47-.14v2.33c.67-.07 1.44-.12 2.47-.12h5.52v1.39h-4.94c-.98 0-1.42-.02-2.06-.1v2.21c.67-.07 1.18-.1 2.06-.1h4.94v1.46h-6.34c-1.03 0-1.75-.05-2.47-.14v2.35c.77-.07 1.54-.12 2.47-.12h6.22zm.67 26.9 1.68-.96c-.77-1.1-1.27-1.75-1.94-2.47h.43c.89 0 1.39.02 1.87.07v-1.78c-.53.07-.89.1-1.87.1h-5.47v-.55h4.66c.72 0 1.1.02 1.54.07v-1.46c-.48.07-.72.07-1.54.07h-4.66v-.6h4.66c.77 0 1.15.02 1.54.07v-1.49c-.41.05-.72.07-1.54.07h-4.66v-.55h4.51c1.08 0 1.66.02 2.18.1v-1.85c-.7.07-1.39.12-2.42.12h-4.39c-1.06 0-1.68-.02-2.28-.1.07.65.1 1.1.1 2.04v4.06c-1.08 0-1.42-.02-1.97-.1v1.8c.58-.07.98-.1 2.04-.1h.98c-.22.48-.43.86-.77 1.42-.34.02-.96.02-1.01.02-.29 0-.58-.02-.82-.05l.19 1.97c.22-.05.67-.1 1.08-.12 2.57-.17 5.98-.48 7.22-.67.22.36.26.46.48.86l-2.45-.19c-.1.41-.14.53-.24.89h-4.2c-1.01 0-1.82-.05-2.47-.12v2.18c.86-.1 1.46-.12 2.47-.12h3.41c-1.3 2.35-2.98 3.82-6.22 5.45.86.77 1.15 1.1 1.66 1.87.96-.53 1.3-.74 2.33-1.51.38.58.62 1.01.91 1.56 2.78-.38 4.56-.82 6.46-1.51 1.15.46 2.06.7 3.58.94 1.49.24 1.61.26 5.42.58.29-.77.65-1.56 1.1-2.42-4.01-.02-5.57-.12-7.32-.41.91-.53 2.95-1.99 3.72-2.66l-1.18-1.2c-.48.07-1.06.1-1.97.1h-6.31c.19-.34.24-.46.38-.77h9.94c1.03 0 1.68.02 2.47.12v-2.18c-.65.07-1.37.12-2.47.12h-9.12c.14-.36.24-.58.31-.7h-.05zm-2.93 5.62c.74.72 1.2 1.1 1.92 1.58-1.32.34-2.78.6-4.2.74.94-.77 1.54-1.39 2.28-2.33zm1.87-9.05-1.2.53c.22.24.29.31.48.53-.98.14-1.87.22-3.07.26.31-.5.38-.65.72-1.32zm5.04 8.54c-.86.55-1.44.84-2.5 1.27-.89-.38-1.46-.72-2.18-1.27zm4.63-16.7c-1.34.94-3.91 1.78-7.01 2.3.5.77.58.94.94 1.92 2.62-.55 3.58-.86 6.12-1.92q.98-.43 1.51-.6zm1.42 6.84c-1.56 1.18-4.13 2.02-8.16 2.69.41.7.79 1.49.98 2.11 3.36-.6 5.11-1.2 8.59-2.86l-1.42-1.94zm-.65-3.48c-.29.22-.5.34-.91.55-1.73.84-3.43 1.32-6.48 1.87.46.7.62 1.01.96 1.9 2.76-.58 4.56-1.13 6.1-1.85 1.15-.55 1.37-.65 1.78-.79l-1.44-1.68zm-8.78 37.8c0 .58-.02 1.49-.07 2.18v.1c0 .38.14.46.96.46.72 0 1.37-.07 1.49-.19.12-.07.17-.22.17-.5v-1.15c0-.77-.05-1.87-.07-2.3 3.65-1.78 5.83-2.71 7.01-3.02.31-.07.41-.17.41-.31 0-.41-1.06-1.92-2.04-2.93-.53.6-.98.96-2.09 1.61-.14.1-1.42.79-3.79 2.09-.48-1.34-1.2-1.97-2.28-1.97-.96 0-1.78.19-2.86.7.74-.82 1.25-1.58 1.97-2.9 2.21-.22 4.85-.62 5.62-.84.31-.07.41-.19.41-.46 0-.34-.14-1.44-.24-1.87-.05-.14-.14-.22-.34-.22-.12 0-.24.02-.77.17-.84.19-2.04.43-3.41.62q.02-.07.07-.17c.31-.74.5-1.13.67-1.44.07-.14.1-.19.1-.29 0-.41-.98-.77-3.12-1.13-.02 1.13-.19 1.99-.7 3.36-1.08.05-2.11.07-3.05.07-1.15 0-1.63-.02-2.45-.14.02.65.14 1.92.22 2.23.12.41.19.48.55.48.94 0 1.82-.02 3.53-.14-.98 1.73-2.62 3.41-4.58 4.73-.58.36-.62.41-.62.62 0 .17.14.48.38.89.5.84 1.01 1.39 1.25 1.39.19 0 .26-.05.98-.79.5-.5 1.32-1.18 2.02-1.66 1.13-.74 2.16-1.13 3.14-1.13.74 0 1.1.34 1.3 1.13-2.21 1.25-2.45 1.42-3.48 2.23-1.3 1.03-1.94 2.26-1.94 3.65 0 1.51.7 2.59 2.09 3.17 1.15.48 2.71.67 5.64.67 1.75 0 4.42-.14 4.99-.26.31-.07.43-.22.43-.58 0-.86-.1-1.58-.24-2.09-.07-.17-.19-.29-.36-.29h-.12c-.96.24-1.25.31-1.75.38-1.22.17-3.02.29-4.32.29-1.51 0-2.69-.17-3.22-.48-.36-.22-.53-.5-.53-.94 0-1.06.67-1.75 3.05-3.14v.12zm-2.04 14.74c-1.1 0-1.7-.02-2.18-.1v2.09c.53-.05 1.22-.07 2.33-.07h3.41c-.14.29-.19.38-.34.62h-1.85c-1.01 0-1.8-.02-2.23-.07.05.43.07.96.07 1.78v4.2c0 .89-.02 1.32-.07 1.7.55-.02 1.18-.05 2.16-.05h7.9c.86 0 1.27 0 1.75.05-.05-.43-.07-1.01-.07-1.82v-4.06c0-.82.02-1.22.07-1.8-.48.05-1.06.07-2.09.07h-3.07l.34-.62h4.01c1.1 0 1.8.02 2.3.07v-2.09c-.53.07-1.15.1-2.3.1h-1.46c.29-.36.58-.79 1.01-1.44l-2.54-.48c-.36.77-.62 1.22-1.13 1.92h-2.28c-.26-.55-.67-1.22-1.18-1.94l-2.47.43c.43.5.74.94 1.08 1.51h-1.15zm1.46 4.1h7.1v.65h-7.1zm0 1.82h7.1v.67h-7.1zm0 1.9h7.1v.67h-7.1zm4.68 5.69h-11.28c-1.3 0-2.02-.02-2.71-.14v2.35c.77-.12 1.49-.14 2.76-.14h2.83l-1.34.98c1.34.94 2.14 1.63 3.19 2.9l1.9-1.66c-1.01-.94-1.66-1.49-2.71-2.23h7.37v1.25c0 .43-.17.53-.96.53-.65 0-1.63-.07-2.54-.17.46.86.6 1.39.7 2.38.84.02 1.2.02 1.7.02 2.9 0 3.58-.36 3.58-1.92v-2.09h1.2c1.3 0 2.04.05 2.78.14v-2.35c-.72.12-1.44.14-2.74.14h-1.25v-.79c2.18-.02 3.46-.05 3.86-.07q.19-1.06.67-2.11c-2.14.19-4.99.26-9.72.26-2.38 0-3.5-.1-4.3-.34-.86-.26-1.34-.65-1.75-1.49v-2.78c0-1.18.02-1.61.1-2.16-.58.07-.98.1-1.75.1h-1.73c-.89 0-1.27-.02-1.85-.12v2.26c.55-.07.91-.1 1.56-.1h1.34v2.71c-1.06.72-2.59 1.51-3.26 1.68l.96 2.33c1.66-.94 2.71-1.63 3.43-2.23 1.06 1.66 2.66 2.14 7.3 2.14.19 0 1.08 0 2.66-.02zm-13.85-13.56c1.51 1.13 2.4 1.92 3.55 3.24l1.68-1.78c-1.37-1.37-1.94-1.85-3.6-3.02zm11.35 25.51c-.31.82-.62 1.39-1.25 2.28-.94 1.34-2.42 3.17-3.82 4.61q-1.46 1.56-1.73 1.99c-.29.48-.43.98-.43 1.46 0 .55.17 1.03.58 1.61.34.48.55.72 1.63 1.8 1.92 1.94 4.44 4.99 5.47 6.62.24.38.34.48.55.48.14 0 .43-.17.89-.53.98-.77 1.39-1.18 1.39-1.44 0-.24-.31-.67-1.51-2.02-1.7-1.94-4.01-4.3-5.42-5.59-.46-.41-.65-.7-.65-.96 0-.29.17-.6.58-1.01 1.9-1.92 4.03-4.25 5.52-5.98.22-.26.43-.46.6-.55.41-.24.5-.31.5-.53 0-.43-1.03-1.22-2.9-2.26zm4.44 44.18h-8.59c.91-1.46 2.33-3 4.03-4.27 2.16-1.63 2.35-1.8 3.05-2.52 1.13-1.18 1.63-2.45 1.63-4.08 0-3.22-2.3-5.35-5.76-5.35-1.94 0-3.55.72-4.61 2.09-.77.96-1.15 1.97-1.46 3.79l2.69.65c.24-1.46.38-1.99.67-2.52.6-1.06 1.51-1.61 2.69-1.61 1.66 0 2.81 1.15 2.81 2.86 0 1.3-.58 2.3-2.02 3.53-2.62 2.23-3.07 2.66-4.06 3.72-.98 1.13-1.68 2.09-2.74 3.86v2.33h11.66v-2.47zm-16.37 16.1c.55 1.85 1.37 3.31 1.82 3.31.14 0 .26-.05.7-.29.24-.14.58-.31 1.22-.6 3.65-1.68 6.82-2.5 9.67-2.5 2.35 0 3.89 1.46 3.89 3.72 0 2.02-1.13 3.67-3.17 4.68-1.87.94-3.82 1.42-7.39 1.85.72.74.94 1.08 1.49 2.18.14.26.29.36.58.36.36 0 .84-.07 1.78-.26 2.14-.41 3.7-.94 5.23-1.7 2.88-1.49 4.54-4.08 4.54-7.15 0-1.75-.58-3.24-1.63-4.32-1.27-1.25-3.17-1.9-5.59-1.9-2.26 0-4.32.36-8.3 1.49-2.62.72-3.72.98-4.82 1.13zm12.29 25.66c1.32.22 1.99.46 2.83 1.03 1.49 1.06 2.33 2.74 2.33 4.73 0 3.89-2.23 6.22-7.18 7.49.65.43 1.1.89 1.51 1.51.31.46.43.55.72.55.31 0 .94-.19 1.73-.53 3.98-1.7 6.05-4.73 6.05-8.93 0-4.75-3.72-8.3-8.74-8.3-2.28 0-4.01.38-5.62 1.25-3.29 1.73-5.21 4.99-5.21 8.78 0 3.41 1.78 5.86 4.27 5.86 1.63 0 3.22-1.1 4.37-3.1 1.46-2.52 2.26-5.28 2.93-10.34zm-2.74.12c-.36 2.66-.65 4.03-1.22 5.83-.91 2.86-2.14 4.51-3.34 4.51-1.01 0-1.61-1.08-1.61-2.93 0-2.26.91-4.27 2.52-5.69 1.1-.96 1.94-1.37 3.65-1.73zm-7.5-326.03v-.96h-.01c-1.13 0-1.99-1.38-1.99-4.2s.86-4.2 1.99-4.2h.01v-.96h-.01c-1.75 0-3.04 1.61-3.04 5.16s1.28 5.16 3.04 5.16zm5.33-1.27c2.09 0 3.4-1.45 3.4-4v-.74c0-2.54-1.31-4-3.4-4s-3.4 1.45-3.4 4v.74c0 2.54 1.32 4 3.4 4zm0-1.07c-1.42 0-2.28-1.04-2.28-2.93v-.76c0-1.88.86-2.93 2.28-2.93s2.27 1.04 2.27 2.93v.76c0 1.88-.84 2.93-2.27 2.93zm11.2.9v-1.03h-2.3v-7.37h-1.02l-.04.06c-.43.73-1.14 1.25-1.88 1.58l-.9.41v1.07h.11l.94-.42c.61-.28 1.3-.71 1.63-1.04h.05v5.71h-2.3v1.03h5.72zm1.98 1.44c1.75 0 3.04-1.61 3.04-5.16s-1.28-5.16-3.04-5.16h-.01v.96h.01c1.13 0 1.98 1.37 1.98 4.2s-.85 4.2-1.98 4.2h-.01v.96z"/></svg>