<svg viewBox="0 0 402.44 100" xmlns="http://www.w3.org/2000/svg"><path d="m23.04.8c0 1.6-.48 4.56-1.64 9.84-1.44 6.68-3.04 12.52-5.2 18.88-1.2.04-1.84.08-1.92.08-.24 0-.4 0-.76-.04l.8 4.52c.6-.12 1.16-.2 2.04-.32 5.92-.72 10.84-1.52 15.6-2.48.36 1.2.48 1.72.84 3.36l4.32-1.4c-1.96-7.04-4.32-12.92-7.28-18.12l-3.72 1.32c1.72 3.2 3.28 6.8 4.72 11.16-2.28.48-7.24 1.2-10.16 1.48 1.12-3.24 1.64-4.92 2.84-9.36 1.64-5.96 2.16-8.04 3.84-15.8.28-1.2.44-1.84.64-2.24l-4.96-.88zm-15.36 9.64h-3.04c-1.52 0-2.48-.04-3.56-.2v4.12c1.12-.12 2.04-.16 3.36-.16h2.56c-.12.24-.16.32-.24.52-1.12 2.48-1.68 3.48-3.16 5.84-1.24 1.88-1.88 2.72-3.6 4.52.92 1.2 1.48 2.28 2.12 4 2.4-2.64 4.36-5.96 5.8-9.68-.2 2.8-.28 4.4-.28 4.96v6.16c0 2.2-.08 3.4-.28 4.88h4.68c-.2-1.24-.24-2.32-.24-4.88v-7.36q-.04-2.36-.12-3.64c-.04-.2-.04-.56-.08-1 1.24 2.08 2.64 3.92 4.04 5.28.48-1.44 1.12-2.84 1.84-3.88-2.48-2.2-4.16-3.96-5.32-5.72h2.04c1.44 0 2.44.04 3.44.16v-4.12c-.92.16-1.8.2-3.4.2h-2.44v-4.92c1.48-.4 2.32-.64 4.44-1.4.28-.12.84-.32 1.68-.6l-2.52-3.52c-.64.44-1.12.68-2.2 1.04-3.64 1.36-6.92 2.04-12.16 2.64.8 1.48 1.24 2.6 1.4 3.68 2.6-.4 3.44-.52 5.24-.88zm50.84-10.04c-.44 0-.72.24-1.36 1.2-.72 1.04-1.04 1.72-1.04 2.12 0 .32.12.4.72.64 3 1.04 5.12 2.2 7.8 4.24.48.36.6.44.8.44.32 0 .56-.2 1.2-1.12.68-1 1.32-2.2 1.32-2.56 0-.44-.48-.88-2.04-1.8-2.52-1.48-6.44-3.16-7.4-3.16zm-4.44 19.8c.08-1.32.64-4.84 1-6.36s.48-1.88.92-2.56c.12-.24.2-.36.2-.52.04-.24-.12-.44-.44-.6-.76-.44-2.56-.88-4.48-1.16 0 .64-.04.96-.08 1.32-.2 1.48-.28 2.24-.32 2.36q-.28 1.88-.36 2.32c-.48 3.6-.6 4.68-.8 7.24-.04.44-.04.72-.04.84q-.12.96-.12 1.28c0 .64.16.92.64 1.28.96.72 2.36 1.32 2.96 1.32.36 0 .6-.2.96-.8s.88-1.28 1.44-1.84c3.08-3.32 6.84-5.2 10.48-5.2 2.88 0 4.6 1.44 4.6 3.88 0 4.36-4.96 6.92-15 7.72 1.2.84 1.68 1.4 2.12 2.32.56 1.16.76 1.36 1.6 1.36 1.6 0 5.16-.64 7.32-1.32 6-1.92 9-5.24 9-9.96s-3.56-8.16-9.04-8.16c-4.92 0-8.48 1.48-12.56 5.24zm41.64-18.96c.24 1.72.28 2.72.28 6.12 0 .36-.04 1.2-.08 2.6-.32 9.32-.36 11.72-.36 14.84 0 3.96.6 6.04 2.12 7.64 1.44 1.44 3.68 2.2 6.72 2.2 4.6 0 9-1.84 12.96-5.4 2-1.8 2.76-2.76 2.76-3.48 0-.36-.08-.6-.2-.92-.88-1.8-1.2-2.64-1.44-3.92-1.48 2.2-2.36 3.28-3.8 4.64-3.12 2.92-6.52 4.4-10.12 4.4-2.24 0-3.64-.68-4.08-2-.2-.64-.32-1.6-.32-2.88 0-3.96.16-8.96.48-15.4.16-2.8.48-4.84.92-6 .2-.56.24-.68.24-.96 0-.44-.28-.64-1.28-.92-1.2-.32-2.76-.48-4.8-.56zm54.64-1.04c-.52 1.36-1.04 2.32-2.08 3.8-1.56 2.24-4.04 5.28-6.36 7.68q-2.44 2.6-2.88 3.32c-.48.8-.72 1.64-.72 2.44 0 .92.28 1.72.96 2.68.56.8.92 1.2 2.72 3 3.2 3.24 7.4 8.32 9.12 11.04.4.64.56.8.92.8.24 0 .72-.28 1.48-.88 1.64-1.28 2.32-1.96 2.32-2.4 0-.4-.52-1.12-2.52-3.36-2.84-3.24-6.68-7.16-9.04-9.32-.76-.68-1.08-1.16-1.08-1.6 0-.48.28-1 .96-1.68 3.16-3.2 6.72-7.08 9.2-9.96.36-.44.72-.76 1-.92.68-.4.84-.52.84-.88 0-.72-1.72-2.04-4.84-3.76zm39.2 11.16v7.04h-5.96c-2.12 0-3.32-.04-4.6-.2v4.2c1.28-.16 2.88-.24 4.64-.24h5.92v8.16h-9.88c-2 0-3.72-.08-5.32-.28v4.4c1.8-.2 3.4-.28 5.44-.28h23.52c2.08 0 3.4.08 5.2.28v-4.4c-1.48.2-3.16.28-5.32.28h-9.24v-8.16h6.68c1.76 0 3.36.08 4.72.24v-4.24c-1.24.16-2.8.24-4.76.24h-6.64v-7.04h8.12c1.8 0 3.44.08 5.08.24v-4.24c-1.56.16-3.2.24-5.16.24h-8.04v-2.96c0-2 .08-3.4.24-4.6h-4.88c.16 1.44.24 2.6.24 4.64v2.92h-6.24c.68-1.84.84-2.36 1-2.88.28-1 .32-1.04.4-1.28q.28-.72.36-1l-4.4-1.08c-.16 1.16-.32 1.92-.84 3.56-1.28 4.28-3.6 8.28-6.48 11.24 1.24.84 2.16 1.8 3.12 3.24 2.16-2.48 3.72-4.88 5.24-8.04zm44.2 1.4c-2.68.56-7.56 1.08-10.12 1.08-.4 0-1.08 0-1.96-.04.36 3.76.4 3.8 1.68 3.8 1.68 0 5.84-.32 8.12-.64 1.28-.2 2.24-.36 4.16-.76 1.16 1.88 2.36 3.32 4.6 5.44-2.52-1.12-4.8-1.52-8.4-1.52-5.84 0-9.36 2.6-9.36 6.88 0 3 1.8 5.24 5.2 6.44 2.56.92 6.36 1.4 10.64 1.4 1.24 0 1.52-.16 1.76-1 .48-1.68.84-2.4 1.56-3.44-1.56.08-2.32.12-3.2.12-3.72 0-7.16-.36-8.72-.92-1.72-.64-2.68-1.64-2.68-2.88 0-2 2.16-3.2 5.6-3.2 3.96 0 8.08 1.08 10.12 2.64.6.44.64.44.88.44.44 0 .76-.32 1.44-1.48.76-1.32 1.16-2.16 1.16-2.52 0-.4-.04-.48-1.4-1.44s-3.64-3.52-5.24-5.88c2.88-.8 4.6-1.48 6.8-2.68q.84-.44.84-.72c0-.24-.4-1.32-.88-2.28-.36-.76-.52-1-.68-1-.04 0-.12-.04-.16-.04 0 0-.04.04-.12.08l-3.76 1.88c-.8.4-1.88.76-4.08 1.36-.68-1.44-.84-1.8-1.4-3.2 4.64-1.16 5.72-1.52 8.08-2.52.24-.12.32-.2.32-.4s-.36-1.24-.72-2.16c-.36-.84-.48-1.04-.68-1.04-.12 0-.2.04-.52.16-2.04.88-4.6 1.72-7.6 2.4-.4-1.56-.56-2.52-.56-3.24v-.56c0-.4-.2-.64-.56-.64-1.44 0-3 .2-4.72.56.44.84.76 1.64 1.12 2.6q.52 1.48.72 2.08c-3.56.56-6.04.76-9.28.76.08 1.48.24 2.68.4 3.28.08.36.36.48 1 .48 2.16 0 5.72-.4 9.16-1 .44 1.16.96 2.32 1.44 3.32zm41.04 3.36c1.6-1.6 1.8-1.8 3.56-3.6 2.48-2.52 2.52-2.52 4.52-4.44.92-.88 1.36-1.24 2.08-1.68.88-.56 1-.72 1-1.24 0-.32-.24-.84-1-1.88-1.04-1.6-1.6-2.08-2.16-2.08-.24 0-.44.04-.8.2-1.12.44-1.6.56-3.08.72-4.2.48-7.44.76-9.36.76-.88 0-1.64-.04-2.72-.2.12 1.76.36 3.08.84 4.28.24.6.44.8.76.8.12 0 .24-.04.44-.08 1.24-.44 4.6-1 9.6-1.64-4.2 5.12-7.04 8.2-10.92 11.88-1.68 1.6-3 2.76-3.92 3.48-.88.64-1.04.84-1.04 1.2 0 .72 2.84 3.52 3.56 3.52.24 0 .44-.16.72-.56.72-.92 1.32-1.6 1.96-2.24 3.48-3.48 7.68-5.44 11.6-5.44s6.28 2.24 6.28 5.68c0 2.16-.84 3.72-2.88 5.2-1.64-3.52-4.08-5.24-7.48-5.24-3.76 0-6.4 2.24-6.4 5.4 0 3.48 2.96 5.52 8.04 5.52 3.16 0 5.96-.68 8.24-2.04 3.28-1.96 5.24-5.32 5.24-9.04 0-5.44-4-9.28-9.64-9.28-2.4 0-4.44.6-7.04 2.04zm4.92 14.28c-1 .28-1.76.36-2.64.36-1.92 0-3.16-.72-3.16-1.88 0-.96.8-1.56 2.04-1.56.76 0 1.44.2 2.04.6.84.56 1.24 1.16 1.72 2.48zm32.04-18.08c-1.52 6.6-3.72 12.72-6.76 18.48-.2.4-.32.68-.32.84 0 .2.2.4.88.76 1.36.76 2.76 1.32 3.28 1.32.24 0 .44-.2.64-.72 3.08-7.2 5-13.2 6.84-21.32q5.48-.96 6.2-1.2c.36-.08.48-.24.48-.52 0-.32-.16-1.44-.32-2.24-.32-1.4-.4-1.56-.76-1.56-.12 0-.16 0-.32.08-.8.28-2.8.8-4.36 1.08.64-3.16.68-3.28 1.16-4.2.16-.36.24-.48.24-.68.04-.72-.84-1-5.48-1.6v.92c0 1.64-.2 3.68-.6 6.32-2.12.28-4.64.44-6.8.44-.28 0-.72 0-1.28-.04.08 1.52.24 2.76.48 3.76.12.52.32.68.68.68.08 0 .24 0 .44-.04h.24c2.44-.2 3.68-.32 5.44-.56zm9.72 12.68c-2.08.68-3.28 1.4-3.28 2.08 0 .24.16.92.4 1.48.32 1 .88 1.92 1.56 2.64 1.84 1.92 4.64 2.72 9.64 2.72 2.36 0 4.6-.16 5.92-.44.52-.12.68-.32.68-.84 0-1.24-.2-2.88-.48-3.72-.12-.36-.28-.48-.64-.48-.16 0-.24.04-.56.12-1.28.4-3.52.64-6.12.64-2.36 0-4.04-.36-5.2-1.12-1-.68-1.48-1.4-1.92-3.08zm13.48-8.52c.2 0 .36-.08.4-.2.08-.24.16-1.28.16-2.44 0-1.32-.04-1.64-.24-1.8-.28-.2-1.48-.28-3.8-.28-2.8 0-5.08.2-7.8.68-.84.16-1.08.2-1.24.28-.32.12-.4.36-.4.88 0 .84.16 2.8.28 3.08.08.24.2.32.44.32.08 0 .2 0 .28-.04 3.52-.6 4.76-.72 7.72-.72 1.4 0 3.08.08 3.88.2.12.04.24.04.32.04zm21.8-5.44c-.6-1.84-.96-3.36-1-4.2q-.04-.96-.16-1.16c-.12-.28-.36-.4-.76-.4-.96 0-2.84.28-4.28.6.48 1.16.84 2.28 1.16 3.32.88 2.76.96 3.12 1.52 4.56-3.08 3-4.68 6.56-4.68 10.4 0 4.28 2.2 7.08 5.52 7.08 2.4 0 4.8-1.44 7.24-4.36 1.16 1.16 1.68 1.52 2 1.52.64 0 2.88-2.2 2.88-2.88 0-.28-.16-.52-.6-.92-.64-.6-1-.96-1.6-1.56 1.76-3.04 3.2-6.36 4.52-10.52 3.84.76 6.44 4.04 6.44 8.08 0 2.72-1.08 4.96-3.2 6.68-2 1.64-3.92 2.36-7.96 3.04 1.16.84 2.12 1.88 2.76 2.92.28.4.48.56.8.56.52 0 2.64-.56 3.72-1 5.4-2.2 8.44-6.52 8.44-12.08 0-3.32-1.08-6.04-3.28-8.24-1.8-1.8-4.08-3-6.8-3.48.56-2.12.84-3.08 1.16-3.64.44-.8.48-.84.48-1.16 0-.88-1.92-1.64-5.28-2.12.04.28.04.52.04.68 0 1.32-.2 2.72-.8 6-2.76-.04-5.68.8-8.28 2.28zm4.48 8.72c-1.24-1.64-2.04-3-3.08-5.08 2.04-1.36 3.76-2 5.96-2.32-.72 2.72-1.52 4.76-2.88 7.4zm-2.6 4.04c-1.64 2-2.8 2.84-4.04 2.84-1.16 0-1.92-1.16-1.92-3s.8-3.96 2.28-5.92c1.2 2.44 2.2 4.12 3.68 6.08zm30.24 3.44c0 .24.16.4.48.64 2.84 1.84 6.04 5.12 7.44 7.6.2.4.44.56.68.56.28 0 .6-.24 2.12-1.64 1.16-1.04 1.24-1.12 1.24-1.48 0-.56-2.24-3.24-4.24-5.08-1.76-1.68-4.16-3.44-4.68-3.44-.28 0-.48.16-1.2.8-1.76 1.64-1.84 1.76-1.84 2.04zm-365.84 37.56c0 1.6-.48 4.56-1.64 9.84-1.44 6.68-3.04 12.52-5.2 18.88-1.2.04-1.84.08-1.92.08-.24 0-.4 0-.76-.04l.8 4.52c.6-.12 1.16-.2 2.04-.32 5.92-.72 10.84-1.52 15.6-2.48.36 1.2.48 1.72.84 3.36l4.32-1.4c-1.96-7.04-4.32-12.92-7.28-18.12l-3.72 1.32c1.72 3.2 3.28 6.8 4.72 11.16-2.28.48-7.24 1.2-10.16 1.48 1.12-3.24 1.64-4.92 2.84-9.36 1.64-5.96 2.16-8.04 3.84-15.8.28-1.2.44-1.84.64-2.24zm-15.36 9.64h-3.04c-1.52 0-2.48-.04-3.56-.2v4.12c1.12-.12 2.04-.16 3.36-.16h2.56c-.12.24-.16.32-.24.52-1.12 2.48-1.68 3.48-3.16 5.84-1.24 1.88-1.88 2.72-3.6 4.52.92 1.2 1.48 2.28 2.12 4 2.4-2.64 4.36-5.96 5.8-9.68-.2 2.8-.28 4.4-.28 4.96v6.16c0 2.2-.08 3.4-.28 4.88h4.68c-.2-1.24-.24-2.32-.24-4.88v-7.36q-.04-2.36-.12-3.64c-.04-.2-.04-.56-.08-1 1.24 2.08 2.64 3.92 4.04 5.28.48-1.44 1.12-2.84 1.84-3.88-2.48-2.2-4.16-3.96-5.32-5.72h2.04c1.44 0 2.44.04 3.44.16v-4.12c-.92.16-1.8.2-3.4.2h-2.44v-4.92c1.48-.4 2.32-.64 4.44-1.4.28-.12.84-.32 1.68-.6l-2.52-3.52c-.64.44-1.12.68-2.2 1.04-3.64 1.36-6.92 2.04-12.16 2.64.8 1.48 1.24 2.6 1.4 3.68 2.6-.4 3.44-.52 5.24-.88zm59.92 3.32q.12 5.36.28 8.48c-1.08-.16-1.84-.2-3.32-.2-4.04 0-7.08 2.68-7.08 6.28s2.96 6 7.48 6 7.36-2.32 7.36-5.84v-.32c1.76 1.16 2.68 1.84 3.56 2.72q.92.88 1.2.88c.28 0 .52-.2 1-.88.84-1.16 1.56-2.52 1.56-2.96 0-.28-.24-.56-1.36-1.36-1.76-1.24-3.48-2.16-6-3.24-.28-2.6-.52-7.16-.52-9.92 3.4-.44 5.16-.72 5.8-1.04.4-.16.44-.32.44-1.32 0-.84-.12-2.36-.2-2.72-.08-.28-.2-.4-.44-.4-.12 0-.2 0-.4.08-2.4.56-3.68.84-5.16 1.04.08-2.8.28-4.36.68-5.28.12-.32.16-.44.16-.6 0-.4-.24-.6-.84-.76-1.28-.32-2.76-.48-4.72-.52.4 1.88.44 2.52.48 7.6-2.08.16-3.44.2-5.6.2-1.32 0-1.96-.04-3.04-.12-.04.72-.04 1.04-.04 1.36 0 .92.12 2.2.24 2.56.12.44.52.52 2.44.52 1.6 0 4.32-.12 6.04-.24zm.28 12.6s.04.44.04 1c0 1.84-1.12 2.8-3.24 2.8-1.92 0-3.16-.8-3.16-2.08 0-1.4 1.32-2.32 3.32-2.32 1.08 0 2 .2 3.04.6zm-14.4-4.52c-.88 1.92-1.32 3.04-2.28 5.52-.12-1.92-.16-3.44-.16-4.4 0-6.4 1.52-15.04 3.16-17.84.2-.32.28-.52.28-.76 0-.36-.24-.64-.84-.96-1.16-.56-2.44-.92-4.28-1.16-.12 1.24-.2 1.84-.44 3.12-1.44 7.84-1.96 12.2-1.96 16.8 0 2.04.12 4 .4 5.88.32 2.24.96 5 1.32 5.76.12.24.32.32.72.32 1.04 0 2.12-.08 2.68-.24.52-.12.68-.32.72-.84.16-1.56.68-3.56 1.52-6q.68-1.84.68-2.08c0-.16-.04-.28-.16-.44-.8-1.08-1.08-1.6-1.36-2.68zm51.76-5.88 3.72-1.2v8.12c0 1.8-.04 2.68-.2 3.96h4.4c-.12-1.2-.2-2.28-.2-3.84v-9.52l4.4-1.4c-.08 3.6-.24 6.08-.44 7.36-.12.8-.36.96-1.36.96-.56 0-1.28-.08-2.12-.28.52 1.16.84 2.32 1 3.92 1 .08 1.36.08 1.8.08 2.84 0 3.88-.68 4.36-2.84.36-1.64.68-5.24.88-10.56.04-2.08.08-2.32.16-4-.96.44-1.68.72-3.16 1.16l-5.52 1.72v-5.36c0-1.48.08-2.72.24-3.96h-4.44c.16 1.24.2 2.12.2 3.88v6.68l-3.72 1.16v-4.16c0-1.6.08-2.72.2-3.92h-4.48c.16 1.24.2 2.24.2 4.08v5.24l-.36.12c-1.32.4-2.64.68-3.68.8l.92 4.24c.76-.36 1.2-.52 2.36-.92.12-.04.48-.12.76-.24v13.2c0 3.36 1.72 4.12 9.44 4.12 10.92 0 11.72-.56 12.16-8.2-1.28-.24-2.92-.76-4.16-1.28 0 2.6-.2 3.92-.68 4.56-.56.8-1.88 1-6.36 1-2.64 0-4.24-.08-5.2-.24-.84-.16-1.12-.48-1.12-1.24zm-13.8-6.28h-.92c-1.44 0-2.12-.04-2.96-.2v4.12c.92-.16 1.52-.2 3-.2h.88v12.04c-2.28.88-3.32 1.24-4.56 1.4l.8 4.4c.6-.28 1-.44 2-.84 3.76-1.4 6-2.4 9.52-4.24l-.12-4.08c-1.72.84-2.08 1.04-3.68 1.76v-10.44h.72c1.2 0 1.96.04 2.72.12v-4c-.64.12-1.16.16-2.56.16h-.88v-4.92c0-2.16.04-3.24.24-4.44h-4.44c.16 1.16.24 2.44.24 4.44zm49.8 13.44v7.08c0 .84-.2.96-1.32.96-.56 0-1.56-.12-2.76-.28.64 1.52.84 2.4.96 4.04 1.16.04 1.8.04 2.8.04 2.44 0 3.4-.48 3.92-1.96 1 .64 1.96 1.44 3.08 2.56 1.8-2.84 2.56-4.84 3.32-8.56.72-3.56 1.16-9.6 1.16-16.32v-4.96h4.4v25.84c0 1.36.48 2.32 1.36 2.76.72.32 1.48.44 3 .44 3 0 4.04-.4 4.68-1.88.44-.92.64-3.28.84-8.84-1.24-.44-2.32-.92-3.6-1.64v.96c0 1.84-.2 5.64-.28 6.4-.16.88-.4 1.2-1 1.2-.68 0-.92-.16-.92-.64v-24.08c0-1.92 0-2.6.16-4.84-1.24.12-1.72.16-3.64.16h-5.6c-1.76 0-2.48-.04-3.64-.16.12.92.16 2.2.16 5.04v4.68c0 10.88-.96 16.76-3.28 20.56l.04-.68v-24.72c0-2.28.04-4.28.16-5.04-1.04.12-1.64.16-3.32.16h-4.76c-1.76 0-2.52-.04-3.88-.2.16 1.72.2 2.8.2 6.84 0 10.4-.16 14.52-.68 17.44-.52 3.08-.96 4.36-2.28 6.68 1.44 1.12 2.2 1.92 3.28 3.44 2-3.56 2.88-6.92 3.24-12.48zm0-12.76h-3.8v-5.08h3.8zm0 3.68v5.4h-4c.12-2 .16-3.4.16-4.12v-1.28zm42.12 7.4c-.92 1.96-1.32 2.72-2.44 5.24-.12-2-.16-3.24-.16-4.16 0-5.72 1.48-14.2 2.8-16.32.44-.64.48-.76.48-1.04 0-.4-.2-.6-.88-.88-1.2-.56-2.64-.96-4.32-1.28-.16 1.32-.36 2.52-.76 4.68-1.12 6-1.4 8.72-1.4 13.12 0 4.04.6 9.4 1.36 12 .16.48.28.6.8.6.32 0 .6.04.8.04h.16c.44 0 1.8-.2 2-.28.16-.08.28-.32.4-.76.48-2.16 1.44-5.04 2.24-6.88.36-.88.4-.92.4-1.2 0-.2-.04-.36-.16-.56-.72-1.08-.96-1.48-1.32-2.32zm7-15.28c-.24 0-.36.08-.4.24-.08.32-.2 1.92-.2 3 0 .72.08 1 .28 1.12.4.24 3.48.44 6.92.44 2.88 0 5.6-.2 7.24-.52.44-.08.56-.28.56-.88 0-1.08-.12-2.84-.2-3.24-.08-.32-.2-.44-.48-.44q-.16 0-.36.04c-2.48.44-5.12.64-7.76.64-1.96 0-4.52-.16-5.4-.36-.08-.04-.16-.04-.2-.04zm.32 17.6c-2.16 1.32-3 2.08-3 2.64 0 1.08 1.84 3.28 3.6 4.36 1.88 1.12 4.16 1.56 7.84 1.56 2.68 0 4.88-.28 7.04-.84.56-.16.68-.28.68-.68 0-.8-.16-2.4-.36-3.76-.04-.4-.24-.56-.52-.56-.12 0-.32.04-.56.12-2.48.72-4 .92-6.56.92s-4.2-.24-5.48-.92-1.96-1.4-2.68-2.84zm56.76-7.8c-.56.12-1.28.16-2.32.16h-12.12c-1.32 0-2.24-.04-3.08-.2v4.04c.64-.08 1.12-.12 1.84-.16 1.52 3.48 2.56 5.08 4.8 7.48-3.52 2.2-6.04 3.24-10.04 4.08 1 1.24 1.52 2.12 2.36 3.84 4.44-1.28 7.68-2.76 10.8-5.04 2.96 2.2 5.76 3.52 10.48 4.96.6-1.52 1.36-2.88 2.4-4.16-3.96-.76-6.52-1.76-9.48-3.64 2.12-2.04 3.6-4 5.6-7.32q.72-1.2 1-1.56zm-3.32 3.84c-1.52 2.44-2.44 3.52-4.28 5.08-1.64-1.52-2.84-3.12-3.84-5.08zm-22.36-12.8h-1.92c-1.16 0-1.88-.04-2.76-.2v4.08c1.08-.12 1.76-.16 2.72-.16h1.96v7.08c-3.2.88-3.44.92-5.08 1.12l.84 4.28q.72-.32 4.24-1.44v8.36c0 .96-.2 1.16-1.16 1.16s-1.96-.08-3.4-.28c.6 1.56.76 2.32.92 4 1.12.08 1.64.12 2.32.12 1.44 0 2.92-.16 3.72-.44 1.12-.36 1.72-1.48 1.72-3.16v-11.16q1.12-.4 3.4-1.28l-.04-3.76c-1.64.64-2.2.84-3.36 1.24v-5.84h2.04c.72 0 1.32.04 2 .12v-3.96c-.6.08-1.08.12-1.92.12h-2.12v-3.16c0-1.76.04-2.68.24-3.88h-4.6c.2 1.24.24 2.08.24 3.92zm30.48-.16c-1.2-.4-1.56-.56-3.76-1.76.04.56.04 1 .04 1.28v.44c0 2.08-.12 2.84-.48 3.12-.16.12-.72.2-1.28.2-.4 0-.88-.04-1.04-.12-.28-.08-.32-.24-.32-.84v-5.88c0-1.08.04-1.96.12-2.44-.72.08-1.56.12-2.4.12h-7.92c-.88 0-1.8-.04-2.52-.12.08.84.12 1.32.12 1.92 0 6-1.12 8.52-4.6 10.44 1.4 1 2.16 1.68 3.08 2.88 3.84-2.52 5.32-5.52 5.48-11.16h4.64v5.84c0 1.8.36 2.48 1.52 2.88.6.2 1.52.28 3.36.28 5.04 0 5.48-.48 5.92-6.24zm27.12-1.04c-.52 2.08-1.68 3.32-4.08 4.4-1.44.64-3.12 1.04-5.8 1.4l1.36-.68-1.16-3.36c-3.44 1.72-6.84 2.96-9.4 3.44l1.52 3.96c.68-.36 1.08-.52 1.64-.76 2.96-1.2 3.52-1.44 5.56-2.4.72.88 1.16 1.52 1.6 2.48h-2c-1.72 0-3.16-.04-3.92-.08.12 1.08.16 2.16.16 3.92v7.6c0 1.56-.08 3.12-.16 3.84.92-.08 2.28-.12 4.08-.12h1.56c-2.6 1.4-5.16 2.08-10.24 2.68 1.16 1.36 1.48 1.8 2.36 3.4 5.6-1.04 8.16-1.96 12.16-4.4l-2.36-1.68h10.52l-2.24 1.68c4.08 2.48 6.84 3.44 12.52 4.4 1-1.72 1.44-2.4 2.4-3.52-4.96-.48-7.56-1.12-10.64-2.56h1.8c1.64 0 3.24.04 4.08.12q-.12-.68-.16-4.08v-7.12c0-1.12 0-2.16.04-3.28 1.32.32 1.92.44 3.52.72.4-1.56.76-2.4 1.56-3.76-6.92-.36-10.92-2.44-12.12-6.24h5.92c-.88 1.04-1.32 1.44-2.56 2.28 1.4.44 2.4.84 3.56 1.48 1.6-1.56 2.12-2.24 3.56-4.32.28-.44.36-.56.68-.96l-2.28-1.8c-.68.12-1.56.16-3.2.16h-11.28c.36-.48.64-.88.84-1.24q.4-.68.68-1.08l-4.04-.72c-.84 2.28-3.12 4.88-6.16 6.88 1.04.72 1.72 1.36 2.6 2.56 1.52-1.16 2.52-2.04 3.64-3.24zm-5.72 8.48c1.96-.44 3.12-.88 4.32-1.6 1.68-1 2.56-1.84 3.56-3.48 1.52 2.44 3.36 3.92 6.56 5.08zm-4.8 2.8h17.68v1.44h-17.68zm0 3.92h17.68v1.52h-17.68zm0 4h17.68v1.44h-17.68zm1.12-21.12c-2.28-1.56-3.4-2.2-6.24-3.52l-2.48 2.92c2.52 1.16 3.88 2 6.08 3.76zm50.6 9.64c-.8-.36-1.52-.52-2.68-.52-3.6 0-6.2 2.96-6.2 7.04s2.2 6.44 5.56 6.44c1.48 0 2.44-.44 3.6-1.64-.6 1.28-1 1.88-1.52 2.52-.76.84-1.8 1.68-2.96 2.44-1.56.96-2.8 1.52-5.2 2.2 1.44.8 2.28 1.44 3.4 2.72.32.32.52.44.88.44.72 0 2.76-1.04 4.36-2.24 3.88-2.84 5.72-6.68 5.72-11.68 0-1.92-.2-3.04-.8-4.36l.08-6.56q2-.04 2.92-.04c2.8 0 7.08.16 8.8.32h.16c.52 0 .56-.2.56-2.04 0-1.36-.08-1.96-.24-2.12-.12-.12-.28-.12-1.36-.12-4 0-4.88 0-10.72.16.08-2.48.2-3.36.56-4.24.08-.2.12-.36.12-.44 0-.4-.12-.6-.36-.72-.56-.24-2.12-.36-5.2-.44.36 1.8.4 2.36.44 5.96-3.6.12-6.12.24-9.08.4-3.84.24-5.04.28-6.32.28h-.96c.12 2 .32 3.32.68 4.32.12.32.36.52.64.52.12 0 .28-.04.44-.08 2.52-.68 5.92-1.04 14.68-1.6zm-2.4 3.24c1.52 0 2.4 1.08 2.4 2.96s-.92 2.92-2.44 2.92c-1.44 0-2.4-1.16-2.4-2.84 0-1.8 1-3.04 2.44-3.04zm43.04-.64c1.6-1.6 1.8-1.8 3.56-3.6 2.48-2.52 2.52-2.52 4.52-4.44.92-.88 1.36-1.24 2.08-1.68.88-.56 1-.72 1-1.24 0-.32-.24-.84-1-1.88-1.04-1.6-1.6-2.08-2.16-2.08-.24 0-.44.04-.8.2-1.12.44-1.6.56-3.08.72-4.2.48-7.44.76-9.36.76-.88 0-1.64-.04-2.72-.2.12 1.76.36 3.08.84 4.28.24.6.44.8.76.8.12 0 .24-.04.44-.08 1.24-.44 4.6-1 9.6-1.64-4.2 5.12-7.04 8.2-10.92 11.88-1.68 1.6-3 2.76-3.92 3.48-.88.64-1.04.84-1.04 1.2 0 .72 2.84 3.52 3.56 3.52.24 0 .44-.16.72-.56.72-.92 1.32-1.6 1.96-2.24 3.48-3.48 7.68-5.44 11.6-5.44s6.28 2.24 6.28 5.68c0 2.16-.84 3.72-2.88 5.2-1.64-3.52-4.08-5.24-7.48-5.24-3.76 0-6.4 2.24-6.4 5.4 0 3.48 2.96 5.52 8.04 5.52 3.16 0 5.96-.68 8.24-2.04 3.28-1.96 5.24-5.32 5.24-9.04 0-5.44-4-9.28-9.64-9.28-2.4 0-4.44.6-7.04 2.04zm4.92 14.28c-1 .28-1.76.36-2.64.36-1.92 0-3.16-.72-3.16-1.88 0-.96.8-1.56 2.04-1.56.76 0 1.44.2 2.04.6.84.56 1.24 1.16 1.72 2.48zm29.56-7.96c-3.72 0-6.76 3.04-6.76 6.76s3.04 6.8 6.76 6.8 6.76-3.04 6.76-6.8-3-6.76-6.76-6.76zm0 3.12c2 0 3.64 1.64 3.64 3.64s-1.64 3.68-3.64 3.68-3.64-1.64-3.64-3.68 1.64-3.64 3.64-3.64z"/></svg>