<svg viewBox="0 0 125.32 15.68" xmlns="http://www.w3.org/2000/svg"><path d="m1.88 14.28v-6.12h7v-1.78h-7v-4.26h7.92v-1.84h-9.8v14zm17.04.28c3.74 0 6.54-2.98 6.56-7.26v-.04c0-4.28-2.82-7.26-6.56-7.26s-6.56 2.98-6.56 7.26v.04c0 4.28 2.84 7.26 6.56 7.26zm0-1.88c-2.68 0-4.64-2.22-4.64-5.38v-.06c0-3.16 1.96-5.36 4.64-5.36s4.62 2.2 4.62 5.36v.06c0 3.18-1.96 5.38-4.62 5.38zm19.96 1.6v-1.86h-7.92v-12.14h-1.88v14zm13.2 0v-1.86h-7.92v-12.14h-1.88v14zm8.32.28c3.74 0 6.54-2.98 6.56-7.26v-.04c0-4.28-2.82-7.26-6.56-7.26s-6.56 2.98-6.56 7.26v.04c0 4.28 2.84 7.26 6.56 7.26zm0-1.88c-2.68 0-4.64-2.22-4.64-5.38v-.06c0-3.16 1.96-5.36 4.64-5.36s4.62 2.2 4.62 5.36v.06c0 3.18-1.96 5.38-4.62 5.38zm15.26 1.6 2.1-11.04h.46l2.08 11.04h3.34l3.06-13.7v-.3h-1.82l-2.56 11.66h-.74l-2.12-11.66h-2.94l-2.14 11.66h-.72l-2.56-11.66h-1.82v.3l3.06 13.7zm20.13 1.4v-1.4h-7.14v1.4zm9.35-1.12c3.3 0 5.86-2.08 5.86-5.44v-8.84h-1.88v8.84c0 2.14-1.62 3.58-3.98 3.58s-4-1.44-4-3.58v-8.84h-1.88v8.84c0 3.36 2.56 5.44 5.88 5.44zm14.82 0c3.4 0 5.36-1.8 5.36-4.3 0-2.08-1.5-3.22-4.3-3.7l-1.66-.3c-2.08-.38-2.88-.78-2.88-1.96 0-1.42 1.4-2.5 3.26-2.5 2.08 0 3.7 1.46 3.7 3.52l1.86-.06c0-3.48-2.92-5.26-5.56-5.26-3.22 0-5.14 2.12-5.14 4.3s1.44 3.2 4.34 3.7l1.66.3c2.02.36 2.86.82 2.86 1.94 0 1.56-1.44 2.52-3.5 2.52-2.2 0-3.84-1.46-3.84-3.62l-1.86.06c0 3.46 2.74 5.36 5.7 5.36z"/></svg>