<svg viewBox="0 0 277.2 35.99" xmlns="http://www.w3.org/2000/svg"><path d="m64.24 31v-3.35h-5.62v-18.54h5.62v-3.31h-14.65v3.31h5.62v18.54h-5.62v3.35zm9.55 0v-20.27h1.01l12.38 20.27h5.18v-25.2h-3.31v20.23h-1.04l-12.35-20.23h-5.18v25.2zm34.35.5c6.12 0 9.65-3.24 9.65-7.74 0-3.74-2.7-5.8-7.74-6.66l-2.99-.54c-3.74-.68-5.18-1.4-5.18-3.53 0-2.56 2.52-4.5 5.87-4.5 3.74 0 6.66 2.63 6.66 6.34l3.35-.11c0-6.26-5.26-9.47-10.01-9.47-5.8 0-9.25 3.82-9.25 7.74s2.59 5.76 7.81 6.66l2.99.54c3.64.65 5.15 1.48 5.15 3.49 0 2.81-2.59 4.54-6.3 4.54-3.96 0-6.91-2.63-6.91-6.52l-3.35.11c0 6.23 4.93 9.65 10.26 9.65zm25.13-.5v-21.89h8.93v-3.31h-21.24v3.31h8.89v21.89zm17.68-25.2-8.82 24.77v.43h3.42l2.56-7.16h11.77l2.56 7.16h3.38v-.43l-8.78-24.77h-6.08zm2.34 3.38h1.41l4.07 11.45h-9.54l4.07-11.45zm38.21 21.82v-13.61h-11.74v3.17h8.46v7.13h-8.06c-4.82 0-8.39-3.89-8.39-9.36v-.07c0-5.65 3.56-9.65 8.35-9.65 3.64 0 6.59 2.16 7.63 5.69l3.74-.07c-1.37-5.58-5.76-8.93-11.38-8.93-6.7 0-11.81 5.29-11.81 12.92v.07c0 7.49 5 12.71 11.59 12.71h11.59zm9.92 0v-10.55h8.75c1.94 0 3.53.72 3.89 3.67l.29 2.48c.25 2.2.54 3.17 1.04 4.39h3.49v-.43c-.47-1.04-.86-1.87-1.08-3.96l-.32-3.06c-.22-2.09-1.19-3.31-2.7-4.03v-.32c2.7-1.15 3.85-3.49 3.85-6.16v-.14c0-3.96-2.38-7.09-7.24-7.09h-13.36v25.2h3.38zm0-21.92h9.61c2.63 0 4.32 1.51 4.32 4.18v.07c0 2.52-1.73 4-4.32 4h-9.61v-8.24zm30.15-3.28-8.82 24.77v.43h3.42l2.56-7.16h11.77l2.56 7.16h3.38v-.43l-8.78-24.77h-6.08zm2.34 3.38h1.4l4.07 11.45h-9.54zm20.94 21.82v-19.51h.97l6.73 14.98h3.56l6.73-14.98h1.01v19.51h3.35v-25.2h-5.29l-7.06 15.7h-1.08l-7.06-15.7h-5.26v25.2h3.38zm-236.85-27.76c4.81 0 5.38.02 7.27.11 1.76.08 2.71.37 3.34.62.84.32 1.44.72 2.07 1.34.63.63 1.02 1.23 1.34 2.07.25.63.54 1.59.62 3.34.08 1.9.11 2.47.11 7.27s-.02 5.38-.11 7.27c-.08 1.76-.37 2.71-.62 3.34-.32.84-.72 1.44-1.34 2.07-.63.63-1.23 1.02-2.07 1.34-.63.25-1.59.54-3.34.62-1.9.08-2.47.11-7.27.11s-5.38-.02-7.27-.11c-1.76-.08-2.71-.37-3.34-.62-.84-.32-1.44-.72-2.07-1.34-.63-.63-1.02-1.23-1.34-2.07-.25-.63-.54-1.59-.62-3.34-.08-1.9-.11-2.47-.11-7.27s.02-5.38.11-7.27c.08-1.76.37-2.71.62-3.34.32-.84.72-1.44 1.34-2.07s1.23-1.02 2.07-1.34c.63-.25 1.59-.54 3.34-.62 1.89-.08 2.46-.11 7.27-.11zm0-3.24c-4.89 0-5.5.02-7.42.11-1.91.08-3.23.39-4.37.84-1.19.46-2.19 1.08-3.19 2.08-1.01 1-1.62 2-2.08 3.19-.44 1.15-.75 2.45-.84 4.37-.08 1.93-.11 2.54-.11 7.43s.02 5.5.11 7.42c.08 1.91.39 3.23.84 4.37.46 1.19 1.08 2.19 2.08 3.19s2 1.62 3.19 2.07c1.15.44 2.45.75 4.37.84 1.92.08 2.53.11 7.42.11s5.5-.02 7.42-.11c1.91-.08 3.23-.39 4.37-.84 1.18-.46 2.19-1.08 3.19-2.07 1-1 1.62-2 2.07-3.19.44-1.15.75-2.45.84-4.37.08-1.92.11-2.53.11-7.42s-.02-5.5-.11-7.42c-.08-1.91-.39-3.23-.84-4.37-.44-1.2-1.05-2.2-2.06-3.2-1-1-2-1.62-3.19-2.07-1.15-.44-2.45-.75-4.37-.84-1.93-.09-2.54-.11-7.42-.11zm0 8.75c-5.1 0-9.25 4.14-9.25 9.25s4.14 9.25 9.25 9.25 9.25-4.14 9.25-9.25-4.14-9.25-9.25-9.25zm0 15.24c-3.31 0-6-2.69-6-6s2.69-6 6-6 6 2.69 6 6-2.69 6-6 6zm11.77-15.61c0 1.2-.97 2.16-2.16 2.16s-2.16-.97-2.16-2.16.97-2.16 2.16-2.16 2.16.97 2.16 2.16z"/></svg>