<svg viewBox="0 0 504 40.02" xmlns="http://www.w3.org/2000/svg"><path d="m36.46 22.56c-1.82-.2-3.76-.3-6.18-.3h-24.05c-2.24 0-4.48.12-6.23.3v-5.43c1.82.2 3.56.3 6.23.3h24.03c2.74 0 4.66-.07 6.18-.3v5.43zm18.23-8.67c-1.62 3.34-3.26 5.88-5.55 8.52-1.02-1.52-1.99-2.54-3.31-3.44 3.04-3.14 5.5-7.37 6.85-11.9.55-1.74.72-2.54.9-3.76l4.66 1.15c-.05.2-.17.55-.37 1.05-.07.25-.12.3-.42 1.34-.17.55-.35 1.1-1.05 3.04h6.6v-3.09c0-2.17-.07-3.39-.25-4.91h5.15c-.17 1.27-.25 2.74-.25 4.86v3.14h8.52c2.07 0 3.81-.07 5.45-.25v4.48c-1.74-.17-3.46-.25-5.38-.25h-8.59v7.45h7.02c2.07 0 3.74-.07 5.03-.25v4.48c-1.44-.17-3.14-.25-5.01-.25h-7.07v8.64h9.79c2.29 0 4.06-.07 5.63-.3v4.66c-1.89-.2-3.31-.3-5.5-.3h-24.9c-2.17 0-3.86.07-5.75.3v-4.66c1.69.2 3.51.3 5.63.3h10.46v-8.64h-6.28c-1.87 0-3.56.07-4.91.25v-4.46c1.34.17 2.61.2 4.86.2h6.3v-7.45h-8.29l.05.05zm39.15 14.64c.77-.67.97-.85 1.27-.85.55 0 3.09 1.87 4.96 3.64 2.12 1.94 4.48 4.78 4.48 5.38 0 .37-.07.47-1.32 1.57-1.62 1.47-1.94 1.74-2.24 1.74-.25 0-.5-.17-.72-.6-1.47-2.61-4.86-6.1-7.87-8.04-.35-.25-.5-.42-.5-.67 0-.3.07-.42 1.94-2.17zm44.43 2.54c3.46 0 7.32-.5 11.13-1.49.2-.07.35-.07.47-.07.25 0 .37.17.47.55.12.92.2 2.29.2 3.69 0 .85-.07 1.1-.47 1.27-1.27.67-6.97 1.32-11.9 1.32-6.4 0-10.04-1.05-12.95-3.81-1.4-1.32-2.79-3.59-2.79-4.53 0-.62.37-.9 3.86-2.89 1.52 4.18 5.03 5.98 11.98 5.98zm.37-24.33c2.46 0 3.88-.07 6.77-.5h.3c.35 0 .47.12.55.37.07.5.17 1.77.17 3.31 0 .97-.07 1.32-.35 1.49-.35.2-4.01.47-6.85.47-3.76 0-6.9-.3-10.41-.97-2.42-.47-2.54-.6-2.54-2.07 0-.97.07-2.59.2-3.76 3.69 1.15 7.69 1.69 12.15 1.69v-.05zm42.53 22.31c-2.04 3.51-4.83 5.45-7.69 5.45-4.41 0-7.55-4.31-7.55-10.34 0-6.7 3.39-12.45 9.19-15.49 2.84-1.52 5.88-2.19 9.91-2.19 8.84 0 15.42 6.28 15.42 14.64 0 7.4-3.64 12.75-10.66 15.74-1.4.6-2.49.92-3.04.92-.5 0-.72-.17-1.27-.97-.72-1.1-1.52-1.92-2.66-2.66 8.72-2.24 12.65-6.35 12.65-13.2 0-3.51-1.47-6.48-4.11-8.34-1.49-1.02-2.66-1.44-5.01-1.82-1.2 8.94-2.59 13.8-5.15 18.25h-.03zm-6.1-14.99c-2.84 2.49-4.46 6.05-4.46 10.04 0 3.26 1.07 5.16 2.84 5.16 2.12 0 4.28-2.91 5.88-7.97 1.02-3.19 1.52-5.58 2.17-10.29-3.01.62-4.48 1.34-6.43 3.04zm53.37 7.82c-.12.2-.3.6-.55 1.22h16.09c1.94 0 3.21-.07 4.36-.2v3.86c-1.39-.17-2.54-.2-4.36-.2h-17.53c-.25.55-.35.77-.67 1.34h11.13c1.62 0 2.61-.05 3.46-.17l2.07 2.12c-1.35 1.2-4.96 3.76-6.55 4.71 3.09.5 5.85.67 12.9.72-.8 1.52-1.44 2.91-1.94 4.28-6.72-.55-6.95-.6-9.56-1.02-2.66-.42-4.28-.85-6.3-1.64-3.34 1.22-6.48 1.99-11.38 2.66-.5-.97-.92-1.74-1.62-2.76-1.82 1.34-2.42 1.74-4.11 2.66-.9-1.34-1.39-1.94-2.91-3.31 5.7-2.89 8.67-5.45 10.96-9.61h-6c-1.77 0-2.84.05-4.36.2v-3.86c1.15.12 2.59.2 4.36.2h7.4c.17-.62.25-.85.42-1.57l4.31.35c-.37-.72-.47-.9-.85-1.52-2.19.35-8.22.9-12.75 1.2-.72.05-1.52.12-1.89.2l-.35-3.46c.42.05.92.07 1.44.07.08 0 1.2 0 1.77-.05.6-.97.97-1.64 1.34-2.49h-1.74c-1.87 0-2.59.05-3.59.17v-3.19c.97.12 1.57.17 3.46.17v-7.15c0-1.64-.05-2.47-.18-3.59 1.05.12 2.17.17 4.01.17h7.74c1.82 0 3.04-.07 4.28-.2v3.26c-.92-.12-1.94-.17-3.86-.17h-7.97v.97h8.22c1.45 0 1.99-.05 2.71-.12v2.61c-.67-.07-1.34-.12-2.71-.12h-8.22v1.05h8.22c1.45 0 1.87 0 2.71-.12v2.59c-.77-.07-1.44-.12-2.71-.12h-8.22v.97h9.66c1.74 0 2.36-.05 3.31-.17v3.14c-.85-.07-1.74-.12-3.31-.12h-.77c1.2 1.27 2.07 2.42 3.44 4.36l-2.96 1.69h.15zm-9.26 14.02c2.49-.25 5.08-.72 7.4-1.32-1.27-.85-2.07-1.52-3.39-2.79-1.32 1.64-2.37 2.76-4.01 4.11zm1.89-20.07c-.6 1.2-.72 1.44-1.27 2.34 2.12-.07 3.68-.2 5.43-.47-.35-.37-.47-.5-.85-.92l2.12-.92h-5.43v-.02zm6.05 15.07c1.27.97 2.29 1.57 3.86 2.24 1.87-.77 2.89-1.27 4.41-2.24zm19.18-26.45c-.61.2-1.5.55-2.66 1.05-4.48 1.87-6.18 2.42-10.78 3.39-.62-1.74-.77-2.04-1.64-3.39 5.45-.92 9.99-2.42 12.35-4.06l2.74 3.01zm2.24 12.48c-6.13 2.91-9.24 3.98-15.17 5.03-.35-1.1-1.02-2.49-1.74-3.74 7.12-1.2 11.63-2.66 14.39-4.73l2.49 3.44h.02zm-1.1-6.6c-.72.25-1.1.42-3.14 1.39-2.71 1.27-5.88 2.24-10.76 3.26-.6-1.57-.9-2.12-1.69-3.34 5.38-.97 8.39-1.82 11.43-3.31.72-.37 1.1-.6 1.62-.97l2.54 2.96zm23.14 5.7c-.55-1.87-.72-3.01-1.22-8.22-.17-2.04-.35-3.04-.77-4.48 2.59.05 4.23.17 5.38.47.62.17.92.47.92.92 0 .17-.05.37-.12.72-.3 1.02-.42 1.77-.42 2.89 0 2.07.42 5.45.9 6.95.25.8.5 1.1.97 1.1 1.02 0 4.73-1.94 6.77-3.51.55-.42.62-.47.85-.47.37 0 .77.3 1.39 1.1 1.05 1.44 1.92 3.01 1.92 3.59 0 .47-.3.77-1.02.97-2.62.72-6.95 2.42-9.86 3.81-5.15 2.54-7.5 4.88-7.5 7.5s2.17 3.64 7.62 3.64c3.16 0 6.05-.3 9.94-.92.18-.05.47-.07.55-.07.35 0 .55.17.72.5.12.42.42 3.01.42 4.03 0 .6-.17.8-.72.97-.92.2-6.05.5-9.26.5-5.43 0-9.01-.72-11.26-2.24-1.92-1.32-2.91-3.39-2.91-5.93 0-1.94.55-3.69 1.69-5.38 1.49-2.19 3.09-3.59 6.65-5.7-.9-.8-1.22-1.39-1.62-2.71zm45.65-3.81c-1.94.12-3.76.17-5.38.17-1.77 0-1.92 0-1.99-.25-.12-.25-.25-2.04-.25-3.26v-.8c1.99.07 2.84.12 3.89.12s2.67-.05 3.93-.07c.2-2.47.25-3.31.25-4.16 0-.37 0-.65-.05-1.22 2.04.05 3.59.17 4.83.47.35.07.5.25.5.55 0 .22-.05.37-.25.9-.35.8-.6 1.89-.77 3.21 2.71-.2 5.98-.62 7.27-.92 1.27-.3 2.17-.47 2.37-.47.9-.07 1.52-.25 1.77-.47.05-.05.08-.05.08-.05.08 0 .12.05.2.05.17 0 .3.17.37.47.07.65.2 2.12.2 3.04 0 .62-.12.8-.55.9-2.49.5-7.67 1.15-12.1 1.52-.05.17-.05.25-.05.67-.07.8-.07.9-.12 3.01 1.87-.42 3.51-.62 5.58-.62.3-1.34.35-1.69.42-2.66 3.26.67 4.88 1.27 4.88 1.77 0 .17-.05.3-.37.85-.12.17-.2.3-.3.6 5.45 1.27 8.94 5.28 8.94 10.51 0 4.61-2.49 8.29-7.27 10.83-1.77.92-4.28 1.77-5.2 1.77-.47 0-.8-.17-1.07-.5-.9-1.27-1.44-1.87-2.79-3.01 4.41-.8 6.55-1.69 8.67-3.44 1.94-1.64 2.89-3.56 2.89-5.93 0-3.39-1.99-5.93-5.38-6.9-2.54 5.85-4.23 8.59-7.27 11.73.2.72.37 1.15.77 2.04.17.35.2.47.2.6 0 .42-.17.55-1.14 1.05-1.05.55-2.29.97-2.71.97-.37 0-.47-.12-.92-1.44-2.47 1.74-5.08 2.66-7.67 2.66-2.89 0-4.83-2.34-4.83-5.7 0-5.28 3.86-10.46 10.24-13.62.05-2.19.07-4.06.12-4.91l.1-.05zm-5.98 17.78c0 1.07.65 1.69 1.69 1.69 1.44 0 3.34-.8 5.26-2.19-.6-2.89-.85-4.83-1.07-7.99-3.74 2.74-5.88 5.93-5.88 8.52v-.02zm14.82-11.68c-1.92.17-2.91.35-4.66.92.07 3.01.17 4.28.5 6.43 1.77-2.24 2.96-4.36 4.16-7.37zm58.87 1.34c-1.94 0-5.03.62-7.15 1.44-4.48 1.74-7.45 4.91-7.45 7.99 0 1.94 1.27 3.26 3.81 3.88 1.15.3 3.14.5 4.53.47h.42c.72 0 .97.25.97.8 0 1.39-.25 3.34-.47 3.89-.17.35-.37.47-.8.47-2.59 0-5.85-.67-8.04-1.69-3.26-1.44-5.03-3.93-5.03-7.07 0-1.99.77-4.01 2.19-5.85.8-.97 1.45-1.57 2.96-2.61-7.7 2.32-11.56 3.81-14.15 5.5-.35.2-.55.3-.77.3-.47 0-.85-.37-1.44-1.44-.6-.97-1.02-2.17-1.02-2.79 0-.37.17-.5 1.2-.8.97-.3 1.64-.72 3.26-1.87 1.94-1.44 5.01-4.06 7.62-6.55 2.17-2.07 3.39-3.34 5.93-6.3-2.46.3-9.09 1.44-10.09 1.69-.6.17-.62.17-.77.17-.37 0-.55-.17-.72-.6-.35-.92-.62-2.49-.85-4.28.6.05.9.05 1.27.05 1.89 0 6-.35 11.08-.97 1.89-.2 3.01-.47 3.76-.85.5-.25.6-.3.9-.3.5 0 1.2.55 2.37 1.99.85.97 1.1 1.44 1.1 1.89s-.17.67-.72 1.07c-.52.32-1.95 1.57-4.31 3.76-2.91 2.71-6.4 5.68-10.29 8.77 5.98-1.77 9.09-2.61 15.59-4.06 1.44-.3 2.84-.67 4.43-1.2.2-.07.37-.12.5-.12.35 0 .5.17.72.55.47.97 1.02 3.04 1.02 3.81 0 .6-.17.85-.62.85h-.97.02zm23.26 8.52s.17.3.17.5-.05.47-.35 1.2c-1.1 3.19-1.44 4.58-1.64 6.85-.07.62-.2.8-.72.97-.85.25-1.87.37-3.01.37-.5 0-.67-.12-.9-.72-1.2-3.34-1.94-8.42-1.94-12.88s.55-8.89 2.12-16.04c.47-2.29.5-2.61.67-4.18 1.87.25 3.09.62 4.31 1.27.85.42 1.1.67 1.1 1.2 0 .3-.07.55-.47 1.05-.35.47-.55 1.02-.85 2.04-1.52 4.83-2.41 10.48-2.41 15.14 0 1.39.07 3.09.37 5.93.6-1.64 1.22-3.39 1.94-5.28.42 1.15.67 1.62 1.57 2.59h.05zm8.34-7.45c-2.71 0-3.34-.07-3.46-.37-.17-.37-.35-1.99-.35-3.19 0-.3 0-.6.08-1.22 1.57.17 3.04.25 5.25.25 1.22 0 2.04-.05 3.51-.07 0-3.31 0-3.59.05-5.01-1.62.07-2.91.12-3.76.12-3.16 0-4.06-.07-4.18-.42-.17-.35-.3-1.74-.3-2.89 0-.37 0-.72.08-1.44 1.27.17 2.42.2 4.66.2 3.99 0 8.04-.35 10.36-.85.2-.07.3-.07.42-.07.3 0 .37.07.47.42.12.42.2 1.77.2 2.71s-.05 1.1-.37 1.32c-.35.2-1.1.35-3.14.6-.03.32-.06.8-.07 1.44 0 .67-.05.85-.05 3.44 1.77-.3 2.32-.42 4.78-.97.2-.07.3-.07.42-.07.3 0 .37.07.47.42.07.42.2 1.89.2 2.84s-.05 1.15-.37 1.32c-.5.3-2.79.72-5.43.97.05 1.94.12 3.26.5 6.82 2.24 1.02 3.81 1.89 5.7 3.34 1.64 1.2 2.04 1.62 2.04 2.07 0 .55-.77 1.89-1.74 3.09-.5.62-.85.9-1.2.9-.17 0-.57-.35-1.22-1.05-.85-1.02-2.19-2.12-3.64-3.14 0 1.69-.3 2.66-1.05 3.64-1.32 1.64-3.56 2.54-6.52 2.54-4.73 0-7.97-2.59-7.97-6.4s3.21-6.4 7.99-6.4c1.1 0 1.94.07 3.01.2-.2-3.46-.25-4.41-.25-5.25-2.79.12-4.51.17-5.15.17h.02zm2.17 8.84c-2.17 0-3.34.77-3.34 2.17s1.14 2.17 3.14 2.17c2.29 0 3.46-.97 3.46-2.91v-.77c-1.1-.42-2.07-.62-3.26-.62v-.02zm12.4-22.19c-.55-1.32-1.1-2.19-2.37-3.88-.12-.12-.17-.2-.17-.3 0-.37 1.34-1.34 1.92-1.34.35 0 .85.55 1.87 1.99 1.07 1.52 1.77 2.76 1.77 3.14 0 .25-.17.42-.77.8-.6.42-1.22.72-1.49.72-.3 0-.35-.07-.77-1.1l.02-.02zm5.13-5.63c.92 1.27 1.77 2.79 1.77 3.21 0 .25-.2.47-.85.85-.6.35-1.1.6-1.27.6-.25 0-.37-.07-.5-.47-.77-1.74-1.27-2.61-2.66-4.46-.08-.07-.12-.2-.12-.3 0-.37 1.32-1.2 1.87-1.2.37 0 .77.37 1.77 1.74v.02zm22.16 11.68c2.74-.72 4.58-.97 6.55-.97 6 0 9.49 3.56 9.49 9.66 0 5.28-2.29 9.56-6.9 12.95-2.47 1.82-6.18 3.64-7.42 3.64-.55 0-.67-.12-1.57-1.39-.62-.97-1.27-1.57-2.32-2.34 4.86-1.64 6.9-2.71 9.09-4.61 2.54-2.24 3.81-4.96 3.81-8.17 0-3.44-1.62-5.38-4.46-5.38-2.29 0-5.26.9-9.09 2.74-.55.25-.85.47-1.57.97-.17.07-.35.17-.5.17-.8 0-2.17-2.37-3.09-5.55 1.57-.12 2.37-.35 7.97-1.74v.02zm2.84-10.34c1.52.47 3.81.9 5.88 1.15.85.07 1.14.12 3.31.2.62 0 .8.17.8.62 0 1.39-.3 3.69-.55 4.11-.08.25-.3.35-.6.35-.97 0-4.41-.47-6.4-.9-3.34-.67-6.28-1.52-6.85-1.99-.12-.12-.2-.3-.2-.47 0-.35.9-2.61 1.32-3.44.2-.35.35-.42.6-.42.13 0 1.04.26 2.71.77l-.03.02zm43.76 29.64c0 3.98-3.21 7.2-7.15 7.2s-7.15-3.21-7.15-7.2 3.21-7.15 7.15-7.15 7.15 3.21 7.15 7.15zm-11.01 0c0 2.17 1.74 3.89 3.86 3.89s3.86-1.74 3.86-3.89-1.74-3.86-3.86-3.86-3.86 1.74-3.86 3.86z"/></svg>