<svg viewBox="0 0 480 302.56" xmlns="http://www.w3.org/2000/svg"><path d="m10.21 74c2.91 0 5.71.77 8.41 2.3v5.41c-3.1-1.97-5.84-2.95-8.25-2.95-1.45 0-2.59.3-3.41.89s-1.23 1.38-1.23 2.38c0 1.18.77 2.28 2.29 3.29.43.3 2.07 1.14 4.95 2.53 2.46 1.22 4.22 2.57 5.31 4.06s1.63 3.27 1.63 5.36c0 2.71-.92 4.89-2.77 6.55s-4.24 2.49-7.18 2.49c-1.92 0-3.55-.22-4.94-.66-1.38-.44-2.93-1.2-4.63-2.29v-5.99c3.2 2.8 6.21 4.19 9.04 4.19 1.41 0 2.55-.32 3.42-.97.87-.64 1.31-1.5 1.31-2.57 0-1.45-.76-2.65-2.27-3.56-1.25-.72-2.87-1.58-4.86-2.59-2.35-1.12-4.11-2.44-5.28-3.94-1.18-1.52-1.75-3.27-1.75-5.25 0-2.65.93-4.75 2.8-6.32s4.34-2.36 7.41-2.36zm24.55.41 9.82 12.42 9.82-12.42h5.16v31.48h-5.78v-22.11h-.17l-8.65 11.09h-.81l-8.65-11.09h-.17v22.11h-5.78v-31.48zm50.76 0 13.21 31.48h-6.1l-3.1-7.66h-13.3l-2.89 7.66h-6.06l12.33-31.48zm-7.53 19.2h9.66l-5.05-12.46zm38.36-19.2c2.81 0 5.1.82 6.87 2.46s2.65 3.77 2.65 6.4c0 1.79-.43 3.34-1.31 4.68-.88 1.33-2.18 2.38-3.91 3.14.96.54 1.8 1.28 2.55 2.21.74.93 1.66 2.5 2.76 4.71 1.83 3.81 3.18 6.44 4.07 7.89h-6.44c-.44-.69-1.05-1.79-1.79-3.31-1.65-3.35-2.86-5.61-3.64-6.77-.77-1.17-1.52-1.99-2.23-2.48s-1.53-.73-2.46-.73h-2.1v13.3h-5.78v-31.48h10.77zm-1.31 13.42c1.51 0 2.7-.4 3.56-1.19s1.3-1.89 1.3-3.27-.43-2.52-1.29-3.23-2.07-1.07-3.66-1.07h-3.6v8.77h3.68zm46.35-13.44v4.75h-10.61v26.72h-5.78v-26.72h-10.61v-4.75h27.02zm34.01-.41c2.91 0 5.71.77 8.41 2.3v5.41c-3.1-1.97-5.84-2.95-8.25-2.95-1.45 0-2.6.3-3.41.89-.82.59-1.23 1.38-1.23 2.38 0 1.18.77 2.28 2.29 3.29.43.3 2.07 1.14 4.95 2.53 2.45 1.22 4.22 2.57 5.31 4.06s1.63 3.27 1.63 5.36c0 2.71-.92 4.89-2.77 6.55s-4.24 2.49-7.18 2.49c-1.92 0-3.55-.22-4.94-.66-1.38-.44-2.93-1.2-4.63-2.29v-5.99c3.2 2.8 6.21 4.19 9.04 4.19 1.41 0 2.55-.32 3.42-.97.87-.64 1.31-1.5 1.31-2.57 0-1.45-.76-2.65-2.27-3.56-1.25-.72-2.87-1.58-4.86-2.59-2.35-1.12-4.11-2.44-5.28-3.94s-1.74-3.25-1.74-5.22c0-2.65.93-4.75 2.8-6.32s4.34-2.36 7.41-2.36zm34.34 0c1.7 0 3.36.2 4.99.61s3.38 1.1 5.27 2.07v5.72c-1.84-1.11-3.54-1.92-5.1-2.41-1.56-.5-3.2-.74-4.89-.74-2.12 0-4.05.46-5.76 1.38-1.72.92-3.05 2.23-3.99 3.91-.95 1.68-1.42 3.55-1.42 5.61s.47 3.99 1.41 5.66 2.27 2.96 3.98 3.87c1.72.91 3.64 1.37 5.78 1.37 1.64 0 3.2-.24 4.7-.74s3.37-1.39 5.64-2.68v5.72c-1.94 1.06-3.73 1.83-5.35 2.27-1.63.45-3.53.68-5.69.68-3.15 0-5.97-.66-8.46-1.99-2.48-1.32-4.43-3.23-5.85-5.71s-2.13-5.21-2.13-8.17c0-3.17.73-6.02 2.19-8.54 1.46-2.53 3.47-4.47 6.04-5.83 2.56-1.37 5.45-2.06 8.65-2.06zm33.88.41 13.21 31.48h-6.1l-3.1-7.66h-13.3l-2.89 7.66h-6.06l12.33-31.48zm-7.53 19.2h9.66l-5.05-12.46zm33.36-19.2v26.72h14.52v4.75h-20.3v-31.48h5.78zm34 0c2.8 0 5.07.85 6.82 2.56s2.62 3.9 2.62 6.59-.89 4.92-2.66 6.6-4.1 2.53-7 2.53h-5.56v13.21h-5.78v-31.48h11.56zm-1.44 13.51c1.54 0 2.74-.37 3.6-1.11s1.3-1.85 1.3-3.3c0-2.9-1.77-4.35-5.31-4.35h-3.94v8.77h4.35zm52.12-13.93c1.7 0 3.36.2 4.99.61s3.38 1.1 5.27 2.07v5.72c-1.84-1.11-3.54-1.92-5.1-2.41-1.56-.5-3.2-.74-4.89-.74-2.12 0-4.05.46-5.76 1.38s-3.05 2.23-3.99 3.91c-.95 1.68-1.42 3.55-1.42 5.61s.47 3.99 1.41 5.66 2.27 2.96 3.98 3.87 3.64 1.37 5.78 1.37c1.64 0 3.2-.24 4.7-.74s3.37-1.39 5.64-2.68v5.72c-1.94 1.06-3.73 1.83-5.36 2.27-1.63.45-3.53.68-5.7.68-3.15 0-5.97-.66-8.45-1.99-2.48-1.32-4.43-3.23-5.85-5.71s-2.13-5.21-2.13-8.17c0-3.17.73-6.02 2.19-8.54 1.46-2.53 3.48-4.47 6.04-5.83 2.56-1.37 5.45-2.06 8.66-2.06zm33.89.41 13.21 31.48h-6.1l-3.1-7.66h-13.3l-2.89 7.66h-6.06l12.33-31.48zm-7.53 19.2h9.66l-5.05-12.46zm38.36-19.2c2.81 0 5.1.82 6.87 2.46s2.65 3.77 2.65 6.4c0 1.79-.43 3.34-1.31 4.68-.88 1.33-2.18 2.38-3.91 3.14.96.54 1.8 1.28 2.55 2.21.74.93 1.66 2.5 2.76 4.71 1.83 3.81 3.18 6.44 4.07 7.89h-6.44c-.44-.69-1.05-1.79-1.79-3.31-1.65-3.35-2.86-5.61-3.64-6.77-.77-1.17-1.52-1.99-2.23-2.48s-1.53-.73-2.46-.73h-2.1v13.3h-5.78v-31.48h10.77zm-1.31 13.42c1.51 0 2.7-.4 3.56-1.19s1.3-1.89 1.3-3.27-.43-2.52-1.29-3.23-2.07-1.07-3.66-1.07h-3.6v8.77h3.68zm42.15-13.44v4.75h-13.55v8.27h12.97v4.75h-12.97v8.94h13.85v4.75h-19.63v-31.48h19.33zm-445.2-52.8c-1.73-.2-3.56-.28-5.85-.28h-22.75c-2.13 0-4.24.12-5.89.28v-5.12c1.73.2 3.36.28 5.89.28h22.74c2.61 0 4.41-.08 5.85-.28v5.12zm17.25-8.21c-1.52 3.16-3.08 5.57-5.25 8.05-.96-1.44-1.88-2.4-3.12-3.24 2.88-2.96 5.2-6.97 6.49-11.25.52-1.64.68-2.4.85-3.56l4.41 1.08c-.05.19-.17.52-.36 1-.08.24-.12.28-.4 1.28-.16.52-.32 1.04-1 2.88h6.25v-2.92c0-2.04-.08-3.21-.24-4.64h4.89c-.16 1.2-.24 2.61-.24 4.61v2.96h8.05c1.96 0 3.61-.08 5.17-.24v4.24c-1.64-.16-3.28-.24-5.09-.24h-8.13v7.05h6.65c1.96 0 3.52-.08 4.77-.24v4.24c-1.36-.16-2.96-.24-4.72-.24h-6.69v8.17h9.25c2.16 0 3.84-.08 5.32-.28v4.41c-1.8-.2-3.12-.28-5.2-.28h-23.54c-2.04 0-3.64.08-5.45.28v-4.41c1.6.2 3.32.28 5.32.28h9.89v-8.17h-5.92c-1.76 0-3.36.08-4.64.24v-4.21c1.28.16 2.48.2 4.61.2h5.97v-7.05h-7.88zm37.04 13.85c.72-.64.92-.8 1.2-.8.52 0 2.93 1.76 4.69 3.44 2 1.84 4.24 4.52 4.24 5.09 0 .36-.08.44-1.24 1.48-1.52 1.4-1.84 1.64-2.13 1.64-.24 0-.48-.16-.68-.56-1.4-2.48-4.61-5.77-7.45-7.61-.32-.24-.48-.4-.48-.64 0-.28.08-.4 1.84-2.04zm45.13 2.15c3.29 0 6.93-.48 10.53-1.4.2-.08.32-.08.45-.08.24 0 .36.16.43.52.12.88.2 2.16.2 3.49 0 .8-.08 1.04-.45 1.2-1.2.64-6.6 1.24-11.26 1.24-6.05 0-9.49-1-12.25-3.61-1.32-1.24-2.64-3.41-2.64-4.29 0-.6.36-.84 3.64-2.72 1.44 3.96 4.77 5.65 11.33 5.65zm.36-23.03c2.33 0 3.68-.08 6.4-.48h.28c.32 0 .44.12.52.36.08.48.16 1.68.16 3.12 0 .92-.08 1.24-.32 1.4-.32.2-3.81.44-6.49.44-3.56 0-6.53-.28-9.85-.92-2.28-.44-2.4-.56-2.4-1.96 0-.92.08-2.44.2-3.56 3.49 1.08 7.29 1.6 11.49 1.6h.02zm40.25 21.11c-1.93 3.32-4.57 5.17-7.28 5.17-4.17 0-7.13-4.09-7.13-9.77 0-6.33 3.21-11.77 8.69-14.66 2.68-1.44 5.57-2.08 9.37-2.08 8.37 0 14.58 5.92 14.58 13.85 0 7.01-3.44 12.05-10.09 14.9-1.32.56-2.36.88-2.88.88-.48 0-.68-.16-1.2-.92-.68-1.05-1.44-1.8-2.52-2.53 8.25-2.13 11.97-6 11.97-12.49 0-3.32-1.4-6.13-3.89-7.89-1.4-.96-2.53-1.36-4.72-1.73-1.12 8.45-2.44 13.05-4.89 17.26zm-5.77-14.18c-2.68 2.36-4.21 5.72-4.21 9.49 0 3.08 1 4.89 2.68 4.89 2 0 4.04-2.76 5.57-7.53.96-3.01 1.45-5.29 2.04-9.73-2.84.6-4.24 1.28-6.09 2.88zm50.49 7.41c-.12.2-.28.56-.52 1.16h15.21c1.84 0 3.04-.08 4.12-.2v3.64c-1.32-.16-2.4-.2-4.12-.2h-16.58c-.24.52-.32.72-.65 1.28h10.53c1.53 0 2.48-.04 3.29-.16l1.96 2c-1.28 1.12-4.69 3.56-6.2 4.44 2.93.48 5.52.64 12.22.68-.76 1.44-1.36 2.76-1.84 4.04-6.37-.52-6.57-.56-9.05-.96-2.53-.4-4.04-.8-5.97-1.56-3.16 1.16-6.12 1.88-10.77 2.53-.48-.92-.88-1.64-1.52-2.61-1.73 1.28-2.28 1.64-3.89 2.53-.85-1.28-1.32-1.84-2.76-3.12 5.41-2.73 8.21-5.17 10.37-9.09h-5.69c-1.68 0-2.68.04-4.12.2v-3.64c1.08.12 2.44.2 4.12.2h7.01c.16-.6.24-.8.4-1.48l4.09.32c-.36-.68-.45-.84-.8-1.44-2.08.32-7.77.85-12.05 1.12-.68.04-1.45.12-1.8.2l-.32-3.28c.4.04.88.08 1.36.08.08 0 1.12 0 1.68-.04.56-.92.92-1.56 1.28-2.36h-1.64c-1.76 0-2.44.04-3.41.16v-3.01c.92.12 1.48.16 3.29.16v-6.77c0-1.56-.04-2.33-.16-3.41 1 .12 2.04.16 3.81.16h7.33c1.72 0 2.88-.08 4.04-.2v3.08c-.88-.12-1.84-.16-3.64-.16h-7.53v.92h7.77c1.36 0 1.88-.04 2.56-.12v2.48c-.64-.08-1.28-.12-2.56-.12h-7.77v1h7.77c1.36 0 1.76 0 2.56-.12v2.44c-.72-.08-1.36-.12-2.56-.12h-7.77v.92h9.13c1.64 0 2.24-.04 3.12-.16v2.96c-.8-.08-1.64-.12-3.12-.12h-.72c1.12 1.2 1.96 2.28 3.24 4.12l-2.81 1.6h.1zm-8.76 13.25c2.36-.24 4.8-.68 7.01-1.24-1.2-.8-1.96-1.44-3.21-2.64-1.24 1.56-2.24 2.61-3.81 3.89zm1.8-18.99c-.56 1.12-.68 1.36-1.2 2.2 2-.08 3.49-.2 5.12-.44-.32-.36-.44-.48-.8-.88l2-.88zm5.72 14.25c1.2.92 2.16 1.48 3.64 2.13 1.76-.72 2.72-1.2 4.17-2.13zm18.14-25.02c-.59.19-1.43.52-2.53 1-4.24 1.76-5.85 2.28-10.21 3.21-.6-1.64-.72-1.93-1.56-3.21 5.17-.88 9.45-2.28 11.69-3.84zm2.12 11.81c-5.8 2.76-8.73 3.76-14.33 4.77-.32-1.04-.96-2.36-1.64-3.52 6.73-1.12 11.01-2.53 13.62-4.49l2.36 3.24zm-1.05-6.25c-.68.24-1.04.4-2.96 1.32-2.56 1.2-5.57 2.13-10.17 3.08-.56-1.48-.85-2-1.6-3.16 5.09-.92 7.93-1.73 10.81-3.12.68-.36 1.05-.56 1.52-.92l2.4 2.81zm21.9 5.39c-.52-1.76-.68-2.84-1.16-7.77-.16-1.93-.32-2.88-.72-4.24 2.44.04 4.01.16 5.09.44.6.16.88.44.88.88 0 .16-.04.36-.12.68-.28.96-.4 1.68-.4 2.72 0 1.96.4 5.17.85 6.57.24.76.48 1.04.92 1.04.96 0 4.49-1.84 6.4-3.32.52-.4.6-.44.8-.44.36 0 .72.28 1.33 1.05 1 1.36 1.8 2.84 1.8 3.41 0 .44-.28.72-.96.92-2.48.68-6.57 2.28-9.33 3.61-4.89 2.4-7.08 4.61-7.08 7.09s2.04 3.44 7.2 3.44c3.01 0 5.73-.28 9.41-.88.16-.04.45-.08.52-.08.32 0 .52.16.68.48.12.4.4 2.84.4 3.81 0 .56-.16.76-.68.92-.88.2-5.73.48-8.77.48-5.12 0-8.53-.68-10.66-2.13-1.8-1.24-2.76-3.21-2.76-5.6 0-1.84.52-3.49 1.6-5.09 1.4-2.08 2.93-3.41 6.29-5.4-.84-.76-1.16-1.32-1.52-2.56l-.02-.02zm43.21-3.61c-1.84.12-3.56.16-5.09.16-1.68 0-1.8 0-1.88-.24-.12-.24-.24-1.93-.24-3.08v-.76c1.88.08 2.68.12 3.69.12s2.53-.04 3.72-.08c.2-2.33.24-3.12.24-3.92 0-.36 0-.6-.04-1.16 1.93.04 3.41.16 4.57.44.32.08.48.24.48.52 0 .2-.04.36-.24.85-.32.76-.56 1.8-.72 3.04 2.56-.2 5.65-.6 6.89-.88 1.2-.28 2.04-.44 2.24-.44.84-.08 1.44-.24 1.68-.44.04-.04.08-.04.08-.04.08 0 .12.04.2.04.16 0 .28.16.36.44.08.6.2 2 .2 2.88 0 .6-.12.76-.52.85-2.36.48-7.25 1.08-11.45 1.44-.04.16-.04.24-.04.64-.08.76-.08.85-.12 2.84 1.76-.4 3.32-.6 5.29-.6.28-1.28.32-1.6.4-2.53 3.08.64 4.61 1.2 4.61 1.68 0 .16-.04.28-.36.8-.12.16-.2.28-.28.56 5.17 1.2 8.45 5 8.45 9.93 0 4.37-2.36 7.85-6.89 10.26-1.68.88-4.04 1.68-4.92 1.68-.44 0-.76-.16-1-.48-.84-1.2-1.36-1.76-2.64-2.84 4.16-.76 6.2-1.6 8.21-3.24 1.84-1.56 2.72-3.36 2.72-5.6 0-3.21-1.88-5.6-5.09-6.53-2.4 5.52-4.01 8.13-6.89 11.09.2.68.36 1.08.72 1.93.16.32.2.44.2.56 0 .4-.16.52-1.08 1-1 .52-2.16.92-2.56.92-.36 0-.44-.12-.88-1.36-2.33 1.64-4.8 2.53-7.25 2.53-2.72 0-4.57-2.2-4.57-5.4 0-5.01 3.64-9.89 9.69-12.9.04-2.08.08-3.84.12-4.64l.02-.03zm-5.65 16.82c0 1 .6 1.6 1.6 1.6 1.36 0 3.16-.76 4.97-2.08-.56-2.73-.8-4.57-1-7.57-3.52 2.61-5.57 5.6-5.57 8.05zm14.01-11.05c-1.8.16-2.76.32-4.4.88.08 2.84.16 4.04.48 6.09 1.68-2.13 2.81-4.12 3.92-6.97zm55.7 1.28c-1.84 0-4.77.6-6.77 1.36-4.24 1.64-7.05 4.64-7.05 7.57 0 1.84 1.2 3.08 3.61 3.69 1.08.28 2.96.48 4.29.44h.4c.68 0 .92.24.92.76 0 1.32-.24 3.16-.44 3.69-.16.32-.36.44-.76.44-2.44 0-5.52-.64-7.61-1.6-3.09-1.36-4.77-3.72-4.77-6.69 0-1.88.72-3.81 2.08-5.52.76-.92 1.36-1.48 2.81-2.48-7.28 2.2-10.93 3.61-13.38 5.2-.32.2-.52.28-.72.28-.44 0-.8-.36-1.36-1.36-.56-.92-.96-2.04-.96-2.64 0-.36.16-.48 1.12-.76.92-.28 1.56-.68 3.08-1.76 1.84-1.36 4.72-3.84 7.21-6.2 2.04-1.96 3.21-3.16 5.6-5.97-2.33.28-8.61 1.36-9.53 1.6-.56.16-.6.16-.72.16-.36 0-.52-.16-.68-.56-.32-.88-.6-2.36-.8-4.04.56.04.84.04 1.2.04 1.8 0 5.69-.32 10.49-.92 1.8-.2 2.84-.44 3.56-.8.48-.24.56-.28.85-.28.48 0 1.12.52 2.24 1.88.8.92 1.05 1.36 1.05 1.8s-.16.64-.68 1c-.48.3-1.84 1.48-4.09 3.56-2.76 2.56-6.05 5.37-9.73 8.29 5.65-1.68 8.61-2.48 14.73-3.84 1.36-.28 2.68-.64 4.21-1.12.2-.08.36-.12.48-.12.32 0 .48.16.68.52.45.92.96 2.88.96 3.61 0 .56-.16.8-.6.8h-.92v-.02zm22.03 8.05c.08.08.16.28.16.48s-.04.44-.32 1.12c-1.05 3.01-1.36 4.32-1.56 6.49-.08.6-.2.76-.68.92-.8.24-1.76.36-2.84.36-.48 0-.64-.12-.84-.68-1.12-3.16-1.84-7.97-1.84-12.17s.52-8.41 2-15.18c.44-2.16.48-2.48.65-3.96 1.76.24 2.93.6 4.09 1.2.8.4 1.05.64 1.05 1.12 0 .28-.08.52-.45 1-.32.44-.52.96-.8 1.93-1.44 4.57-2.28 9.93-2.28 14.33 0 1.32.08 2.92.36 5.6.56-1.56 1.16-3.21 1.84-5 .4 1.08.64 1.52 1.48 2.44zm7.88-7.06c-2.56 0-3.16-.08-3.28-.36-.16-.36-.32-1.88-.32-3.01 0-.28 0-.56.08-1.16 1.48.16 2.88.24 4.97.24 1.16 0 1.93-.04 3.32-.08 0-3.12 0-3.41.04-4.72-1.52.08-2.76.12-3.56.12-3.01 0-3.84-.08-3.96-.4-.16-.32-.28-1.64-.28-2.73 0-.36 0-.68.08-1.36 1.2.16 2.28.2 4.41.2 3.76 0 7.61-.32 9.81-.8.2-.08.28-.08.4-.08.28 0 .36.08.44.4.12.4.2 1.68.2 2.56s-.04 1.05-.36 1.24c-.32.2-1.04.32-2.96.56-.03.3-.05.75-.08 1.36 0 .64-.04.8-.04 3.24 1.68-.28 2.21-.4 4.52-.92.2-.08.28-.08.4-.08.28 0 .36.08.44.4.08.4.2 1.8.2 2.68s-.04 1.08-.36 1.24c-.48.28-2.64.68-5.12.92.04 1.84.12 3.08.48 6.45 2.13.96 3.61 1.8 5.41 3.16 1.56 1.12 1.93 1.52 1.93 1.96 0 .52-.72 1.8-1.64 2.92-.48.6-.8.84-1.12.84-.16 0-.55-.33-1.16-1-.8-.96-2.08-2-3.44-2.96 0 1.6-.28 2.53-1 3.44-1.24 1.56-3.36 2.4-6.17 2.4-4.49 0-7.53-2.44-7.53-6.05s3.04-6.05 7.57-6.05c1.05 0 1.84.08 2.84.2-.2-3.28-.24-4.16-.24-4.97-2.64.1-4.27.16-4.89.16l-.02.02zm2.04 8.37c-2.04 0-3.16.72-3.16 2.04s1.08 2.04 2.96 2.04c2.16 0 3.29-.92 3.29-2.76v-.72c-1.05-.4-1.96-.6-3.09-.6zm11.74-20.97c-.52-1.24-1.05-2.08-2.24-3.69-.12-.12-.16-.2-.16-.28 0-.36 1.28-1.28 1.8-1.28.32 0 .8.52 1.76 1.88 1 1.44 1.68 2.61 1.68 2.96 0 .24-.16.4-.72.76-.56.4-1.16.68-1.4.68-.28 0-.32-.08-.72-1.04zm4.84-5.32c.88 1.2 1.68 2.64 1.68 3.04 0 .24-.2.44-.8.8-.56.32-1.05.56-1.2.56-.24 0-.36-.08-.48-.44-.72-1.64-1.2-2.48-2.53-4.21-.08-.08-.12-.2-.12-.28 0-.36 1.24-1.12 1.76-1.12.36 0 .72.36 1.68 1.64v.02zm20.99 11.04c2.6-.68 4.32-.92 6.2-.92 5.69 0 8.96 3.36 8.96 9.13 0 5.01-2.16 9.05-6.53 12.25-2.33 1.73-5.85 3.44-7 3.44-.52 0-.65-.12-1.48-1.32-.6-.92-1.2-1.48-2.2-2.2 4.61-1.56 6.53-2.56 8.61-4.37 2.4-2.13 3.61-4.69 3.61-7.73 0-3.24-1.53-5.09-4.21-5.09-2.16 0-4.97.84-8.61 2.61-.52.24-.8.44-1.48.92-.16.08-.32.16-.48.16-.76 0-2.04-2.24-2.92-5.25 1.48-.12 2.24-.32 7.53-1.64zm2.68-9.76c1.44.44 3.61.85 5.57 1.08.8.08 1.08.12 3.12.2.6 0 .76.16.76.6 0 1.32-.28 3.49-.52 3.89-.08.24-.28.32-.56.32-.92 0-4.16-.44-6.05-.84-3.16-.64-5.92-1.44-6.49-1.88-.12-.12-.2-.28-.2-.44 0-.32.84-2.48 1.24-3.24.2-.32.32-.4.56-.4.13 0 .99.24 2.56.72h.02zm41.4 28.02c0 3.76-3.04 6.8-6.77 6.8s-6.77-3.04-6.77-6.8 3.04-6.77 6.77-6.77 6.77 3.04 6.77 6.77zm-10.41 0c0 2.04 1.64 3.69 3.64 3.69s3.64-1.64 3.64-3.69-1.64-3.64-3.64-3.64-3.64 1.64-3.64 3.64zm-393.76 222.96h-6.31c-1.91 0-3.48-1.53-3.54-3.43v-9.28c.03-1.93 1.62-3.49 3.55-3.49h16.77v-6.43h-16.83c-1.89-.03-3.42-1.55-3.48-3.42v-8.88c.04-1.89 1.59-3.43 3.49-3.45h17.36v-6.6h-27.36v51.58h27.99v-6.59h-11.64zm100.9-44.52h-6.9v51.1h6.9zm-33.31-.34-14.37 18.4-.09.11c-.65.76-1.56 1.17-2.47 1.17s-1.82-.41-2.47-1.17l-.09-.11-14.37-18.4h-6.07v51.45h6.9v-32.92c0-1.05.55-2 1.73-2.34 1.01-.3 1.99.1 2.66.92l8.97 11.46h5.49l8.97-11.46c.68-.81 1.66-1.21 2.67-.92 1.18.35 1.73 1.29 1.73 2.34v32.92h6.9v-51.45h-6.08zm-124.74.03h-18.66v51.42h18.74c15.85 0 26.12-12.93 26.12-26.03 0-12.07-8.43-25.39-26.19-25.39zm-.77 45.26h-7.52c-1.89-.03-3.42-1.56-3.47-3.45v-31.77c0-1.95 1.59-3.55 3.55-3.55h7.08c13.46 0 19.91 9.52 19.91 19.79 0 8.61-6.2 18.98-19.56 18.98zm410.58-83.21c-36.31 0-72.99 29.44-81.92 65.74-8.94 36.31 13.25 65.74 49.55 65.74s72.99-29.43 81.92-65.74c8.94-36.31-13.25-65.74-49.55-65.74zm29.73 64.28c-7.05 26.1-33.31 47.92-58.66 48.73-25.36.81-40.19-19.7-33.15-45.8 7.05-26.1 33.31-47.92 58.66-48.73s40.19 19.7 33.15 45.8zm-229.79 62.5s16.7.87 30.58.73c43.17-.44 68.06-28.96 68.68-63.09v-.07c0-34.14-24.38-63.1-67.54-64.3-13.89-.39-30.59.18-30.59.18zm19.6-106.72s.98-2.28 2.23-2.36c1.65-.09 4.47-.16 9.24-.07 29.67.59 48.99 22.46 48.99 46.58-.43 24.11-20.13 45.63-49.81 45.69-4.77 0-7.59-.11-9.23-.23-1.25-.09-2.19-1.14-2.19-2.39l.78-87.21z"/></svg>