<svg viewBox="0 0 82.22 24" xmlns="http://www.w3.org/2000/svg"><path d="m35.27 20.93h-2.94c-.89 0-1.62-.71-1.65-1.6v-4.32c.02-.9.75-1.62 1.65-1.62h7.8v-2.99h-7.83c-.88-.02-1.59-.72-1.62-1.59v-4.13c.02-.88.74-1.6 1.62-1.61h8.08v-3.07h-12.73v24h13.02v-3.07h-5.42zm46.95-20.71h-3.21v23.78h3.21zm-15.5-.16-6.69 8.56-.04.05c-.3.35-.73.55-1.15.55s-.85-.19-1.15-.55l-.04-.05-6.69-8.56h-2.82v23.94h3.21v-15.32c0-.49.26-.93.81-1.09.47-.14.93.05 1.24.43l4.18 5.33h2.55l4.18-5.33c.32-.37.77-.56 1.24-.43.55.16.81.6.81 1.09v15.32h3.21v-23.94h-2.83zm-58.04.01h-8.68v23.92h8.72c7.37 0 12.15-6.01 12.15-12.11 0-5.61-3.92-11.81-12.18-11.81zm-.36 21.06h-3.5c-.88-.02-1.59-.73-1.62-1.6v-14.79c0-.91.74-1.65 1.65-1.65h3.29c6.26 0 9.26 4.43 9.26 9.21 0 4-2.88 8.83-9.1 8.83z"/></svg>