<svg viewBox="0 0 671.29 184" xmlns="http://www.w3.org/2000/svg"><path d="m106.02 115.9h-8.82c-2.67 0-4.87-2.15-4.95-4.8v-12.98c.05-2.7 2.27-4.88 4.96-4.88h23.45v-8.99h-23.53c-2.64-.05-4.78-2.17-4.87-4.78v-12.42c.06-2.65 2.23-4.8 4.88-4.83h24.28v-9.23h-38.26v72.14h39.15v-9.22h-16.28zm141.12-62.26h-9.65v71.47h9.65v-71.46zm-46.58-.48-20.1 25.74-.13.16c-.91 1.07-2.18 1.64-3.45 1.64s-2.54-.58-3.45-1.64l-.13-.16-20.1-25.74h-8.49v71.95h9.65v-46.04c0-1.47.77-2.79 2.42-3.27 1.42-.42 2.78.14 3.72 1.28l12.55 16.03h7.67l12.55-16.03c.95-1.13 2.31-1.69 3.73-1.28 1.65.49 2.42 1.8 2.42 3.27v46.04h9.65v-71.94h-8.5zm-174.46.04h-26.1v71.91h26.2c22.17 0 36.53-18.08 36.53-36.41 0-16.88-11.8-35.51-36.62-35.51h-.01zm-1.08 63.3h-10.51c-2.64-.05-4.78-2.18-4.86-4.82v-44.44c0-2.73 2.23-4.96 4.96-4.96h9.9c18.82 0 27.85 13.32 27.85 27.68 0 12.04-8.67 26.54-27.36 26.54h.01zm574.21-116.37c-50.78 0-102.07 41.17-114.57 91.93-12.5 50.78 18.53 91.93 69.3 91.93s102.08-41.17 114.57-91.93c12.5-50.77-18.54-91.93-69.3-91.93zm41.57 89.9c-9.85 36.5-46.58 67.02-82.04 68.15s-56.21-27.55-46.36-64.05 46.58-67.02 82.04-68.15 56.21 27.55 46.36 64.05zm-321.38 87.4s23.35 1.22 42.77 1.02c60.37-.61 95.18-40.49 96.04-88.23v-.1c.01-47.74-34.08-88.24-94.44-89.93-19.42-.55-42.78.25-42.78.25l-1.58 176.99zm27.42-149.25s1.37-3.19 3.12-3.3c2.3-.13 6.25-.23 12.92-.1 41.49.83 68.51 31.41 68.51 65.14-.6 33.72-28.16 63.82-69.66 63.91-6.68.01-10.61-.16-12.91-.32-1.75-.13-3.07-1.59-3.06-3.34l1.09-121.97h-.01z"/></svg>