<svg viewBox="0 0 404.04 81.08" xmlns="http://www.w3.org/2000/svg"><path d="m3.64 10.32v-.96h-.01c-1.13 0-1.99-1.38-1.99-4.2s.86-4.2 1.98-4.2h.01v-.96h-.01c-1.75 0-3.03 1.61-3.03 5.16s1.28 5.16 3.04 5.16zm8.11-1.44v-1.12h-4.75v-7.28h-1.13v8.4zm6.18 0v-1.12h-1.87v-6.18h1.87v-1.1h-4.88v1.1h1.87v6.18h-1.87v1.12zm2.94 0v-6.76h.34l4.13 6.76h1.73v-8.4h-1.1v6.74h-.35l-4.12-6.74h-1.73v8.4zm14.34 0v-1.12h-4.87v-2.57h4.32v-1.06h-4.32v-2.55h4.87v-1.1h-6v8.4zm8.83.17c1.98 0 3.52-1.25 3.52-3.26v-5.31h-1.13v5.3c0 1.28-.97 2.15-2.39 2.15s-2.4-.86-2.4-2.15v-5.3h-1.13v5.3c0 2.02 1.54 3.26 3.53 3.26zm6.67-.17v-3.42h3.32c1.62 0 2.41-1.08 2.41-2.44v-.05c0-1.39-.79-2.5-2.41-2.5h-4.45v8.4h1.13zm0-7.3h3.2c.88 0 1.44.53 1.44 1.44v.05c0 .86-.56 1.34-1.44 1.34h-3.2zm7.33 8.74c1.75 0 3.04-1.61 3.04-5.16s-1.28-5.16-3.04-5.16h-.01v.96h.01c1.13 0 1.98 1.37 1.98 4.2s-.85 4.2-1.98 4.2h-.01v.96zm-54.05 22.76c2.38 0 3.75-1.26 3.75-3.01 0-1.46-1.05-2.25-3.01-2.59l-1.16-.21c-1.46-.27-2.02-.55-2.02-1.37 0-.99.98-1.75 2.28-1.75 1.46 0 2.59 1.02 2.59 2.46l1.3-.04c0-2.44-2.04-3.68-3.89-3.68-2.25 0-3.6 1.48-3.6 3.01s1.01 2.24 3.04 2.59l1.16.21c1.41.25 2 .57 2 1.36 0 1.09-1.01 1.76-2.45 1.76-1.54 0-2.69-1.02-2.69-2.53l-1.3.04c0 2.42 1.92 3.75 3.99 3.75zm9.89 0c2.27 0 4.09-1.48 4.47-3.85l-1.37-.04c-.34 1.61-1.57 2.58-3.11 2.58-1.86 0-3.23-1.55-3.23-3.77v-.04c0-2.21 1.37-3.75 3.23-3.75 1.54 0 2.77.95 3.11 2.56l1.37-.04c-.38-2.37-2.2-3.84-4.47-3.84-2.6 0-4.59 2.09-4.59 5.08v.03c0 3 1.99 5.08 4.59 5.08zm8.58-10-3.43 9.63v.17h1.33l.99-2.79h4.58l.99 2.79h1.32v-.17l-3.42-9.63h-2.37zm.91 1.32h.55l1.58 4.45h-3.71zm13.41 8.48v-1.3h-5.54v-8.5h-1.32v9.8zm3.14 0v-3.99h3.88c1.89 0 2.81-1.26 2.81-2.84v-.06c0-1.62-.92-2.91-2.81-2.91h-5.19v9.8h1.32zm0-8.51h3.74c1.02 0 1.68.62 1.68 1.68v.06c0 1.01-.66 1.57-1.68 1.57h-3.74v-3.3zm15.93 8.71c2.38 0 3.75-1.26 3.75-3.01 0-1.46-1.05-2.25-3.01-2.59l-1.16-.21c-1.46-.27-2.02-.55-2.02-1.37 0-.99.98-1.75 2.28-1.75 1.46 0 2.59 1.02 2.59 2.46l1.3-.04c0-2.44-2.04-3.68-3.89-3.68-2.25 0-3.6 1.48-3.6 3.01s1.01 2.24 3.04 2.59l1.16.21c1.41.25 2 .57 2 1.36 0 1.09-1.01 1.76-2.45 1.76-1.54 0-2.69-1.02-2.69-2.53l-1.3.04c0 2.42 1.92 3.75 3.99 3.75zm7.05-.2v-4.26h5.73v4.26h1.32v-9.8h-1.32v4.26h-5.73v-4.26h-1.32v9.8zm12.14-9.8-3.43 9.63v.17h1.33l.99-2.79h4.58l.99 2.79h1.32v-.17l-3.42-9.63h-2.37zm.91 1.32h.55l1.58 4.45h-3.71zm7.86 8.48v-7.59h.38l2.62 5.82h1.39l2.62-5.82h.39v7.59h1.3v-9.8h-2.06l-2.74 6.1h-.42l-2.74-6.1h-2.04v9.8h1.32zm12.54 0v-3.99h3.88c1.89 0 2.81-1.26 2.81-2.84v-.06c0-1.62-.92-2.91-2.81-2.91h-5.19v9.8h1.32zm0-8.51h3.74c1.02 0 1.68.62 1.68 1.68v.06c0 1.01-.66 1.57-1.68 1.57h-3.74v-3.3zm12.49 8.71c2.62 0 4.58-2.09 4.59-5.08v-.03c0-3-1.97-5.08-4.59-5.08s-4.59 2.09-4.59 5.08v.03c0 3 1.99 5.08 4.59 5.08zm0-1.32c-1.88 0-3.25-1.55-3.25-3.77v-.04c0-2.21 1.37-3.75 3.25-3.75s3.23 1.54 3.23 3.75v.04c0 2.23-1.37 3.77-3.23 3.77zm10.69 1.32c2.62 0 4.58-2.09 4.59-5.08v-.03c0-3-1.97-5.08-4.59-5.08s-4.59 2.09-4.59 5.08v.03c0 3 1.99 5.08 4.59 5.08zm0-1.32c-1.88 0-3.25-1.55-3.25-3.77v-.04c0-2.21 1.37-3.75 3.25-3.75s3.23 1.54 3.23 3.75v.04c0 2.23-1.37 3.77-3.23 3.77zm6.45 3.32 1.06-2.32v-1.62h-1.37v1.75h.57l-.92 2.04v.15zm6.81-2c2.38 0 3.75-1.26 3.75-3.01 0-1.46-1.05-2.25-3.01-2.59l-1.16-.21c-1.46-.27-2.02-.55-2.02-1.37 0-.99.98-1.75 2.28-1.75 1.46 0 2.59 1.02 2.59 2.46l1.3-.04c0-2.44-2.04-3.68-3.89-3.68-2.25 0-3.6 1.48-3.6 3.01s1.01 2.24 3.04 2.59l1.16.21c1.41.25 2 .57 2 1.36 0 1.09-1.01 1.76-2.45 1.76-1.54 0-2.69-1.02-2.69-2.53l-1.3.04c0 2.42 1.92 3.75 3.99 3.75zm9.89 0c2.27 0 4.09-1.48 4.47-3.85l-1.37-.04c-.34 1.61-1.57 2.58-3.11 2.58-1.86 0-3.23-1.55-3.23-3.77v-.04c0-2.21 1.37-3.75 3.23-3.75 1.54 0 2.77.95 3.11 2.56l1.37-.04c-.38-2.37-2.2-3.84-4.47-3.84-2.6 0-4.59 2.09-4.59 5.08v.03c0 3 1.99 5.08 4.59 5.08zm8.58-10-3.43 9.63v.17h1.33l.99-2.79h4.58l.99 2.79h1.32v-.17l-3.42-9.63h-2.37zm.91 1.32h.55l1.58 4.45h-3.71zm13.41 8.48v-1.3h-5.54v-8.5h-1.32v9.8zm3.14 0v-3.99h3.88c1.89 0 2.81-1.26 2.81-2.84v-.06c0-1.62-.92-2.91-2.81-2.91h-5.19v9.8h1.32zm0-8.51h3.74c1.02 0 1.68.62 1.68 1.68v.06c0 1.01-.66 1.57-1.68 1.57h-3.74v-3.3zm16.74 8.51v-8.51h3.47v-1.29h-8.26v1.29h3.46v8.51zm6.56 0v-4.1h3.4c.76 0 1.37.28 1.51 1.43l.11.97c.1.85.21 1.23.41 1.71h1.36v-.17c-.18-.41-.34-.73-.42-1.54l-.13-1.19c-.08-.81-.46-1.29-1.05-1.57v-.13c1.05-.45 1.5-1.36 1.5-2.39v-.06c0-1.54-.92-2.76-2.81-2.76h-5.19v9.8h1.32zm0-8.53h3.74c1.02 0 1.68.59 1.68 1.62v.03c0 .98-.67 1.55-1.68 1.55h-3.74v-3.21zm15.79 8.53v-1.3h-5.68v-3h5.04v-1.23h-5.04v-2.98h5.68v-1.29h-7v9.8zm4.86-9.8-3.43 9.63v.17h1.33l.99-2.79h4.58l.99 2.79h1.32v-.17l-3.42-9.63h-2.37zm.91 1.32h.55l1.58 4.45h-3.71zm9.38 8.48v-8.51h3.47v-1.29h-8.26v1.29h3.46v8.51zm6.56 0v-7.59h.38l2.62 5.82h1.39l2.62-5.82h.39v7.59h1.3v-9.8h-2.06l-2.74 6.1h-.42l-2.74-6.1h-2.04v9.8h1.32zm18.22 0v-1.3h-5.68v-3h5.04v-1.23h-5.04v-2.98h5.68v-1.29h-7v9.8zm3.49 0v-7.88h.39l4.82 7.88h2.02v-9.8h-1.29v7.87h-.41l-4.8-7.87h-2.02v9.8zm13.79 0v-8.51h3.47v-1.29h-8.26v1.29h3.46v8.51zm4.02 2.2 1.06-2.32v-1.62h-1.37v1.75h.57l-.92 2.04v.15zm4.88-2.2v-4.26h5.73v4.26h1.32v-9.8h-1.32v4.26h-5.73v-4.26h-1.32v9.8zm12.14-9.8-3.43 9.63v.17h1.33l.99-2.79h4.58l.99 2.79h1.32v-.17l-3.42-9.63h-2.37zm.91 1.32h.55l1.58 4.45h-3.71zm11.87 8.48v-1.3h-2.18v-7.21h2.18v-1.29h-5.7v1.29h2.18v7.21h-2.18v1.3zm3.46 0v-4.1h3.4c.76 0 1.37.28 1.51 1.43l.11.97c.1.85.21 1.23.41 1.71h1.36v-.17c-.18-.41-.34-.73-.42-1.54l-.13-1.19c-.08-.81-.46-1.29-1.05-1.57v-.13c1.05-.45 1.5-1.36 1.5-2.39v-.06c0-1.54-.92-2.76-2.81-2.76h-5.19v9.8h1.32zm0-8.53h3.74c1.02 0 1.68.59 1.68 1.62v.03c0 .98-.67 1.55-1.68 1.55h-3.74v-3.21zm17.09 8.53v-8.51h3.47v-1.29h-8.26v1.29h3.46v8.51zm6.56 0v-4.1h3.4c.76 0 1.37.28 1.51 1.43l.11.97c.1.85.21 1.23.41 1.71h1.36v-.17c-.18-.41-.34-.73-.42-1.54l-.13-1.19c-.08-.81-.46-1.29-1.05-1.57v-.13c1.05-.45 1.5-1.36 1.5-2.39v-.06c0-1.54-.92-2.76-2.81-2.76h-5.19v9.8h1.32zm0-8.53h3.74c1.02 0 1.68.59 1.68 1.62v.03c0 .98-.67 1.55-1.68 1.55h-3.74v-3.21zm15.79 8.53v-1.3h-5.68v-3h5.04v-1.23h-5.04v-2.98h5.68v-1.29h-7v9.8zm4.86-9.8-3.43 9.63v.17h1.33l.99-2.79h4.58l.99 2.79h1.32v-.17l-3.42-9.63h-2.37zm.91 1.32h.55l1.58 4.45h-3.71zm9.38 8.48v-8.51h3.47v-1.29h-8.26v1.29h3.46v8.51zm6.56 0v-7.59h.38l2.62 5.82h1.39l2.62-5.82h.39v7.59h1.3v-9.8h-2.06l-2.74 6.1h-.42l-2.74-6.1h-2.04v9.8h1.32zm18.22 0v-1.3h-5.68v-3h5.04v-1.23h-5.04v-2.98h5.68v-1.29h-7v9.8zm3.49 0v-7.88h.39l4.82 7.88h2.02v-9.8h-1.29v7.87h-.41l-4.8-7.87h-2.02v9.8zm13.79 0v-8.51h3.47v-1.29h-8.26v1.29h3.46v8.51zm4.02 2.2 1.06-2.32v-1.62h-1.37v1.75h.57l-.92 2.04v.15zm-318.98 22c2.38 0 3.75-1.26 3.75-3.01 0-1.46-1.05-2.25-3.01-2.59l-1.16-.21c-1.46-.27-2.02-.55-2.02-1.37 0-.99.98-1.75 2.28-1.75 1.46 0 2.59 1.02 2.59 2.46l1.3-.04c0-2.44-2.04-3.68-3.89-3.68-2.25 0-3.6 1.48-3.6 3.01s1.01 2.24 3.04 2.59l1.16.21c1.41.25 2 .57 2 1.36 0 1.09-1.01 1.76-2.45 1.76-1.54 0-2.69-1.02-2.69-2.53l-1.3.04c0 2.42 1.92 3.75 3.99 3.75zm9.89 0c2.27 0 4.09-1.48 4.47-3.85l-1.37-.04c-.34 1.61-1.57 2.58-3.11 2.58-1.86 0-3.23-1.55-3.23-3.77v-.04c0-2.21 1.37-3.75 3.23-3.75 1.54 0 2.77.95 3.11 2.56l1.37-.04c-.38-2.37-2.2-3.84-4.47-3.84-2.6 0-4.59 2.09-4.59 5.08v.03c0 3 1.99 5.08 4.59 5.08zm8.58-10-3.43 9.63v.17h1.33l.99-2.79h4.58l.99 2.79h1.32v-.17l-3.42-9.63h-2.37zm.91 1.32h.55l1.58 4.45h-3.71zm13.41 8.48v-1.3h-5.54v-8.5h-1.32v9.8zm3.14 0v-3.99h3.88c1.89 0 2.81-1.26 2.81-2.84v-.06c0-1.62-.92-2.91-2.81-2.91h-5.19v9.8h1.32zm0-8.51h3.74c1.02 0 1.68.62 1.68 1.68v.06c0 1.01-.66 1.57-1.68 1.57h-3.74v-3.3zm19.59 8.51v-1.3h-5.68v-3h5.04v-1.23h-5.04v-2.98h5.68v-1.29h-7v9.8zm5.48.2c2.38 0 3.75-1.26 3.75-3.01 0-1.46-1.05-2.25-3.01-2.59l-1.16-.21c-1.46-.27-2.02-.55-2.02-1.37 0-.99.98-1.75 2.28-1.75 1.46 0 2.59 1.02 2.59 2.46l1.3-.04c0-2.44-2.04-3.68-3.89-3.68-2.25 0-3.6 1.48-3.6 3.01s1.01 2.24 3.04 2.59l1.16.21c1.41.25 2 .57 2 1.36 0 1.09-1.01 1.76-2.45 1.76-1.54 0-2.69-1.02-2.69-2.53l-1.3.04c0 2.42 1.92 3.75 3.99 3.75zm9.27 0c2.38 0 3.75-1.26 3.75-3.01 0-1.46-1.05-2.25-3.01-2.59l-1.16-.21c-1.46-.27-2.02-.55-2.02-1.37 0-.99.98-1.75 2.28-1.75 1.46 0 2.59 1.02 2.59 2.46l1.3-.04c0-2.44-2.04-3.68-3.89-3.68-2.25 0-3.6 1.48-3.6 3.01s1.01 2.24 3.04 2.59l1.16.21c1.41.25 2 .57 2 1.36 0 1.09-1.01 1.76-2.45 1.76-1.54 0-2.69-1.02-2.69-2.53l-1.3.04c0 2.42 1.92 3.75 3.99 3.75zm12.73-.2v-1.3h-5.68v-3h5.04v-1.23h-5.04v-2.98h5.68v-1.29h-7v9.8zm3.49 0v-7.88h.39l4.82 7.88h2.02v-9.8h-1.29v7.87h-.41l-4.8-7.87h-2.02v9.8zm13.78.2c2.27 0 4.09-1.48 4.47-3.85l-1.37-.04c-.34 1.61-1.57 2.58-3.11 2.58-1.86 0-3.23-1.55-3.23-3.77v-.04c0-2.21 1.37-3.75 3.23-3.75 1.54 0 2.77.95 3.11 2.56l1.37-.04c-.38-2.37-2.2-3.84-4.47-3.84-2.6 0-4.59 2.09-4.59 5.08v.03c0 3 1.99 5.08 4.59 5.08zm13.44-.2v-1.3h-5.68v-3h5.04v-1.23h-5.04v-2.98h5.68v-1.29h-7v9.8zm9-9.8-3.43 9.63v.17h1.33l.99-2.79h4.58l.99 2.79h1.32v-.17l-3.42-9.63h-2.37zm.91 1.32h.55l1.58 4.45h-3.71zm10.62 8.48c2.62 0 4.45-1.96 4.45-4.89v-.03c0-2.94-1.83-4.89-4.45-4.89h-4.07v9.8h4.07zm-2.76-8.48h2.62c1.92 0 3.25 1.41 3.25 3.56v.04c0 2.16-1.34 3.57-3.25 3.57h-2.62zm13.55 8.48 3.16-9.65v-.15h-1.32l-2.8 8.4h-.55l-2.79-8.4h-1.33v.15l3.16 9.65h2.45zm6.59-9.8-3.43 9.63v.17h1.33l.99-2.79h4.58l.99 2.79h1.32v-.17l-3.42-9.63h-2.37zm.91 1.32h.55l1.58 4.45h-3.71zm7.83 8.48v-7.88h.39l4.82 7.88h2.02v-9.8h-1.29v7.87h-.41l-4.8-7.87h-2.02v9.8zm13.78.2c2.27 0 4.09-1.48 4.47-3.85l-1.37-.04c-.34 1.61-1.57 2.58-3.11 2.58-1.86 0-3.23-1.55-3.23-3.77v-.04c0-2.21 1.37-3.75 3.23-3.75 1.54 0 2.77.95 3.11 2.56l1.37-.04c-.38-2.37-2.2-3.84-4.47-3.84-2.6 0-4.59 2.09-4.59 5.08v.03c0 3 1.99 5.08 4.59 5.08zm13.44-.2v-1.3h-5.68v-3h5.04v-1.23h-5.04v-2.98h5.68v-1.29h-7v9.8zm6.27 0c2.62 0 4.45-1.96 4.45-4.89v-.03c0-2.94-1.83-4.89-4.45-4.89h-4.07v9.8h4.07zm-2.76-8.48h2.62c1.92 0 3.25 1.41 3.25 3.56v.04c0 2.16-1.34 3.57-3.25 3.57h-2.62zm21.8 8.48v-5.29h-4.56v1.23h3.29v2.77h-3.14c-1.88 0-3.26-1.51-3.26-3.64v-.03c0-2.2 1.39-3.75 3.25-3.75 1.41 0 2.56.84 2.97 2.21l1.46-.03c-.53-2.17-2.24-3.47-4.42-3.47-2.6 0-4.59 2.06-4.59 5.03v.03c0 2.91 1.95 4.94 4.51 4.94h4.51zm3.58 0v-4.1h3.4c.76 0 1.37.28 1.51 1.43l.11.97c.1.85.21 1.23.41 1.71h1.36v-.17c-.18-.41-.34-.73-.42-1.54l-.13-1.19c-.08-.81-.46-1.29-1.05-1.57v-.13c1.05-.45 1.5-1.36 1.5-2.39v-.06c0-1.54-.92-2.76-2.81-2.76h-5.19v9.8h1.32zm0-8.53h3.74c1.02 0 1.68.59 1.68 1.62v.03c0 .98-.67 1.55-1.68 1.55h-3.74v-3.21zm12.83 8.72c2.62 0 4.58-2.09 4.59-5.08v-.03c0-3-1.97-5.08-4.59-5.08s-4.59 2.09-4.59 5.08v.03c0 3 1.99 5.08 4.59 5.08zm0-1.32c-1.88 0-3.25-1.55-3.25-3.77v-.04c0-2.21 1.37-3.75 3.25-3.75s3.23 1.54 3.23 3.75v.04c0 2.23-1.37 3.77-3.23 3.77zm10.12 1.12 1.47-7.73h.32l1.46 7.73h2.34l2.14-9.59v-.21h-1.27l-1.79 8.16h-.52l-1.48-8.16h-2.06l-1.5 8.16h-.5l-1.79-8.16h-1.27v.21l2.14 9.59h2.32zm9.06 2.2 1.06-2.32v-1.62h-1.37v1.75h.57l-.92 2.04v.15zm-328.48 22.01c2.38 0 3.75-1.26 3.75-3.01 0-1.46-1.05-2.25-3.01-2.59l-1.16-.21c-1.46-.27-2.02-.55-2.02-1.37 0-.99.98-1.75 2.28-1.75 1.46 0 2.59 1.02 2.59 2.46l1.3-.04c0-2.44-2.04-3.68-3.89-3.68-2.25 0-3.6 1.48-3.6 3.01s1.01 2.24 3.04 2.59l1.16.21c1.41.25 2 .57 2 1.36 0 1.09-1.01 1.76-2.45 1.76-1.54 0-2.69-1.02-2.69-2.53l-1.3.04c0 2.42 1.92 3.75 3.99 3.75zm9.89 0c2.27 0 4.09-1.48 4.47-3.85l-1.37-.04c-.34 1.61-1.57 2.58-3.11 2.58-1.86 0-3.23-1.55-3.23-3.77v-.04c0-2.21 1.37-3.75 3.23-3.75 1.54 0 2.77.95 3.11 2.56l1.37-.04c-.38-2.37-2.2-3.84-4.47-3.84-2.6 0-4.59 2.09-4.59 5.08v.03c0 3 1.99 5.08 4.59 5.08zm8.58-10-3.43 9.63v.17h1.33l.99-2.79h4.58l.99 2.79h1.32v-.17l-3.42-9.63h-2.37zm.91 1.32h.55l1.58 4.45h-3.71zm13.41 8.48v-1.3h-5.54v-8.5h-1.32v9.8zm3.14 0v-3.99h3.88c1.89 0 2.81-1.26 2.81-2.84v-.06c0-1.62-.92-2.91-2.81-2.91h-5.19v9.8h1.32zm0-8.51h3.74c1.02 0 1.68.62 1.68 1.68v.06c0 1.01-.66 1.57-1.68 1.57h-3.74v-3.3zm19.59 8.51v-1.3h-5.68v-3h5.04v-1.23h-5.04v-2.98h5.68v-1.29h-7v9.8zm5.48.2c2.38 0 3.75-1.26 3.75-3.01 0-1.46-1.05-2.25-3.01-2.59l-1.16-.21c-1.46-.27-2.02-.55-2.02-1.37 0-.99.98-1.75 2.28-1.75 1.46 0 2.59 1.02 2.59 2.46l1.3-.04c0-2.44-2.04-3.68-3.89-3.68-2.25 0-3.6 1.48-3.6 3.01s1.01 2.24 3.04 2.59l1.16.21c1.41.25 2 .57 2 1.36 0 1.09-1.01 1.76-2.45 1.76-1.54 0-2.69-1.02-2.69-2.53l-1.3.04c0 2.42 1.92 3.75 3.99 3.75zm9.27 0c2.38 0 3.75-1.26 3.75-3.01 0-1.46-1.05-2.25-3.01-2.59l-1.16-.21c-1.46-.27-2.02-.55-2.02-1.37 0-.99.98-1.75 2.28-1.75 1.46 0 2.59 1.02 2.59 2.46l1.3-.04c0-2.44-2.04-3.68-3.89-3.68-2.25 0-3.6 1.48-3.6 3.01s1.01 2.24 3.04 2.59l1.16.21c1.41.25 2 .57 2 1.36 0 1.09-1.01 1.76-2.45 1.76-1.54 0-2.69-1.02-2.69-2.53l-1.3.04c0 2.42 1.92 3.75 3.99 3.75zm12.73-.2v-1.3h-5.68v-3h5.04v-1.23h-5.04v-2.98h5.68v-1.29h-7v9.8zm3.49 0v-7.88h.39l4.82 7.88h2.02v-9.8h-1.29v7.87h-.41l-4.8-7.87h-2.02v9.8zm13.78.2c2.27 0 4.09-1.48 4.47-3.85l-1.37-.04c-.34 1.61-1.57 2.58-3.11 2.58-1.86 0-3.23-1.55-3.23-3.77v-.04c0-2.21 1.37-3.75 3.23-3.75 1.54 0 2.77.95 3.11 2.56l1.37-.04c-.38-2.37-2.2-3.84-4.47-3.84-2.6 0-4.59 2.09-4.59 5.08v.03c0 3 1.99 5.08 4.59 5.08zm13.44-.2v-1.3h-5.68v-3h5.04v-1.23h-5.04v-2.98h5.68v-1.29h-7v9.8zm11.54 0c1.89 0 2.81-1.18 2.81-2.62v-.06c0-1.01-.48-1.86-1.47-2.27v-.11c.88-.39 1.33-1.19 1.33-2.09v-.06c0-1.37-.91-2.6-2.81-2.6h-5.05v9.8h5.19zm-3.88-8.53h3.6c1.01 0 1.68.57 1.68 1.5v.04c0 .85-.64 1.41-1.64 1.41h-3.64zm0 4.16h3.74c1.02 0 1.68.57 1.68 1.54v.04c0 .95-.66 1.51-1.68 1.51h-3.74zm15.55 4.37v-1.3h-5.54v-8.5h-1.32v9.8zm4.63-9.8-3.43 9.63v.17h1.33l.99-2.79h4.58l.99 2.79h1.32v-.17l-3.42-9.63h-2.37zm.91 1.32h.55l1.58 4.45h-3.71zm10.15 8.68c2.27 0 4.09-1.48 4.47-3.85l-1.37-.04c-.34 1.61-1.57 2.58-3.11 2.58-1.86 0-3.23-1.55-3.23-3.77v-.04c0-2.21 1.37-3.75 3.23-3.75 1.54 0 2.77.95 3.11 2.56l1.37-.04c-.38-2.37-2.2-3.84-4.47-3.84-2.6 0-4.59 2.09-4.59 5.08v.03c0 3 1.99 5.08 4.59 5.08zm7.76-.2v-4.4h.67l4.3 4.4h1.68v-.17l-4.83-4.93 4.77-4.55v-.15h-1.68l-4.26 4.12h-.66v-4.12h-1.32v9.8h1.32zm19.41 0v-1.3h-5.54v-8.5h-1.32v9.8zm5.26.2c2.62 0 4.58-2.09 4.59-5.08v-.03c0-3-1.97-5.08-4.59-5.08s-4.59 2.09-4.59 5.08v.03c0 3 1.99 5.08 4.59 5.08zm0-1.32c-1.88 0-3.25-1.55-3.25-3.77v-.04c0-2.21 1.37-3.75 3.25-3.75s3.23 1.54 3.23 3.75v.04c0 2.23-1.37 3.77-3.23 3.77zm15.11 1.12v-5.29h-4.56v1.23h3.29v2.77h-3.14c-1.88 0-3.26-1.51-3.26-3.64v-.03c0-2.2 1.39-3.75 3.25-3.75 1.41 0 2.56.84 2.97 2.21l1.46-.03c-.53-2.17-2.24-3.47-4.42-3.47-2.6 0-4.59 2.06-4.59 5.03v.03c0 2.91 1.95 4.94 4.51 4.94h4.51zm7.6 0v-1.3h-2.18v-7.21h2.18v-1.29h-5.7v1.29h2.18v7.21h-2.18v1.3zm5.29.2c2.38 0 3.75-1.26 3.75-3.01 0-1.46-1.05-2.25-3.01-2.59l-1.16-.21c-1.46-.27-2.02-.55-2.02-1.37 0-.99.98-1.75 2.28-1.75 1.46 0 2.59 1.02 2.59 2.46l1.3-.04c0-2.44-2.04-3.68-3.89-3.68-2.25 0-3.6 1.48-3.6 3.01s1.01 2.24 3.04 2.59l1.16.21c1.41.25 2 .57 2 1.36 0 1.09-1.01 1.76-2.45 1.76-1.54 0-2.69-1.02-2.69-2.53l-1.3.04c0 2.42 1.92 3.75 3.99 3.75zm9.49-.2v-8.51h3.47v-1.29h-8.26v1.29h3.46v8.51zm5.09 0v-1.75h-1.37v1.75z"/></svg>