<svg viewBox="0 0 250.53 27.52" xmlns="http://www.w3.org/2000/svg"><path d="m8.48 27.52v-2.56h-.38c-1.73 0-2.59-1.02-2.56-2.56l.16-5.15c.03-1.63-.7-2.85-1.79-3.46v-.1c1.09-.58 1.82-1.82 1.79-3.46l-.16-5.12c-.03-1.54.83-2.56 2.56-2.56h.38v-2.55h-.61c-3.04 0-4.99 1.54-4.89 4.7l.16 5.31c.03 1.57-.64 2.43-2.43 2.43h-.7v2.59h.7c1.79 0 2.46.86 2.43 2.43l-.16 5.34c-.1 3.17 1.86 4.7 4.9 4.7h.61zm8.99-3.84v-9.38h7.78c1.73 0 3.14.64 3.46 3.26l.26 2.21c.22 1.95.48 2.82.93 3.9h3.1v-.38c-.42-.93-.77-1.66-.96-3.52l-.29-2.72c-.19-1.86-1.06-2.94-2.4-3.58v-.29c2.4-1.02 3.42-3.1 3.42-5.47v-.13c0-3.52-2.11-6.3-6.43-6.3h-11.87v22.4h3.01zm0-19.49h8.54c2.34 0 3.84 1.34 3.84 3.71v.06c0 2.24-1.54 3.55-3.84 3.55h-8.54v-7.33zm29.33 19.94c5.98 0 10.46-4.77 10.5-11.62v-.06c0-6.85-4.51-11.62-10.5-11.62s-10.5 4.77-10.5 11.62v.06c0 6.85 4.54 11.62 10.5 11.62zm0-3.01c-4.29 0-7.42-3.55-7.42-8.61v-.1c0-5.06 3.14-8.58 7.42-8.58s7.39 3.52 7.39 8.58v.1c0 5.09-3.14 8.61-7.39 8.61zm24.44 3.01c5.98 0 10.46-4.77 10.5-11.62v-.06c0-6.85-4.51-11.62-10.5-11.62s-10.5 4.77-10.5 11.62v.06c0 6.85 4.54 11.62 10.5 11.62zm0-3.01c-4.29 0-7.42-3.55-7.42-8.61v-.1c0-5.06 3.14-8.58 7.42-8.58s7.39 3.52 7.39 8.58v.1c0 5.09-3.14 8.61-7.39 8.61zm22.79 2.56v-19.46h7.94v-2.94h-18.88v2.94h7.9v19.46zm27.76-22.4-7.84 22.02v.38h3.04l2.27-6.37h10.46l2.27 6.37h3.01v-.38l-7.81-22.02h-5.41zm2.08 3.01h1.25l3.62 10.18h-8.48l3.62-10.18zm23.21 19.84c5.18 0 9.34-3.39 10.21-8.8l-3.14-.1c-.77 3.68-3.58 5.89-7.1 5.89-4.26 0-7.39-3.55-7.39-8.61v-.1c0-5.06 3.14-8.58 7.39-8.58 3.52 0 6.34 2.18 7.1 5.86l3.14-.1c-.86-5.41-5.02-8.77-10.21-8.77-5.95 0-10.5 4.77-10.5 11.62v.06c0 6.85 4.54 11.62 10.5 11.62zm22.54-.45v-19.46h7.94v-2.94h-18.88v2.94h7.9v19.46zm24.4 0v-2.98h-4.99v-16.48h4.99v-2.94h-13.02v2.94h4.99v16.48h-4.99v2.98zm15.75 0 7.23-22.05v-.35h-3.01l-6.4 19.2h-1.25l-6.37-19.2h-3.04v.35l7.23 22.05h5.6zm27.02 0v-2.98h-12.99v-6.85h11.52v-2.82h-11.52v-6.82h12.99v-2.93h-16v22.4zm5.86 3.84c3.04 0 5.02-1.54 4.93-4.7l-.16-5.34c-.06-1.57.64-2.43 2.43-2.43h.67v-2.59h-.67c-1.79 0-2.5-.86-2.43-2.43l.16-5.31c.1-3.18-1.88-4.72-4.92-4.72h-.61v2.56h.42c1.7 0 2.56 1.02 2.53 2.56l-.13 5.12c-.06 1.63.67 2.88 1.76 3.46v.1c-1.09.61-1.82 1.82-1.76 3.46l.13 5.15c.03 1.54-.83 2.56-2.53 2.56h-.42v2.56h.61z"/></svg>