<?xml version="1.0" encoding="UTF-8"?><svg xmlns="http://www.w3.org/2000/svg" viewBox="0 0 266 61.2"><path d="m5,25.2v-10.9h14.7v10.9h3.4V0h-3.4v10.9H5V0H1.6v25.2h3.4ZM37,0l-8.8,24.8v.4h3.4l2.6-7.2h11.8l2.6,7.2h3.4v-.4L43,0h-6.1Zm2.3,3.4h1.4l4.1,11.4h-9.5l4.1-11.4Zm31.2,21.8v-3.3h-5.6V3.3h5.6V0h-14.7v3.3h5.6v18.5h-5.6v3.3h14.7Zm9.6,0v-10.5h8.7c1.9,0,3.5.7,3.9,3.7l.3,2.5c.3,2.2.5,3.2,1,4.4h3.5v-.4c-.5-1-.9-1.9-1.1-4l-.3-3.1c-.2-2.1-1.2-3.3-2.7-4v-.3c2.7-1.2,3.9-3.5,3.9-6.2h0c0-4.1-2.4-7.2-7.2-7.2h-13.4v25.2h3.4Zm0-21.9h9.6c2.6,0,4.3,1.5,4.3,4.2h0c0,2.6-1.7,4.1-4.3,4.1h-9.6V3.3ZM12.3,61.2v-21.9h8.9v-3.3H0v3.3h8.9v21.9h3.4Zm17.6,0v-10.5h8.7c1.9,0,3.5.7,3.9,3.7l.3,2.5c.3,2.2.5,3.2,1,4.4h3.5v-.4c-.5-1-.9-1.9-1.1-4l-.3-3.1c-.2-2.1-1.2-3.3-2.7-4v-.3c2.7-1.2,3.9-3.5,3.9-6.2h0c0-4.1-2.4-7.2-7.2-7.2h-13.4v25.2h3.4Zm0-21.9h9.6c2.6,0,4.3,1.5,4.3,4.2h0c0,2.6-1.7,4.1-4.3,4.1h-9.6v-8.2Zm41.3,21.9v-3.3h-14.6v-7.7h13v-3.2h-13v-7.7h14.6v-3.3h-18v25.2h18Zm13.2-25.2l-8.8,24.8v.4h3.4l2.6-7.2h11.8l2.6,7.2h3.4v-.4l-8.8-24.8h-6.1Zm2.3,3.4h1.4l4.1,11.4h-9.5l4.1-11.4Zm24.8,21.8v-21.9h8.9v-3.3h-21.2v3.3h8.9v21.9h3.4Zm17.6,0v-19.5h1l6.7,15h3.6l6.7-15h1v19.5h3.3v-25.2h-5.3l-7.1,15.7h-1.1l-7.1-15.7h-5.3v25.2h3.4Zm47.6,0v-3.3h-14.6v-7.7h13v-3.2h-13v-7.7h14.6v-3.3h-18v25.2h18Zm9.7,0v-20.3h1l12.4,20.3h5.2v-25.2h-3.3v20.2h-1l-12.3-20.2h-5.2v25.2h3.3Zm36.2,0v-21.9h8.9v-3.3h-21.2v3.3h8.9v21.9h3.4Z" stroke-width="0"/></svg>