<?xml version="1.0" encoding="UTF-8"?><svg xmlns="http://www.w3.org/2000/svg" viewBox="0 0 266 61.7"><path d="m10.3,26.2c6.1,0,9.6-3.2,9.6-7.7s-2.7-5.8-7.7-6.7l-3-.5c-3.7-.7-5.2-1.4-5.2-3.5s2.5-4.5,5.9-4.5,6.7,2.6,6.7,6.3h3.3C19.9,3.2,14.6,0,9.9,0S.6,3.8.6,7.7s2.6,5.8,7.8,6.7l3,.5c3.6.6,5.1,1.5,5.1,3.5s-2.6,4.5-6.3,4.5-6.9-2.6-6.9-6.5H0c0,6.3,4.9,9.8,10.3,9.8Zm26.1,0c5.8,0,10.5-3.8,11.5-9.9h-3.5c-.9,4-4,6.5-8,6.5s-8.3-4-8.3-9.7h0c0-5.8,3.5-9.8,8.3-9.8s7.1,2.4,8,6.6h3.5c-1-6.2-5.7-10-11.5-10s-11.8,5.4-11.8,13.1h0c0,7.8,5.1,13.1,11.8,13.1ZM59.2.5l-8.8,24.8v.4h3.4l2.6-7.2h11.8l2.6,7.2h3.4v-.4L65.3.5h-6.1Zm2.3,3.4h1.4l4.1,11.4h-9.5l4.1-11.4Zm35.2,21.8v-3.3h-14.3V.5h-3.4v25.2h17.6Zm8.8,0v-10.3h10c4.9,0,7.2-3.2,7.2-7.3h0c0-4.3-2.4-7.6-7.2-7.6h-13.4v25.2h3.4Zm0-21.9h9.6c2.6,0,4.3,1.6,4.3,4.3h0c0,2.7-1.7,4.2-4.3,4.2h-9.6V3.8ZM12.3,61.7v-21.9h8.9v-3.3H0v3.3h8.9v21.9h3.4Zm17.6,0v-10.5h8.7c1.9,0,3.5.7,3.9,3.7l.3,2.5c.3,2.2.5,3.2,1,4.4h3.5v-.4c-.5-1-.9-1.9-1.1-4l-.3-3.1c-.2-2.1-1.2-3.3-2.7-4v-.3c2.7-1.2,3.9-3.5,3.9-6.2h0c0-4.1-2.4-7.2-7.2-7.2h-13.4v25.2h3.4Zm0-21.9h9.6c2.6,0,4.3,1.5,4.3,4.2h0c0,2.6-1.7,4.1-4.3,4.1h-9.6v-8.2Zm41.3,21.9v-3.3h-14.6v-7.7h13v-3.2h-13v-7.7h14.6v-3.3h-18v25.2h18Zm13.2-25.2l-8.8,24.8v.4h3.4l2.6-7.2h11.8l2.6,7.2h3.4v-.4l-8.8-24.8h-6.1Zm2.3,3.4h1.4l4.1,11.4h-9.5l4.1-11.4Zm24.8,21.8v-21.9h8.9v-3.3h-21.2v3.3h8.9v21.9h3.4Zm17.6,0v-19.5h1l6.7,15h3.6l6.7-15h1v19.5h3.3v-25.2h-5.3l-7.1,15.7h-1.1l-7.1-15.7h-5.3v25.2h3.4Zm47.6,0v-3.3h-14.6v-7.7h13v-3.2h-13v-7.7h14.6v-3.3h-18v25.2h18Zm9.7,0v-20.3h1l12.4,20.3h5.2v-25.2h-3.3v20.2h-1l-12.3-20.2h-5.2v25.2h3.3Zm36.2,0v-21.9h8.9v-3.3h-21.2v3.3h8.9v21.9h3.4Z" stroke-width="0"/></svg>