<?xml version="1.0" encoding="UTF-8"?><svg xmlns="http://www.w3.org/2000/svg" viewBox="0 0 251 20.3"><path d="m181.4,18.2c-4.2,0-6.9-3-6.9-8.1v-1.5c0-5.2,2.7-8.1,6.9-8.1s6.9,3,6.9,8.1v1.5c0,5.2-2.7,8.1-6.9,8.1Zm0-2.2c2.9,0,4.6-2.1,4.6-6v-1.5c0-3.8-1.7-6-4.6-6s-4.6,2.1-4.6,6v1.5c0,3.8,1.8,6,4.6,6Zm18-8.5v.3c3.8,0,6,2.2,6,5s-2.4,5.4-6.7,5.4-7-2-7-6h2.3c0,2.5,2.2,3.9,4.7,3.9s4.5-1.4,4.5-3.3-1.7-3.2-4.8-3.2h-1.6v-2.5l5.2-3.7v-.5h-9.7V.7h12.8v2.7l-5.7,4Zm12,12.8h-2.1l5.8-20.3h2.1l-5.8,20.3Zm16.5-2.1c-4.2,0-6.9-3-6.9-8.1v-1.5c0-5.2,2.7-8.1,6.9-8.1s6.9,3,6.9,8.1v1.5c0,5.2-2.7,8.1-6.9,8.1Zm0-2.2c2.9,0,4.6-2.1,4.6-6v-1.5c0-3.8-1.7-6-4.6-6s-4.6,2.1-4.6,6v1.5c0,3.8,1.8,6,4.6,6Zm15.2,1.8h-2.4v-.5c0-1.8.5-3.3,2.3-5.9l5.5-7.9v-.7h-11.1V.7h13.7v2.8l-5.9,8.5c-1.7,2.5-2.1,3.9-2.1,5.3v.5Zm-234.3,1.7v-1.7H0v1.7h8.7Zm6.7-1.7v-7h6.8c3.3,0,4.9-2.2,4.9-5h0c0-2.9-1.6-5.2-4.9-5.2h-9.1v17.1h2.3Zm0-14.9h6.5c1.8,0,2.9,1.1,2.9,2.9h0c0,1.9-1.1,2.8-2.9,2.8h-6.5V3Zm17.5,14.9v-7.2h5.9c1.3,0,2.4.5,2.6,2.5l.2,1.7c.2,1.5.4,2.2.7,3h2.4v-.3c-.3-.7-.6-1.3-.7-2.7l-.2-2.1c-.1-1.4-.8-2.2-1.8-2.7v-.2c1.8-.8,2.6-2.4,2.6-4.2h0c0-2.8-1.6-4.9-4.9-4.9h-9.1v17.1h2.3Zm0-14.9h6.5c1.8,0,2.9,1,2.9,2.8h0c0,1.8-1.2,2.8-2.9,2.8h-6.5V3Zm22.9,15.2c4.6,0,8-3.6,8-8.9h0c0-5.3-3.4-8.9-8-8.9s-8,3.6-8,8.9h0c0,5.3,3.5,8.9,8,8.9Zm0-2.3c-3.3,0-5.7-2.7-5.7-6.6h0c0-3.9,2.4-6.6,5.7-6.6s5.6,2.7,5.6,6.6h0c0,4-2.4,6.7-5.6,6.7Zm19,2c4.6,0,7.8-3.4,7.8-8.5h0c0-5.2-3.2-8.6-7.8-8.6h-7.1v17.1h7.1Zm-4.8-14.8h4.6c3.3,0,5.7,2.5,5.7,6.2h0c0,3.8-2.3,6.3-5.7,6.3h-4.6V3Zm23.4,15.2c4,0,7.2-2.5,7.2-6.7V.7h-2.3v10.8c0,2.6-2,4.4-4.9,4.4s-4.9-1.8-4.9-4.4V.7h-2.3v10.8c0,4.1,3.1,6.7,7.2,6.7Zm18.9,0c4,0,7.1-2.6,7.8-6.7h-2.4c-.6,2.7-2.7,4.4-5.4,4.4s-5.6-2.7-5.6-6.6h0c0-3.9,2.4-6.6,5.6-6.6s4.8,1.7,5.4,4.5h2.4c-.7-4.2-3.8-6.8-7.8-6.8s-8,3.6-8,8.9h0c0,5.3,3.5,8.9,8,8.9Zm17.7-.3V3h6.1V.7h-14.4v2.2h6v14.9h2.3Zm14.9.3c4.2,0,6.6-2.2,6.6-5.3s-1.8-3.9-5.3-4.5l-2-.4c-2.5-.5-3.5-1-3.5-2.4s1.7-3.1,4-3.1,4.5,1.8,4.5,4.3h2.3c0-4.3-3.6-6.5-6.8-6.5s-6.3,2.6-6.3,5.3,1.8,3.9,5.3,4.5l2,.4c2.5.4,3.5,1,3.5,2.4s-1.8,3.1-4.3,3.1-4.7-1.8-4.7-4.4h-2.3c0,4.3,3.3,6.6,7,6.6Z" stroke-width="0"/></svg>