<?xml version="1.0" encoding="UTF-8"?><svg xmlns="http://www.w3.org/2000/svg" viewBox="0 0 319 67.3"><path d="m2.4.1L0,7h0C0,7.1.9,7.1.9,7.1l.7-2h3.3s.7,2,.7,2h.9,0c0-.1-2.4-7-2.4-7h-1.7Zm.7.9h.4s1.1,3.2,1.1,3.2H2s1.1-3.2,1.1-3.2Zm7.3,6.2c1.6,0,2.9-1.1,3.2-2.8h-1c-.2,1.1-1.1,1.8-2.2,1.8-1.3,0-2.3-1.1-2.3-2.7h0c0-1.6,1-2.7,2.3-2.7s2,.7,2.2,1.8h1C13.3,1.1,12,0,10.4,0s-3.3,1.5-3.3,3.6h0c0,2.2,1.4,3.6,3.3,3.6Zm7-.1V1.1s2.5,0,2.5,0V.1h-5.9v.9h2.5s0,6.1,0,6.1h1Zm7.6,0v-.9h-1.6s0-5.1,0-5.1h1.6V.1h-4.1v.9h1.6s0,5.1,0,5.1h-1.6v.9h4.1Zm4.9,0l2.3-6.9h0c0-.1-.9-.1-.9-.1l-2,6h-.4S26.9.1,26.9.1h-1,0c0,.1,2.3,7,2.3,7h1.8Zm8.4,0v-.9h-4.1s0-2.1,0-2.1h3.6v-.9h-3.6s0-2.1,0-2.1h4.1V.1h-5v7h5Zm8.3,0v-.9h-1.6s0-5.1,0-5.1h1.6V.1h-4.1v.9h1.6s0,5.1,0,5.1h-1.6v.9h4.1Zm2.5,0V1.5s.3,0,.3,0l3.4,5.6h1.4V.1h-.9v5.6s-.3,0-.3,0L49.7.1h-1.4v7h.9Zm13,0v-3.8h-3.3v.9h2.3s0,2,0,2h-2.2c-1.3,0-2.3-1.1-2.3-2.6h0c0-1.6,1-2.7,2.3-2.7s1.8.6,2.1,1.6h1C61.8.9,60.6,0,59,0s-3.3,1.5-3.3,3.6h0c0,2.1,1.4,3.5,3.2,3.5h3.2Zm2.6,0v-2.9s2.4,0,2.4,0c.5,0,1,.2,1.1,1v.7c.2.6.2.9.4,1.2h1,0c-.1-.4-.2-.6-.3-1.2v-.8c-.2-.6-.4-.9-.8-1.1h0c.7-.4,1.1-1.1,1.1-1.8h0c0-1.1-.7-2-2-2h-3.7v7h.9Zm0-6.1h2.7c.7,0,1.2.4,1.2,1.2h0c0,.7-.5,1.1-1.2,1.1h-2.7s0-2.3,0-2.3Zm11.3,6.1v-.9h-4.1s0-2.1,0-2.1h3.6v-.9h-3.6s0-2.1,0-2.1h4.1V.1h-5v7h5Zm4.5,0c1.9,0,3.2-1.4,3.2-3.5h0c0-2.1-1.3-3.5-3.2-3.5h-2.9v7h2.9Zm-2-6.1h1.9c1.4,0,2.3,1,2.3,2.5h0c0,1.6-1,2.6-2.3,2.6h-1.9s0-5.1,0-5.1Zm10.1,6.1v-.9h-1.6s0-5.1,0-5.1h1.6V.1h-4.1v.9h1.6s0,5.1,0,5.1h-1.6v.9h4.1Zm6.5,0v-.9h-4.1s0-2.1,0-2.1h3.6v-.9h-3.6s0-2.1,0-2.1h4.1V.1h-5v7h5Zm2.5,0V1.5s.3,0,.3,0l3.4,5.6h1.4V.1h-.9v5.6s-.3,0-.3,0l-3.4-5.6h-1.4v7h.9Zm9.9,0V1.1s2.5,0,2.5,0V.1h-5.9v.9h2.5s0,6.1,0,6.1h1Zm5.9.1c1.7,0,2.7-.9,2.7-2.2s-.8-1.6-2.1-1.8h-.8c-1-.3-1.4-.5-1.4-1.1s.7-1.3,1.6-1.3c1,0,1.8.7,1.8,1.8h.9c0-1.8-1.5-2.7-2.8-2.7-1.6,0-2.6,1.1-2.6,2.1s.7,1.6,2.2,1.8h.8c1,.3,1.4.6,1.4,1.1s-.7,1.3-1.7,1.3-1.9-.7-1.9-1.8h-.9c0,1.8,1.4,2.7,2.8,2.7Zm9.9,0c1.6,0,2.9-1.1,3.2-2.8h-1c-.2,1.1-1.1,1.8-2.2,1.8s-2.3-1.1-2.3-2.7h0c0-1.6,1-2.7,2.3-2.7s2,.7,2.2,1.8h1C126.2,1.1,124.9,0,123.3,0c-1.9,0-3.3,1.5-3.3,3.6h0c0,2.2,1.4,3.6,3.3,3.6Zm6.1-7.1l-2.5,6.9h0c0,.1,1,.1,1,.1l.7-2h3.3s.7,2,.7,2h.9,0c0-.1-2.4-7-2.4-7h-1.7Zm.6.9h.4s1.1,3.2,1.1,3.2h-2.6s1.1-3.2,1.1-3.2Zm5.6,6.1v-2.9s2.4,0,2.4,0c.5,0,1,.2,1.1,1v.7c.1.6.2.9.4,1.2h1,0c-.1-.4-.2-.6-.3-1.2v-.8c-.1-.6-.4-.9-.8-1.1h0c.7-.4,1.1-1.1,1.1-1.8h0c0-1.1-.7-2-2-2h-3.7v7h.9Zm0-6.1h2.7c.7,0,1.2.4,1.2,1.2h0c0,.7-.5,1.1-1.2,1.1h-2.7s0-2.3,0-2.3Zm11.3,6.1v-.9h-4.1s0-2.1,0-2.1h3.6v-.9h-3.6s0-2.1,0-2.1h4.1V.1h-5v7h5Zm2.5,0v-3.1s3.5,0,3.5,0v-.9h-3.5s0-2.1,0-2.1h4V.1h-4.9v7h.9Zm8.1.1c1.7,0,2.9-1,2.9-2.7V.1h-.9v4.4c0,1.1-.8,1.8-2,1.8s-2-.7-2-1.8V.1h-.9v4.4c0,1.7,1.3,2.7,2.9,2.7Zm9.5-.1v-.9h-4s0-6.1,0-6.1h-.9v7h4.9Zm6.2,0v-.9h-4s0-6.1,0-6.1h-.9v7h4.9Zm2.8,0v-2.7s2.7-4.2,2.7-4.2h0c0-.1-1-.1-1-.1l-2.1,3.2h-.2s-2-3.2-2-3.2h-1,0c0,.1,2.7,4.3,2.7,4.3v2.7h.9Zm9.3.1c1.7,0,2.7-.9,2.7-2.2s-.8-1.6-2.1-1.8h-.8c-1-.3-1.4-.5-1.4-1.1s.7-1.3,1.6-1.3,1.8.7,1.8,1.8h.9c0-1.8-1.5-2.7-2.8-2.7s-2.6,1.1-2.6,2.1.7,1.6,2.2,1.8h.8c1,.3,1.4.6,1.4,1.1s-.7,1.3-1.7,1.3c-1.1,0-1.9-.7-1.9-1.8h-.9c0,1.8,1.4,2.7,2.9,2.7Zm9.1-.1v-.9h-4.1s0-2.1,0-2.1h3.6v-.9h-3.6s0-2.1,0-2.1h4.1V.1h-5v7h5Zm6.5,0v-.9h-4s0-6.1,0-6.1h-.9v7h4.9Zm6.3,0v-.9h-4.1s0-2.1,0-2.1h3.6v-.9h-3.6s0-2.1,0-2.1h4.1V.1h-5v7h5Zm4.4.1c1.6,0,2.9-1.1,3.2-2.8h-1c-.2,1.1-1.1,1.8-2.2,1.8-1.3,0-2.3-1.1-2.3-2.7h0c0-1.6,1-2.7,2.3-2.7,1.1,0,2,.7,2.2,1.8h1C214.6,1.1,213.3,0,211.7,0c-1.9,0-3.3,1.5-3.3,3.6h0c0,2.2,1.4,3.6,3.3,3.6Zm7-.1V1.1s2.5,0,2.5,0V.1h-5.9v.9h2.5s0,6.1,0,6.1h.9Zm8.7,0v-.9h-4.1s0-2.1,0-2.1h3.6v-.9h-3.6s0-2.1,0-2.1h4.1V.1h-5v7h5Zm4.5,0c1.9,0,3.2-1.4,3.2-3.5h0c0-2.1-1.3-3.5-3.2-3.5h-2.9v7h2.9Zm-2-6.1h1.9c1.4,0,2.3,1,2.3,2.5h0c0,1.6-1,2.6-2.3,2.6h-1.9s0-5.1,0-5.1Zm10.5,6.1v-3.1s3.5,0,3.5,0v-.9h-3.5s0-2.1,0-2.1h4V.1h-4.9v7h.9Zm8.1.1c1.9,0,3.3-1.5,3.3-3.6h0c0-2.2-1.4-3.6-3.3-3.6-1.9,0-3.3,1.5-3.3,3.6h0c0,2.2,1.4,3.6,3.3,3.6Zm0-.9c-1.3,0-2.3-1.1-2.3-2.7h0c0-1.6,1-2.7,2.3-2.7s2.3,1.1,2.3,2.7h0c0,1.6-1,2.7-2.3,2.7Zm5.6.8v-2.9s2.4,0,2.4,0c.5,0,1,.2,1.1,1v.7c.1.6.2.9.4,1.2h1,0c-.1-.4-.2-.6-.3-1.2v-.8c-.1-.6-.4-.9-.8-1.1h0c.7-.4,1.1-1.1,1.1-1.8h0c0-1.1-.7-2-2-2h-3.7v7h.9Zm0-6.1h2.7c.7,0,1.2.4,1.2,1.2h0c0,.7-.5,1.1-1.2,1.1h-2.7s0-2.3,0-2.3ZM1.5,22.1v-2.9s2.4,0,2.4,0c.5,0,1,.2,1.1,1v.7c.2.6.2.9.4,1.2h1,0c-.1-.4-.2-.6-.3-1.2v-.9c-.2-.6-.4-.9-.8-1.1h0c.7-.4,1.1-1.1,1.1-1.8h0c0-1.1-.7-2-2-2H.6v7h.9Zm0-6.1h2.7c.7,0,1.2.4,1.2,1.2h0c0,.7-.5,1.1-1.2,1.1H1.5s0-2.3,0-2.3Zm11.3,6.1v-.9h-4.1s0-2.1,0-2.1h3.6v-.9h-3.6s0-2.1,0-2.1h4.1v-.9h-5v7h5Zm3.9.1c1.7,0,2.7-.9,2.7-2.2s-.8-1.6-2.2-1.8h-.8c-1-.3-1.4-.5-1.4-1.1s.7-1.3,1.6-1.3,1.9.7,1.9,1.8h.9c0-1.8-1.5-2.7-2.8-2.7-1.6,0-2.6,1.1-2.6,2.1s.7,1.6,2.2,1.8h.8c1,.3,1.4.6,1.4,1.1s-.7,1.3-1.7,1.3-1.9-.7-1.9-1.8h-.9c0,1.8,1.4,2.7,2.9,2.7Zm5-.1v-2.9s2.8,0,2.8,0c1.3,0,2-.9,2-2h0c0-1.2-.7-2.1-2-2.1h-3.7v7h.9Zm0-6.1h2.7c.7,0,1.2.4,1.2,1.2h0c0,.8-.5,1.2-1.2,1.2h-2.7s0-2.4,0-2.4Zm11,6.1v-.9h-4.1s0-2.1,0-2.1h3.6v-.9h-3.6s0-2.1,0-2.1h4.1v-.9h-5v7h5Zm4.4.1c1.6,0,2.9-1.1,3.2-2.8h-1c-.2,1.1-1.1,1.8-2.2,1.8-1.3,0-2.3-1.1-2.3-2.7h0c0-1.6,1-2.7,2.3-2.7s2,.7,2.2,1.8h1c-.3-1.7-1.6-2.8-3.2-2.8-1.9,0-3.3,1.5-3.3,3.6h0c0,2.2,1.4,3.6,3.3,3.6Zm7-.1v-6.1s2.5,0,2.5,0v-.9h-5.9v.9h2.5s0,6.1,0,6.1h1Zm7.6,0v-.9h-1.6s0-5.1,0-5.1h1.6v-.9h-4.1v.9h1.6s0,5.1,0,5.1h-1.6v.9h4.1Zm4.9,0l2.3-6.9h0c0-.1-.9-.1-.9-.1l-2,6h-.4s-2-6-2-6h-1,0c0,.1,2.3,7,2.3,7h1.8Zm8.4,0v-.9h-4.1s0-2.1,0-2.1h3.6v-.9h-3.6s0-2.1,0-2.1h4.1v-.9h-5v7h5Zm6.9.1c1.7,0,2.7-.9,2.7-2.2s-.8-1.6-2.1-1.8h-.8c-1-.3-1.4-.5-1.4-1.1s.7-1.3,1.6-1.3,1.9.7,1.9,1.8h.9c0-1.8-1.5-2.7-2.8-2.7s-2.6,1.1-2.6,2.1.7,1.6,2.2,1.8h.8c1,.3,1.4.6,1.4,1.1s-.7,1.3-1.7,1.3c-1.1,0-1.9-.7-1.9-1.8h-.9c0,1.8,1.4,2.7,2.8,2.7Zm5-.1v-3.1s.5,0,.5,0l3.1,3.1h1.2,0c0-.1-3.5-3.6-3.5-3.6l3.4-3.3h0c0-.1-1.2-.1-1.2-.1l-3,2.9h-.5s0-2.9,0-2.9h-.9v7h.9Zm9.8,0v-.9h-1.6s0-5.1,0-5.1h1.6v-.9h-4.1v.9h1.6s0,5.1,0,5.1h-1.6v.9h4.1Zm2.5,0v-5.6s.3,0,.3,0l3.4,5.6h1.4v-7h-.9v5.6s-.3,0-.3,0l-3.4-5.6h-1.4v7h.9Zm12.9,0v-6.1s2.5,0,2.5,0v-.9h-5.9v.9h2.5s0,6.1,0,6.1h1Zm6.9,0v-2.7s2.7-4.2,2.7-4.2v-.2h-1s-2.1,3.2-2.1,3.2h-.2s-2-3.2-2-3.2h-1v.2s2.7,4.2,2.7,4.2v2.7h1Zm4.8,0v-2.9s2.8,0,2.8,0c1.4,0,2-.9,2-2h0c0-1.2-.7-2.1-2-2.1h-3.7v7h.9Zm0-6.1h2.7c.7,0,1.2.4,1.2,1.2h0c0,.8-.5,1.2-1.2,1.2h-2.7s0-2.4,0-2.4Zm11,6.1v-.9h-4.1s0-2.1,0-2.1h3.6v-.9h-3.6s0-2.1,0-2.1h4.1v-.9h-5v7h5Zm3.9.1c1.7,0,2.7-.9,2.7-2.2s-.8-1.6-2.1-1.8h-.8c-1-.3-1.4-.5-1.4-1.1s.7-1.3,1.6-1.3,1.8.7,1.8,1.8h.9c0-1.8-1.5-2.7-2.8-2.7s-2.6,1.1-2.6,2.1.7,1.6,2.2,1.8h.8c1,.3,1.4.6,1.4,1.1s-.7,1.3-1.7,1.3c-1.1,0-1.9-.7-1.9-1.8h-.9c0,1.8,1.4,2.7,2.9,2.7Zm8-.1v-2.9s2.8,0,2.8,0c1.3,0,2-.9,2-2h0c0-1.2-.7-2.1-2-2.1h-3.7v7h.9Zm0-6.1h2.7c.7,0,1.2.4,1.2,1.2h0c0,.8-.5,1.2-1.2,1.2h-2.7s0-2.4,0-2.4Zm7,6.1v-2.9s2.4,0,2.4,0c.5,0,1,.2,1.1,1v.7c.2.6.2.9.4,1.2h1,0c-.1-.4-.2-.6-.3-1.2v-.9c-.2-.6-.4-.9-.8-1.1h0c.7-.4,1.1-1.1,1.1-1.8h0c0-1.1-.7-2-2-2h-3.7v7h.9Zm0-6.1h2.7c.7,0,1.2.4,1.2,1.2h0c0,.7-.5,1.1-1.2,1.1h-2.7s0-2.3,0-2.3Zm9.2,6.2c1.9,0,3.3-1.5,3.3-3.6h0c0-2.2-1.4-3.6-3.3-3.6-1.9,0-3.3,1.5-3.3,3.6h0c0,2.2,1.4,3.6,3.3,3.6Zm0-.9c-1.3,0-2.3-1.1-2.3-2.7h0c0-1.6,1-2.7,2.3-2.7,1.3,0,2.3,1.1,2.3,2.7h0c0,1.6-1,2.7-2.3,2.7Zm7.8.8l2.3-6.9h0c0-.1-.9-.1-.9-.1l-2,6h-.4s-2-6-2-6h-.9,0c0,.1,2.3,7,2.3,7h1.8Zm7.3,0v-.9h-1.6s0-5.1,0-5.1h1.6v-.9h-4.1v.9h1.6s0,5.1,0,5.1h-1.6v.9h4.1Zm4.4,0c1.9,0,3.2-1.4,3.2-3.5h0c0-2.1-1.3-3.5-3.2-3.5h-2.9v7h2.9Zm-2-6.1h1.9c1.4,0,2.3,1,2.3,2.5h0c0,1.6-1,2.6-2.3,2.6h-1.9s0-5.1,0-5.1Zm11.6,6.1v-.9h-4.1s0-2.1,0-2.1h3.6v-.9h-3.6s0-2.1,0-2.1h4.1v-.9h-5v7h5Zm7.4.1c1.6,0,2.9-1.1,3.2-2.8h-1c-.2,1.1-1.1,1.8-2.2,1.8-1.3,0-2.3-1.1-2.3-2.7h0c0-1.6,1-2.7,2.3-2.7s2,.7,2.2,1.8h1c-.3-1.7-1.6-2.8-3.2-2.8s-3.3,1.5-3.3,3.6h0c0,2.2,1.4,3.6,3.3,3.6Zm6.1-7.1l-2.4,6.9h0c0,.1.9.1.9.1l.7-2h3.3s.7,2,.7,2h.9,0c0-.1-2.4-7-2.4-7h-1.7Zm.6.9h.4s1.1,3.2,1.1,3.2h-2.6s1.1-3.2,1.1-3.2Zm5.6,6.1v-2.9s2.4,0,2.4,0c.5,0,1,.2,1.1,1v.7c.1.6.2.9.4,1.2h1,0c-.1-.4-.2-.6-.3-1.2v-.9c-.1-.6-.4-.9-.8-1.1h0c.7-.4,1.1-1.1,1.1-1.8h0c0-1.1-.7-2-2-2h-3.7v7h.9Zm0-6.1h2.7c.7,0,1.2.4,1.2,1.2h0c0,.7-.5,1.1-1.2,1.1h-2.7s0-2.3,0-2.3Zm11.3,6.1v-.9h-4.1s0-2.1,0-2.1h3.6v-.9h-3.6s0-2.1,0-2.1h4.1v-.9h-5v7h5Zm5.5,0v-3.1s3.5,0,3.5,0v-.9h-3.5s0-2.1,0-2.1h4v-.9h-4.9v7h.9Zm8.1.1c1.9,0,3.3-1.5,3.3-3.6h0c0-2.2-1.4-3.6-3.3-3.6s-3.3,1.5-3.3,3.6h0c0,2.2,1.4,3.6,3.3,3.6Zm0-.9c-1.3,0-2.3-1.1-2.3-2.7h0c0-1.6,1-2.7,2.3-2.7s2.3,1.1,2.3,2.7h0c0,1.6-1,2.7-2.3,2.7Zm5.6.8v-2.9s2.4,0,2.4,0c.5,0,1,.2,1.1,1v.7c.2.6.2.9.4,1.2h1,0c-.1-.4-.2-.6-.3-1.2v-.9c-.2-.6-.4-.9-.8-1.1h0c.7-.4,1.1-1.1,1.1-1.8h0c0-1.1-.7-2-2-2h-3.7v7h.9Zm0-6.1h2.7c.7,0,1.2.4,1.2,1.2h0c0,.7-.5,1.1-1.2,1.1h-2.7s0-2.3,0-2.3Zm11.6,6.2c1.7,0,2.7-.9,2.7-2.2s-.8-1.6-2.2-1.8h-.8c-1-.3-1.4-.5-1.4-1.1s.7-1.3,1.6-1.3c1,0,1.9.7,1.9,1.8h.9c0-1.8-1.5-2.7-2.8-2.7s-2.6,1.1-2.6,2.1.7,1.6,2.2,1.8h.8c1,.3,1.4.6,1.4,1.1s-.7,1.3-1.7,1.3-1.9-.7-1.9-1.8h-.9c0,1.8,1.4,2.7,2.9,2.7Zm7.1,0c1.6,0,2.9-1.1,3.2-2.8h-1c-.2,1.1-1.1,1.8-2.2,1.8-1.3,0-2.3-1.1-2.3-2.7h0c0-1.6,1-2.7,2.3-2.7,1.1,0,2,.7,2.2,1.8h1c-.3-1.7-1.6-2.8-3.2-2.8-1.9,0-3.3,1.5-3.3,3.6h0c0,2.2,1.4,3.6,3.3,3.6Zm6.1-7.1l-2.5,6.9h0c0,.1.9.1.9.1l.7-2h3.3s.7,2,.7,2h.9,0c0-.1-2.4-7-2.4-7h-1.7Zm.6.9h.4s1.1,3.2,1.1,3.2h-2.6s1.1-3.2,1.1-3.2Zm9.6,6.1v-.9h-4s0-6.1,0-6.1h-.9v7h4.9Zm2.2,0v-2.9s2.8,0,2.8,0c1.4,0,2-.9,2-2h0c0-1.2-.7-2.1-2-2.1h-3.7v7h.9Zm0-6.1h2.7c.7,0,1.2.4,1.2,1.2h0c0,.8-.5,1.2-1.2,1.2h-2.7s0-2.4,0-2.4ZM1.5,37.1v-2.9s2.8,0,2.8,0c1.3,0,2-.9,2-2h0c0-1.2-.7-2.1-2-2.1H.6v7h.9Zm0-6.1h2.7c.7,0,1.2.4,1.2,1.2h0c0,.8-.5,1.2-1.2,1.2H1.5s0-2.4,0-2.4Zm7,6.1v-2.9s2.4,0,2.4,0c.5,0,1,.2,1.1,1v.7c.1.6.2.9.4,1.2h1,0c-.1-.4-.2-.6-.3-1.2v-.8c-.2-.6-.4-.9-.8-1.1h0c.7-.4,1.1-1.1,1.1-1.8h0c0-1.1-.7-2-2-2h-3.7v7h.9Zm0-6.1h2.7c.7,0,1.2.4,1.2,1.2h0c0,.7-.5,1.1-1.2,1.1h-2.7s0-2.3,0-2.3Zm9.2,6.2c1.9,0,3.3-1.5,3.3-3.6h0c0-2.2-1.4-3.6-3.3-3.6s-3.3,1.5-3.3,3.6h0c0,2.2,1.4,3.7,3.3,3.7Zm0-.9c-1.3,0-2.3-1.1-2.3-2.7h0c0-1.6,1-2.7,2.3-2.7s2.3,1.1,2.3,2.7h0c0,1.6-1,2.7-2.3,2.7Zm8.4.8c1.4,0,2-.8,2-1.9h0c0-.8-.3-1.4-1.1-1.7h0c.6-.4,1-.9,1-1.6h0c0-1-.7-1.9-2-1.9h-3.6v7h3.7Zm-2.8-6.1h2.6c.7,0,1.2.4,1.2,1.1h0c0,.6-.5,1-1.2,1h-2.6s0-2.1,0-2.1Zm0,3h2.7c.7,0,1.2.4,1.2,1.1h0c0,.7-.5,1.1-1.2,1.1h-2.7s0-2.2,0-2.2Zm11.1,3.1v-.9h-4s0-6.1,0-6.1h-.9v7h4.9Zm6.3,0v-.9h-4.1s0-2.1,0-2.1h3.6v-.9h-3.6s0-2.1,0-2.1h4.1v-.9h-5v7h5Zm2.5,0v-5.4s.3,0,.3,0l1.9,4.2h1s1.9-4.2,1.9-4.2h.3s0,5.4,0,5.4h.9v-7h-1.5s-2,4.4-2,4.4h-.3s-2-4.4-2-4.4h-1.5v7h.9Zm10.4.1c1.7,0,2.7-.9,2.7-2.2s-.8-1.6-2.2-1.8l-.8-.2c-1-.2-1.4-.4-1.4-1s.7-1.3,1.6-1.3,1.8.7,1.8,1.8h.9c0-1.8-1.5-2.7-2.8-2.7s-2.6,1.1-2.6,2.2.7,1.6,2.2,1.9h.8c1,.3,1.4.6,1.4,1.1s-.7,1.3-1.7,1.3-1.9-.7-1.9-1.8h-.9c0,1.8,1.4,2.7,2.9,2.7Zm9-7.1l-2.4,6.9h0c0,.1,1,.1,1,.1l.7-2h3.3s.7,2,.7,2h.9,0c0-.1-2.4-7-2.4-7h-1.7Zm.7.9h.4s1.1,3.2,1.1,3.2h-2.6s1.1-3.2,1.1-3.2Zm5.6,6.1v-5.6s.3,0,.3,0l3.4,5.6h1.4v-7h-.9v5.6s-.3,0-.3,0l-3.4-5.6h-1.4v7h.9Zm9.9,0c1.9,0,3.2-1.4,3.2-3.5h0c0-2.1-1.3-3.5-3.2-3.5h-2.9v7h2.9Zm-2-6.1h1.9c1.4,0,2.3,1,2.3,2.5h0c0,1.6-1,2.6-2.3,2.6h-1.9s0-5.1,0-5.1Zm12.4,6.2c1.6,0,2.9-1.1,3.2-2.8h-1c-.2,1.1-1.1,1.8-2.2,1.8-1.3,0-2.3-1.1-2.3-2.7h0c0-1.6,1-2.7,2.3-2.7s2,.7,2.2,1.8h1c-.3-1.7-1.6-2.8-3.2-2.8s-3.3,1.5-3.3,3.6h0c0,2.2,1.4,3.7,3.3,3.7Zm5.5-.1v-2.9s2.4,0,2.4,0c.5,0,1,.2,1.1,1v.7c.2.6.2.9.4,1.2h1,0c-.1-.4-.2-.6-.3-1.2v-.8c-.2-.6-.4-.9-.8-1.1h0c.7-.4,1.1-1.1,1.1-1.8h0c0-1.1-.7-2-2-2h-3.7v7h.9Zm0-6.1h2.7c.7,0,1.2.4,1.2,1.2h0c0,.7-.5,1.1-1.2,1.1h-2.7s0-2.3,0-2.3Zm11.3,6.1v-.9h-4.1s0-2.1,0-2.1h3.6v-.9h-3.6s0-2.1,0-2.1h4.1v-.9h-5v7h5Zm3.5-7l-2.5,6.9h0c0,.1,1,.1,1,.1l.7-2h3.3s.7,2,.7,2h.9,0c0-.1-2.4-7-2.4-7h-1.7Zm.6.9h.4s1.1,3.2,1.1,3.2h-2.7s1.1-3.2,1.1-3.2Zm6.7,6.1v-6.1s2.5,0,2.5,0v-.9h-5.9v.9h2.5s0,6.1,0,6.1h1Zm8.7,0v-.9h-4.1s0-2.1,0-2.1h3.6v-.9h-3.6s0-2.1,0-2.1h4.1v-.9h-5v7h5Zm6.4-7l-2.4,6.9h0c0,.1.9.1.9.1l.7-2h3.3s.7,2,.7,2h.9,0c0-.1-2.4-7-2.4-7h-1.7Zm.6.9h.4s1.1,3.2,1.1,3.2h-2.7s1.1-3.2,1.1-3.2Zm8.6,6.1v-3.1s3.5,0,3.5,0v-.9h-3.5s0-2.1,0-2.1h4v-.9h-4.9v7h.9Zm8.1.1c1.9,0,3.3-1.5,3.3-3.6h0c0-2.2-1.4-3.6-3.3-3.6s-3.3,1.5-3.3,3.6h0c0,2.2,1.4,3.7,3.3,3.7Zm0-.9c-1.3,0-2.3-1.1-2.3-2.7h0c0-1.6,1-2.7,2.3-2.7s2.3,1.1,2.3,2.7h0c0,1.6-1,2.7-2.3,2.7Zm7.5.9c1.7,0,2.9-1,2.9-2.7v-4.4h-.9v4.4c0,1.1-.8,1.8-2,1.8s-2-.7-2-1.8v-4.4h-.9v4.4c0,1.7,1.3,2.7,2.9,2.7Zm5.5-.1v-5.6s.3,0,.3,0l3.4,5.6h1.4v-7h-.9v5.6s-.3,0-.3,0l-3.4-5.6h-1.4v7h.9Zm9.9,0c1.9,0,3.2-1.4,3.2-3.5h0c0-2.1-1.3-3.5-3.2-3.5h-2.9v7h2.9Zm-2-6.1h1.9c1.4,0,2.3,1,2.3,2.5h0c0,1.6-1,2.6-2.3,2.6h-1.9s0-5.1,0-5.1Zm8.1-.9l-2.4,6.9h0c0,.1.9.1.9.1l.7-2h3.3s.7,2,.7,2h.9,0c0-.1-2.4-7-2.4-7h-1.7Zm.6.9h.4s1.1,3.2,1.1,3.2h-2.6s1.1-3.2,1.1-3.2Zm6.7,6.1v-6.1s2.5,0,2.5,0v-.9h-5.9v.9h2.5s0,6.1,0,6.1h.9Zm7.6,0v-.9h-1.6s0-5.1,0-5.1h1.6v-.9h-4.1v.9h1.6s0,5.1,0,5.1h-1.6v.9h4.1Zm4.1.1c1.9,0,3.3-1.5,3.3-3.6h0c0-2.2-1.4-3.6-3.3-3.6s-3.3,1.5-3.3,3.6h0c0,2.2,1.4,3.7,3.3,3.7Zm0-.9c-1.3,0-2.3-1.1-2.3-2.7h0c0-1.6,1-2.7,2.3-2.7s2.3,1.1,2.3,2.7h0c0,1.6-1,2.7-2.3,2.7Zm5.6.8v-5.6s.3,0,.3,0l3.4,5.6h1.4v-7h-.9v5.6s-.3,0-.3,0l-3.4-5.6h-1.4v7h.9Zm12.9,0v-6.1s2.5,0,2.5,0v-.9h-5.9v.9h2.5s0,6.1,0,6.1h.9Zm4.7,0v-3s4.1,0,4.1,0v3h.9v-7h-.9v3s-4.1,0-4.1,0v-3h-.9v7h.9Zm8.7-7l-2.4,6.9h0c0,.1.9.1.9.1l.7-2h3.3s.7,2,.7,2h.9,0c0-.1-2.4-7-2.4-7h-1.7Zm.6.9h.4s1.1,3.2,1.1,3.2h-2.6s1.1-3.2,1.1-3.2Zm6.7,6.1v-6.1s2.5,0,2.5,0v-.9h-5.9v.9h2.5s0,6.1,0,6.1h.9Zm11.7,0v-.9h-4s0-6.1,0-6.1h-.9v7h4.9Zm6.3,0v-.9h-4.1s0-2.1,0-2.1h3.6v-.9h-3.6s0-2.1,0-2.1h4.1v-.9h-5v7h5Zm3.5-7l-2.5,6.9h0c0,.1,1,.1,1,.1l.7-2h3.3s.7,2,.7,2h.9,0c0-.1-2.4-7-2.4-7h-1.7Zm.6.9h.4s1.1,3.2,1.1,3.2h-2.6s1.1-3.2,1.1-3.2Zm7.6,6.1c1.9,0,3.2-1.4,3.2-3.5h0c0-2.1-1.3-3.5-3.2-3.5h-2.9v7h2.9Zm-2-6.1h1.9c1.4,0,2.3,1,2.3,2.5h0c0,1.6-1,2.6-2.3,2.6h-1.9s0-5.1,0-5.1Zm9,6.2c1.7,0,2.7-.9,2.7-2.2s-.8-1.6-2.1-1.8l-.8-.2c-1-.2-1.4-.4-1.4-1s.7-1.3,1.6-1.3,1.9.7,1.9,1.8h.9c0-1.8-1.5-2.7-2.8-2.7s-2.6,1.1-2.6,2.2.7,1.6,2.2,1.9h.8c1,.3,1.4.6,1.4,1.1s-.7,1.3-1.7,1.3c-1.1,0-1.9-.7-1.9-1.8h-.9c0,1.8,1.4,2.7,2.9,2.7Zm10-.1v-6.1s2.5,0,2.5,0v-.9h-5.9v.9h2.5s0,6.1,0,6.1h.9Zm6.2.1c1.9,0,3.3-1.5,3.3-3.6h0c0-2.2-1.4-3.6-3.3-3.6-1.9,0-3.3,1.5-3.3,3.6h0c0,2.2,1.4,3.7,3.3,3.7Zm0-.9c-1.3,0-2.3-1.1-2.3-2.7h0c0-1.6,1-2.7,2.3-2.7,1.3,0,2.3,1.1,2.3,2.7h0c0,1.6-1,2.7-2.3,2.7ZM6.6,52.1v-3.8h-3.3v.9h2.4s0,2,0,2h-2.2c-1.3,0-2.3-1.1-2.3-2.6h0c0-1.6,1-2.7,2.3-2.7,1,0,1.8.6,2.1,1.6h1c-.4-1.6-1.6-2.5-3.2-2.5s-3.3,1.5-3.3,3.6h0c0,2.1,1.4,3.5,3.2,3.5h3.2Zm4.5.1c1.9,0,3.3-1.5,3.3-3.6h0c0-2.2-1.4-3.6-3.3-3.6s-3.3,1.5-3.3,3.6h0c0,2.2,1.4,3.7,3.3,3.7Zm0-.9c-1.3,0-2.3-1.1-2.3-2.7h0c0-1.6,1-2.7,2.3-2.7s2.3,1.1,2.3,2.7h0c0,1.6-1,2.7-2.3,2.7Zm5.6.8v-2.9s2.4,0,2.4,0c.5,0,1,.2,1.1,1v.7c.2.6.2.9.4,1.2h1,0c-.1-.4-.2-.6-.3-1.2v-.8c-.2-.6-.4-.9-.8-1.1h0c.7-.4,1.1-1.1,1.1-1.8h0c0-1.1-.7-2-2-2h-3.7v7h.9Zm0-6.1h2.7c.7,0,1.2.4,1.2,1.2h0c0,.7-.5,1.1-1.2,1.1h-2.7s0-2.3,0-2.3Zm12.3,6.1v-3.8h-3.3v.9h2.4s0,2,0,2h-2.2c-1.3,0-2.3-1.1-2.3-2.6h0c0-1.6,1-2.7,2.3-2.7s1.8.6,2.1,1.6h1c-.4-1.6-1.6-2.5-3.2-2.5s-3.3,1.5-3.3,3.6h0c0,2.1,1.4,3.5,3.2,3.5h3.2Zm6.6,0v-.9h-4.1s0-2.1,0-2.1h3.6v-.9h-3.6s0-2.1,0-2.1h4.1v-.9h-5v7h5Zm4.4.1c1.9,0,3.3-1.5,3.3-3.6h0c0-2.2-1.4-3.6-3.3-3.6s-3.3,1.5-3.3,3.6h0c0,2.2,1.4,3.7,3.3,3.7Zm0-.9c-1.3,0-2.3-1.1-2.3-2.7h0c0-1.6,1-2.7,2.3-2.7s2.3,1.1,2.3,2.7h0c0,1.6-1,2.7-2.3,2.7Zm7.5.9c1.7,0,2.9-1,2.9-2.7v-4.4h-.9v4.4c0,1.1-.8,1.8-2,1.8s-2-.7-2-1.8v-4.4h-.9v4.4c0,1.7,1.3,2.7,2.9,2.7Zm7,0c1.7,0,2.7-.9,2.7-2.2s-.8-1.6-2.1-1.8l-.8-.2c-1-.2-1.4-.4-1.4-1s.7-1.3,1.6-1.3,1.9.7,1.9,1.8h.9c0-1.8-1.5-2.7-2.8-2.7-1.6,0-2.6,1.1-2.6,2.1s.7,1.6,2.2,1.9h.8c1,.3,1.4.6,1.4,1.1s-.7,1.3-1.7,1.3-1.9-.7-1.9-1.8h-.9c0,1.8,1.4,2.7,2.8,2.7Zm8-.1v-3s4.1,0,4.1,0v3h.9v-7h-.9v3s-4.1,0-4.1,0v-3h-.9v7h.9Zm8.7-7l-2.4,6.9h0c0,.1.9.1.9.1l.7-2h3.3s.7,2,.7,2h.9,0c0-.1-2.4-7-2.4-7h-1.7Zm.7.9h.4s1.1,3.2,1.1,3.2h-2.6s1.1-3.2,1.1-3.2Zm8.5,6.1v-.9h-1.6s0-5.2,0-5.2h1.6v-.9h-4.1v.9h1.6s0,5.2,0,5.2h-1.6v.9h4.1Zm2.5,0v-2.9s2.4,0,2.4,0c.5,0,1,.2,1.1,1v.7c.2.6.2.9.4,1.2h1,0c-.1-.4-.2-.6-.3-1.2v-.8c-.2-.6-.4-.9-.8-1.1h0c.7-.4,1.1-1.1,1.1-1.8h0c0-1.1-.7-2-2-2h-3.7v7h.9Zm0-6.1h2.7c.7,0,1.2.4,1.2,1.2h0c0,.7-.5,1.1-1.2,1.1h-2.7s0-2.3,0-2.3Zm7.2,6.1v-1.2h-1v1.3h1Zm5.7,0v-3.1s3.5,0,3.5,0v-.9h-3.5s0-2.1,0-2.1h4v-.9h-4.9v7h.9Zm8.1.1c1.9,0,3.3-1.5,3.3-3.6h0c0-2.2-1.4-3.6-3.3-3.6s-3.3,1.5-3.3,3.6h0c0,2.2,1.4,3.7,3.3,3.7Zm0-.9c-1.3,0-2.3-1.1-2.3-2.7h0c0-1.6,1-2.7,2.3-2.7s2.3,1.1,2.3,2.7h0c0,1.6-1,2.7-2.3,2.7Zm5.6.8v-2.9s2.4,0,2.4,0c.5,0,1,.2,1.1,1v.7c.2.6.2.9.4,1.2h1,0c-.1-.4-.2-.6-.3-1.2v-.8c-.2-.6-.4-.9-.8-1.1h0c.7-.4,1.1-1.1,1.1-1.8h0c0-1.1-.7-2-2-2h-3.7v7h.9Zm0-6.1h2.7c.7,0,1.2.4,1.2,1.2h0c0,.7-.5,1.1-1.2,1.1h-2.7s0-2.3,0-2.3Zm7.2,6.1v-5.4s.3,0,.3,0l1.9,4.2h1s1.9-4.2,1.9-4.2h.3s0,5.4,0,5.4h.9v-7h-1.5s-2,4.4-2,4.4h-.3s-2-4.4-2-4.4h-1.5v7h.9Zm10.8.1c1.6,0,2.9-1,2.9-2.7v-4.4h-.9v4.4c0,1.1-.8,1.8-2,1.8s-2-.7-2-1.8v-4.4h-.9v4.4c0,1.7,1.3,2.7,2.9,2.7Zm9.5-.1v-.9h-4s0-6.1,0-6.1h-.9v7h4.9Zm3.3-7l-2.4,6.9h0c0,.1.9.1.9.1l.7-2h3.3s.7,2,.7,2h.9,0c0-.1-2.4-7-2.4-7h-1.7Zm.7.9h.4s1.1,3.2,1.1,3.2h-2.6s1.1-3.2,1.1-3.2Zm6.7,6.1v-6.1s2.5,0,2.5,0v-.9h-5.9v.9h2.5s0,6.1,0,6.1h.9Zm8.7,0v-.9h-4.1s0-2.1,0-2.1h3.6v-.9h-3.6s0-2.1,0-2.1h4.1v-.9h-5v7h5Zm4.5,0c1.9,0,3.2-1.4,3.2-3.5h0c0-2.1-1.3-3.5-3.2-3.5h-2.9v7h2.9Zm-2-6.1h1.9c1.4,0,2.3,1,2.3,2.5h0c0,1.6-1,2.6-2.3,2.6h-1.9s0-5.1,0-5.1Zm12.3,6.1l1.1-5.5h.2s1,5.5,1,5.5h1.7s1.5-6.9,1.5-6.9h0c0-.1-.9-.1-.9-.1l-1.3,5.8h-.4s-1.1-5.8-1.1-5.8h-1.5s-1.1,5.8-1.1,5.8h-.4s-1.3-5.8-1.3-5.8h-.9,0c0,.1,1.5,7,1.5,7h1.7Zm10.7,0v-.9h-1.6s0-5.2,0-5.2h1.6v-.9h-4.1v.9h1.6s0,5.2,0,5.2h-1.6v.9h4.1Zm4.5,0v-6.1s2.5,0,2.5,0v-.9h-5.9v.9h2.5s0,6.1,0,6.1h.9Zm4.7,0v-3s4.1,0,4.1,0v3h.9v-7h-.9v3s-4.1,0-4.1,0v-3h-.9v7h.9Zm12.8,0v-6.1s2.5,0,2.5,0v-.9h-5.9v.9h2.5s0,6.1,0,6.1h.9Zm6.6,0l1-5.5h.2s1,5.5,1,5.5h1.7s1.5-6.9,1.5-6.9h0c0-.1-.9-.1-.9-.1l-1.3,5.8h-.4s-1.1-5.8-1.1-5.8h-1.5s-1.1,5.8-1.1,5.8h-.4s-1.3-5.8-1.3-5.8h-.9,0c0,.1,1.5,7,1.5,7h1.7Zm9.6.1c1.9,0,3.3-1.5,3.3-3.6h0c0-2.2-1.4-3.6-3.3-3.6-1.9,0-3.3,1.5-3.3,3.6h0c0,2.2,1.4,3.7,3.3,3.7Zm0-.9c-1.3,0-2.3-1.1-2.3-2.7h0c0-1.6,1-2.7,2.3-2.7s2.3,1.1,2.3,2.7h0c0,1.6-1,2.7-2.3,2.7Zm10.5.9c1.9,0,3.3-1.5,3.3-3.6h0c0-2.2-1.4-3.6-3.3-3.6s-3.3,1.5-3.3,3.6h0c0,2.2,1.4,3.7,3.3,3.7Zm0-.9c-1.3,0-2.3-1.1-2.3-2.7h0c0-1.6,1-2.7,2.3-2.7,1.3,0,2.3,1.1,2.3,2.7h0c0,1.6-1,2.7-2.3,2.7Zm5.6.8v-2.9s2.4,0,2.4,0c.5,0,1,.2,1.1,1v.7c.1.6.2.9.4,1.2h1,0c-.1-.4-.2-.6-.3-1.2v-.8c-.1-.6-.4-.9-.8-1.1h0c.7-.4,1.1-1.1,1.1-1.8h0c0-1.1-.7-2-2-2h-3.7v7h.9Zm0-6.1h2.7c.7,0,1.2.4,1.2,1.2h0c0,.7-.5,1.1-1.2,1.1h-2.7s0-2.3,0-2.3Zm10.1,6.1v-.9h-1.6s0-5.2,0-5.2h1.6v-.9h-4.1v.9h1.6s0,5.2,0,5.2h-1.6v.9h4.1Zm7.3,0v-3.8h-3.3v.9h2.3s0,2,0,2h-2.2c-1.3,0-2.3-1.1-2.3-2.6h0c0-1.6,1-2.7,2.3-2.7s1.8.6,2.1,1.6h1c-.4-1.6-1.6-2.5-3.2-2.5-1.9,0-3.3,1.5-3.3,3.6h0c0,2.1,1.4,3.5,3.2,3.5h3.2Zm5.4,0v-.9h-1.6s0-5.2,0-5.2h1.6v-.9h-4.1v.9h1.6s0,5.2,0,5.2h-1.6v.9h4.1Zm2.5,0v-5.6s.3,0,.3,0l3.4,5.6h1.4v-7h-.9v5.6s-.3,0-.3,0l-3.4-5.6h-1.4v7h.9Zm8.8-7l-2.5,6.9h0c0,.1,1,.1,1,.1l.7-2h3.3s.7,2,.7,2h.9,0c0-.1-2.4-7-2.4-7h-1.7Zm.6.9h.4s1.1,3.2,1.1,3.2h-2.6s1.1-3.2,1.1-3.2Zm9.6,6.1v-.9h-4s0-6.1,0-6.1h-.9v7h4.9Zm7.2,0c1.9,0,3.2-1.4,3.2-3.5h0c0-2.1-1.3-3.5-3.2-3.5h-2.9v7h2.9Zm-2-6.1h1.9c1.4,0,2.3,1,2.3,2.5h0c0,1.6-1,2.6-2.3,2.6h-1.9s0-5.1,0-5.1Zm11.6,6.1v-.9h-4.1s0-2.1,0-2.1h3.6v-.9h-3.6s0-2.1,0-2.1h4.1v-.9h-5v7h5Zm2.5,0v-5.4s.3,0,.3,0l1.9,4.2h1s1.9-4.2,1.9-4.2h.3s0,5.4,0,5.4h.9v-7h-1.5s-2,4.4-2,4.4h-.3s-2-4.4-2-4.4h-1.5v7h.9Zm11.8,0v-.9h-1.6s0-5.2,0-5.2h1.6v-.9h-4.1v.9h1.6s0,5.2,0,5.2h-1.6v.9h4.1ZM4.4,67.1v-.9h-1.6s0-5.2,0-5.2h1.6v-.9H.3v.9h1.6s0,5.2,0,5.2H.3v.9h4.1Zm2.5,0v-5.6s.3,0,.3,0l3.4,5.6h1.4v-7h-.9v5.6s-.3,0-.3,0l-3.4-5.6h-1.4v7h.9Zm13,0v-3.8h-3.3v.9h2.4s0,2,0,2h-2.2c-1.3,0-2.3-1.1-2.3-2.6h0c0-1.6,1-2.7,2.3-2.7s1.8.6,2.1,1.6h1c-.4-1.6-1.6-2.5-3.2-2.5s-3.3,1.5-3.3,3.6h0c0,2.1,1.4,3.6,3.2,3.6h3.2Zm2.6,0v-2.9s2.4,0,2.4,0c.5,0,1,.2,1.1,1v.7c.2.6.2.9.4,1.2h1,0c-.1-.4-.2-.6-.3-1.2v-.8c-.2-.6-.4-.9-.8-1.1h0c.7-.4,1.1-1.1,1.1-1.8h0c0-1.1-.7-2-2-2h-3.7v7h.9Zm0-6.1h2.7c.7,0,1.2.4,1.2,1.2h0c0,.7-.5,1.1-1.2,1.1h-2.7s0-2.3,0-2.3Zm11.3,6.1v-.9h-4.1s0-2.1,0-2.1h3.6v-.9h-3.6s0-2.1,0-2.1h4.1v-.9h-5v7h5Zm4.5,0c1.9,0,3.2-1.4,3.2-3.5h0c0-2.1-1.3-3.5-3.2-3.5h-2.9v7h2.9Zm-2-6.1h1.9c1.4,0,2.3,1,2.3,2.5h0c0,1.6-1,2.6-2.3,2.6h-1.9s0-5.1,0-5.1Zm10.1,6.1v-.9h-1.6s0-5.2,0-5.2h1.6v-.9h-4.1v.9h1.6s0,5.2,0,5.2h-1.6v.9h4.1Zm6.5,0v-.9h-4.1s0-2.1,0-2.1h3.6v-.9h-3.6s0-2.1,0-2.1h4.1v-.9h-5v7h5Zm2.5,0v-5.6s.3,0,.3,0l3.4,5.6h1.4v-7h-.9v5.6s-.3,0-.3,0l-3.4-5.6h-1.4v7h.9Zm9.9,0v-6.1s2.5,0,2.5,0v-.9h-5.9v.9h2.5s0,6.1,0,6.1h.9Zm5.9.1c1.7,0,2.7-.9,2.7-2.2s-.8-1.6-2.2-1.8l-.8-.2c-1-.2-1.4-.4-1.4-1s.7-1.3,1.6-1.3,1.8.7,1.8,1.8h.9c0-1.8-1.5-2.7-2.8-2.7-1.6,0-2.6,1.1-2.6,2.1s.7,1.6,2.2,1.9l.8.2c1,.2,1.4.4,1.4,1s-.7,1.3-1.7,1.3-1.9-.7-1.9-1.8h-.9c0,1.8,1.4,2.7,2.8,2.7Zm5-.1v-1.2h-1v1.3h1Z" stroke-width="0"/></svg>