<?xml version="1.0" encoding="UTF-8"?><svg xmlns="http://www.w3.org/2000/svg" viewBox="0 0 266 61.7"><path d="m12.3,25.2V3.3h8.9V0H0v3.3h8.9v21.9h3.4Zm28.2,0v-3.3h-5.6V3.3h5.6V0h-14.7v3.3h5.6v18.5h-5.6v3.3h14.7Zm23.9,0v-3.3h-14.3V0h-3.4v25.2h17.6Zm23,0v-3.3h-14.3V0h-3.4v25.2h17.6Zm23.4,0v-3.3h-14.6v-7.7h13v-3.2h-13V3.3h14.6V0h-18v25.2h18Zm17.1,0V3.3h8.9V0h-21.2v3.3h8.9v21.9h3.4ZM10.3,61.7c6.1,0,9.6-3.2,9.6-7.7s-2.7-5.8-7.7-6.7l-3-.5c-3.7-.7-5.2-1.4-5.2-3.5s2.5-4.5,5.9-4.5,6.7,2.6,6.7,6.3h3.3c0-6.4-5.3-9.6-10-9.6S.6,39.3.6,43.2s2.6,5.8,7.8,6.7l3,.5c3.6.6,5.1,1.5,5.1,3.5s-2.6,4.5-6.3,4.5-6.9-2.6-6.9-6.5H0c0,6.3,4.9,9.8,10.3,9.8Zm18.8-.5v-19.5h1l6.7,15h3.6l6.7-15h1v19.5h3.3v-25.2h-5.3l-7.1,15.7h-1.1l-7.1-15.7h-5.3v25.2h3.4Zm36.2-25.2l-8.8,24.8v.4h3.4l2.6-7.2h11.8l2.6,7.2h3.4v-.4l-8.8-24.8h-6.1Zm2.3,3.4h1.4l4.1,11.4h-9.5l4.1-11.4Zm20.9,21.8v-10.5h8.7c1.9,0,3.5.7,3.9,3.7l.3,2.5c.3,2.2.5,3.2,1,4.4h3.5v-.4c-.5-1-.9-1.9-1.1-4l-.3-3.1c-.2-2.1-1.2-3.3-2.7-4v-.3c2.7-1.2,3.9-3.5,3.9-6.2h0c0-4.1-2.4-7.2-7.2-7.2h-13.4v25.2h3.4Zm0-21.9h9.6c2.6,0,4.3,1.5,4.3,4.2h0c0,2.6-1.7,4.1-4.3,4.1h-9.6v-8.2Zm33.2,21.9v-21.9h8.9v-3.3h-21.2v3.3h8.9v21.9h3.4Zm19.3-8.6v-2.9h-9.4v2.9h9.4Zm28.7,8.6v-13.6h-11.7v3.2h8.5v7.1h-8.1c-4.8,0-8.4-3.9-8.4-9.4h0c0-5.7,3.6-9.7,8.4-9.7s6.6,2.2,7.6,5.7h3.7c-1.4-5.7-5.8-9-11.4-9s-11.8,5.3-11.8,12.9h0c0,7.6,5,12.8,11.6,12.8h11.6Zm24.5,0v-3.3h-14.6v-7.7h13v-3.2h-13v-7.7h14.6v-3.3h-18v25.2h18Zm13.2-25.2l-8.8,24.8v.4h3.4l2.6-7.2h11.8l2.6,7.2h3.4v-.4l-8.8-24.8h-6.1Zm2.3,3.4h1.4l4.1,11.4h-9.5l4.1-11.4Zm20.9,21.8v-10.5h8.7c1.9,0,3.5.7,3.9,3.7l.3,2.5c.3,2.2.5,3.2,1,4.4h3.5v-.4c-.5-1-.9-1.9-1.1-4l-.3-3.1c-.2-2.1-1.2-3.3-2.7-4v-.3c2.7-1.2,3.9-3.5,3.9-6.2h0c0-4.1-2.4-7.2-7.2-7.2h-13.4v25.2h3.4Zm0-21.9h9.6c2.6,0,4.3,1.5,4.3,4.2h0c0,2.6-1.7,4.1-4.3,4.1h-9.6v-8.2Z" fill="#fff" stroke-width="0"/></svg>