<?xml version="1.0" encoding="UTF-8"?><svg xmlns="http://www.w3.org/2000/svg" viewBox="0 0 266 26.2"><path d="m10.3,26.2c6.1,0,9.6-3.2,9.6-7.7s-2.7-5.8-7.7-6.7l-3-.5c-3.7-.7-5.2-1.4-5.2-3.5s2.5-4.5,5.9-4.5,6.7,2.6,6.7,6.3h3.3C19.9,3.2,14.6,0,9.9,0S.6,3.8.6,7.7s2.6,5.8,7.8,6.7l3,.5c3.6.6,5.1,1.5,5.1,3.5s-2.6,4.5-6.3,4.5-6.9-2.6-6.9-6.5H0c0,6.3,4.9,9.8,10.3,9.8Zm25.6,0c5.9,0,10.5-3.7,10.5-9.8V.5h-3.4v15.9c0,3.9-2.9,6.4-7.2,6.4s-7.2-2.6-7.2-6.4V.5h-3.4v15.9c0,6,4.6,9.8,10.6,9.8Zm20.7-.5v-10.3h10c4.9,0,7.2-3.2,7.2-7.3h0c0-4.3-2.4-7.6-7.2-7.6h-13.4v25.2h3.4Zm0-21.9h9.6c2.6,0,4.3,1.6,4.3,4.3h0c0,2.7-1.7,4.2-4.3,4.2h-9.6V3.8Zm25.8,21.9v-10.3h10c4.9,0,7.2-3.2,7.2-7.3h0c0-4.3-2.4-7.6-7.2-7.6h-13.4v25.2h3.4Zm0-21.9h9.6c2.6,0,4.3,1.6,4.3,4.3h0c0,2.7-1.7,4.2-4.3,4.2h-9.6V3.8Zm40.1,21.9v-3.3h-14.3V.5h-3.4v25.2h17.6Zm23.4,0v-3.3h-14.6v-7.7h13v-3.2h-13V3.8h14.6V.5h-18v25.2h18Zm9.8,0V6.2h1l6.7,15h3.6l6.7-15h1v19.5h3.3V.5h-5.3l-7.1,15.7h-1.1l-7.1-15.7h-5.3v25.2h3.4Zm47.6,0v-3.3h-14.6v-7.7h13v-3.2h-13V3.8h14.6V.5h-18v25.2h18Zm9.7,0V5.4h1l12.4,20.3h5.2V.5h-3.3v20.2h-1L214.8.5h-5.2v25.2h3.3Zm36.2,0V3.8h8.9V.5h-21.2v3.3h8.9v21.9h3.4Z" stroke-width="0"/></svg>