<svg viewBox="0 0 155.68 105.28" xmlns="http://www.w3.org/2000/svg"><path d="m1.37 7.14v-5.63h.28l3.44 5.63h1.44v-7h-.92v5.62h-.29l-3.43-5.62h-1.44v7zm10.24.14c1.87 0 3.27-1.49 3.28-3.63v-.02c0-2.14-1.41-3.63-3.28-3.63s-3.28 1.49-3.28 3.63v.02c0 2.14 1.42 3.63 3.28 3.63zm0-.94c-1.34 0-2.32-1.11-2.32-2.69v-.03c0-1.58.98-2.68 2.32-2.68s2.31 1.1 2.31 2.68v.03c0 1.59-.98 2.69-2.31 2.69zm9.38.8v-5.42h.27l1.87 4.16h.99l1.87-4.16h.28v5.42h.93v-7h-1.47l-1.96 4.36h-.3l-1.96-4.36h-1.46v7zm10.25-7-2.45 6.88v.12h.95l.71-1.99h3.27l.71 1.99h.94v-.12l-2.44-6.88zm.65.94h.39l1.13 3.18h-2.65zm7.1 6.06v-6.08h2.48v-.92h-5.9v.92h2.47v6.08zm7.22 0v-6.08h2.48v-.92h-5.9v.92h2.47v6.08zm9.15 0v-.93h-4.06v-2.14h3.6v-.88h-3.6v-2.13h4.06v-.92h-5v7zm2.91 0v-2.93h2.43c.54 0 .98.2 1.08 1.02l.08.69c.07.61.15.88.29 1.22h.97v-.12c-.13-.29-.24-.52-.3-1.1l-.09-.85c-.06-.58-.33-.92-.75-1.12v-.09c.75-.32 1.07-.97 1.07-1.71v-.04c0-1.1-.66-1.97-2.01-1.97h-3.71v7zm0-6.09h2.67c.73 0 1.2.42 1.2 1.16v.02c0 .7-.48 1.11-1.2 1.11h-2.67zm12.78 6.09 1.05-5.52h.23l1.04 5.52h1.67l1.53-6.85v-.15h-.91l-1.28 5.83h-.37l-1.06-5.83h-1.47l-1.07 5.83h-.36l-1.28-5.83h-.91v.15l1.53 6.85zm8.21 0v-3.04h4.09v3.04h.94v-7h-.94v3.04h-4.09v-3.04h-.94v7zm9.07-7-2.45 6.88v.12h.95l.71-1.99h3.27l.71 1.99h.94v-.12l-2.44-6.88h-1.69zm.65.94h.39l1.13 3.18h-2.65zm7.1 6.06v-6.08h2.48v-.92h-5.9v.92h2.47v6.08zm9.47-7-2.45 6.88v.12h.95l.71-1.99h3.27l.71 1.99h.94v-.12l-2.44-6.88h-1.69zm.65.94h.39l1.13 3.18h-2.65zm10.81 6.06v-3.78h-3.26v.88h2.35v1.98h-2.24c-1.34 0-2.33-1.08-2.33-2.6v-.02c0-1.57.99-2.68 2.32-2.68 1.01 0 1.83.6 2.12 1.58l1.04-.02c-.38-1.55-1.6-2.48-3.16-2.48-1.86 0-3.28 1.47-3.28 3.59v.02c0 2.08 1.39 3.53 3.22 3.53zm7.01 0v-.93h-4.06v-2.14h3.6v-.88h-3.6v-2.13h4.06v-.92h-5v7zm9.14 0v-.93h-1.56v-5.15h1.56v-.92h-4.07v.92h1.56v5.15h-1.56v.93zm-129 14c1.35 0 2.01-.84 2.01-1.87v-.04c0-.72-.34-1.33-1.05-1.62v-.08c.63-.28.95-.85.95-1.49v-.04c0-.98-.65-1.86-2.01-1.86h-3.61v7zm-2.77-6.09h2.57c.72 0 1.2.41 1.2 1.07v.03c0 .61-.46 1.01-1.17 1.01h-2.6zm0 2.97h2.67c.73 0 1.2.41 1.2 1.1v.03c0 .68-.47 1.08-1.2 1.08h-2.67zm11.61 3.12v-.93h-4.06v-2.14h3.6v-.88h-3.6v-2.13h4.06v-.92h-5v7zm4.81.14c1.62 0 2.92-1.06 3.19-2.75l-.98-.03c-.24 1.15-1.12 1.84-2.22 1.84-1.33 0-2.31-1.11-2.31-2.69v-.03c0-1.58.98-2.68 2.31-2.68 1.1 0 1.98.68 2.22 1.83l.98-.03c-.27-1.69-1.57-2.74-3.19-2.74-1.86 0-3.28 1.49-3.28 3.63v.02c0 2.14 1.42 3.63 3.28 3.63zm7.96 0c1.87 0 3.27-1.49 3.28-3.63v-.02c0-2.14-1.41-3.63-3.28-3.63s-3.28 1.49-3.28 3.63v.02c0 2.14 1.42 3.63 3.28 3.63zm0-.94c-1.34 0-2.32-1.11-2.32-2.69v-.03c0-1.58.98-2.68 2.32-2.68s2.31 1.1 2.31 2.68v.03c0 1.59-.98 2.69-2.31 2.69zm6.02.8v-5.42h.27l1.87 4.16h.99l1.87-4.16h.28v5.42h.93v-7h-1.47l-1.96 4.36h-.3l-1.96-4.36h-1.46v7zm13.41 0v-.93h-4.06v-2.14h3.6v-.88h-3.6v-2.13h4.06v-.92h-5v7zm2.17 1.57.76-1.66v-1.16h-.98v1.25h.41l-.66 1.46v.11zm7.24-1.57v-5.42h.27l1.87 4.16h.99l1.87-4.16h.28v5.42h.93v-7h-1.47l-1.96 4.36h-.3l-1.96-4.36h-1.46v7zm11.39 0v-2.66l2.69-4.19v-.15h-1.02l-2.05 3.23h-.2l-2.04-3.23h-1.03v.15l2.7 4.19v2.66zm8.61 0v-3.04h4.09v3.04h.94v-7h-.94v3.04h-4.09v-3.04h-.94v7zm9.07-7-2.45 6.88v.12h.95l.71-1.99h3.27l.71 1.99h.94v-.12l-2.44-6.88zm.65.94h.39l1.13 3.18h-2.65zm8.88 6.06v-.93h-1.56v-5.15h1.56v-.92h-4.07v.92h1.56v5.15h-1.56v.93zm2.87 0v-2.93h2.43c.54 0 .98.2 1.08 1.02l.08.69c.07.61.15.88.29 1.22h.97v-.12c-.13-.29-.24-.52-.3-1.1l-.09-.85c-.06-.58-.33-.92-.75-1.12v-.09c.75-.32 1.07-.97 1.07-1.71v-.04c0-1.1-.66-1.97-2.01-1.97h-3.71v7zm0-6.09h2.67c.73 0 1.2.42 1.2 1.16v.02c0 .7-.48 1.11-1.2 1.11h-2.67zm10.97 6.09v-5.42h.27l1.87 4.16h.99l1.87-4.16h.28v5.42h.93v-7h-1.47l-1.96 4.36h-.3l-1.96-4.36h-1.46v7zm10.26-7-2.45 6.88v.12h.95l.71-1.99h3.27l.71 1.99h.94v-.12l-2.44-6.88zm.65.94h.39l1.13 3.18h-2.65zm6.02 6.06v-3.14h.48l3.07 3.14h1.2v-.12l-3.45-3.52 3.41-3.25v-.11h-1.2l-3.04 2.94h-.47v-2.94h-.94v7zm11.4 0v-.93h-4.06v-2.14h3.6v-.88h-3.6v-2.13h4.06v-.92h-5v7zm4.31.14c1.7 0 2.68-.9 2.68-2.15 0-1.04-.75-1.61-2.15-1.85l-.83-.15c-1.04-.19-1.44-.39-1.44-.98 0-.71.7-1.25 1.63-1.25 1.04 0 1.85.73 1.85 1.76l.93-.03c0-1.74-1.46-2.63-2.78-2.63-1.61 0-2.57 1.06-2.57 2.15s.72 1.6 2.17 1.85l.83.15c1.01.18 1.43.41 1.43.97 0 .78-.72 1.26-1.75 1.26-1.1 0-1.92-.73-1.92-1.81l-.93.03c0 1.73 1.37 2.68 2.85 2.68zm-138.3 13.86v-5.42h.27l1.87 4.16h.99l1.87-4.16h.28v5.42h.93v-7h-1.47l-1.96 4.36h-.3l-1.96-4.36h-1.46v7zm13.41 0v-.93h-4.06v-2.14h3.6v-.88h-3.6v-2.13h4.06v-.92h-5v7zm6.27 0v-3.06h3.5v-.89h-3.5v-2.13h3.96v-.92h-4.9v7zm10.68 0v-.93h-4.06v-2.14h3.6v-.88h-3.6v-2.13h4.06v-.92h-5v7zm6.97 0v-.93h-4.06v-2.14h3.6v-.88h-3.6v-2.13h4.06v-.92h-5v7zm6.87 0v-.93h-3.96v-6.07h-.94v7zm10 0v-.93h-3.96v-6.07h-.94v7zm5.55 0v-.93h-1.56v-5.15h1.56v-.92h-4.07v.92h1.56v5.15h-1.56v.93zm2.87 0v-3.14h.48l3.07 3.14h1.2v-.12l-3.45-3.52 3.41-3.25v-.11h-1.2l-3.04 2.94h-.47v-2.94h-.94v7zm11.4 0v-.93h-4.06v-2.14h3.6v-.88h-3.6v-2.13h4.06v-.92h-5v7zm6.27 0v-5.42h.27l1.87 4.16h.99l1.87-4.16h.28v5.42h.93v-7h-1.47l-1.96 4.36h-.3l-1.96-4.36h-1.46v7zm11.39 0v-2.66l2.69-4.19v-.15h-1.02l-2.05 3.23h-.2l-2.04-3.23h-1.03v.15l2.7 4.19v2.66zm6.28.14c1.7 0 2.68-.9 2.68-2.15 0-1.04-.75-1.61-2.15-1.85l-.83-.15c-1.04-.19-1.44-.39-1.44-.98 0-.71.7-1.25 1.63-1.25 1.04 0 1.85.73 1.85 1.76l.93-.03c0-1.74-1.46-2.63-2.78-2.63-1.61 0-2.57 1.06-2.57 2.15s.72 1.6 2.17 1.85l.83.15c1.01.18 1.43.41 1.43.97 0 .78-.72 1.26-1.75 1.26-1.1 0-1.92-.73-1.92-1.81l-.93.03c0 1.73 1.37 2.68 2.85 2.68zm9.49-.14v-.93h-4.06v-2.14h3.6v-.88h-3.6v-2.13h4.06v-.92h-5v7zm6.87 0v-.93h-3.96v-6.07h-.94v7zm2.64 0v-3.06h3.5v-.89h-3.5v-2.13h3.96v-.92h-4.9v7zm6.04 0v-1.25h-.98v1.25zm8.51 0v-6.08h2.48v-.92h-5.9v.92h2.47v6.08zm5.09 0v-3.04h4.09v3.04h.94v-7h-.94v3.04h-4.09v-3.04h-.94v7zm12.23 0v-.93h-4.06v-2.14h3.6v-.88h-3.6v-2.13h4.06v-.92h-5v7zm-146.86 14c1.87 0 3.18-1.4 3.18-3.49v-.02c0-2.1-1.31-3.49-3.18-3.49h-2.91v7zm-1.97-6.06h1.87c1.37 0 2.32 1.01 2.32 2.54v.03c0 1.54-.96 2.55-2.32 2.55h-1.87zm11.96 6.06v-.93h-4.06v-2.14h3.6v-.88h-3.6v-2.13h4.06v-.92h-5v7zm2.91 0v-5.42h.27l1.87 4.16h.99l1.87-4.16h.28v5.42h.93v-7h-1.47l-1.96 4.36h-.3l-1.96-4.36h-1.46v7zm12.22 0v-.93h-1.56v-5.15h1.56v-.92h-4.07v.92h1.56v5.15h-1.56v.93zm8.2 0c1.87 0 3.18-1.4 3.18-3.49v-.02c0-2.1-1.31-3.49-3.18-3.49h-2.91v7zm-1.97-6.06h1.87c1.37 0 2.32 1.01 2.32 2.54v.03c0 1.54-.96 2.55-2.32 2.55h-1.87zm9.92 6.2c1.87 0 3.27-1.49 3.28-3.63v-.02c0-2.14-1.41-3.63-3.28-3.63s-3.28 1.49-3.28 3.63v.02c0 2.14 1.42 3.63 3.28 3.63zm0-.94c-1.34 0-2.32-1.11-2.32-2.69v-.03c0-1.58.98-2.68 2.32-2.68s2.31 1.1 2.31 2.68v.03c0 1.59-.98 2.69-2.31 2.69zm10.83.94c1.7 0 2.68-.9 2.68-2.15 0-1.04-.75-1.61-2.15-1.85l-.83-.15c-1.04-.19-1.44-.39-1.44-.98 0-.71.7-1.25 1.63-1.25 1.04 0 1.85.73 1.85 1.76l.93-.03c0-1.74-1.46-2.63-2.78-2.63-1.61 0-2.57 1.06-2.57 2.15s.72 1.6 2.17 1.85l.83.15c1.01.18 1.43.41 1.43.97 0 .78-.72 1.26-1.75 1.26-1.1 0-1.92-.73-1.92-1.81l-.93.03c0 1.73 1.37 2.68 2.85 2.68zm7.46 0c1.62 0 2.92-1.06 3.19-2.75l-.98-.03c-.24 1.15-1.12 1.84-2.22 1.84-1.33 0-2.31-1.11-2.31-2.69v-.03c0-1.58.98-2.68 2.31-2.68 1.1 0 1.98.68 2.22 1.83l.98-.03c-.27-1.69-1.57-2.74-3.19-2.74-1.86 0-3.28 1.49-3.28 3.63v.02c0 2.14 1.42 3.63 3.28 3.63zm6.53-7.14-2.45 6.88v.12h.95l.71-1.99h3.27l.71 1.99h.94v-.12l-2.44-6.88zm.65.94h.39l1.13 3.18h-2.65zm9.98 6.06v-.93h-3.96v-6.07h-.94v7zm2.64 0v-2.85h2.77c1.35 0 2.01-.9 2.01-2.03v-.04c0-1.16-.66-2.08-2.01-2.08h-3.71v7zm0-6.08h2.67c.73 0 1.2.44 1.2 1.2v.04c0 .72-.47 1.12-1.2 1.12h-2.67zm12.68 6.22c1.62 0 2.92-1.06 3.19-2.75l-.98-.03c-.24 1.15-1.12 1.84-2.22 1.84-1.33 0-2.31-1.11-2.31-2.69v-.03c0-1.58.98-2.68 2.31-2.68 1.1 0 1.98.68 2.22 1.83l.98-.03c-.27-1.69-1.57-2.74-3.19-2.74-1.86 0-3.28 1.49-3.28 3.63v.02c0 2.14 1.42 3.63 3.28 3.63zm6.53-7.14-2.45 6.88v.12h.95l.71-1.99h3.27l.71 1.99h.94v-.12l-2.44-6.88zm.65.94h.39l1.13 3.18h-2.65zm6.02 6.06v-2.93h2.43c.54 0 .98.2 1.08 1.02l.08.69c.07.61.15.88.29 1.22h.97v-.12c-.13-.29-.24-.52-.3-1.1l-.09-.85c-.06-.58-.33-.92-.75-1.12v-.09c.75-.32 1.07-.97 1.07-1.71v-.04c0-1.1-.66-1.97-2.01-1.97h-3.71v7zm0-6.09h2.67c.73 0 1.2.42 1.2 1.16v.02c0 .7-.48 1.11-1.2 1.11h-2.67zm11.68 6.09v-.93h-4.06v-2.14h3.6v-.88h-3.6v-2.13h4.06v-.92h-5v7zm-116.12 14c1.35 0 2.01-.84 2.01-1.87v-.04c0-.72-.34-1.33-1.05-1.62v-.08c.63-.28.95-.85.95-1.49v-.04c0-.98-.65-1.86-2.01-1.86h-3.61v7zm-2.77-6.09h2.57c.72 0 1.2.41 1.2 1.07v.03c0 .61-.46 1.01-1.17 1.01h-2.6zm0 2.97h2.67c.73 0 1.2.41 1.2 1.1v.03c0 .68-.47 1.08-1.2 1.08h-2.67zm7.55 3.12v-2.93h2.43c.54 0 .98.2 1.08 1.02l.08.69c.07.61.15.88.29 1.22h.97v-.12c-.13-.29-.24-.52-.3-1.1l-.09-.85c-.06-.58-.33-.92-.75-1.12v-.09c.75-.32 1.07-.97 1.07-1.71v-.04c0-1.1-.66-1.97-2.01-1.97h-3.71v7zm0-6.09h2.67c.73 0 1.2.42 1.2 1.16v.02c0 .7-.48 1.11-1.2 1.11h-2.67zm8.58-.91-2.45 6.88v.12h.95l.71-1.99h3.27l.71 1.99h.94v-.12l-2.44-6.88zm.65.94h.39l1.13 3.18h-2.65zm6 6.06v-5.63h.28l3.44 5.63h1.44v-7h-.92v5.62h-.29l-3.43-5.62h-1.44v7zm10.26 0c1.87 0 3.18-1.4 3.18-3.49v-.02c0-2.1-1.31-3.49-3.18-3.49h-2.91v7zm-1.97-6.06h1.87c1.37 0 2.32 1.01 2.32 2.54v.03c0 1.54-.96 2.55-2.32 2.55h-1.87zm6.89 7.63.76-1.66v-1.16h-.98v1.25h.41l-.66 1.46v.11zm9.04-1.57 1.05-5.52h.23l1.04 5.52h1.67l1.53-6.85v-.15h-.91l-1.28 5.83h-.37l-1.06-5.83h-1.47l-1.07 5.83h-.36l-1.28-5.83h-.91v.15l1.53 6.85zm8.21 0v-3.04h4.09v3.04h.94v-7h-.94v3.04h-4.09v-3.04h-.94v7zm11.04 0v-.93h-1.56v-5.15h1.56v-.92h-4.07v.92h1.56v5.15h-1.56v.93zm4.52.14c1.62 0 2.92-1.06 3.19-2.75l-.98-.03c-.24 1.15-1.12 1.84-2.22 1.84-1.33 0-2.31-1.11-2.31-2.69v-.03c0-1.58.98-2.68 2.31-2.68 1.1 0 1.98.68 2.22 1.83l.98-.03c-.27-1.69-1.57-2.74-3.19-2.74-1.86 0-3.28 1.49-3.28 3.63v.02c0 2.14 1.42 3.63 3.28 3.63zm5.94-.14v-3.04h4.09v3.04h.94v-7h-.94v3.04h-4.09v-3.04h-.94v7zm12.98.14c1.7 0 2.68-.9 2.68-2.15 0-1.04-.75-1.61-2.15-1.85l-.83-.15c-1.04-.19-1.44-.39-1.44-.98 0-.71.7-1.25 1.63-1.25 1.04 0 1.85.73 1.85 1.76l.93-.03c0-1.74-1.46-2.63-2.78-2.63-1.61 0-2.57 1.06-2.57 2.15s.72 1.6 2.17 1.85l.83.15c1.01.18 1.43.41 1.43.97 0 .78-.72 1.26-1.75 1.26-1.1 0-1.92-.73-1.92-1.81l-.93.03c0 1.73 1.37 2.68 2.85 2.68zm7.32 0c1.65 0 2.93-1.04 2.93-2.72v-4.42h-.94v4.42c0 1.07-.81 1.79-1.99 1.79s-2-.72-2-1.79v-4.42h-.94v4.42c0 1.68 1.28 2.72 2.94 2.72zm5.96-.14v-2.85h2.77c1.35 0 2.01-.9 2.01-2.03v-.04c0-1.16-.66-2.08-2.01-2.08h-3.71v7zm0-6.08h2.67c.73 0 1.2.44 1.2 1.2v.04c0 .72-.47 1.12-1.2 1.12h-2.67zm7.37 6.08v-2.85h2.77c1.35 0 2.01-.9 2.01-2.03v-.04c0-1.16-.66-2.08-2.01-2.08h-3.71v7zm0-6.08h2.67c.73 0 1.2.44 1.2 1.2v.04c0 .72-.47 1.12-1.2 1.12h-2.67zm9.32 6.22c1.87 0 3.27-1.49 3.28-3.63v-.02c0-2.14-1.41-3.63-3.28-3.63s-3.28 1.49-3.28 3.63v.02c0 2.14 1.42 3.63 3.28 3.63zm0-.94c-1.34 0-2.32-1.11-2.32-2.69v-.03c0-1.58.98-2.68 2.32-2.68s2.31 1.1 2.31 2.68v.03c0 1.59-.98 2.69-2.31 2.69zm6.02.8v-2.93h2.43c.54 0 .98.2 1.08 1.02l.08.69c.07.61.15.88.29 1.22h.97v-.12c-.13-.29-.24-.52-.3-1.1l-.09-.85c-.06-.58-.33-.92-.75-1.12v-.09c.75-.32 1.07-.97 1.07-1.71v-.04c0-1.1-.66-1.97-2.01-1.97h-3.71v7zm0-6.09h2.67c.73 0 1.2.42 1.2 1.16v.02c0 .7-.48 1.11-1.2 1.11h-2.67zm9.42 6.09v-6.08h2.48v-.92h-5.9v.92h2.47v6.08zm6.28.14c1.7 0 2.68-.9 2.68-2.15 0-1.04-.75-1.61-2.15-1.85l-.83-.15c-1.04-.19-1.44-.39-1.44-.98 0-.71.7-1.25 1.63-1.25 1.04 0 1.85.73 1.85 1.76l.93-.03c0-1.74-1.46-2.63-2.78-2.63-1.61 0-2.57 1.06-2.57 2.15s.72 1.6 2.17 1.85l.83.15c1.01.18 1.43.41 1.43.97 0 .78-.72 1.26-1.75 1.26-1.1 0-1.92-.73-1.92-1.81l-.93.03c0 1.73 1.37 2.68 2.85 2.68zm-139.35 13.86v-6.08h2.48v-.92h-5.9v.92h2.47v6.08zm5.09 0v-3.04h4.09v3.04h.94v-7h-.94v3.04h-4.09v-3.04h-.94v7zm9.07-7-2.45 6.88v.12h.95l.71-1.99h3.27l.71 1.99h.94v-.12l-2.44-6.88zm.65.94h.39l1.13 3.18h-2.65zm7.1 6.06v-6.08h2.48v-.92h-5.9v.92h2.47v6.08zm9.97.14c1.7 0 2.68-.9 2.68-2.15 0-1.04-.75-1.61-2.15-1.85l-.83-.15c-1.04-.19-1.44-.39-1.44-.98 0-.71.7-1.25 1.63-1.25 1.04 0 1.85.73 1.85 1.76l.93-.03c0-1.74-1.46-2.63-2.78-2.63-1.61 0-2.57 1.06-2.57 2.15s.72 1.6 2.17 1.85l.83.15c1.01.18 1.43.41 1.43.97 0 .78-.72 1.26-1.75 1.26-1.1 0-1.92-.73-1.92-1.81l-.93.03c0 1.73 1.37 2.68 2.85 2.68zm9.49-.14v-.93h-4.06v-2.14h3.6v-.88h-3.6v-2.13h4.06v-.92h-5v7zm2.89 0v-5.63h.28l3.44 5.63h1.44v-7h-.92v5.62h-.29l-3.43-5.62h-1.44v7zm10.25 0v-6.08h2.48v-.92h-5.9v.92h2.47v6.08zm8.03 0v-.93h-1.56v-5.15h1.56v-.92h-4.07v.92h1.56v5.15h-1.56v.93zm2.87 0v-5.42h.27l1.87 4.16h.99l1.87-4.16h.28v5.42h.93v-7h-1.47l-1.96 4.36h-.3l-1.96-4.36h-1.46v7zm13.41 0v-.93h-4.06v-2.14h3.6v-.88h-3.6v-2.13h4.06v-.92h-5v7zm2.89 0v-5.63h.28l3.44 5.63h1.44v-7h-.92v5.62h-.29l-3.43-5.62h-1.44v7zm10.25 0v-6.08h2.48v-.92h-5.9v.92h2.47v6.08zm3.27 1.57.76-1.66v-1.16h-.98v1.25h.41l-.66 1.46v.11zm9.19-1.43c1.62 0 2.92-1.06 3.19-2.75l-.98-.03c-.24 1.15-1.12 1.84-2.22 1.84-1.33 0-2.31-1.11-2.31-2.69v-.03c0-1.58.98-2.68 2.31-2.68 1.1 0 1.98.68 2.22 1.83l.98-.03c-.27-1.69-1.57-2.74-3.19-2.74-1.86 0-3.28 1.49-3.28 3.63v.02c0 2.14 1.42 3.63 3.28 3.63zm6.53-7.14-2.45 6.88v.12h.95l.71-1.99h3.27l.71 1.99h.94v-.12l-2.44-6.88zm.65.94h.39l1.13 3.18h-2.65zm6 6.06v-5.63h.28l3.44 5.63h1.44v-7h-.92v5.62h-.29l-3.43-5.62h-1.44v7zm14.42 0c1.35 0 2.01-.84 2.01-1.87v-.04c0-.72-.34-1.33-1.05-1.62v-.08c.63-.28.95-.85.95-1.49v-.04c0-.98-.65-1.86-2.01-1.86h-3.61v7zm-2.77-6.09h2.57c.72 0 1.2.41 1.2 1.07v.03c0 .61-.46 1.01-1.17 1.01h-2.6zm0 2.97h2.67c.73 0 1.2.41 1.2 1.1v.03c0 .68-.47 1.08-1.2 1.08h-2.67zm11.61 3.12v-.93h-4.06v-2.14h3.6v-.88h-3.6v-2.13h4.06v-.92h-5v7zm-138.83 14v-.93h-4.06v-2.14h3.6v-.88h-3.6v-2.13h4.06v-.92h-5v7zm2.54 0 1.94-2.97h.2l1.94 2.97h1.04v-.12l-2.28-3.46 2.2-3.31v-.11h-1.04l-1.86 2.79h-.2l-1.85-2.79h-1.05v.11l2.2 3.31-2.29 3.46v.12zm7.74 0v-2.85h2.77c1.35 0 2.01-.9 2.01-2.03v-.04c0-1.16-.66-2.08-2.01-2.08h-3.71v7zm0-6.08h2.67c.73 0 1.2.44 1.2 1.2v.04c0 .72-.47 1.12-1.2 1.12h-2.67zm11.43 6.08v-.93h-4.06v-2.14h3.6v-.88h-3.6v-2.13h4.06v-.92h-5v7zm2.91 0v-2.93h2.43c.54 0 .98.2 1.08 1.02l.08.69c.07.61.15.88.29 1.22h.97v-.12c-.13-.29-.24-.52-.3-1.1l-.09-.85c-.06-.58-.33-.92-.75-1.12v-.09c.75-.32 1.07-.97 1.07-1.71v-.04c0-1.1-.66-1.97-2.01-1.97h-3.71v7zm0-6.09h2.67c.73 0 1.2.42 1.2 1.16v.02c0 .7-.48 1.11-1.2 1.11h-2.67zm10.49 6.09v-.93h-1.56v-5.15h1.56v-.92h-4.07v.92h1.56v5.15h-1.56v.93zm6.93 0v-.93h-4.06v-2.14h3.6v-.88h-3.6v-2.13h4.06v-.92h-5v7zm2.89 0v-5.63h.28l3.44 5.63h1.44v-7h-.92v5.62h-.29l-3.43-5.62h-1.44v7zm10.24.14c1.62 0 2.92-1.06 3.19-2.75l-.98-.03c-.24 1.15-1.12 1.84-2.22 1.84-1.33 0-2.31-1.11-2.31-2.69v-.03c0-1.58.98-2.68 2.31-2.68 1.1 0 1.98.68 2.22 1.83l.98-.03c-.27-1.69-1.57-2.74-3.19-2.74-1.86 0-3.28 1.49-3.28 3.63v.02c0 2.14 1.42 3.63 3.28 3.63zm10-.14v-.93h-4.06v-2.14h3.6v-.88h-3.6v-2.13h4.06v-.92h-5v7zm4.88 0c1.87 0 3.18-1.4 3.18-3.49v-.02c0-2.1-1.31-3.49-3.18-3.49h-2.91v7zm-1.97-6.06h1.87c1.37 0 2.32 1.01 2.32 2.54v.03c0 1.54-.96 2.55-2.32 2.55h-1.87zm12.22-.94-2.45 6.88v.12h.95l.71-1.99h3.27l.71 1.99h.94v-.12l-2.44-6.88zm.65.94h.39l1.13 3.18h-2.65zm7.1 6.06v-6.08h2.48v-.92h-5.9v.92h2.47v6.08zm9.48-7-2.45 6.88v.12h.95l.71-1.99h3.27l.71 1.99h.94v-.12l-2.44-6.88zm.65.94h.39l1.13 3.18h-2.65zm9.41 6.06v-5.63h.28l3.44 5.63h1.44v-7h-.92v5.62h-.29l-3.43-5.62h-1.44v7zm12.35 0v-.93h-4.06v-2.14h3.6v-.88h-3.6v-2.13h4.06v-.92h-5v7zm3.87-7-2.45 6.88v.12h.95l.71-1.99h3.27l.71 1.99h.94v-.12l-2.44-6.88zm.65.94h.39l1.13 3.18h-2.65zm6.02 6.06v-2.93h2.43c.54 0 .98.2 1.08 1.02l.08.69c.07.61.15.88.29 1.22h.97v-.12c-.13-.29-.24-.52-.3-1.1l-.09-.85c-.06-.58-.33-.92-.75-1.12v-.09c.75-.32 1.07-.97 1.07-1.71v-.04c0-1.1-.66-1.97-2.01-1.97h-3.71v7zm0-6.09h2.67c.73 0 1.2.42 1.2 1.16v.02c0 .7-.48 1.11-1.2 1.11h-2.67zm10.39 6.09c1.35 0 2.01-.84 2.01-1.87v-.04c0-.72-.34-1.33-1.05-1.62v-.08c.63-.28.95-.85.95-1.49v-.04c0-.98-.65-1.86-2.01-1.86h-3.61v7zm-2.77-6.09h2.57c.72 0 1.2.41 1.2 1.07v.03c0 .61-.46 1.01-1.17 1.01h-2.6zm0 2.97h2.67c.73 0 1.2.41 1.2 1.1v.03c0 .68-.47 1.08-1.2 1.08h-2.67zm9.44 3.12v-2.66l2.69-4.19v-.15h-1.02l-2.05 3.23h-.2l-2.04-3.23h-1.03v.15l2.7 4.19v2.66zm-151.6 14v-3.04h4.09v3.04h.94v-7h-.94v3.04h-4.09v-3.04h-.94v7zm9.07-7-2.45 6.88v.12h.95l.71-1.99h3.27l.71 1.99h.94v-.12l-2.44-6.88zm.65.94h.39l1.13 3.18h-2.65zm8.88 6.06v-.93h-1.56v-5.15h1.56v-.92h-4.07v.92h1.56v5.15h-1.56v.93zm2.87 0v-2.93h2.43c.54 0 .98.2 1.08 1.02l.08.69c.07.61.15.88.29 1.22h.97v-.12c-.13-.29-.24-.52-.3-1.1l-.09-.85c-.06-.58-.33-.92-.75-1.12v-.09c.75-.32 1.07-.97 1.07-1.71v-.04c0-1.1-.66-1.97-2.01-1.97h-3.71v7zm0-6.09h2.67c.73 0 1.2.42 1.2 1.16v.02c0 .7-.48 1.11-1.2 1.11h-2.67zm9.59 6.09c1.87 0 3.18-1.4 3.18-3.49v-.02c0-2.1-1.31-3.49-3.18-3.49h-2.91v7zm-1.97-6.06h1.87c1.37 0 2.32 1.01 2.32 2.54v.03c0 1.54-.96 2.55-2.32 2.55h-1.87zm7.9 6.06v-2.93h2.43c.54 0 .98.2 1.08 1.02l.08.69c.07.61.15.88.29 1.22h.97v-.12c-.13-.29-.24-.52-.3-1.1l-.09-.85c-.06-.58-.33-.92-.75-1.12v-.09c.75-.32 1.07-.97 1.07-1.71v-.04c0-1.1-.66-1.97-2.01-1.97h-3.71v7zm0-6.09h2.67c.73 0 1.2.42 1.2 1.16v.02c0 .7-.48 1.11-1.2 1.11h-2.67zm11.68 6.09v-.93h-4.06v-2.14h3.6v-.88h-3.6v-2.13h4.06v-.92h-5v7zm4.31.14c1.7 0 2.68-.9 2.68-2.15 0-1.04-.75-1.61-2.15-1.85l-.83-.15c-1.04-.19-1.44-.39-1.44-.98 0-.71.7-1.25 1.63-1.25 1.04 0 1.85.73 1.85 1.76l.93-.03c0-1.74-1.46-2.63-2.78-2.63-1.61 0-2.57 1.06-2.57 2.15s.72 1.6 2.17 1.85l.83.15c1.01.18 1.43.41 1.43.97 0 .78-.72 1.26-1.75 1.26-1.1 0-1.92-.73-1.92-1.81l-.93.03c0 1.73 1.37 2.68 2.85 2.68zm7.02 0c1.7 0 2.68-.9 2.68-2.15 0-1.04-.75-1.61-2.15-1.85l-.83-.15c-1.04-.19-1.44-.39-1.44-.98 0-.71.7-1.25 1.63-1.25 1.04 0 1.85.73 1.85 1.76l.93-.03c0-1.74-1.46-2.63-2.78-2.63-1.61 0-2.57 1.06-2.57 2.15s.72 1.6 2.17 1.85l.83.15c1.01.18 1.43.41 1.43.97 0 .78-.72 1.26-1.75 1.26-1.1 0-1.92-.73-1.92-1.81l-.93.03c0 1.73 1.37 2.68 2.85 2.68zm8.16-.14v-.93h-1.56v-5.15h1.56v-.92h-4.07v.92h1.56v5.15h-1.56v.93zm2.85 0v-5.63h.28l3.44 5.63h1.44v-7h-.92v5.62h-.29l-3.43-5.62h-1.44v7zm13.4 0v-3.78h-3.26v.88h2.35v1.98h-2.24c-1.34 0-2.33-1.08-2.33-2.6v-.02c0-1.57.99-2.68 2.32-2.68 1.01 0 1.83.6 2.12 1.58l1.04-.02c-.38-1.55-1.6-2.48-3.16-2.48-1.86 0-3.28 1.47-3.28 3.59v.02c0 2.08 1.39 3.53 3.22 3.53zm7.76.14c1.7 0 2.68-.9 2.68-2.15 0-1.04-.75-1.61-2.15-1.85l-.83-.15c-1.04-.19-1.44-.39-1.44-.98 0-.71.7-1.25 1.63-1.25 1.04 0 1.85.73 1.85 1.76l.93-.03c0-1.74-1.46-2.63-2.78-2.63-1.61 0-2.57 1.06-2.57 2.15s.72 1.6 2.17 1.85l.83.15c1.01.18 1.43.41 1.43.97 0 .78-.72 1.26-1.75 1.26-1.1 0-1.92-.73-1.92-1.81l-.93.03c0 1.73 1.37 2.68 2.85 2.68zm6.26-7.14-2.45 6.88v.12h.95l.71-1.99h3.27l.71 1.99h.94v-.12l-2.44-6.88zm.65.94h.39l1.13 3.18h-2.65zm9.98 6.06v-.93h-3.96v-6.07h-.94v7zm4.16.14c1.87 0 3.27-1.49 3.28-3.63v-.02c0-2.14-1.41-3.63-3.28-3.63s-3.28 1.49-3.28 3.63v.02c0 2.14 1.42 3.63 3.28 3.63zm0-.94c-1.34 0-2.32-1.11-2.32-2.69v-.03c0-1.58.98-2.68 2.32-2.68s2.31 1.1 2.31 2.68v.03c0 1.59-.98 2.69-2.31 2.69zm6 .8v-5.63h.28l3.44 5.63h1.44v-7h-.92v5.62h-.29l-3.43-5.62h-1.44v7zm8.31 0v-1.25h-.98v1.25z" fill="#fff"/></svg>