<svg viewBox="0 0 538.6 52.19" xmlns="http://www.w3.org/2000/svg"><path d="m1.92 10v-7.89h.39l4.82 7.88h2.02v-9.79h-1.29v7.87h-.41l-4.8-7.87h-2.02v9.8zm13.78.2c2.62 0 4.58-2.09 4.59-5.08v-.03c0-3-1.97-5.08-4.59-5.08s-4.59 2.09-4.59 5.08v.03c0 3 1.99 5.08 4.59 5.08zm0-1.32c-1.88 0-3.25-1.55-3.25-3.77v-.04c0-2.21 1.37-3.75 3.25-3.75s3.23 1.54 3.23 3.75v.04c0 2.23-1.37 3.77-3.23 3.77zm12.01 1.12v-7.59h.38l2.62 5.82h1.39l2.62-5.82h.39v7.59h1.3v-9.8h-2.06l-2.74 6.1h-.42l-2.76-6.1h-2.04v9.8zm13.79-9.8-3.43 9.63v.17h1.33l.99-2.79h4.58l.99 2.79h1.32v-.17l-3.41-9.63zm.91 1.32h.55l1.58 4.45h-3.71zm9.38 8.48v-8.52h3.47v-1.28h-8.26v1.29h3.46v8.51zm9.54 0v-8.52h3.47v-1.28h-8.26v1.29h3.46v8.51zm12.25 0v-1.3h-5.68v-3h5.04v-1.23h-5.04v-2.99h5.68v-1.28h-7v9.8zm3.52 0v-4.1h3.4c.76 0 1.37.28 1.51 1.43l.11.97c.1.85.21 1.23.41 1.71h1.36v-.17c-.18-.41-.34-.73-.42-1.54l-.13-1.19c-.08-.81-.46-1.29-1.05-1.57v-.13c1.05-.45 1.5-1.36 1.5-2.39v-.06c0-1.54-.92-2.76-2.81-2.76h-5.19v9.8h1.32zm0-8.53h3.74c1.02 0 1.68.59 1.68 1.62v.03c0 .98-.67 1.55-1.68 1.55h-3.74zm16.76 8.53 1.47-7.73h.32l1.46 7.73h2.34l2.14-9.59v-.21h-1.27l-1.79 8.16h-.52l-1.48-8.16h-2.06l-1.5 8.16h-.5l-1.79-8.16h-1.27v.21l2.14 9.59h2.32zm10.93 0v-4.26h5.73v4.26h1.32v-9.8h-1.32v4.26h-5.73v-4.26h-1.32v9.8zm12.15-9.8-3.43 9.63v.17h1.33l.99-2.79h4.58l.99 2.79h1.32v-.17l-3.42-9.63h-2.37zm.91 1.32h.55l1.58 4.45h-3.71zm9.38 8.48v-8.52h3.47v-1.28h-8.26v1.29h3.46v8.51zm12.14-9.8-3.43 9.63v.17h1.33l.99-2.79h4.58l.99 2.79h1.32v-.17l-3.42-9.63h-2.37zm.91 1.32h.55l1.58 4.45h-3.71zm14.58 8.48v-5.29h-4.56v1.23h3.29v2.77h-3.14c-1.88 0-3.26-1.51-3.26-3.64v-.03c0-2.2 1.39-3.75 3.25-3.75 1.41 0 2.56.84 2.97 2.21l1.46-.03c-.53-2.17-2.24-3.47-4.42-3.47-2.6 0-4.59 2.06-4.59 5.03v.03c0 2.91 1.95 4.94 4.51 4.94h4.51zm9.26 0v-1.3h-5.68v-3h5.04v-1.23h-5.04v-2.99h5.68v-1.28h-7v9.8zm11.68 0v-1.3h-2.18v-7.22h2.18v-1.28h-5.7v1.29h2.18v7.21h-2.18v1.3zm11.48 0c1.89 0 2.81-1.18 2.81-2.62v-.06c0-1.01-.48-1.86-1.47-2.27v-.11c.88-.39 1.33-1.19 1.33-2.09v-.06c0-1.37-.91-2.6-2.81-2.6h-5.05v9.8h5.19zm-3.88-8.53h3.6c1.01 0 1.68.57 1.68 1.5v.04c0 .85-.64 1.41-1.64 1.41h-3.64zm0 4.16h3.74c1.02 0 1.68.57 1.68 1.54v.04c0 .95-.66 1.51-1.68 1.51h-3.74zm15.69 4.37v-1.3h-5.68v-3h5.04v-1.23h-5.04v-2.99h5.68v-1.28h-7v9.8zm6.18.2c2.27 0 4.09-1.48 4.47-3.85l-1.37-.04c-.34 1.61-1.57 2.58-3.11 2.58-1.86 0-3.23-1.55-3.23-3.77v-.04c0-2.21 1.37-3.75 3.23-3.75 1.54 0 2.77.95 3.11 2.56l1.37-.04c-.38-2.37-2.2-3.84-4.47-3.84-2.6 0-4.59 2.09-4.59 5.08v.03c0 3 1.99 5.08 4.59 5.08zm10.58 0c2.62 0 4.58-2.09 4.59-5.08v-.03c0-3-1.97-5.08-4.59-5.08s-4.59 2.09-4.59 5.08v.03c0 3 1.99 5.08 4.59 5.08zm0-1.32c-1.88 0-3.25-1.55-3.25-3.77v-.04c0-2.21 1.37-3.75 3.25-3.75s3.23 1.54 3.23 3.75v.04c0 2.23-1.37 3.77-3.23 3.77zm7.87 1.12v-7.59h.38l2.62 5.82h1.39l2.62-5.82h.39v7.59h1.3v-9.8h-2.06l-2.74 6.1h-.42l-2.74-6.1h-2.04v9.8h1.32zm18.22 0v-1.3h-5.68v-3h5.04v-1.23h-5.04v-2.99h5.68v-1.28h-7v9.8zm2.48 2.2 1.06-2.32v-1.62h-1.37v1.75h.57l-.92 2.04v.15zm9.02-2.2v-7.59h.38l2.62 5.82h1.39l2.62-5.82h.39v7.59h1.3v-9.8h-2.06l-2.74 6.1h-.42l-2.74-6.1h-2.04v9.8h1.32zm15.38 0v-3.72l3.77-5.87v-.21h-1.43l-2.87 4.52h-.28l-2.86-4.52h-1.44v.21l3.78 5.87v3.72zm10.93 0v-4.26h5.73v4.26h1.32v-9.8h-1.32v4.26h-5.73v-4.26h-1.32v9.8zm12.15-9.8-3.43 9.63v.17h1.33l.99-2.79h4.58l.99 2.79h1.32v-.17l-3.42-9.63h-2.37zm.91 1.32h.55l1.58 4.45h-3.71zm11.87 8.48v-1.3h-2.18v-7.22h2.18v-1.28h-5.7v1.29h2.18v7.21h-2.18v1.3zm3.46 0v-4.1h3.4c.76 0 1.37.28 1.51 1.43l.11.97c.1.85.21 1.23.41 1.71h1.36v-.17c-.18-.41-.34-.73-.42-1.54l-.13-1.19c-.08-.81-.46-1.29-1.05-1.57v-.13c1.05-.45 1.5-1.36 1.5-2.39v-.06c0-1.54-.92-2.76-2.81-2.76h-5.19v9.8h1.32zm0-8.53h3.74c1.02 0 1.68.59 1.68 1.62v.03c0 .98-.67 1.55-1.68 1.55h-3.74zm14.24 8.53v-7.59h.38l2.62 5.82h1.39l2.62-5.82h.39v7.59h1.3v-9.8h-2.06l-2.74 6.1h-.42l-2.74-6.1h-2.04v9.8h1.32zm13.8-9.8-3.43 9.63v.17h1.33l.99-2.79h4.58l.99 2.79h1.32v-.17l-3.42-9.63h-2.37zm.91 1.32h.55l1.58 4.45h-3.71zm7.86 8.48v-4.4h.67l4.3 4.4h1.68v-.17l-4.83-4.93 4.77-4.55v-.15h-1.68l-4.26 4.12h-.66v-4.12h-1.32v9.8h1.32zm15.4 0v-1.3h-5.68v-3h5.04v-1.23h-5.04v-2.99h5.68v-1.28h-7v9.8zm5.48.2c2.38 0 3.75-1.26 3.75-3.01 0-1.46-1.05-2.25-3.01-2.59l-1.16-.21c-1.46-.27-2.02-.55-2.02-1.37 0-.99.98-1.75 2.28-1.75 1.46 0 2.59 1.02 2.59 2.46l1.3-.04c0-2.44-2.04-3.68-3.89-3.68-2.25 0-3.6 1.48-3.6 3.01s1.01 2.24 3.04 2.59l1.16.21c1.41.25 2 .57 2 1.36 0 1.09-1.01 1.76-2.45 1.76-1.54 0-2.69-1.02-2.69-2.53l-1.3.04c0 2.42 1.92 3.75 3.99 3.75zm11.19-.2v-7.59h.38l2.62 5.82h1.39l2.62-5.82h.39v7.59h1.3v-9.8h-2.06l-2.74 6.1h-.42l-2.74-6.1h-2.04v9.8h1.32zm18.22 0v-1.3h-5.68v-3h5.04v-1.23h-5.04v-2.99h5.68v-1.28h-7v9.8zm7.66 0v-4.28h4.9v-1.25h-4.9v-2.99h5.54v-1.28h-6.86v9.8zm14.39 0v-1.3h-5.68v-3h5.04v-1.23h-5.04v-2.99h5.68v-1.28h-7v9.8zm9.2 0v-1.3h-5.68v-3h5.04v-1.23h-5.04v-2.99h5.68v-1.28h-7v9.8zm9.06 0v-1.3h-5.54v-8.5h-1.32v9.8zm12.88 0v-1.3h-5.54v-8.5h-1.32v9.8zm7.21 0v-1.3h-2.18v-7.22h2.18v-1.28h-5.7v1.29h2.18v7.21h-2.18v1.3zm3.46 0v-4.4h.67l4.3 4.4h1.68v-.17l-4.83-4.93 4.77-4.55v-.15h-1.68l-4.26 4.12h-.66v-4.12h-1.32v9.8h1.32zm15.4 0v-1.3h-5.68v-3h5.04v-1.23h-5.04v-2.99h5.68v-1.28h-7v9.8zm7.66 0v-7.59h.38l2.62 5.82h1.39l2.62-5.82h.39v7.59h1.3v-9.8h-2.06l-2.74 6.1h-.42l-2.74-6.1h-2.04v9.8h1.32zm15.38 0v-3.72l3.77-5.87v-.21h-1.43l-2.87 4.52h-.28l-2.86-4.52h-1.44v.21l3.78 5.87v3.72zm8.24.2c2.38 0 3.75-1.26 3.75-3.01 0-1.46-1.05-2.25-3.01-2.59l-1.16-.21c-1.46-.27-2.02-.55-2.02-1.37 0-.99.98-1.75 2.28-1.75 1.46 0 2.59 1.02 2.59 2.46l1.3-.04c0-2.44-2.04-3.68-3.89-3.68-2.25 0-3.6 1.48-3.6 3.01s1.01 2.24 3.04 2.59l1.16.21c1.41.25 2 .57 2 1.36 0 1.09-1.01 1.76-2.45 1.76-1.54 0-2.69-1.02-2.69-2.53l-1.3.04c0 2.42 1.92 3.75 3.99 3.75zm12.73-.2v-1.3h-5.68v-3h5.04v-1.23h-5.04v-2.99h5.68v-1.28h-7v9.8zm9.06 0v-1.3h-5.54v-8.5h-1.32v9.8zm3.14 0v-4.28h4.9v-1.25h-4.9v-2.99h5.54v-1.28h-6.86v9.8zm7.89 0v-1.75h-1.37v1.75zm-533.81 21v-8.51h3.47v-1.29h-8.26v1.29h3.46v8.51zm6.56 0v-4.26h5.73v4.26h1.32v-9.8h-1.32v4.26h-5.73v-4.26h-1.32v9.8zm16.57 0v-1.3h-5.68v-3h5.04v-1.23h-5.04v-2.98h5.68v-1.29h-7v9.8zm10.42 0c2.62 0 4.45-1.96 4.45-4.89v-.03c0-2.94-1.83-4.89-4.45-4.89h-4.07v9.8h4.07zm-2.76-8.48h2.62c1.92 0 3.25 1.41 3.25 3.56v.04c0 2.16-1.34 3.57-3.25 3.57h-2.62zm16.18 8.48v-1.3h-5.68v-3h5.04v-1.23h-5.04v-2.98h5.68v-1.29h-7v9.8zm3.52 0v-7.59h.38l2.62 5.82h1.39l2.62-5.82h.39v7.59h1.3v-9.8h-2.06l-2.74 6.1h-.42l-2.74-6.1h-2.04v9.8h1.32zm16.55 0v-1.3h-2.18v-7.21h2.18v-1.29h-5.7v1.29h2.18v7.21h-2.18v1.3zm10.36 0c2.62 0 4.45-1.96 4.45-4.89v-.03c0-2.94-1.83-4.89-4.45-4.89h-4.07v9.8h4.07zm-2.76-8.48h2.62c1.92 0 3.25 1.41 3.25 3.56v.04c0 2.16-1.34 3.57-3.25 3.57h-2.62zm13.33 8.68c2.62 0 4.58-2.09 4.59-5.08v-.03c0-3-1.97-5.08-4.59-5.08s-4.59 2.09-4.59 5.08v.03c0 3 1.99 5.08 4.59 5.08zm0-1.32c-1.88 0-3.25-1.55-3.25-3.77v-.04c0-2.21 1.37-3.75 3.25-3.75s3.23 1.54 3.23 3.75v.04c0 2.23-1.37 3.77-3.23 3.77zm14.04 1.32c2.38 0 3.75-1.26 3.75-3.01 0-1.46-1.05-2.25-3.01-2.59l-1.16-.21c-1.46-.27-2.02-.55-2.02-1.37 0-.99.98-1.75 2.28-1.75 1.46 0 2.59 1.02 2.59 2.46l1.3-.04c0-2.44-2.04-3.68-3.89-3.68-2.25 0-3.6 1.48-3.6 3.01s1.01 2.24 3.04 2.59l1.16.21c1.41.25 2 .57 2 1.36 0 1.09-1.01 1.76-2.45 1.76-1.54 0-2.69-1.02-2.69-2.53l-1.3.04c0 2.42 1.92 3.75 3.99 3.75zm9.89 0c2.27 0 4.09-1.48 4.47-3.85l-1.37-.04c-.34 1.61-1.57 2.58-3.11 2.58-1.86 0-3.23-1.55-3.23-3.77v-.04c0-2.21 1.37-3.75 3.23-3.75 1.54 0 2.77.95 3.11 2.56l1.37-.04c-.38-2.37-2.2-3.84-4.47-3.84-2.6 0-4.59 2.09-4.59 5.08v.03c0 3 1.99 5.08 4.59 5.08zm8.58-10-3.43 9.63v.17h1.33l.99-2.79h4.58l.99 2.79h1.32v-.17l-3.42-9.63h-2.37zm.91 1.32h.55l1.58 4.45h-3.71zm13.41 8.48v-1.3h-5.54v-8.5h-1.32v9.8zm3.14 0v-3.99h3.88c1.89 0 2.81-1.26 2.81-2.84v-.06c0-1.62-.92-2.91-2.81-2.91h-5.19v9.8h1.32zm0-8.51h3.74c1.02 0 1.68.62 1.68 1.68v.06c0 1.01-.66 1.57-1.68 1.57h-3.74v-3.3zm16.63 8.71c2.27 0 4.09-1.48 4.47-3.85l-1.37-.04c-.34 1.61-1.57 2.58-3.11 2.58-1.86 0-3.23-1.55-3.23-3.77v-.04c0-2.21 1.37-3.75 3.23-3.75 1.54 0 2.77.95 3.11 2.56l1.37-.04c-.38-2.37-2.2-3.84-4.47-3.84-2.6 0-4.59 2.09-4.59 5.08v.03c0 3 1.99 5.08 4.59 5.08zm8.58-10-3.43 9.63v.17h1.33l.99-2.79h4.58l.99 2.79h1.32v-.17l-3.42-9.63h-2.37zm.91 1.32h.55l1.58 4.45h-3.71zm7.86 8.48v-4.1h3.4c.76 0 1.37.28 1.51 1.43l.11.97c.1.85.21 1.23.41 1.71h1.36v-.17c-.18-.41-.34-.73-.42-1.54l-.13-1.19c-.08-.81-.46-1.29-1.05-1.57v-.13c1.05-.45 1.5-1.36 1.5-2.39v-.06c0-1.54-.92-2.76-2.81-2.76h-5.19v9.8h1.32zm0-8.53h3.74c1.02 0 1.68.59 1.68 1.62v.03c0 .98-.67 1.55-1.68 1.55h-3.74v-3.21zm15.79 8.53v-1.3h-5.68v-3h5.04v-1.23h-5.04v-2.98h5.68v-1.29h-7v9.8zm11.54 0c1.89 0 2.81-1.18 2.81-2.62v-.06c0-1.01-.48-1.86-1.47-2.27v-.11c.88-.39 1.33-1.19 1.33-2.09v-.06c0-1.37-.91-2.6-2.81-2.6h-5.05v9.8h5.19zm-3.88-8.53h3.6c1.01 0 1.68.57 1.68 1.5v.04c0 .85-.64 1.41-1.64 1.41h-3.64zm0 4.16h3.74c1.02 0 1.68.57 1.68 1.54v.04c0 .95-.66 1.51-1.68 1.51h-3.74zm10.01 4.37v-4.1h3.4c.76 0 1.37.28 1.51 1.43l.11.97c.1.85.21 1.23.41 1.71h1.36v-.17c-.18-.41-.34-.73-.42-1.54l-.13-1.19c-.08-.81-.46-1.29-1.05-1.57v-.13c1.05-.45 1.5-1.36 1.5-2.39v-.06c0-1.54-.92-2.76-2.81-2.76h-5.19v9.8h1.32zm0-8.53h3.74c1.02 0 1.68.59 1.68 1.62v.03c0 .98-.67 1.55-1.68 1.55h-3.74v-3.21zm11.45-1.27-3.43 9.63v.17h1.33l.99-2.79h4.58l.99 2.79h1.32v-.17l-3.42-9.63h-2.37zm.91 1.32h.55l1.58 4.45h-3.71zm7.83 8.48v-7.88h.39l4.82 7.88h2.02v-9.8h-1.29v7.87h-.41l-4.8-7.87h-2.02v9.8zm13.8 0c2.62 0 4.45-1.96 4.45-4.89v-.03c0-2.94-1.83-4.89-4.45-4.89h-4.07v9.8h4.07zm-2.76-8.48h2.62c1.92 0 3.25 1.41 3.25 3.56v.04c0 2.16-1.34 3.57-3.25 3.57h-2.62zm9.08 10.68 1.06-2.32v-1.62h-1.37v1.75h.57l-.92 2.04v.15zm11.54-2.2 1.47-7.73h.32l1.46 7.73h2.34l2.14-9.59v-.21h-1.27l-1.79 8.16h-.52l-1.48-8.16h-2.06l-1.5 8.16h-.5l-1.79-8.16h-1.27v.21l2.14 9.59h2.32zm10.93 0v-4.26h5.73v4.26h1.32v-9.8h-1.32v4.26h-5.73v-4.26h-1.32v9.8zm14.9 0v-1.3h-2.18v-7.21h2.18v-1.29h-5.7v1.29h2.18v7.21h-2.18v1.3zm5.77.2c2.27 0 4.09-1.48 4.47-3.85l-1.37-.04c-.34 1.61-1.57 2.58-3.11 2.58-1.86 0-3.23-1.55-3.23-3.77v-.04c0-2.21 1.37-3.75 3.23-3.75 1.54 0 2.77.95 3.11 2.56l1.37-.04c-.38-2.37-2.2-3.84-4.47-3.84-2.6 0-4.59 2.09-4.59 5.08v.03c0 3 1.99 5.08 4.59 5.08zm7.76-.2v-4.26h5.73v4.26h1.32v-9.8h-1.32v4.26h-5.73v-4.26h-1.32v9.8zm17.05.2c2.38 0 3.75-1.26 3.75-3.01 0-1.46-1.05-2.25-3.01-2.59l-1.16-.21c-1.46-.27-2.02-.55-2.02-1.37 0-.99.98-1.75 2.28-1.75 1.46 0 2.59 1.02 2.59 2.46l1.3-.04c0-2.44-2.04-3.68-3.89-3.68-2.25 0-3.6 1.48-3.6 3.01s1.01 2.24 3.04 2.59l1.16.21c1.41.25 2 .57 2 1.36 0 1.09-1.01 1.76-2.45 1.76-1.54 0-2.69-1.02-2.69-2.53l-1.3.04c0 2.42 1.92 3.75 3.99 3.75zm9.69 0c2.31 0 4.1-1.46 4.1-3.81v-6.19h-1.32v6.19c0 1.5-1.13 2.51-2.79 2.51s-2.8-1.01-2.8-2.51v-6.19h-1.32v6.19c0 2.35 1.79 3.81 4.12 3.81zm7.79-.2v-3.99h3.88c1.89 0 2.81-1.26 2.81-2.84v-.06c0-1.62-.92-2.91-2.81-2.91h-5.19v9.8h1.32zm0-8.51h3.74c1.02 0 1.68.62 1.68 1.68v.06c0 1.01-.66 1.57-1.68 1.57h-3.74v-3.3zm9.76 8.51v-3.99h3.88c1.89 0 2.81-1.26 2.81-2.84v-.06c0-1.62-.92-2.91-2.81-2.91h-5.19v9.8h1.32zm0-8.51h3.74c1.02 0 1.68.62 1.68 1.68v.06c0 1.01-.66 1.57-1.68 1.57h-3.74v-3.3zm12.49 8.71c2.62 0 4.58-2.09 4.59-5.08v-.03c0-3-1.97-5.08-4.59-5.08s-4.59 2.09-4.59 5.08v.03c0 3 1.99 5.08 4.59 5.08zm0-1.32c-1.88 0-3.25-1.55-3.25-3.77v-.04c0-2.21 1.37-3.75 3.25-3.75s3.23 1.54 3.23 3.75v.04c0 2.23-1.37 3.77-3.23 3.77zm7.86 1.12v-4.1h3.4c.76 0 1.37.28 1.51 1.43l.11.97c.1.85.21 1.23.41 1.71h1.36v-.17c-.18-.41-.34-.73-.42-1.54l-.13-1.19c-.08-.81-.46-1.29-1.05-1.57v-.13c1.05-.45 1.5-1.36 1.5-2.39v-.06c0-1.54-.92-2.76-2.81-2.76h-5.19v9.8h1.32zm0-8.53h3.74c1.02 0 1.68.59 1.68 1.62v.03c0 .98-.67 1.55-1.68 1.55h-3.74v-3.21zm12.63 8.53v-8.51h3.47v-1.29h-8.26v1.29h3.46v8.51zm8.22.2c2.38 0 3.75-1.26 3.75-3.01 0-1.46-1.05-2.25-3.01-2.59l-1.16-.21c-1.46-.27-2.02-.55-2.02-1.37 0-.99.98-1.75 2.28-1.75 1.46 0 2.59 1.02 2.59 2.46l1.3-.04c0-2.44-2.04-3.68-3.89-3.68-2.25 0-3.6 1.48-3.6 3.01s1.01 2.24 3.04 2.59l1.16.21c1.41.25 2 .57 2 1.36 0 1.09-1.01 1.76-2.45 1.76-1.54 0-2.69-1.02-2.69-2.53l-1.3.04c0 2.42 1.92 3.75 3.99 3.75zm14.03-.2v-8.51h3.47v-1.29h-8.26v1.29h3.46v8.51zm6.56 0v-4.26h5.73v4.26h1.32v-9.8h-1.32v4.26h-5.73v-4.26h-1.32v9.8zm12.14-9.8-3.43 9.63v.17h1.33l.99-2.79h4.58l.99 2.79h1.32v-.17l-3.42-9.63h-2.37zm.91 1.32h.55l1.58 4.45h-3.71zm9.38 8.48v-8.51h3.47v-1.29h-8.26v1.29h3.46v8.51zm12.83.2c2.38 0 3.75-1.26 3.75-3.01 0-1.46-1.05-2.25-3.01-2.59l-1.16-.21c-1.46-.27-2.02-.55-2.02-1.37 0-.99.98-1.75 2.28-1.75 1.46 0 2.59 1.02 2.59 2.46l1.3-.04c0-2.44-2.04-3.68-3.89-3.68-2.25 0-3.6 1.48-3.6 3.01s1.01 2.24 3.04 2.59l1.16.21c1.41.25 2 .57 2 1.36 0 1.09-1.01 1.76-2.45 1.76-1.54 0-2.69-1.02-2.69-2.53l-1.3.04c0 2.42 1.92 3.75 3.99 3.75zm12.73-.2v-1.3h-5.68v-3h5.04v-1.23h-5.04v-2.98h5.68v-1.29h-7v9.8zm3.49 0v-7.88h.39l4.82 7.88h2.02v-9.8h-1.29v7.87h-.41l-4.8-7.87h-2.02v9.8zm13.79 0v-8.51h3.47v-1.29h-8.26v1.29h3.46v8.51zm10.68 0v-1.3h-2.18v-7.21h2.18v-1.29h-5.7v1.29h2.18v7.21h-2.18v1.3zm3.46 0v-7.59h.38l2.62 5.82h1.39l2.62-5.82h.39v7.59h1.3v-9.8h-2.06l-2.74 6.1h-.42l-2.74-6.1h-2.04v9.8h1.32zm18.22 0v-1.3h-5.68v-3h5.04v-1.23h-5.04v-2.98h5.68v-1.29h-7v9.8zm3.49 0v-7.88h.39l4.82 7.88h2.02v-9.8h-1.29v7.87h-.41l-4.8-7.87h-2.02v9.8zm13.79 0v-8.51h3.47v-1.29h-8.26v1.29h3.46v8.51zm4.02 2.2 1.06-2.32v-1.62h-1.37v1.75h.57l-.92 2.04v.15zm-521.71 18.99c2.27 0 4.09-1.48 4.47-3.85l-1.37-.04c-.34 1.61-1.57 2.58-3.11 2.58-1.86 0-3.23-1.55-3.23-3.77v-.04c0-2.21 1.37-3.75 3.23-3.75 1.54 0 2.77.95 3.11 2.56l1.37-.04c-.38-2.37-2.2-3.84-4.47-3.84-2.6 0-4.59 2.09-4.59 5.08v.03c0 3 1.99 5.08 4.59 5.08zm8.58-10-3.43 9.63v.17h1.33l.99-2.79h4.58l.99 2.79h1.32v-.17l-3.42-9.63h-2.37zm.91 1.32h.55l1.58 4.45h-3.71zm7.83 8.48v-7.88h.39l4.82 7.88h2.02v-9.8h-1.29v7.87h-.41l-4.8-7.87h-2.02v9.8zm19.07 0c1.89 0 2.81-1.18 2.81-2.62v-.06c0-1.01-.48-1.86-1.47-2.27v-.11c.88-.39 1.33-1.19 1.33-2.09v-.06c0-1.37-.91-2.6-2.81-2.6h-5.05v9.8h5.19zm-3.88-8.53h3.6c1.01 0 1.68.57 1.68 1.5v.04c0 .85-.64 1.41-1.64 1.41h-3.64zm0 4.16h3.74c1.02 0 1.68.57 1.68 1.54v.04c0 .95-.66 1.51-1.68 1.51h-3.74zm15.69 4.37v-1.3h-5.68v-3h5.04v-1.23h-5.04v-2.98h5.68v-1.29h-7v9.8zm13.34 0v-1.3h-5.68v-3h5.04v-1.23h-5.04v-2.98h5.68v-1.29h-7v9.8zm3 0 2.72-4.16h.28l2.72 4.16h1.46v-.17l-3.19-4.84 3.08-4.63v-.15h-1.46l-2.6 3.91h-.28l-2.59-3.91h-1.47v.15l3.08 4.63-3.21 4.84v.17h1.47zm10.28 0v-3.99h3.88c1.89 0 2.81-1.26 2.81-2.84v-.06c0-1.62-.92-2.91-2.81-2.91h-5.19v9.8h1.32zm0-8.51h3.74c1.02 0 1.68.62 1.68 1.68v.06c0 1.01-.66 1.57-1.68 1.57h-3.74v-3.3zm15.45 8.51v-1.3h-5.68v-3h5.04v-1.23h-5.04v-2.98h5.68v-1.29h-7v9.8zm3.52 0v-4.1h3.4c.76 0 1.37.28 1.51 1.43l.11.97c.1.85.21 1.23.41 1.71h1.36v-.17c-.18-.41-.34-.73-.42-1.54l-.13-1.19c-.08-.81-.46-1.29-1.05-1.57v-.13c1.05-.45 1.5-1.36 1.5-2.39v-.06c0-1.54-.92-2.76-2.81-2.76h-5.19v9.8h1.32zm0-8.53h3.74c1.02 0 1.68.59 1.68 1.62v.03c0 .98-.67 1.55-1.68 1.55h-3.74v-3.21zm14.12 8.53v-1.3h-2.18v-7.21h2.18v-1.29h-5.7v1.29h2.18v7.21h-2.18v1.3zm9.14 0v-1.3h-5.68v-3h5.04v-1.23h-5.04v-2.98h5.68v-1.29h-7v9.8zm3.49 0v-7.88h.39l4.82 7.88h2.02v-9.8h-1.29v7.87h-.41l-4.8-7.87h-2.02v9.8zm13.78.2c2.27 0 4.09-1.48 4.47-3.85l-1.37-.04c-.34 1.61-1.57 2.58-3.11 2.58-1.86 0-3.23-1.55-3.23-3.77v-.04c0-2.21 1.37-3.75 3.23-3.75 1.54 0 2.77.95 3.11 2.56l1.37-.04c-.38-2.37-2.2-3.84-4.47-3.84-2.6 0-4.59 2.09-4.59 5.08v.03c0 3 1.99 5.08 4.59 5.08zm13.44-.2v-1.3h-5.68v-3h5.04v-1.23h-5.04v-2.98h5.68v-1.29h-7v9.8zm6.27 0c2.62 0 4.45-1.96 4.45-4.89v-.03c0-2.94-1.83-4.89-4.45-4.89h-4.07v9.8h4.07zm-2.76-8.48h2.62c1.92 0 3.25 1.41 3.25 3.56v.04c0 2.16-1.34 3.57-3.25 3.57h-2.62zm15.99-1.32-3.43 9.63v.17h1.33l.99-2.79h4.58l.99 2.79h1.32v-.17l-3.42-9.63h-2.37zm.91 1.32h.55l1.58 4.45h-3.71zm9.38 8.48v-8.51h3.47v-1.29h-8.26v1.29h3.46v8.51zm12.15-9.8-3.43 9.63v.17h1.33l.99-2.79h4.58l.99 2.79h1.32v-.17l-3.42-9.63h-2.37zm.91 1.32h.55l1.58 4.45h-3.71zm12.06 8.48v-7.88h.39l4.82 7.88h2.02v-9.8h-1.29v7.87h-.41l-4.8-7.87h-2.02v9.8zm16.73 0v-1.3h-5.68v-3h5.04v-1.23h-5.04v-2.98h5.68v-1.29h-7v9.8zm4.86-9.8-3.43 9.63v.17h1.33l.99-2.79h4.58l.99 2.79h1.32v-.17l-3.42-9.63h-2.37zm.91 1.32h.55l1.58 4.45h-3.71zm7.86 8.48v-4.1h3.4c.76 0 1.37.28 1.51 1.43l.11.97c.1.85.21 1.23.41 1.71h1.36v-.17c-.18-.41-.34-.73-.42-1.54l-.13-1.19c-.08-.81-.46-1.29-1.05-1.57v-.13c1.05-.45 1.5-1.36 1.5-2.39v-.06c0-1.54-.92-2.76-2.81-2.76h-5.19v9.8h1.32zm0-8.53h3.74c1.02 0 1.68.59 1.68 1.62v.03c0 .98-.67 1.55-1.68 1.55h-3.74v-3.21zm13.98 8.53c1.89 0 2.81-1.18 2.81-2.62v-.06c0-1.01-.48-1.86-1.47-2.27v-.11c.88-.39 1.33-1.19 1.33-2.09v-.06c0-1.37-.91-2.6-2.81-2.6h-5.05v9.8h5.19zm-3.88-8.53h3.6c1.01 0 1.68.57 1.68 1.5v.04c0 .85-.64 1.41-1.64 1.41h-3.64zm0 4.16h3.74c1.02 0 1.68.57 1.68 1.54v.04c0 .95-.66 1.51-1.68 1.51h-3.74zm12.66 4.37v-3.72l3.77-5.87v-.21h-1.43l-2.87 4.52h-.28l-2.86-4.52h-1.44v.21l3.78 5.87v3.72zm10.94 0v-4.26h5.73v4.26h1.32v-9.8h-1.32v4.26h-5.73v-4.26h-1.32v9.8zm12.14-9.8-3.43 9.63v.17h1.33l.99-2.79h4.58l.99 2.79h1.32v-.17l-3.42-9.63h-2.37zm.91 1.32h.55l1.58 4.45h-3.71zm11.87 8.48v-1.3h-2.18v-7.21h2.18v-1.29h-5.7v1.29h2.18v7.21h-2.18v1.3zm3.46 0v-4.1h3.4c.76 0 1.37.28 1.51 1.43l.11.97c.1.85.21 1.23.41 1.71h1.36v-.17c-.18-.41-.34-.73-.42-1.54l-.13-1.19c-.08-.81-.46-1.29-1.05-1.57v-.13c1.05-.45 1.5-1.36 1.5-2.39v-.06c0-1.54-.92-2.76-2.81-2.76h-5.19v9.8h1.32zm0-8.53h3.74c1.02 0 1.68.59 1.68 1.62v.03c0 .98-.67 1.55-1.68 1.55h-3.74v-3.21zm12.86 8.53c2.62 0 4.45-1.96 4.45-4.89v-.03c0-2.94-1.83-4.89-4.45-4.89h-4.07v9.8h4.07zm-2.76-8.48h2.62c1.92 0 3.25 1.41 3.25 3.56v.04c0 2.16-1.34 3.57-3.25 3.57h-2.62zm10.5 8.48v-4.1h3.4c.76 0 1.37.28 1.51 1.43l.11.97c.1.85.21 1.23.41 1.71h1.36v-.17c-.18-.41-.34-.73-.42-1.54l-.13-1.19c-.08-.81-.46-1.29-1.05-1.57v-.13c1.05-.45 1.5-1.36 1.5-2.39v-.06c0-1.54-.92-2.76-2.81-2.76h-5.19v9.8h1.32zm0-8.53h3.74c1.02 0 1.68.59 1.68 1.62v.03c0 .98-.67 1.55-1.68 1.55h-3.74v-3.21zm15.79 8.53v-1.3h-5.68v-3h5.04v-1.23h-5.04v-2.98h5.68v-1.29h-7v9.8zm5.48.2c2.38 0 3.75-1.26 3.75-3.01 0-1.46-1.05-2.25-3.01-2.59l-1.16-.21c-1.46-.27-2.02-.55-2.02-1.37 0-.99.98-1.75 2.28-1.75 1.46 0 2.59 1.02 2.59 2.46l1.3-.04c0-2.44-2.04-3.68-3.89-3.68-2.25 0-3.6 1.48-3.6 3.01s1.01 2.24 3.04 2.59l1.16.21c1.41.25 2 .57 2 1.36 0 1.09-1.01 1.76-2.45 1.76-1.54 0-2.69-1.02-2.69-2.53l-1.3.04c0 2.42 1.92 3.75 3.99 3.75zm9.27 0c2.38 0 3.75-1.26 3.75-3.01 0-1.46-1.05-2.25-3.01-2.59l-1.16-.21c-1.46-.27-2.02-.55-2.02-1.37 0-.99.98-1.75 2.28-1.75 1.46 0 2.59 1.02 2.59 2.46l1.3-.04c0-2.44-2.04-3.68-3.89-3.68-2.25 0-3.6 1.48-3.6 3.01s1.01 2.24 3.04 2.59l1.16.21c1.41.25 2 .57 2 1.36 0 1.09-1.01 1.76-2.45 1.76-1.54 0-2.69-1.02-2.69-2.53l-1.3.04c0 2.42 1.92 3.75 3.99 3.75zm10.86-.2v-1.3h-2.18v-7.21h2.18v-1.29h-5.7v1.29h2.18v7.21h-2.18v1.3zm3.43 0v-7.88h.39l4.82 7.88h2.02v-9.8h-1.29v7.87h-.41l-4.8-7.87h-2.02v9.8zm18.2 0v-5.29h-4.56v1.23h3.29v2.77h-3.14c-1.88 0-3.26-1.51-3.26-3.64v-.03c0-2.2 1.39-3.75 3.25-3.75 1.41 0 2.56.84 2.97 2.21l1.46-.03c-.53-2.17-2.24-3.47-4.42-3.47-2.6 0-4.59 2.06-4.59 5.03v.03c0 2.91 1.95 4.94 4.51 4.94h4.51zm9.75.2c2.38 0 3.75-1.26 3.75-3.01 0-1.46-1.05-2.25-3.01-2.59l-1.16-.21c-1.46-.27-2.02-.55-2.02-1.37 0-.99.98-1.75 2.28-1.75 1.46 0 2.59 1.02 2.59 2.46l1.3-.04c0-2.44-2.04-3.68-3.89-3.68-2.25 0-3.6 1.48-3.6 3.01s1.01 2.24 3.04 2.59l1.16.21c1.41.25 2 .57 2 1.36 0 1.09-1.01 1.76-2.45 1.76-1.54 0-2.69-1.02-2.69-2.53l-1.3.04c0 2.42 1.92 3.75 3.99 3.75zm8.2-10-3.43 9.63v.17h1.33l.99-2.79h4.58l.99 2.79h1.32v-.17l-3.42-9.63h-2.37zm.91 1.32h.55l1.58 4.45h-3.71zm13.41 8.48v-1.3h-5.54v-8.5h-1.32v9.8zm5.27.2c2.62 0 4.58-2.09 4.59-5.08v-.03c0-3-1.97-5.08-4.59-5.08s-4.59 2.09-4.59 5.08v.03c0 3 1.99 5.08 4.59 5.08zm0-1.32c-1.88 0-3.25-1.55-3.25-3.77v-.04c0-2.21 1.37-3.75 3.25-3.75s3.23 1.54 3.23 3.75v.04c0 2.23-1.37 3.77-3.23 3.77zm7.84 1.12v-7.88h.39l4.82 7.88h2.02v-9.8h-1.29v7.87h-.41l-4.8-7.87h-2.02v9.8zm11.08 0v-1.75h-1.37v1.75z" fill="#fff"/></svg>