<svg viewBox="0 0 101.92 18.82" xmlns="http://www.w3.org/2000/svg"><path d="m8.57 18.82v-1.68h-8.57v1.68zm8.25-1.68v-14.6h5.95v-2.2h-14.16v2.21h5.93v14.59zm14.88.34c4.49 0 7.85-3.58 7.87-8.71v-.05c0-5.14-3.38-8.71-7.87-8.71s-7.87 3.58-7.87 8.71v.05c0 5.14 3.41 8.71 7.87 8.71zm0-2.26c-3.22 0-5.57-2.66-5.57-6.46v-.07c0-3.79 2.35-6.43 5.57-6.43s5.54 2.64 5.54 6.43v.07c0 3.82-2.35 6.46-5.54 6.46zm13.48 1.92v-6.84h6.65c3.24 0 4.82-2.16 4.82-4.87v-.1c0-2.78-1.58-4.99-4.82-4.99h-8.9v16.8h2.26zm0-14.59h6.41c1.75 0 2.88 1.06 2.88 2.88v.1c0 1.73-1.13 2.69-2.88 2.69h-6.41v-5.68zm23.46 14.59v-2.23h-3.74v-12.37h3.74v-2.2h-9.77v2.21h3.74v12.36h-3.74v2.23zm9.88.34c3.89 0 7.01-2.54 7.66-6.6l-2.35-.07c-.58 2.76-2.69 4.42-5.33 4.42-3.19 0-5.54-2.66-5.54-6.46v-.07c0-3.79 2.35-6.43 5.54-6.43 2.64 0 4.75 1.63 5.33 4.39l2.35-.07c-.65-4.06-3.77-6.58-7.66-6.58-4.46 0-7.87 3.58-7.87 8.71v.05c0 5.14 3.41 8.71 7.87 8.71zm16.96 0c4.08 0 6.43-2.16 6.43-5.16 0-2.5-1.8-3.86-5.16-4.44l-1.99-.36c-2.5-.46-3.46-.94-3.46-2.35 0-1.7 1.68-3 3.91-3 2.5 0 4.44 1.75 4.44 4.22l2.23-.07c0-4.18-3.5-6.31-6.67-6.31-3.86 0-6.17 2.54-6.17 5.16s1.73 3.84 5.21 4.44l1.99.36c2.42.43 3.43.98 3.43 2.33 0 1.87-1.73 3.02-4.2 3.02-2.64 0-4.61-1.75-4.61-4.34l-2.23.07c0 4.15 3.29 6.43 6.84 6.43z"/></svg>